<svg width="35" height="35" viewBox="0 0 35 35" fill="none" xmlns="http://www.w3.org/2000/svg">
<path d="M18.8125 15.3125C17.9375 15.0938 17.0625 14.6562 16.4062 14C15.75 13.7812 15.5313 13.125 15.5313 12.6875C15.5313 12.25 15.75 11.5938 16.1875 11.375C16.8438 10.9375 17.5 10.5 18.1562 10.7188C19.4688 10.7188 20.5625 11.375 21.2188 12.25L23.1875 9.625C22.5312 8.96875 21.875 8.53125 21.2188 8.09375C20.5625 7.65625 19.6875 7.4375 18.8125 7.4375V4.375H16.1875V7.4375C15.0938 7.65625 14 8.3125 13.125 9.1875C12.25 10.2812 11.5938 11.5938 11.8125 12.9062C11.8125 14.2188 12.25 15.5312 13.125 16.4062C14.2188 17.5 15.75 18.1562 17.0625 18.8125C17.7188 19.0312 18.5938 19.4688 19.25 19.9062C19.6875 20.3438 19.9062 21 19.9062 21.6562C19.9062 22.3125 19.6875 22.9688 19.25 23.625C18.5938 24.2812 17.7188 24.5 17.0625 24.5C16.1875 24.5 15.0938 24.2812 14.4375 23.625C13.7813 23.1875 13.125 22.5312 12.6875 21.875L10.5 24.2812C11.1562 25.1562 11.8125 25.8125 12.6875 26.4688C13.7812 27.125 15.0938 27.7812 16.4062 27.7812V30.625H18.8125V27.3438C20.125 27.125 21.2188 26.4688 22.0938 25.5938C23.1875 24.5 23.8438 22.75 23.8438 21.2188C23.8438 19.9062 23.4062 18.375 22.3125 17.5C21.2188 16.4062 20.125 15.75 18.8125 15.3125ZM17.5 0C7.875 0 0 7.875 0 17.5C0 27.125 7.875 35 17.5 35C27.125 35 35 27.125 35 17.5C35 7.875 27.125 0 17.5 0ZM17.5 32.5938C9.1875 32.5938 2.40625 25.8125 2.40625 17.5C2.40625 9.1875 9.1875 2.40625 17.5 2.40625C25.8125 2.40625 32.5938 9.1875 32.5938 17.5C32.5938 25.8125 25.8125 32.5938 17.5 32.5938Z" fill="#0000FF"/>
</svg>
