<svg width="35" height="35" viewBox="0 0 35 35" fill="none" xmlns="http://www.w3.org/2000/svg">
<path d="M15.0694 5.34722C15.0694 3.92905 14.5061 2.56896 13.5033 1.56616C12.5005 0.563366 11.1404 0 9.72222 0C8.30405 0 6.94396 0.563366 5.94116 1.56616C4.93837 2.56896 4.375 3.92905 4.375 5.34722C4.375 6.76539 4.93837 8.12548 5.94116 9.12828C6.94396 10.1311 8.30405 10.6944 9.72222 10.6944C11.1404 10.6944 12.5005 10.1311 13.5033 9.12828C14.5061 8.12548 15.0694 6.76539 15.0694 5.34722ZM6.31944 5.34722C6.31944 4.90036 6.40746 4.45788 6.57846 4.04503C6.74947 3.63219 7.00012 3.25707 7.31609 2.94109C7.63207 2.62512 8.00719 2.37447 8.42003 2.20346C8.83288 2.03246 9.27536 1.94444 9.72222 1.94444C10.1691 1.94444 10.6116 2.03246 11.0244 2.20346C11.4373 2.37447 11.8124 2.62512 12.1283 2.94109C12.4443 3.25707 12.695 3.63219 12.866 4.04503C13.037 4.45788 13.125 4.90036 13.125 5.34722C13.125 6.24969 12.7665 7.1152 12.1283 7.75335C11.4902 8.39149 10.6247 8.75 9.72222 8.75C8.81975 8.75 7.95424 8.39149 7.31609 7.75335C6.67795 7.1152 6.31944 6.24969 6.31944 5.34722Z" fill="#0000FF"/>
<path d="M2.91667 12.6389H11.0503C10.7314 13.2417 10.4942 13.895 10.3542 14.5834H2.91667C2.65882 14.5834 2.41153 14.6858 2.2292 14.8681C2.04687 15.0504 1.94444 15.2977 1.94444 15.5556V16.5278C1.94444 18.9778 4.08139 21.6106 7.96444 22.225C7.33833 22.6528 6.81722 23.2225 6.44583 23.8856C2.34306 22.7753 0 19.6136 0 16.5278V15.5556C0 14.782 0.307291 14.0402 0.854272 13.4932C1.40125 12.9462 2.14312 12.6389 2.91667 12.6389Z" fill="#0000FF"/>
<path d="M13.3747 12.6389C14.3547 11.4528 15.8383 10.6945 17.4989 10.6945C18.6633 10.6924 19.7965 11.0714 20.7254 11.7736C21.6544 12.4757 22.3281 13.4625 22.6439 14.5834C22.9253 15.5838 22.9094 16.6445 22.5982 17.636C22.287 18.6276 21.6939 19.5071 20.8913 20.1672C20.0886 20.8274 19.1112 21.2397 18.0782 21.3537C17.0453 21.4677 16.0015 21.2786 15.0741 20.8095C14.3602 20.4461 13.737 19.9269 13.2506 19.2903C12.7642 18.6538 12.4271 17.916 12.2641 17.1317C12.1012 16.3473 12.1165 15.5363 12.3091 14.7587C12.5017 13.981 12.8665 13.2566 13.3766 12.6389H13.3747ZM14.4247 14.5834C14.2332 14.9873 14.1231 15.425 14.1008 15.8715C14.0784 16.318 14.1443 16.7646 14.2945 17.1856C14.4447 17.6067 14.6764 17.994 14.9763 18.3256C15.2762 18.6571 15.6385 18.9263 16.0425 19.1178C16.4464 19.3093 16.8842 19.4194 17.3307 19.4417C17.7772 19.4641 18.2237 19.3982 18.6448 19.248C19.0658 19.0978 19.4532 18.8661 19.7847 18.5662C20.1162 18.2663 20.3854 17.904 20.5769 17.5C20.9637 16.6839 21.0104 15.7476 20.7069 14.8971C20.4033 14.0465 19.7743 13.3514 18.9582 12.9646C18.1421 12.5778 17.2058 12.5311 16.3552 12.8347C15.5047 13.1382 14.8095 13.7673 14.4228 14.5834H14.4247Z" fill="#0000FF"/>
<path d="M28.5546 23.8856C28.1843 23.2222 27.6643 22.6543 27.036 22.227C30.9171 21.6106 33.056 18.9759 33.056 16.5278V15.5556C33.056 15.2977 32.9536 15.0504 32.7713 14.8681C32.589 14.6858 32.3417 14.5834 32.0838 14.5834H24.6463C24.5089 13.9054 24.2752 13.2506 23.9521 12.6389H32.0838C32.8574 12.6389 33.5992 12.9462 34.1462 13.4932C34.6932 14.0402 35.0005 14.782 35.0005 15.5556V16.5278C35.0005 19.6136 32.6555 22.7734 28.5546 23.8856Z" fill="#0000FF"/>
<path d="M26.2243 24.0528C25.711 23.6056 25.0401 23.3334 24.3051 23.3334H10.694C10.3107 23.3324 9.93098 23.4071 9.57665 23.5533C9.22232 23.6995 8.90038 23.9143 8.62934 24.1854C8.3583 24.4564 8.14349 24.7783 7.99728 25.1327C7.85107 25.487 7.77633 25.8667 7.77735 26.2501V27.2223C7.77735 31.0548 11.394 35 17.4996 35C23.6051 35 27.2218 31.0548 27.2218 27.2223V26.2501C27.2218 25.3751 26.8368 24.5895 26.2243 24.0528ZM9.7218 26.2501C9.7218 25.9922 9.82423 25.7449 10.0066 25.5626C10.1889 25.3803 10.4362 25.2778 10.694 25.2778H24.3051C24.563 25.2778 24.8103 25.3803 24.9926 25.5626C25.1749 25.7449 25.2773 25.9922 25.2773 26.2501V27.2223C25.2773 30.0184 22.4929 33.0556 17.4996 33.0556C12.5062 33.0556 9.7218 30.0184 9.7218 27.2223V26.2501Z" fill="#0000FF"/>
<path d="M25.2779 0C26.6961 0 28.0561 0.563366 29.0589 1.56616C30.0617 2.56896 30.6251 3.92905 30.6251 5.34722C30.6251 6.76539 30.0617 8.12548 29.0589 9.12828C28.0561 10.1311 26.6961 10.6944 25.2779 10.6944C23.8597 10.6944 22.4996 10.1311 21.4968 9.12828C20.494 8.12548 19.9307 6.76539 19.9307 5.34722C19.9307 3.92905 20.494 2.56896 21.4968 1.56616C22.4996 0.563366 23.8597 0 25.2779 0ZM25.2779 1.94444C24.3754 1.94444 23.5099 2.30295 22.8718 2.94109C22.2336 3.57924 21.8751 4.44475 21.8751 5.34722C21.8751 6.24969 22.2336 7.1152 22.8718 7.75335C23.5099 8.39149 24.3754 8.75 25.2779 8.75C26.1804 8.75 27.0459 8.39149 27.684 7.75335C28.3222 7.1152 28.6807 6.24969 28.6807 5.34722C28.6807 4.44475 28.3222 3.57924 27.684 2.94109C27.0459 2.30295 26.1804 1.94444 25.2779 1.94444Z" fill="#0000FF"/>
</svg>
