<svg width="31" height="35" viewBox="0 0 31 35" fill="none" xmlns="http://www.w3.org/2000/svg">
<path d="M29.0625 0H25.1875C24.6736 0 24.1808 0.204952 23.8175 0.569768C23.4541 0.934584 23.25 1.42938 23.25 1.94531V35H31V1.94531C31 1.42938 30.7959 0.934584 30.4325 0.569768C30.0692 0.204952 29.5764 0 29.0625 0ZM17.4375 11.6719H13.5625C13.0486 11.6719 12.5558 11.8768 12.1925 12.2416C11.8291 12.6064 11.625 13.1012 11.625 13.6172V35H19.375V13.6172C19.375 13.1012 19.1709 12.6064 18.8075 12.2416C18.4442 11.8768 17.9514 11.6719 17.4375 11.6719ZM5.8125 23.3437H1.9375C1.42364 23.3437 0.930832 23.5487 0.567481 23.9135C0.204129 24.2783 0 24.7731 0 25.289V35H7.75V25.289C7.75 24.7731 7.54587 24.2783 7.18252 23.9135C6.81917 23.5487 6.32636 23.3437 5.8125 23.3437Z" fill="#0000FF"/>
</svg>
