<svg width="510" height="350" viewBox="0 0 510 350" fill="none" xmlns="http://www.w3.org/2000/svg">
<rect x="0.5" y="0.5" width="509" height="349" stroke="#2667FF"/>
<rect x="254" y="205" width="38" height="5" fill="#0000FF"/>
<path d="M125 175C125 155.67 140.67 140 160 140H254V210H160C140.67 210 125 194.33 125 175Z" fill="#0000FF"/>
<rect x="130" y="145" width="250" height="60" rx="30" fill="#2667FF"/>
<path d="M164.84 183.2C168.08 183.2 170.24 181.06 170.24 177.86V169.28H168.44V177.86C168.44 180.1 167 181.6 164.84 181.6C162.66 181.6 161.2 180.1 161.2 177.86V169.28H159.4V177.86C159.4 181.06 161.58 183.2 164.84 183.2ZM172.833 186.72H174.433V181.3C175.213 182.44 176.673 183.2 178.093 183.2C181.053 183.2 183.033 181.12 183.033 178C183.033 174.88 181.053 172.8 178.093 172.8C176.673 172.8 175.213 173.56 174.433 174.7V173H172.833V186.72ZM177.933 181.8C175.833 181.8 174.433 180.28 174.433 178C174.433 175.72 175.833 174.2 177.933 174.2C180.033 174.2 181.433 175.72 181.433 178C181.433 180.28 180.033 181.8 177.933 181.8ZM184.766 183H186.366V169.28H184.766V183ZM193.31 183.2C196.31 183.2 198.33 181.12 198.33 178C198.33 174.88 196.31 172.8 193.31 172.8C190.31 172.8 188.29 174.88 188.29 178C188.29 181.12 190.31 183.2 193.31 183.2ZM193.31 181.8C191.27 181.8 189.89 180.28 189.89 178C189.89 175.72 191.27 174.2 193.31 174.2C195.35 174.2 196.73 175.72 196.73 178C196.73 180.28 195.35 181.8 193.31 181.8ZM204.655 183.2C205.995 183.2 207.435 182.44 208.215 181.32V183H209.815V173H208.215V174.68C207.435 173.56 205.995 172.8 204.655 172.8C201.735 172.8 199.775 174.88 199.775 178C199.775 181.12 201.735 183.2 204.655 183.2ZM204.815 181.8C202.755 181.8 201.375 180.28 201.375 178C201.375 175.72 202.755 174.2 204.815 174.2C206.855 174.2 208.215 175.72 208.215 178C208.215 180.28 206.855 181.8 204.815 181.8ZM216.493 183.2C217.893 183.2 219.353 182.44 220.133 181.3V183H221.733V169.28H220.133V174.7C219.353 173.56 217.893 172.8 216.493 172.8C213.533 172.8 211.533 174.88 211.533 178C211.533 181.12 213.533 183.2 216.493 183.2ZM216.653 181.8C214.553 181.8 213.133 180.28 213.133 178C213.133 175.72 214.553 174.2 216.653 174.2C218.733 174.2 220.133 175.72 220.133 178C220.133 180.28 218.733 181.8 216.653 181.8ZM224.532 171.48H226.132V169.28H224.532V171.48ZM224.532 183H226.132V173H224.532V183ZM228.536 183H230.136V177.08C230.136 175.36 231.276 174.2 232.976 174.2C234.676 174.2 235.816 175.36 235.816 177.08V183H237.416V176.8C237.416 174.4 235.756 172.8 233.256 172.8C232.096 172.8 230.836 173.4 230.136 174.28V173H228.536V183ZM247.194 173V174.6C246.454 173.52 245.074 172.8 243.734 172.8C240.874 172.8 238.954 174.84 238.954 177.9C238.954 180.96 240.874 183 243.734 183C245.074 183 246.474 182.28 247.194 181.22V181.92C247.194 184.08 245.854 185.52 243.874 185.52C242.254 185.52 240.974 184.5 240.674 183H239.174C239.574 185.34 241.454 186.92 243.874 186.92C246.814 186.92 248.794 184.92 248.794 181.92V173H247.194ZM243.894 181.6C241.894 181.6 240.554 180.12 240.554 177.9C240.554 175.68 241.894 174.2 243.894 174.2C245.874 174.2 247.194 175.68 247.194 177.9C247.194 180.12 245.874 181.6 243.894 181.6ZM260.358 183.2C261.698 183.2 263.138 182.44 263.918 181.32V183H265.518V173H263.918V174.68C263.138 173.56 261.698 172.8 260.358 172.8C257.438 172.8 255.478 174.88 255.478 178C255.478 181.12 257.438 183.2 260.358 183.2ZM260.518 181.8C258.458 181.8 257.078 180.28 257.078 178C257.078 175.72 258.458 174.2 260.518 174.2C262.558 174.2 263.918 175.72 263.918 178C263.918 180.28 262.558 181.8 260.518 181.8ZM267.911 183H269.511V177.08C269.511 175.36 270.651 174.2 272.351 174.2C274.051 174.2 275.191 175.36 275.191 177.08V183H276.791V176.8C276.791 174.4 275.131 172.8 272.631 172.8C271.471 172.8 270.211 173.4 269.511 174.28V173H267.911V183ZM279.2 171.48H280.8V169.28H279.2V171.48ZM279.2 183H280.8V173H279.2V183ZM283.204 183H284.804V176.26C284.804 175.02 285.704 174.2 287.024 174.2C288.344 174.2 289.244 175.02 289.244 176.26V183H290.844V176.26C290.844 175.02 291.744 174.2 293.064 174.2C294.384 174.2 295.284 175.02 295.284 176.26V183H296.884V176.1C296.884 174.12 295.424 172.8 293.224 172.8C292.044 172.8 290.844 173.42 290.204 174.32C289.564 173.42 288.424 172.8 287.364 172.8C286.384 172.8 285.364 173.32 284.804 174.12V173H283.204V183ZM303.678 183.2C305.018 183.2 306.458 182.44 307.238 181.32V183H308.838V173H307.238V174.68C306.458 173.56 305.018 172.8 303.678 172.8C300.758 172.8 298.798 174.88 298.798 178C298.798 181.12 300.758 183.2 303.678 183.2ZM303.838 181.8C301.778 181.8 300.398 180.28 300.398 178C300.398 175.72 301.778 174.2 303.838 174.2C305.878 174.2 307.238 175.72 307.238 178C307.238 180.28 305.878 181.8 303.838 181.8ZM311.231 183H312.831V169.28H311.231V183ZM318.92 183.2C321.5 183.2 323.22 181.96 323.22 180.12C323.22 178.46 322.18 177.66 319.16 177.04C317.42 176.62 316.8 176.24 316.8 175.56C316.8 174.74 317.66 174.2 318.92 174.2C320.08 174.2 321.06 174.8 321.36 175.7L322.82 175.34C322.28 173.82 320.72 172.8 318.92 172.8C316.7 172.8 315.2 173.96 315.2 175.68C315.2 177.16 316.14 177.88 318.82 178.48C320.92 178.96 321.64 179.4 321.64 180.2C321.64 181.16 320.54 181.8 318.92 181.8C317.24 181.8 316.1 180.92 316.06 179.6H314.56C314.6 181.76 316.36 183.2 318.92 183.2ZM324.532 183H326.732V180.8H324.532V183ZM331.93 183.2C332.41 183.2 333.07 183.12 333.57 183V181.8H331.83C331.07 181.8 330.55 181.26 330.55 180.44V174.4H333.47V173H330.55V169.28H328.95V173H327.35V174.4H328.95V180.44C328.95 182.1 330.15 183.2 331.93 183.2ZM334.652 183H336.612L339.432 179.02L342.232 183H344.192L340.352 177.74L343.812 173H341.872L339.432 176.46L336.972 173H335.012L338.512 177.74L334.652 183ZM348.864 183.2C349.344 183.2 350.004 183.12 350.504 183V181.8H348.764C348.004 181.8 347.484 181.26 347.484 180.44V174.4H350.404V173H347.484V169.28H345.884V173H344.284V174.4H345.884V180.44C345.884 182.1 347.084 183.2 348.864 183.2Z" fill="white"/>
</svg>
