<svg width="510" height="350" viewBox="0 0 510 350" fill="none" xmlns="http://www.w3.org/2000/svg">
<rect x="0.5" y="0.5" width="509" height="349" stroke="#2667FF"/>
<rect x="130" y="145" width="250" height="60" rx="30" fill="#2667FF"/>
<path d="M217 183V167" stroke="white" stroke-width="2" stroke-linecap="round" stroke-linejoin="round"/>
<path d="M210 174L217 167L224 174" stroke="white" stroke-width="2" stroke-linecap="round" stroke-linejoin="round"/>
<path d="M240.84 183.2C244.08 183.2 246.24 181.06 246.24 177.86V169.28H244.44V177.86C244.44 180.1 243 181.6 240.84 181.6C238.66 181.6 237.2 180.1 237.2 177.86V169.28H235.4V177.86C235.4 181.06 237.58 183.2 240.84 183.2ZM248.833 186.72H250.433V181.3C251.213 182.44 252.673 183.2 254.093 183.2C257.053 183.2 259.033 181.12 259.033 178C259.033 174.88 257.053 172.8 254.093 172.8C252.673 172.8 251.213 173.56 250.433 174.7V173H248.833V186.72ZM253.933 181.8C251.833 181.8 250.433 180.28 250.433 178C250.433 175.72 251.833 174.2 253.933 174.2C256.033 174.2 257.433 175.72 257.433 178C257.433 180.28 256.033 181.8 253.933 181.8ZM260.766 183H262.366V169.28H260.766V183ZM269.31 183.2C272.31 183.2 274.33 181.12 274.33 178C274.33 174.88 272.31 172.8 269.31 172.8C266.31 172.8 264.29 174.88 264.29 178C264.29 181.12 266.31 183.2 269.31 183.2ZM269.31 181.8C267.27 181.8 265.89 180.28 265.89 178C265.89 175.72 267.27 174.2 269.31 174.2C271.35 174.2 272.73 175.72 272.73 178C272.73 180.28 271.35 181.8 269.31 181.8ZM280.655 183.2C281.995 183.2 283.435 182.44 284.215 181.32V183H285.815V173H284.215V174.68C283.435 173.56 281.995 172.8 280.655 172.8C277.735 172.8 275.775 174.88 275.775 178C275.775 181.12 277.735 183.2 280.655 183.2ZM280.815 181.8C278.755 181.8 277.375 180.28 277.375 178C277.375 175.72 278.755 174.2 280.815 174.2C282.855 174.2 284.215 175.72 284.215 178C284.215 180.28 282.855 181.8 280.815 181.8ZM292.493 183.2C293.893 183.2 295.353 182.44 296.133 181.3V183H297.733V169.28H296.133V174.7C295.353 173.56 293.893 172.8 292.493 172.8C289.533 172.8 287.533 174.88 287.533 178C287.533 181.12 289.533 183.2 292.493 183.2ZM292.653 181.8C290.553 181.8 289.133 180.28 289.133 178C289.133 175.72 290.553 174.2 292.653 174.2C294.733 174.2 296.133 175.72 296.133 178C296.133 180.28 294.733 181.8 292.653 181.8Z" fill="white"/>
</svg>
