<svg width="510" height="350" viewBox="0 0 510 350" fill="none" xmlns="http://www.w3.org/2000/svg">
<rect x="0.5" y="0.5" width="509" height="349" stroke="#2667FF"/>
<rect x="130" y="145" width="250" height="60" rx="30" fill="#2667FF"/>
<path d="M199.84 183.2C203.08 183.2 205.24 181.06 205.24 177.86V169.28H203.44V177.86C203.44 180.1 202 181.6 199.84 181.6C197.66 181.6 196.2 180.1 196.2 177.86V169.28H194.4V177.86C194.4 181.06 196.58 183.2 199.84 183.2ZM207.833 186.72H209.433V181.3C210.213 182.44 211.673 183.2 213.093 183.2C216.053 183.2 218.033 181.12 218.033 178C218.033 174.88 216.053 172.8 213.093 172.8C211.673 172.8 210.213 173.56 209.433 174.7V173H207.833V186.72ZM212.933 181.8C210.833 181.8 209.433 180.28 209.433 178C209.433 175.72 210.833 174.2 212.933 174.2C215.033 174.2 216.433 175.72 216.433 178C216.433 180.28 215.033 181.8 212.933 181.8ZM219.766 183H221.366V169.28H219.766V183ZM228.31 183.2C231.31 183.2 233.33 181.12 233.33 178C233.33 174.88 231.31 172.8 228.31 172.8C225.31 172.8 223.29 174.88 223.29 178C223.29 181.12 225.31 183.2 228.31 183.2ZM228.31 181.8C226.27 181.8 224.89 180.28 224.89 178C224.89 175.72 226.27 174.2 228.31 174.2C230.35 174.2 231.73 175.72 231.73 178C231.73 180.28 230.35 181.8 228.31 181.8ZM239.655 183.2C240.995 183.2 242.435 182.44 243.215 181.32V183H244.815V173H243.215V174.68C242.435 173.56 240.995 172.8 239.655 172.8C236.735 172.8 234.775 174.88 234.775 178C234.775 181.12 236.735 183.2 239.655 183.2ZM239.815 181.8C237.755 181.8 236.375 180.28 236.375 178C236.375 175.72 237.755 174.2 239.815 174.2C241.855 174.2 243.215 175.72 243.215 178C243.215 180.28 241.855 181.8 239.815 181.8ZM251.493 183.2C252.893 183.2 254.353 182.44 255.133 181.3V183H256.733V169.28H255.133V174.7C254.353 173.56 252.893 172.8 251.493 172.8C248.533 172.8 246.533 174.88 246.533 178C246.533 181.12 248.533 183.2 251.493 183.2ZM251.653 181.8C249.553 181.8 248.133 180.28 248.133 178C248.133 175.72 249.553 174.2 251.653 174.2C253.733 174.2 255.133 175.72 255.133 178C255.133 180.28 253.733 181.8 251.653 181.8ZM269.736 183.2C272.976 183.2 275.596 180.96 276.256 177.62H274.516C273.996 180 272.076 181.6 269.736 181.6C266.796 181.6 264.836 179.4 264.836 176.14C264.836 172.88 266.796 170.68 269.736 170.68C271.936 170.68 273.816 172.14 274.436 174.34H276.196C275.476 171.2 272.876 169.08 269.736 169.08C265.716 169.08 263.036 171.92 263.036 176.14C263.036 180.36 265.716 183.2 269.736 183.2ZM282.724 183.2C285.724 183.2 287.744 181.12 287.744 178C287.744 174.88 285.724 172.8 282.724 172.8C279.724 172.8 277.704 174.88 277.704 178C277.704 181.12 279.724 183.2 282.724 183.2ZM282.724 181.8C280.684 181.8 279.304 180.28 279.304 178C279.304 175.72 280.684 174.2 282.724 174.2C284.764 174.2 286.144 175.72 286.144 178C286.144 180.28 284.764 181.8 282.724 181.8ZM289.473 183H291.073V176.26C291.073 175.02 291.973 174.2 293.293 174.2C294.613 174.2 295.513 175.02 295.513 176.26V183H297.113V176.26C297.113 175.02 298.013 174.2 299.333 174.2C300.653 174.2 301.553 175.02 301.553 176.26V183H303.153V176.1C303.153 174.12 301.693 172.8 299.493 172.8C298.313 172.8 297.113 173.42 296.473 174.32C295.833 173.42 294.693 172.8 293.633 172.8C292.653 172.8 291.633 173.32 291.073 174.12V173H289.473V183ZM305.548 186.72H307.148V181.3C307.928 182.44 309.388 183.2 310.808 183.2C313.768 183.2 315.748 181.12 315.748 178C315.748 174.88 313.768 172.8 310.808 172.8C309.388 172.8 307.928 173.56 307.148 174.7V173H305.548V186.72ZM310.648 181.8C308.548 181.8 307.148 180.28 307.148 178C307.148 175.72 308.548 174.2 310.648 174.2C312.748 174.2 314.148 175.72 314.148 178C314.148 180.28 312.748 181.8 310.648 181.8ZM317.481 183H319.081V169.28H317.481V183ZM326.025 183.2C328.265 183.2 330.185 181.76 330.825 179.6H329.225C328.785 180.92 327.505 181.8 326.025 181.8C324.065 181.8 322.705 180.4 322.625 178.32H330.885L331.045 178.16C331.045 174.96 329.025 172.8 326.025 172.8C323.025 172.8 321.005 174.88 321.005 178C321.005 181.12 323.025 183.2 326.025 183.2ZM322.705 176.92C323.065 175.3 324.405 174.2 326.025 174.2C327.645 174.2 328.985 175.3 329.345 176.92H322.705ZM336.149 183.2C336.629 183.2 337.289 183.12 337.789 183V181.8H336.049C335.289 181.8 334.769 181.26 334.769 180.44V174.4H337.689V173H334.769V169.28H333.169V173H331.569V174.4H333.169V180.44C333.169 182.1 334.369 183.2 336.149 183.2ZM343.74 183.2C345.98 183.2 347.9 181.76 348.54 179.6H346.94C346.5 180.92 345.22 181.8 343.74 181.8C341.78 181.8 340.42 180.4 340.34 178.32H348.6L348.76 178.16C348.76 174.96 346.74 172.8 343.74 172.8C340.74 172.8 338.72 174.88 338.72 178C338.72 181.12 340.74 183.2 343.74 183.2ZM340.42 176.92C340.78 175.3 342.12 174.2 343.74 174.2C345.36 174.2 346.7 175.3 347.06 176.92H340.42Z" fill="white"/>
<path fill-rule="evenodd" clip-rule="evenodd" d="M183 168.141L168.309 183L160 174.597L161.128 173.456L168.309 180.718L181.872 167L183 168.141Z" fill="white"/>
</svg>
