<svg width="71" height="70" viewBox="0 0 71 70" fill="none" xmlns="http://www.w3.org/2000/svg">
<path fill-rule="evenodd" clip-rule="evenodd" d="M17.4097 64.8451C17.4097 67.6909 15.5272 70 13.1961 70C10.8693 70 8.98242 67.6953 8.98242 64.8451V5.15049C8.98242 2.30914 10.8693 0 13.1961 0C15.5272 0 17.4097 2.30474 17.4097 5.15049V64.8451Z" fill="black"/>
<path fill-rule="evenodd" clip-rule="evenodd" d="M64.6164 8.60767C67.6425 8.60767 70.0968 10.5341 70.0968 12.9137C70.0968 15.2932 67.6425 17.2197 64.6164 17.2197H5.48036C2.45429 17.2197 0 15.2932 0 12.9137C0 10.5341 2.45429 8.60767 5.48036 8.60767H64.6164Z" fill="black"/>
<path d="M65.1981 30.7661V30.7666V52.1646C65.1981 53.3396 64.96 54.1339 64.5815 54.6836C64.2066 55.228 63.6558 55.588 62.919 55.8234C62.1731 56.0616 61.2611 56.1641 60.2021 56.2031C59.4468 56.2309 58.6422 56.2261 57.7889 56.2211C57.4438 56.219 57.0908 56.217 56.7298 56.217H31.1401C30.7792 56.217 30.4261 56.219 30.0811 56.2211C29.2278 56.2261 28.4232 56.2309 27.6679 56.2031C26.6088 56.1641 25.6969 56.0616 24.9509 55.8234C24.2142 55.588 23.6634 55.228 23.2885 54.6836C22.91 54.1339 22.6719 53.3396 22.6719 52.1646V30.7666C22.6719 29.5807 22.8827 28.7785 23.2233 28.2257C23.557 27.6842 24.0459 27.3322 24.7099 27.1017C25.3872 26.8666 26.2309 26.7638 27.2422 26.7244C27.964 26.6963 28.7431 26.7009 29.5852 26.7058C29.9246 26.7078 30.2741 26.7099 30.6343 26.7099H57.1477C57.5074 26.7099 57.857 26.7078 58.1968 26.7058C59.0417 26.7009 59.826 26.6963 60.5544 26.7244C61.5743 26.7638 62.4304 26.8666 63.1199 27.1025C63.797 27.334 64.2966 27.6876 64.6371 28.2294C64.984 28.7815 65.1992 29.5822 65.1981 30.7661Z" stroke="black"/>
<path fill-rule="evenodd" clip-rule="evenodd" d="M26.3906 12.8212H30.5119V25.4621H26.3906V12.8212Z" fill="black"/>
<path fill-rule="evenodd" clip-rule="evenodd" d="M57.1787 12.8212H61.3V25.4621H57.1787V12.8212Z" fill="black"/>
<path d="M47.5 43.5C47.5 45.5 45 47 45 48.5H43C43 47 40.5 45.5 40.5 43.5C40.5 41.57 42.07 40 44 40C45.93 40 47.5 41.57 47.5 43.5ZM45 49.5H43V51H45V49.5ZM51 43C51 44.68 50.41 46.21 49.42 47.42L50.84 48.84C51.6089 47.9427 52.1931 46.9024 52.5591 45.7788C52.9251 44.6552 53.0656 43.4704 52.9727 42.2924C52.8798 41.1143 52.5553 39.9662 52.0177 38.9139C51.4801 37.8616 50.7401 36.9257 49.84 36.16L48.42 37.58C49.2254 38.2352 49.8749 39.0616 50.3211 39.9991C50.7674 40.9366 50.9993 41.9617 51 43ZM48 35L44 31V34C41.6131 34 39.3239 34.9482 37.636 36.636C35.9482 38.3239 35 40.6131 35 43C35 45.23 35.82 47.27 37.16 48.84L38.58 47.42C37.5558 46.175 36.9971 44.6122 37 43C37 39.14 40.14 36 44 36V39L48 35Z" fill="#0000FF"/>
</svg>
