<svg width="71" height="70" viewBox="0 0 71 70" fill="none" xmlns="http://www.w3.org/2000/svg">
<path fill-rule="evenodd" clip-rule="evenodd" d="M17.4097 64.8451C17.4097 67.6909 15.5272 70 13.1961 70C10.8693 70 8.98242 67.6953 8.98242 64.8451V5.15049C8.98242 2.30914 10.8693 0 13.1961 0C15.5272 0 17.4097 2.30474 17.4097 5.15049V64.8451Z" fill="black"/>
<path fill-rule="evenodd" clip-rule="evenodd" d="M64.6164 8.60767C67.6425 8.60767 70.0968 10.5341 70.0968 12.9137C70.0968 15.2932 67.6425 17.2197 64.6164 17.2197H5.48036C2.45429 17.2197 0 15.2932 0 12.9137C0 10.5341 2.45429 8.60767 5.48036 8.60767H64.6164Z" fill="black"/>
<path d="M65.1981 30.7661V30.7666V52.1646C65.1981 53.3396 64.96 54.1339 64.5815 54.6836C64.2066 55.228 63.6558 55.588 62.919 55.8234C62.1731 56.0616 61.2611 56.1641 60.2021 56.2031C59.4468 56.2309 58.6422 56.2261 57.7889 56.2211C57.4438 56.219 57.0908 56.217 56.7298 56.217H31.1401C30.7792 56.217 30.4261 56.219 30.0811 56.2211C29.2278 56.2261 28.4232 56.2309 27.6679 56.2031C26.6088 56.1641 25.6969 56.0616 24.9509 55.8234C24.2142 55.588 23.6634 55.228 23.2885 54.6836C22.91 54.1339 22.6719 53.3396 22.6719 52.1646V30.7666C22.6719 29.5807 22.8827 28.7785 23.2233 28.2257C23.557 27.6842 24.0459 27.3322 24.7099 27.1017C25.3872 26.8666 26.2309 26.7638 27.2422 26.7244C27.964 26.6963 28.7431 26.7009 29.5852 26.7058C29.9246 26.7078 30.2741 26.7099 30.6343 26.7099H57.1477C57.5074 26.7099 57.857 26.7078 58.1968 26.7058C59.0417 26.7009 59.826 26.6963 60.5544 26.7244C61.5743 26.7638 62.4304 26.8666 63.1199 27.1025C63.797 27.334 64.2966 27.6876 64.6371 28.2294C64.984 28.7815 65.1992 29.5822 65.1981 30.7661Z" stroke="black"/>
<path fill-rule="evenodd" clip-rule="evenodd" d="M26.3906 12.8212H30.5119V25.4621H26.3906V12.8212Z" fill="black"/>
<path fill-rule="evenodd" clip-rule="evenodd" d="M57.1787 12.8212H61.3V25.4621H57.1787V12.8212Z" fill="black"/>
<path d="M51.8571 45.379V42.4233C51.8571 42.0446 51.7066 41.6814 51.4387 41.4136C51.1708 41.1458 50.8074 40.9954 50.4286 40.9954H44.7143V38.1395H51.1429C51.5217 38.1395 51.8851 37.9891 52.153 37.7213C52.4209 37.4535 52.5714 37.0903 52.5714 36.7116V32.4279C52.5714 32.0492 52.4209 31.686 52.153 31.4182C51.8851 31.1504 51.5217 31 51.1429 31H36.8571C36.4783 31 36.1149 31.1504 35.847 31.4182C35.5791 31.686 35.4286 32.0492 35.4286 32.4279V36.7116C35.4286 37.0903 35.5791 37.4535 35.847 37.7213C36.1149 37.9891 36.4783 38.1395 36.8571 38.1395H43.2857V40.9954H37.5714C37.1926 40.9954 36.8292 41.1458 36.5613 41.4136C36.2934 41.6814 36.1429 42.0446 36.1429 42.4233V45.379C35.4695 45.5528 34.8827 45.9661 34.4924 46.5414C34.1021 47.1167 33.9352 47.8145 34.0228 48.504C34.1104 49.1936 34.4466 49.8275 34.9684 50.287C35.4902 50.7465 36.1617 51 36.8571 51C37.5526 51 38.2241 50.7465 38.7459 50.287C39.2677 49.8275 39.6039 49.1936 39.6915 48.504C39.7791 47.8145 39.6122 47.1167 39.2219 46.5414C38.8316 45.9661 38.2448 45.5528 37.5714 45.379V42.4233H43.2857V45.2791H41.1429V50.9907H46.8571V45.2791H44.7143V42.4233H50.4286V45.379C49.7552 45.5528 49.1684 45.9661 48.7781 46.5414C48.3878 47.1167 48.2209 47.8145 48.3085 48.504C48.3961 49.1936 48.7323 49.8275 49.2541 50.287C49.7759 50.7465 50.4474 51 51.1429 51C51.8383 51 52.5098 50.7465 53.0316 50.287C53.5534 49.8275 53.8896 49.1936 53.9772 48.504C54.0648 47.8145 53.8979 47.1167 53.5076 46.5414C53.1173 45.9661 52.5305 45.5528 51.8571 45.379ZM38.2857 48.1349C38.2857 48.4173 38.2019 48.6934 38.045 48.9282C37.888 49.163 37.6649 49.3461 37.4038 49.4541C37.1428 49.5622 36.8556 49.5905 36.5784 49.5354C36.3013 49.4803 36.0468 49.3443 35.847 49.1446C35.6472 48.9449 35.5111 48.6905 35.456 48.4135C35.4009 48.1365 35.4292 47.8494 35.5373 47.5885C35.6454 47.3276 35.8285 47.1045 36.0635 46.9476C36.2984 46.7907 36.5746 46.707 36.8571 46.707C37.236 46.707 37.5994 46.8574 37.8673 47.1252C38.1352 47.393 38.2857 47.7562 38.2857 48.1349ZM45.4286 46.707V49.5628H42.5714V46.707H45.4286ZM36.8571 36.7116V32.4279H51.1429V36.7116H36.8571ZM51.1429 49.5628C50.8603 49.5628 50.5841 49.4791 50.3492 49.3222C50.1143 49.1653 49.9312 48.9423 49.823 48.6814C49.7149 48.4204 49.6866 48.1333 49.7417 47.8563C49.7969 47.5794 49.9329 47.3249 50.1327 47.1252C50.3325 46.9255 50.587 46.7895 50.8642 46.7344C51.1413 46.6793 51.4285 46.7076 51.6895 46.8157C51.9506 46.9238 52.1737 47.1068 52.3307 47.3416C52.4876 47.5764 52.5714 47.8525 52.5714 48.1349C52.5714 48.5136 52.4209 48.8768 52.153 49.1446C51.8851 49.4124 51.5217 49.5628 51.1429 49.5628Z" fill="#0000FF"/>
</svg>
