<svg width="71" height="70" viewBox="0 0 71 70" fill="none" xmlns="http://www.w3.org/2000/svg">
<path fill-rule="evenodd" clip-rule="evenodd" d="M17.4097 64.8451C17.4097 67.6909 15.5272 70 13.1961 70C10.8693 70 8.98242 67.6953 8.98242 64.8451V5.15049C8.98242 2.30914 10.8693 0 13.1961 0C15.5272 0 17.4097 2.30474 17.4097 5.15049V64.8451Z" fill="black"/>
<path fill-rule="evenodd" clip-rule="evenodd" d="M64.6164 8.60767C67.6425 8.60767 70.0968 10.5341 70.0968 12.9137C70.0968 15.2932 67.6425 17.2197 64.6164 17.2197H5.48036C2.45429 17.2197 0 15.2932 0 12.9137C0 10.5341 2.45429 8.60767 5.48036 8.60767H64.6164Z" fill="black"/>
<path d="M65.1981 30.7661V30.7666V52.1646C65.1981 53.3396 64.96 54.1339 64.5815 54.6836C64.2066 55.228 63.6558 55.588 62.919 55.8234C62.1731 56.0616 61.2611 56.1641 60.2021 56.2031C59.4468 56.2309 58.6422 56.2261 57.7889 56.2211C57.4438 56.219 57.0908 56.217 56.7298 56.217H31.1401C30.7792 56.217 30.4261 56.219 30.0811 56.2211C29.2278 56.2261 28.4232 56.2309 27.6679 56.2031C26.6088 56.1641 25.6969 56.0616 24.9509 55.8234C24.2142 55.588 23.6634 55.228 23.2885 54.6836C22.91 54.1339 22.6719 53.3396 22.6719 52.1646V30.7666C22.6719 29.5807 22.8827 28.7785 23.2233 28.2257C23.557 27.6842 24.0459 27.3322 24.7099 27.1017C25.3872 26.8666 26.2309 26.7638 27.2422 26.7244C27.964 26.6963 28.7431 26.7009 29.5852 26.7058C29.9246 26.7078 30.2741 26.7099 30.6343 26.7099H57.1477C57.5074 26.7099 57.857 26.7078 58.1968 26.7058C59.0417 26.7009 59.826 26.6963 60.5544 26.7244C61.5743 26.7638 62.4304 26.8666 63.1199 27.1025C63.797 27.334 64.2966 27.6876 64.6371 28.2294C64.984 28.7815 65.1992 29.5822 65.1981 30.7661Z" stroke="black"/>
<path fill-rule="evenodd" clip-rule="evenodd" d="M26.3906 12.8212H30.5119V25.4621H26.3906V12.8212Z" fill="black"/>
<path fill-rule="evenodd" clip-rule="evenodd" d="M57.1787 12.8212H61.3V25.4621H57.1787V12.8212Z" fill="black"/>
<path d="M45.0995 31.0009C40.8258 30.9409 36.7269 33.9222 35.5003 38.0255C34.5575 40.9764 35.1084 44.3531 36.9509 46.8459L32.3868 45.9624L32 47.9607L40.2071 49.5494L41.7962 41.4081L39.7985 41.0182L38.834 45.9593C36.4809 43.1505 36.5149 38.7036 38.9081 35.9286C41.2389 33.0161 45.6792 32.18 48.9278 33.995C52.0357 35.599 53.7599 39.3989 52.912 42.7938C52.1526 46.3372 48.7157 49.0244 45.0995 48.9517C44.1583 48.8849 43.6853 50.2441 44.4645 50.7761C45.1447 51.1999 46.0054 50.901 46.751 50.852C50.9606 50.2117 54.5113 46.6209 55.054 42.3897C55.6815 38.3524 53.504 34.0966 49.8841 32.2087C48.4226 31.4154 46.762 30.9983 45.0995 31.0009V31.0009Z" fill="#0000FF"/>
</svg>
