<svg width="71" height="70" viewBox="0 0 71 70" fill="none" xmlns="http://www.w3.org/2000/svg">
<path fill-rule="evenodd" clip-rule="evenodd" d="M17.4097 64.8451C17.4097 67.6909 15.5272 70 13.1961 70C10.8693 70 8.98242 67.6953 8.98242 64.8451V5.15049C8.98242 2.30914 10.8693 0 13.1961 0C15.5272 0 17.4097 2.30474 17.4097 5.15049V64.8451Z" fill="black"/>
<path fill-rule="evenodd" clip-rule="evenodd" d="M64.6164 8.60767C67.6425 8.60767 70.0968 10.5341 70.0968 12.9137C70.0968 15.2932 67.6425 17.2197 64.6164 17.2197H5.48036C2.45429 17.2197 0 15.2932 0 12.9137C0 10.5341 2.45429 8.60767 5.48036 8.60767H64.6164Z" fill="black"/>
<path d="M65.1981 30.7661V30.7666V52.1646C65.1981 53.3396 64.96 54.1339 64.5815 54.6836C64.2066 55.228 63.6558 55.588 62.919 55.8234C62.1731 56.0616 61.2611 56.1641 60.2021 56.2031C59.4468 56.2309 58.6422 56.2261 57.7889 56.2211C57.4438 56.219 57.0908 56.217 56.7298 56.217H31.1401C30.7792 56.217 30.4261 56.219 30.0811 56.2211C29.2278 56.2261 28.4232 56.2309 27.6679 56.2031C26.6088 56.1641 25.6969 56.0616 24.9509 55.8234C24.2142 55.588 23.6634 55.228 23.2885 54.6836C22.91 54.1339 22.6719 53.3396 22.6719 52.1646V30.7666C22.6719 29.5807 22.8827 28.7785 23.2233 28.2257C23.557 27.6842 24.0459 27.3322 24.7099 27.1017C25.3872 26.8666 26.2309 26.7638 27.2422 26.7244C27.964 26.6963 28.7431 26.7009 29.5852 26.7058C29.9246 26.7078 30.2741 26.7099 30.6343 26.7099H57.1477C57.5074 26.7099 57.857 26.7078 58.1968 26.7058C59.0417 26.7009 59.826 26.6963 60.5544 26.7244C61.5743 26.7638 62.4304 26.8666 63.1199 27.1025C63.797 27.334 64.2966 27.6876 64.6371 28.2294C64.984 28.7815 65.1992 29.5822 65.1981 30.7661Z" stroke="black"/>
<path fill-rule="evenodd" clip-rule="evenodd" d="M26.3906 12.8212H30.5119V25.4621H26.3906V12.8212Z" fill="black"/>
<path fill-rule="evenodd" clip-rule="evenodd" d="M57.1787 12.8212H61.3V25.4621H57.1787V12.8212Z" fill="black"/>
<path d="M41.5179 37.0308L43.6923 38.0154L45.8667 37.0308L44.8821 39.2051L45.8667 41.3795L43.6923 40.3949L41.5179 41.3795L42.5026 39.2051L41.5179 37.0308ZM48.8205 31L49.9385 33.9846L52.9231 35.1026L49.9385 36.2205L48.8205 39.2051L47.7026 36.2205L44.7179 35.1026L47.7026 33.9846L48.8205 31ZM38.0513 47.9231H39.0769V46.8974C39.0769 46.6254 39.185 46.3645 39.3773 46.1722C39.5697 45.9799 39.8305 45.8718 40.1026 45.8718H40.3692C39.1953 45.1997 38.2202 44.2289 37.5429 43.058C36.8655 41.8871 36.5102 40.5578 36.5128 39.2051C36.5128 37.165 37.3233 35.2084 38.7658 33.7658C40.2084 32.3233 42.165 31.5128 44.2051 31.5128C45.2821 31.5128 46.3077 31.7385 47.241 32.1385L46.8615 33.1436L45.4051 33.6872C45.0154 33.6051 44.6154 33.5641 44.2051 33.5641C42.709 33.5641 41.2742 34.1584 40.2163 35.2163C39.1584 36.2742 38.5641 37.709 38.5641 39.2051C38.5641 40.7012 39.1584 42.136 40.2163 43.1939C41.2742 44.2518 42.709 44.8462 44.2051 44.8462C47.1897 44.8462 49.641 42.5179 49.8462 39.5846L50.7795 37.0615L51.5077 36.7846C51.7641 37.5436 51.8974 38.3641 51.8974 39.2051C51.8974 42.0564 50.359 44.5385 48.041 45.8718H48.3077C48.5797 45.8718 48.8406 45.9799 49.0329 46.1722C49.2253 46.3645 49.3333 46.6254 49.3333 46.8974V47.9231H50.359C50.903 47.9231 51.4248 48.1392 51.8095 48.5239C52.1941 48.9086 52.4103 49.4303 52.4103 49.9744V51H36V49.9744C36 49.4303 36.2161 48.9086 36.6008 48.5239C36.9855 48.1392 37.5072 47.9231 38.0513 47.9231Z" fill="#0000FF"/>
</svg>
