<svg width="71" height="70" viewBox="0 0 71 70" fill="none" xmlns="http://www.w3.org/2000/svg">
<path fill-rule="evenodd" clip-rule="evenodd" d="M17.4097 64.8451C17.4097 67.6909 15.5272 70 13.1961 70C10.8693 70 8.98242 67.6953 8.98242 64.8451V5.15049C8.98242 2.30914 10.8693 0 13.1961 0C15.5272 0 17.4097 2.30474 17.4097 5.15049V64.8451Z" fill="black"/>
<path fill-rule="evenodd" clip-rule="evenodd" d="M64.6164 8.6076C67.6425 8.6076 70.0968 10.5341 70.0968 12.9136C70.0968 15.2931 67.6425 17.2196 64.6164 17.2196H5.48036C2.45429 17.2196 0 15.2931 0 12.9136C0 10.5341 2.45429 8.6076 5.48036 8.6076H64.6164Z" fill="black"/>
<path d="M65.1981 30.7661V30.7666V52.1646C65.1981 53.3396 64.96 54.1339 64.5815 54.6836C64.2066 55.228 63.6558 55.588 62.919 55.8234C62.1731 56.0616 61.2611 56.1641 60.2021 56.2031C59.4468 56.2309 58.6422 56.2261 57.7889 56.2211C57.4438 56.219 57.0908 56.217 56.7298 56.217H31.1401C30.7792 56.217 30.4261 56.219 30.0811 56.2211C29.2278 56.2261 28.4232 56.2309 27.6679 56.2031C26.6088 56.1641 25.6969 56.0616 24.9509 55.8234C24.2142 55.588 23.6634 55.228 23.2885 54.6836C22.91 54.1339 22.6719 53.3396 22.6719 52.1646V30.7666C22.6719 29.5807 22.8827 28.7785 23.2233 28.2257C23.557 27.6842 24.0459 27.3322 24.7099 27.1017C25.3872 26.8666 26.2309 26.7638 27.2422 26.7244C27.964 26.6963 28.7431 26.7009 29.5852 26.7058C29.9246 26.7078 30.2741 26.7099 30.6343 26.7099H57.1477C57.5074 26.7099 57.857 26.7078 58.1968 26.7058C59.0417 26.7009 59.826 26.6963 60.5544 26.7244C61.5743 26.7638 62.4304 26.8666 63.1199 27.1025C63.797 27.334 64.2966 27.6876 64.6371 28.2294C64.984 28.7815 65.1992 29.5822 65.1981 30.7661Z" stroke="black"/>
<path fill-rule="evenodd" clip-rule="evenodd" d="M26.3906 12.8212H30.5119V25.4621H26.3906V12.8212Z" fill="black"/>
<path fill-rule="evenodd" clip-rule="evenodd" d="M57.1787 12.8212H61.3V25.4621H57.1787V12.8212Z" fill="black"/>
<path d="M52.5 33.8571V35.6429C52.5 37.2165 48.5807 38.5 43.75 38.5C38.9193 38.5 35 37.2165 35 35.6429V33.8571C35 32.2835 38.9193 31 43.75 31C48.5807 31 52.5 32.2835 52.5 33.8571ZM52.5 37.875V41.8929C52.5 43.4665 48.5807 44.75 43.75 44.75C38.9193 44.75 35 43.4665 35 41.8929V37.875C36.8799 39.1696 40.3206 39.7723 43.75 39.7723C47.1794 39.7723 50.6201 39.1696 52.5 37.875ZM52.5 44.125V48.1429C52.5 49.7165 48.5807 51 43.75 51C38.9193 51 35 49.7165 35 48.1429V44.125C36.8799 45.4196 40.3206 46.0223 43.75 46.0223C47.1794 46.0223 50.6201 45.4196 52.5 44.125Z" fill="#0000FF"/>
</svg>
