<svg width="71" height="70" viewBox="0 0 71 70" fill="none" xmlns="http://www.w3.org/2000/svg">
<path fill-rule="evenodd" clip-rule="evenodd" d="M17.4097 64.8451C17.4097 67.6909 15.5272 70 13.1961 70C10.8693 70 8.98242 67.6953 8.98242 64.8451V5.15049C8.98242 2.30914 10.8693 0 13.1961 0C15.5272 0 17.4097 2.30474 17.4097 5.15049V64.8451Z" fill="black"/>
<path fill-rule="evenodd" clip-rule="evenodd" d="M64.6164 8.60767C67.6425 8.60767 70.0968 10.5341 70.0968 12.9137C70.0968 15.2932 67.6425 17.2197 64.6164 17.2197H5.48036C2.45429 17.2197 0 15.2932 0 12.9137C0 10.5341 2.45429 8.60767 5.48036 8.60767H64.6164Z" fill="black"/>
<path d="M65.1981 30.7661V30.7666V52.1646C65.1981 53.3396 64.96 54.1339 64.5815 54.6836C64.2066 55.228 63.6558 55.588 62.919 55.8234C62.1731 56.0616 61.2611 56.1641 60.2021 56.2031C59.4468 56.2309 58.6422 56.2261 57.7889 56.2211C57.4438 56.219 57.0908 56.217 56.7298 56.217H31.1401C30.7792 56.217 30.4261 56.219 30.0811 56.2211C29.2278 56.2261 28.4232 56.2309 27.6679 56.2031C26.6088 56.1641 25.6969 56.0616 24.9509 55.8234C24.2142 55.588 23.6634 55.228 23.2885 54.6836C22.91 54.1339 22.6719 53.3396 22.6719 52.1646V30.7666C22.6719 29.5807 22.8827 28.7785 23.2233 28.2257C23.557 27.6842 24.0459 27.3322 24.7099 27.1017C25.3872 26.8666 26.2309 26.7638 27.2422 26.7244C27.964 26.6963 28.7431 26.7009 29.5852 26.7058C29.9246 26.7078 30.2741 26.7099 30.6343 26.7099H57.1477C57.5074 26.7099 57.857 26.7078 58.1968 26.7058C59.0417 26.7009 59.826 26.6963 60.5544 26.7244C61.5743 26.7638 62.4304 26.8666 63.1199 27.1025C63.797 27.334 64.2966 27.6876 64.6371 28.2294C64.984 28.7815 65.1992 29.5822 65.1981 30.7661Z" stroke="black"/>
<path fill-rule="evenodd" clip-rule="evenodd" d="M26.3906 12.8212H30.5119V25.4621H26.3906V12.8212Z" fill="black"/>
<path fill-rule="evenodd" clip-rule="evenodd" d="M57.1787 12.8212H61.3V25.4621H57.1787V12.8212Z" fill="black"/>
<path d="M54.7072 31H47.7778C47.6092 31 47.4475 31.067 47.3283 31.1862C47.2091 31.3054 47.1421 31.4671 47.1421 31.6357C47.1421 31.8043 47.2091 31.966 47.3283 32.0853C47.4475 32.2045 47.6092 32.2715 47.7778 32.2715H53.2006L47.5935 37.993C47.535 38.0527 47.4889 38.1233 47.4578 38.2008C47.4266 38.2783 47.411 38.3612 47.4119 38.4448C47.4128 38.5283 47.4301 38.6108 47.4629 38.6877C47.4957 38.7645 47.5433 38.8341 47.603 38.8926C47.6627 38.951 47.7333 38.9971 47.8108 39.0282C47.8883 39.0594 47.9712 39.075 48.0547 39.0741C48.1383 39.0732 48.2208 39.0559 48.2976 39.0231C48.3745 38.9903 48.4441 38.9427 48.5025 38.883L54.0715 33.1996V38.5652C54.0715 38.7338 54.1385 38.8955 54.2577 39.0147C54.3769 39.1339 54.5386 39.2009 54.7072 39.2009C54.8758 39.2009 55.0375 39.1339 55.1568 39.0147C55.276 38.8955 55.343 38.7338 55.343 38.5652V31.6357C55.343 31.4671 55.276 31.3054 55.1568 31.1862C55.0375 31.067 54.8758 31 54.7072 31Z" fill="#0000FF"/>
<path d="M41.6499 36.55C41.5533 36.4942 41.4437 36.4648 41.3321 36.4648C41.2205 36.4648 41.1108 36.4942 41.0142 36.55L35.4961 39.7287L41.3575 43.0789L47.1998 39.735L41.6499 36.55Z" fill="#0000FF"/>
<path d="M35 47.3571C34.9996 47.4691 35.0287 47.5793 35.0845 47.6764C35.1404 47.7735 35.2209 47.8542 35.3179 47.9102L40.7215 50.9998V44.0068L35 40.7137V47.3571Z" fill="#0000FF"/>
<path d="M41.9927 51L47.3964 47.9104C47.4934 47.8544 47.5739 47.7737 47.6297 47.6766C47.6855 47.5795 47.7147 47.4693 47.7142 47.3573V40.7203L41.9927 43.9943V51Z" fill="#0000FF"/>
</svg>
