<svg width="510" height="350" viewBox="0 0 510 350" fill="none" xmlns="http://www.w3.org/2000/svg">
<rect x="0.5" y="0.5" width="509" height="349" stroke="#2667FF"/>
<path d="M188.84 45H190.64V32.88H194.88V31.28H184.6V32.88H188.84V45ZM194.282 45H195.882V39.16C195.882 37.38 197.082 36.2 198.882 36.2H199.562V35C199.362 34.88 199.042 34.8 198.742 34.8C197.742 34.8 196.602 35.44 195.882 36.38V35H194.282V45ZM204.756 45.2C206.096 45.2 207.536 44.44 208.316 43.32V45H209.916V35H208.316V36.68C207.536 35.56 206.096 34.8 204.756 34.8C201.836 34.8 199.876 36.88 199.876 40C199.876 43.12 201.836 45.2 204.756 45.2ZM204.916 43.8C202.856 43.8 201.476 42.28 201.476 40C201.476 37.72 202.856 36.2 204.916 36.2C206.956 36.2 208.316 37.72 208.316 40C208.316 42.28 206.956 43.8 204.916 43.8ZM212.309 33.48H213.909V31.28H212.309V33.48ZM212.309 45H213.909V35H212.309V45ZM216.313 45H217.913V39.08C217.913 37.36 219.053 36.2 220.753 36.2C222.453 36.2 223.593 37.36 223.593 39.08V45H225.193V38.8C225.193 36.4 223.533 34.8 221.033 34.8C219.873 34.8 218.613 35.4 217.913 36.28V35H216.313V45ZM227.602 33.48H229.202V31.28H227.602V33.48ZM227.602 45H229.202V35H227.602V45ZM231.606 45H233.206V39.08C233.206 37.36 234.346 36.2 236.046 36.2C237.746 36.2 238.886 37.36 238.886 39.08V45H240.486V38.8C240.486 36.4 238.826 34.8 236.326 34.8C235.166 34.8 233.906 35.4 233.206 36.28V35H231.606V45ZM250.265 35V36.6C249.525 35.52 248.145 34.8 246.805 34.8C243.945 34.8 242.025 36.84 242.025 39.9C242.025 42.96 243.945 45 246.805 45C248.145 45 249.545 44.28 250.265 43.22V43.92C250.265 46.08 248.925 47.52 246.945 47.52C245.325 47.52 244.045 46.5 243.745 45H242.245C242.645 47.34 244.525 48.92 246.945 48.92C249.885 48.92 251.865 46.92 251.865 43.92V35H250.265ZM246.965 43.6C244.965 43.6 243.625 42.12 243.625 39.9C243.625 37.68 244.965 36.2 246.965 36.2C248.945 36.2 250.265 37.68 250.265 39.9C250.265 42.12 248.945 43.6 246.965 43.6ZM259.028 33.48H260.628V31.28H259.028V33.48ZM259.028 45H260.628V35H259.028V45ZM263.032 45H264.632V39.08C264.632 37.36 265.772 36.2 267.472 36.2C269.172 36.2 270.312 37.36 270.312 39.08V45H271.912V38.8C271.912 36.4 270.252 34.8 267.752 34.8C266.592 34.8 265.332 35.4 264.632 36.28V35H263.032V45ZM279.287 45H281.087V39.1H284.947C287.527 39.1 289.247 37.52 289.247 35.16C289.247 32.84 287.527 31.28 284.947 31.28H279.287V45ZM281.087 37.5V32.88H284.947C286.447 32.88 287.447 33.8 287.447 35.16C287.447 36.56 286.447 37.5 284.947 37.5H281.087ZM290.766 45H292.366V39.16C292.366 37.38 293.566 36.2 295.366 36.2H296.046V35C295.846 34.88 295.526 34.8 295.226 34.8C294.226 34.8 293.086 35.44 292.366 36.38V35H290.766V45ZM301.381 45.2C304.381 45.2 306.401 43.12 306.401 40C306.401 36.88 304.381 34.8 301.381 34.8C298.381 34.8 296.361 36.88 296.361 40C296.361 43.12 298.381 45.2 301.381 45.2ZM301.381 43.8C299.341 43.8 297.961 42.28 297.961 40C297.961 37.72 299.341 36.2 301.381 36.2C303.421 36.2 304.801 37.72 304.801 40C304.801 42.28 303.421 43.8 301.381 43.8ZM316.085 35V36.6C315.345 35.52 313.965 34.8 312.625 34.8C309.765 34.8 307.845 36.84 307.845 39.9C307.845 42.96 309.765 45 312.625 45C313.965 45 315.365 44.28 316.085 43.22V43.92C316.085 46.08 314.745 47.52 312.765 47.52C311.145 47.52 309.865 46.5 309.565 45H308.065C308.465 47.34 310.345 48.92 312.765 48.92C315.705 48.92 317.685 46.92 317.685 43.92V35H316.085ZM312.785 43.6C310.785 43.6 309.445 42.12 309.445 39.9C309.445 37.68 310.785 36.2 312.785 36.2C314.765 36.2 316.085 37.68 316.085 39.9C316.085 42.12 314.765 43.6 312.785 43.6ZM320.083 45H321.683V39.16C321.683 37.38 322.883 36.2 324.683 36.2H325.363V35C325.163 34.88 324.843 34.8 324.543 34.8C323.543 34.8 322.403 35.44 321.683 36.38V35H320.083V45ZM330.697 45.2C332.937 45.2 334.857 43.76 335.497 41.6H333.897C333.457 42.92 332.177 43.8 330.697 43.8C328.737 43.8 327.377 42.4 327.297 40.32H335.557L335.717 40.16C335.717 36.96 333.697 34.8 330.697 34.8C327.697 34.8 325.677 36.88 325.677 40C325.677 43.12 327.697 45.2 330.697 45.2ZM327.377 38.92C327.737 37.3 329.077 36.2 330.697 36.2C332.317 36.2 333.657 37.3 334.017 38.92H327.377ZM340.916 45.2C343.496 45.2 345.216 43.96 345.216 42.12C345.216 40.46 344.176 39.66 341.156 39.04C339.416 38.62 338.796 38.24 338.796 37.56C338.796 36.74 339.656 36.2 340.916 36.2C342.076 36.2 343.056 36.8 343.356 37.7L344.816 37.34C344.276 35.82 342.716 34.8 340.916 34.8C338.696 34.8 337.196 35.96 337.196 37.68C337.196 39.16 338.136 39.88 340.816 40.48C342.916 40.96 343.636 41.4 343.636 42.2C343.636 43.16 342.536 43.8 340.916 43.8C339.236 43.8 338.096 42.92 338.056 41.6H336.556C336.596 43.76 338.356 45.2 340.916 45.2ZM350.623 45.2C353.203 45.2 354.923 43.96 354.923 42.12C354.923 40.46 353.883 39.66 350.863 39.04C349.123 38.62 348.503 38.24 348.503 37.56C348.503 36.74 349.363 36.2 350.623 36.2C351.783 36.2 352.763 36.8 353.063 37.7L354.523 37.34C353.983 35.82 352.423 34.8 350.623 34.8C348.403 34.8 346.903 35.96 346.903 37.68C346.903 39.16 347.843 39.88 350.523 40.48C352.623 40.96 353.343 41.4 353.343 42.2C353.343 43.16 352.243 43.8 350.623 43.8C348.943 43.8 347.803 42.92 347.763 41.6H346.263C346.303 43.76 348.063 45.2 350.623 45.2Z" fill="black"/>
<path d="M164 27V31" stroke="#2667FF" stroke-width="2" stroke-linecap="round" stroke-linejoin="round"/>
<path d="M164 43V47" stroke="#2667FF" stroke-width="2" stroke-linecap="round" stroke-linejoin="round"/>
<path d="M156.93 29.9302L159.76 32.7602" stroke="#2667FF" stroke-width="2" stroke-linecap="round" stroke-linejoin="round"/>
<path d="M168.24 41.2402L171.07 44.0702" stroke="#2667FF" stroke-width="2" stroke-linecap="round" stroke-linejoin="round"/>
<path d="M154 37H158" stroke="#2667FF" stroke-width="2" stroke-linecap="round" stroke-linejoin="round"/>
<path d="M170 37H174" stroke="#2667FF" stroke-width="2" stroke-linecap="round" stroke-linejoin="round"/>
<path d="M156.93 44.0702L159.76 41.2402" stroke="#2667FF" stroke-width="2" stroke-linecap="round" stroke-linejoin="round"/>
<path d="M168.24 32.7602L171.07 29.9302" stroke="#2667FF" stroke-width="2" stroke-linecap="round" stroke-linejoin="round"/>
<path fill-rule="evenodd" clip-rule="evenodd" d="M255 275C310.228 275 355 230.228 355 175C355 119.772 310.228 75 255 75C199.772 75 155 119.772 155 175C155 230.228 199.772 275 255 275ZM254.574 260.532C301.577 260.532 339.68 222.429 339.68 175.426C339.68 128.423 301.577 90.3193 254.574 90.3193C207.571 90.3193 169.467 128.423 169.467 175.426C169.467 222.429 207.571 260.532 254.574 260.532Z" fill="white"/>
<path fill-rule="evenodd" clip-rule="evenodd" d="M296.151 83.8597C283.218 78.0201 269.19 75 255 75V90.3204C301.807 90.5495 339.681 128.565 339.681 175.426C339.681 222.429 301.577 260.532 254.574 260.532C247.373 260.532 240.38 259.638 233.701 257.954L230.131 271.858C243.875 275.387 258.214 275.951 272.193 273.511C286.172 271.071 299.472 265.684 311.208 257.708C322.945 249.732 332.849 239.349 340.264 227.25C347.678 215.151 352.433 201.612 354.211 187.533C355.99 173.455 354.752 159.159 350.579 145.596C346.407 132.033 339.395 119.513 330.011 108.869C320.627 98.2244 309.084 89.6992 296.151 83.8597Z" fill="#2667FF"/>
<path fill-rule="evenodd" clip-rule="evenodd" d="M255 250C296.421 250 330 216.421 330 175C330 133.579 296.421 100 255 100C213.579 100 180 133.579 180 175C180 216.421 213.579 250 255 250ZM255 233.333C287.217 233.333 313.333 207.217 313.333 175C313.333 142.783 287.217 116.667 255 116.667C222.783 116.667 196.667 142.783 196.667 175C196.667 207.217 222.783 233.333 255 233.333Z" fill="white"/>
<path fill-rule="evenodd" clip-rule="evenodd" d="M299.084 114.324C286.27 105.014 270.838 100 255 100V116.667C287.217 116.667 313.333 142.783 313.333 175C313.333 194.402 303.862 211.591 289.29 222.196L299.084 235.676C311.897 226.367 321.435 213.24 326.329 198.176C331.224 183.113 331.224 166.887 326.329 151.824C321.435 136.76 311.897 123.633 299.084 114.324Z" fill="#2667FF" fill-opacity="0.7"/>
<path fill-rule="evenodd" clip-rule="evenodd" d="M255.556 225.556C283.17 225.556 305.556 203.17 305.556 175.556C305.556 147.941 283.17 125.556 255.556 125.556C227.941 125.556 205.556 147.941 205.556 175.556C205.556 203.17 227.941 225.556 255.556 225.556ZM255 208.333C273.409 208.333 288.333 193.41 288.333 175C288.333 156.591 273.409 141.667 255 141.667C236.591 141.667 221.667 156.591 221.667 175C221.667 193.41 236.591 208.333 255 208.333Z" fill="white"/>
<path fill-rule="evenodd" clip-rule="evenodd" d="M288.028 137.535C278.975 129.804 267.461 125.556 255.556 125.556V141.671C273.709 141.968 288.333 156.776 288.333 175C288.333 193.41 273.409 208.333 255 208.333C236.59 208.333 221.667 193.41 221.667 175C221.667 163.869 227.122 154.013 235.505 147.959L226.166 135.105C216.535 142.102 209.716 152.307 206.937 163.883C204.158 175.46 205.601 187.648 211.005 198.255C216.41 208.863 225.423 217.194 236.422 221.75C247.42 226.306 259.684 226.787 271.007 223.108C282.329 219.43 291.967 211.831 298.188 201.681C304.408 191.53 306.803 179.493 304.94 167.734C303.078 155.975 297.081 145.267 288.028 137.535Z" fill="#2667FF" fill-opacity="0.4"/>
</svg>
