<svg width="510" height="350" viewBox="0 0 510 350" fill="none" xmlns="http://www.w3.org/2000/svg">
<rect x="0.5" y="0.5" width="509" height="349" stroke="#2667FF"/>
<path d="M193.84 45H195.64V32.88H199.88V31.28H189.6V32.88H193.84V45ZM199.282 45H200.882V39.16C200.882 37.38 202.082 36.2 203.882 36.2H204.562V35C204.362 34.88 204.042 34.8 203.742 34.8C202.742 34.8 201.602 35.44 200.882 36.38V35H199.282V45ZM209.756 45.2C211.096 45.2 212.536 44.44 213.316 43.32V45H214.916V35H213.316V36.68C212.536 35.56 211.096 34.8 209.756 34.8C206.836 34.8 204.876 36.88 204.876 40C204.876 43.12 206.836 45.2 209.756 45.2ZM209.916 43.8C207.856 43.8 206.476 42.28 206.476 40C206.476 37.72 207.856 36.2 209.916 36.2C211.956 36.2 213.316 37.72 213.316 40C213.316 42.28 211.956 43.8 209.916 43.8ZM217.309 33.48H218.909V31.28H217.309V33.48ZM217.309 45H218.909V35H217.309V45ZM221.313 45H222.913V39.08C222.913 37.36 224.053 36.2 225.753 36.2C227.453 36.2 228.593 37.36 228.593 39.08V45H230.193V38.8C230.193 36.4 228.533 34.8 226.033 34.8C224.873 34.8 223.613 35.4 222.913 36.28V35H221.313V45ZM232.602 33.48H234.202V31.28H232.602V33.48ZM232.602 45H234.202V35H232.602V45ZM236.606 45H238.206V39.08C238.206 37.36 239.346 36.2 241.046 36.2C242.746 36.2 243.886 37.36 243.886 39.08V45H245.486V38.8C245.486 36.4 243.826 34.8 241.326 34.8C240.166 34.8 238.906 35.4 238.206 36.28V35H236.606V45ZM255.265 35V36.6C254.525 35.52 253.145 34.8 251.805 34.8C248.945 34.8 247.025 36.84 247.025 39.9C247.025 42.96 248.945 45 251.805 45C253.145 45 254.545 44.28 255.265 43.22V43.92C255.265 46.08 253.925 47.52 251.945 47.52C250.325 47.52 249.045 46.5 248.745 45H247.245C247.645 47.34 249.525 48.92 251.945 48.92C254.885 48.92 256.865 46.92 256.865 43.92V35H255.265ZM251.965 43.6C249.965 43.6 248.625 42.12 248.625 39.9C248.625 37.68 249.965 36.2 251.965 36.2C253.945 36.2 255.265 37.68 255.265 39.9C255.265 42.12 253.945 43.6 251.965 43.6ZM269.858 45.2C273.098 45.2 275.718 42.96 276.378 39.62H274.638C274.118 42 272.198 43.6 269.858 43.6C266.918 43.6 264.958 41.4 264.958 38.14C264.958 34.88 266.918 32.68 269.858 32.68C272.058 32.68 273.938 34.14 274.558 36.34H276.318C275.598 33.2 272.997 31.08 269.858 31.08C265.838 31.08 263.158 33.92 263.158 38.14C263.158 42.36 265.838 45.2 269.858 45.2ZM282.845 45.2C285.845 45.2 287.865 43.12 287.865 40C287.865 36.88 285.845 34.8 282.845 34.8C279.845 34.8 277.825 36.88 277.825 40C277.825 43.12 279.845 45.2 282.845 45.2ZM282.845 43.8C280.805 43.8 279.425 42.28 279.425 40C279.425 37.72 280.805 36.2 282.845 36.2C284.885 36.2 286.265 37.72 286.265 40C286.265 42.28 284.885 43.8 282.845 43.8ZM289.595 45H291.195V38.26C291.195 37.02 292.095 36.2 293.415 36.2C294.735 36.2 295.635 37.02 295.635 38.26V45H297.235V38.26C297.235 37.02 298.135 36.2 299.455 36.2C300.775 36.2 301.675 37.02 301.675 38.26V45H303.275V38.1C303.275 36.12 301.815 34.8 299.615 34.8C298.435 34.8 297.235 35.42 296.595 36.32C295.955 35.42 294.815 34.8 293.755 34.8C292.775 34.8 291.755 35.32 291.195 36.12V35H289.595V45ZM305.669 48.72H307.269V43.3C308.049 44.44 309.509 45.2 310.929 45.2C313.889 45.2 315.869 43.12 315.869 40C315.869 36.88 313.889 34.8 310.929 34.8C309.509 34.8 308.049 35.56 307.269 36.7V35H305.669V48.72ZM310.769 43.8C308.669 43.8 307.269 42.28 307.269 40C307.269 37.72 308.669 36.2 310.769 36.2C312.869 36.2 314.269 37.72 314.269 40C314.269 42.28 312.869 43.8 310.769 43.8ZM317.602 45H319.202V31.28H317.602V45ZM326.146 45.2C328.386 45.2 330.306 43.76 330.946 41.6H329.346C328.906 42.92 327.626 43.8 326.146 43.8C324.186 43.8 322.826 42.4 322.746 40.32H331.006L331.166 40.16C331.166 36.96 329.146 34.8 326.146 34.8C323.146 34.8 321.126 36.88 321.126 40C321.126 43.12 323.146 45.2 326.146 45.2ZM322.826 38.92C323.186 37.3 324.526 36.2 326.146 36.2C327.766 36.2 329.106 37.3 329.466 38.92H322.826ZM336.27 45.2C336.75 45.2 337.41 45.12 337.91 45V43.8H336.17C335.41 43.8 334.89 43.26 334.89 42.44V36.4H337.81V35H334.89V31.28H333.29V35H331.69V36.4H333.29V42.44C333.29 44.1 334.49 45.2 336.27 45.2ZM343.861 45.2C346.101 45.2 348.021 43.76 348.661 41.6H347.061C346.621 42.92 345.341 43.8 343.861 43.8C341.901 43.8 340.541 42.4 340.461 40.32H348.721L348.881 40.16C348.881 36.96 346.861 34.8 343.861 34.8C340.861 34.8 338.841 36.88 338.841 40C338.841 43.12 340.861 45.2 343.861 45.2ZM340.541 38.92C340.901 37.3 342.241 36.2 343.861 36.2C345.481 36.2 346.821 37.3 347.181 38.92H340.541Z" fill="black"/>
<path d="M179 36.0857V37.0057C178.999 39.1621 178.301 41.2604 177.009 42.9875C175.718 44.7147 173.903 45.9782 171.835 46.5896C169.767 47.201 167.557 47.1276 165.534 46.3803C163.512 45.633 161.785 44.2518 160.611 42.4428C159.437 40.6338 158.88 38.4938 159.022 36.342C159.164 34.1903 159.997 32.1421 161.398 30.5028C162.799 28.8635 164.693 27.7211 166.796 27.2459C168.9 26.7706 171.1 26.9881 173.07 27.8657" stroke="#2667FF" stroke-width="2" stroke-linecap="round" stroke-linejoin="round"/>
<path d="M179 29.0059L169 39.0159L166 36.0159" stroke="#2667FF" stroke-width="2" stroke-linecap="round" stroke-linejoin="round"/>
<rect x="21.498" y="177.5" width="468.002" height="59" fill="white" stroke="#E0E0E0"/>
<rect x="22" y="178" width="420" height="58" fill="#2667FF"/>
<path d="M23.9871 251.09C25.4631 251.09 26.2371 249.992 26.2371 247.913C26.2371 245.834 25.4631 244.736 23.9871 244.736C22.5111 244.736 21.7371 245.834 21.7371 247.913C21.7371 249.992 22.5111 251.09 23.9871 251.09ZM23.9871 250.46C22.9881 250.46 22.4571 249.587 22.4571 247.913C22.4571 246.239 22.9881 245.366 23.9871 245.366C24.9861 245.366 25.5171 246.239 25.5171 247.913C25.5171 249.587 24.9861 250.46 23.9871 250.46Z" fill="#9A9A9A"/>
<path d="M64.969 244.826C64.789 245.447 64.159 245.87 63.394 245.87V246.5C63.988 246.5 64.582 246.32 64.933 246.041L64.933 251H65.653L65.653 244.826H64.969ZM69.052 251.09C70.528 251.09 71.302 249.992 71.302 247.913C71.302 245.834 70.528 244.736 69.052 244.736C67.576 244.736 66.802 245.834 66.802 247.913C66.802 249.992 67.576 251.09 69.052 251.09ZM69.052 250.46C68.053 250.46 67.522 249.587 67.522 247.913C67.522 246.239 68.053 245.366 69.052 245.366C70.051 245.366 70.582 246.239 70.582 247.913C70.582 249.587 70.051 250.46 69.052 250.46Z" fill="#9A9A9A"/>
<path d="M108.24 251H112.578V250.37H109.248C110.058 249.83 110.967 249.155 111.507 248.696C112.119 248.156 112.533 247.355 112.533 246.716C112.533 245.528 111.678 244.736 110.409 244.736C109.113 244.736 108.24 245.69 108.24 247.103H108.915C108.915 246.059 109.518 245.366 110.409 245.366C111.246 245.366 111.813 245.906 111.813 246.716C111.813 247.202 111.507 247.796 111.057 248.192C110.355 248.813 109.221 249.65 108.24 250.28V251ZM115.806 251.09C117.282 251.09 118.056 249.992 118.056 247.913C118.056 245.834 117.282 244.736 115.806 244.736C114.33 244.736 113.556 245.834 113.556 247.913C113.556 249.992 114.33 251.09 115.806 251.09ZM115.806 250.46C114.807 250.46 114.276 249.587 114.276 247.913C114.276 246.239 114.807 245.366 115.806 245.366C116.805 245.366 117.336 246.239 117.336 247.913C117.336 249.587 116.805 250.46 115.806 250.46Z" fill="#9A9A9A"/>
<path d="M156.214 251.09C157.573 251.09 158.473 250.352 158.473 249.254C158.473 248.552 158.032 247.922 157.366 247.679C157.924 247.445 158.293 246.896 158.293 246.302C158.293 245.366 157.465 244.736 156.214 244.736C154.963 244.736 154.135 245.564 154.135 246.806H154.81C154.81 245.942 155.368 245.366 156.214 245.366C157.033 245.366 157.582 245.78 157.582 246.392C157.582 246.977 157.06 247.373 156.286 247.373H155.746V248.003H156.286C157.168 248.003 157.762 248.48 157.762 249.191C157.762 249.956 157.141 250.46 156.214 250.46C155.314 250.46 154.72 249.947 154.72 249.173H154.045C154.045 250.325 154.909 251.09 156.214 251.09ZM161.61 251.09C163.086 251.09 163.86 249.992 163.86 247.913C163.86 245.834 163.086 244.736 161.61 244.736C160.134 244.736 159.36 245.834 159.36 247.913C159.36 249.992 160.134 251.09 161.61 251.09ZM161.61 250.46C160.611 250.46 160.08 249.587 160.08 247.913C160.08 246.239 160.611 245.366 161.61 245.366C162.609 245.366 163.14 246.239 163.14 247.913C163.14 249.587 162.609 250.46 161.61 250.46Z" fill="#9A9A9A"/>
<path d="M202.522 251H203.242L203.242 249.272H204.277V248.642H203.242V244.826H202.297L199.759 248.615V249.272H202.522L202.522 251ZM200.533 248.642L202.522 245.609V248.642H200.533ZM207.415 251.09C208.891 251.09 209.665 249.992 209.665 247.913C209.665 245.834 208.891 244.736 207.415 244.736C205.939 244.736 205.165 245.834 205.165 247.913C205.165 249.992 205.939 251.09 207.415 251.09ZM207.415 250.46C206.416 250.46 205.885 249.587 205.885 247.913C205.885 246.239 206.416 245.366 207.415 245.366C208.414 245.366 208.945 246.239 208.945 247.913C208.945 249.587 208.414 250.46 207.415 250.46Z" fill="#9A9A9A"/>
<path d="M247.868 251.09C249.227 251.09 250.127 250.199 250.127 248.858C250.127 247.517 249.263 246.626 247.958 246.626C247.427 246.626 246.815 246.842 246.446 247.157L246.662 245.456H249.857V244.826H246.014L245.636 247.886L246.383 247.976C246.68 247.544 247.274 247.256 247.868 247.256C248.795 247.256 249.407 247.895 249.407 248.858C249.407 249.821 248.795 250.46 247.868 250.46C246.914 250.46 246.284 249.83 246.284 248.876H245.609C245.609 250.208 246.509 251.09 247.868 251.09ZM253.177 251.09C254.653 251.09 255.427 249.992 255.427 247.913C255.427 245.834 254.653 244.736 253.177 244.736C251.701 244.736 250.927 245.834 250.927 247.913C250.927 249.992 251.701 251.09 253.177 251.09ZM253.177 250.46C252.178 250.46 251.647 249.587 251.647 247.913C251.647 246.239 252.178 245.366 253.177 245.366C254.176 245.366 254.707 246.239 254.707 247.913C254.707 249.587 254.176 250.46 253.177 250.46Z" fill="#9A9A9A"/>
<path d="M291.37 247.913C291.37 249.812 292.279 251.09 293.629 251.09C294.979 251.09 295.888 250.19 295.888 248.849C295.888 247.508 295.006 246.608 293.701 246.608C293.008 246.608 292.36 247.049 292.09 247.706C292.09 246.302 292.711 245.366 293.629 245.366C294.385 245.366 294.961 245.771 295.06 246.365H295.762C295.591 245.393 294.736 244.736 293.629 244.736C292.279 244.736 291.37 246.014 291.37 247.913ZM292.243 248.849C292.243 247.877 292.828 247.229 293.692 247.229C294.574 247.229 295.168 247.877 295.168 248.849C295.168 249.821 294.574 250.469 293.683 250.469C292.819 250.469 292.243 249.821 292.243 248.849ZM299.025 251.09C300.501 251.09 301.275 249.992 301.275 247.913C301.275 245.834 300.501 244.736 299.025 244.736C297.549 244.736 296.775 245.834 296.775 247.913C296.775 249.992 297.549 251.09 299.025 251.09ZM299.025 250.46C298.026 250.46 297.495 249.587 297.495 247.913C297.495 246.239 298.026 245.366 299.025 245.366C300.024 245.366 300.555 246.239 300.555 247.913C300.555 249.587 300.024 250.46 299.025 250.46Z" fill="#9A9A9A"/>
<path d="M338.831 251H339.551C339.551 249.281 340.28 247.508 341.873 245.357V244.826H337.355V245.456H340.973C339.506 247.553 338.831 249.29 338.831 251ZM344.65 251.09C346.126 251.09 346.9 249.992 346.9 247.913C346.9 245.834 346.126 244.736 344.65 244.736C343.174 244.736 342.4 245.834 342.4 247.913C342.4 249.992 343.174 251.09 344.65 251.09ZM344.65 250.46C343.651 250.46 343.12 249.587 343.12 247.913C343.12 246.239 343.651 245.366 344.65 245.366C345.649 245.366 346.18 246.239 346.18 247.913C346.18 249.587 345.649 250.46 344.65 250.46Z" fill="#9A9A9A"/>
<path d="M385.238 251.09C386.597 251.09 387.497 250.37 387.497 249.299C387.497 248.606 387.029 247.958 386.336 247.688C386.867 247.445 387.227 246.887 387.227 246.302C387.227 245.366 386.435 244.736 385.238 244.736C384.041 244.736 383.249 245.366 383.249 246.302C383.249 246.887 383.609 247.445 384.14 247.688C383.447 247.958 382.979 248.606 382.979 249.299C382.979 250.37 383.879 251.09 385.238 251.09ZM385.238 247.373C384.473 247.373 383.969 246.968 383.969 246.365C383.969 245.762 384.473 245.366 385.238 245.366C386.003 245.366 386.507 245.762 386.507 246.365C386.507 246.968 386.003 247.373 385.238 247.373ZM385.238 250.46C384.311 250.46 383.699 249.974 383.699 249.236C383.699 248.498 384.311 248.003 385.238 248.003C386.165 248.003 386.777 248.498 386.777 249.236C386.777 249.974 386.165 250.46 385.238 250.46ZM390.635 251.09C392.111 251.09 392.885 249.992 392.885 247.913C392.885 245.834 392.111 244.736 390.635 244.736C389.159 244.736 388.385 245.834 388.385 247.913C388.385 249.992 389.159 251.09 390.635 251.09ZM390.635 250.46C389.636 250.46 389.105 249.587 389.105 247.913C389.105 246.239 389.636 245.366 390.635 245.366C391.634 245.366 392.165 246.239 392.165 247.913C392.165 249.587 391.634 250.46 390.635 250.46Z" fill="#9A9A9A"/>
<path d="M433.303 247.913C433.303 246.014 432.394 244.736 431.044 244.736C429.694 244.736 428.785 245.636 428.785 246.977C428.785 248.318 429.667 249.218 430.972 249.218C431.665 249.218 432.313 248.777 432.583 248.12C432.583 249.524 431.962 250.46 431.044 250.46C430.288 250.46 429.712 250.055 429.613 249.461H428.911C429.082 250.433 429.937 251.09 431.044 251.09C432.394 251.09 433.303 249.812 433.303 247.913ZM432.43 246.977C432.43 247.949 431.845 248.597 430.981 248.597C430.099 248.597 429.505 247.949 429.505 246.977C429.505 246.005 430.099 245.357 430.99 245.357C431.854 245.357 432.43 246.005 432.43 246.977ZM436.44 251.09C437.916 251.09 438.69 249.992 438.69 247.913C438.69 245.834 437.916 244.736 436.44 244.736C434.964 244.736 434.19 245.834 434.19 247.913C434.19 249.992 434.964 251.09 436.44 251.09ZM436.44 250.46C435.441 250.46 434.91 249.587 434.91 247.913C434.91 246.239 435.441 245.366 436.44 245.366C437.439 245.366 437.97 246.239 437.97 247.913C437.97 249.587 437.439 250.46 436.44 250.46Z" fill="#9A9A9A"/>
<path d="M477.502 244.826C477.322 245.447 476.692 245.87 475.927 245.87V246.5C476.521 246.5 477.115 246.32 477.466 246.041V251H478.186V244.826H477.502ZM481.585 251.09C483.061 251.09 483.835 249.992 483.835 247.913C483.835 245.834 483.061 244.736 481.585 244.736C480.109 244.736 479.335 245.834 479.335 247.913C479.335 249.992 480.109 251.09 481.585 251.09ZM481.585 250.46C480.586 250.46 480.055 249.587 480.055 247.913C480.055 246.239 480.586 245.366 481.585 245.366C482.584 245.366 483.115 246.239 483.115 247.913C483.115 249.587 482.584 250.46 481.585 250.46ZM486.982 251.09C488.458 251.09 489.232 249.992 489.232 247.913C489.232 245.834 488.458 244.736 486.982 244.736C485.506 244.736 484.732 245.834 484.732 247.913C484.732 249.992 485.506 251.09 486.982 251.09ZM486.982 250.46C485.983 250.46 485.452 249.587 485.452 247.913C485.452 246.239 485.983 245.366 486.982 245.366C487.981 245.366 488.512 246.239 488.512 247.913C488.512 249.587 487.981 250.46 486.982 250.46Z" fill="#9A9A9A"/>
<path d="M206.344 113H207.88L203.368 102.024H201.896L197.384 113H198.92L200.184 109.816H205.08L206.344 113ZM200.696 108.536L202.632 103.672L204.568 108.536H200.696ZM212.373 113.16C214.421 113.16 215.989 111.784 216.293 109.752H215.077C214.837 111.128 213.749 112.04 212.373 112.04C210.741 112.04 209.637 110.824 209.637 109C209.637 107.176 210.741 105.96 212.373 105.96C213.749 105.96 214.821 106.84 215.061 108.168H216.277C215.973 106.168 214.405 104.84 212.373 104.84C209.973 104.84 208.357 106.504 208.357 109C208.357 111.496 209.973 113.16 212.373 113.16ZM221.467 113.16C223.515 113.16 225.083 111.784 225.387 109.752H224.171C223.931 111.128 222.843 112.04 221.467 112.04C219.835 112.04 218.731 110.824 218.731 109C218.731 107.176 219.835 105.96 221.467 105.96C222.843 105.96 223.915 106.84 224.155 108.168H225.371C225.067 106.168 223.499 104.84 221.467 104.84C219.067 104.84 217.451 106.504 217.451 109C217.451 111.496 219.067 113.16 221.467 113.16ZM234.033 105H232.753V109.736C232.753 111.112 231.841 112.04 230.481 112.04C229.121 112.04 228.209 111.112 228.209 109.736V105H226.929V109.96C226.929 111.88 228.257 113.16 230.257 113.16C231.185 113.16 232.193 112.68 232.753 111.976V113H234.033V105ZM235.96 113H237.24V108.328C237.24 106.904 238.2 105.96 239.64 105.96H240.184V105C240.024 104.904 239.768 104.84 239.528 104.84C238.728 104.84 237.816 105.352 237.24 106.104V105H235.96V113ZM244.339 113.16C245.411 113.16 246.563 112.552 247.187 111.656V113H248.467V105H247.187V106.344C246.563 105.448 245.411 104.84 244.339 104.84C242.003 104.84 240.435 106.504 240.435 109C240.435 111.496 242.003 113.16 244.339 113.16ZM244.467 112.04C242.819 112.04 241.715 110.824 241.715 109C241.715 107.176 242.819 105.96 244.467 105.96C246.099 105.96 247.187 107.176 247.187 109C247.187 110.824 246.099 112.04 244.467 112.04ZM253.858 113.16C255.906 113.16 257.474 111.784 257.778 109.752H256.562C256.322 111.128 255.234 112.04 253.858 112.04C252.226 112.04 251.122 110.824 251.122 109C251.122 107.176 252.226 105.96 253.858 105.96C255.234 105.96 256.306 106.84 256.546 108.168H257.762C257.458 106.168 255.89 104.84 253.858 104.84C251.458 104.84 249.842 106.504 249.842 109C249.842 111.496 251.458 113.16 253.858 113.16ZM259.939 115.976H261.315L265.635 105H264.259L261.955 110.872L259.619 105H258.259L261.299 112.52L259.939 115.976ZM273.594 113.16C276.314 113.16 278.138 111.848 278.138 109.88C278.138 108.2 277.002 107.352 273.738 106.584C271.706 106.12 271.002 105.704 271.002 104.936C271.002 103.864 272.042 103.144 273.594 103.144C275.034 103.144 276.202 104.024 276.49 105.336L277.802 105.016C277.338 103.128 275.642 101.864 273.594 101.864C271.178 101.864 269.562 103.096 269.562 104.936C269.562 106.472 270.57 107.24 273.45 107.912C275.866 108.472 276.698 108.984 276.698 109.88C276.698 111.08 275.45 111.88 273.594 111.88C271.546 111.88 270.17 110.808 270.17 109.224H268.81C268.81 111.576 270.73 113.16 273.594 113.16ZM283.155 113.16C285.203 113.16 286.771 111.784 287.075 109.752H285.859C285.619 111.128 284.531 112.04 283.155 112.04C281.523 112.04 280.419 110.824 280.419 109C280.419 107.176 281.523 105.96 283.155 105.96C284.531 105.96 285.603 106.84 285.843 108.168H287.059C286.755 106.168 285.187 104.84 283.155 104.84C280.755 104.84 279.139 106.504 279.139 109C279.139 111.496 280.755 113.16 283.155 113.16ZM292.248 113.16C294.648 113.16 296.264 111.496 296.264 109C296.264 106.504 294.648 104.84 292.248 104.84C289.848 104.84 288.232 106.504 288.232 109C288.232 111.496 289.848 113.16 292.248 113.16ZM292.248 112.04C290.616 112.04 289.512 110.824 289.512 109C289.512 107.176 290.616 105.96 292.248 105.96C293.88 105.96 294.984 107.176 294.984 109C294.984 110.824 293.88 112.04 292.248 112.04ZM297.648 113H298.928V108.328C298.928 106.904 299.888 105.96 301.328 105.96H301.872V105C301.712 104.904 301.456 104.84 301.216 104.84C300.416 104.84 299.504 105.352 298.928 106.104V105H297.648V113ZM306.139 113.16C307.931 113.16 309.467 112.008 309.979 110.28H308.699C308.347 111.336 307.323 112.04 306.139 112.04C304.571 112.04 303.483 110.92 303.419 109.256H310.027L310.155 109.128C310.155 106.568 308.539 104.84 306.139 104.84C303.739 104.84 302.123 106.504 302.123 109C302.123 111.496 303.739 113.16 306.139 113.16ZM303.483 108.136C303.771 106.84 304.843 105.96 306.139 105.96C307.435 105.96 308.507 106.84 308.795 108.136H303.483Z" fill="#7A7A7A"/>
<path d="M236.53 140.71C236.53 134.38 233.5 130.12 229 130.12C224.5 130.12 221.47 133.12 221.47 137.59C221.47 142.06 224.41 145.06 228.76 145.06C231.07 145.06 233.23 143.59 234.13 141.4C234.13 146.08 232.06 149.2 229 149.2C226.48 149.2 224.56 147.85 224.23 145.87H221.89C222.46 149.11 225.31 151.3 229 151.3C233.5 151.3 236.53 147.04 236.53 140.71ZM233.62 137.59C233.62 140.83 231.67 142.99 228.79 142.99C225.85 142.99 223.87 140.83 223.87 137.59C223.87 134.35 225.85 132.19 228.82 132.19C231.7 132.19 233.62 134.35 233.62 137.59ZM246.988 151.3C251.908 151.3 254.488 147.64 254.488 140.71C254.488 133.78 251.908 130.12 246.988 130.12C242.068 130.12 239.488 133.78 239.488 140.71C239.488 147.64 242.068 151.3 246.988 151.3ZM246.988 149.2C243.658 149.2 241.888 146.29 241.888 140.71C241.888 135.13 243.658 132.22 246.988 132.22C250.318 132.22 252.088 135.13 252.088 140.71C252.088 146.29 250.318 149.2 246.988 149.2ZM267.775 151.3H269.875L282.475 130.12H280.375L267.775 151.3ZM269.725 140.02C267.085 140.02 264.925 137.86 264.925 135.22C264.925 132.58 267.085 130.42 269.725 130.42C272.365 130.42 274.525 132.58 274.525 135.22C274.525 137.86 272.365 140.02 269.725 140.02ZM269.725 132.52C268.225 132.52 267.025 133.72 267.025 135.22C267.025 136.72 268.225 137.92 269.725 137.92C271.225 137.92 272.425 136.72 272.425 135.22C272.425 133.72 271.225 132.52 269.725 132.52ZM280.825 151C278.185 151 276.025 148.84 276.025 146.2C276.025 143.56 278.185 141.4 280.825 141.4C283.465 141.4 285.625 143.56 285.625 146.2C285.625 148.84 283.465 151 280.825 151ZM280.825 143.5C279.325 143.5 278.125 144.7 278.125 146.2C278.125 147.7 279.325 148.9 280.825 148.9C282.325 148.9 283.525 147.7 283.525 146.2C283.525 144.7 282.325 143.5 280.825 143.5Z" fill="#2667FF"/>
<rect x="375" y="297" width="115" height="28" rx="14" fill="#2667FF"/>
<path d="M420.288 317H423.963C426.903 317 428.868 314.93 428.868 311.84C428.868 308.765 426.903 306.71 423.963 306.71H420.288V317ZM421.638 315.8V307.91H423.963C426.093 307.91 427.518 309.485 427.518 311.84C427.518 314.21 426.093 315.8 423.963 315.8H421.638ZM433.709 317.15C435.389 317.15 436.829 316.07 437.309 314.45H436.109C435.779 315.44 434.819 316.1 433.709 316.1C432.239 316.1 431.219 315.05 431.159 313.49H437.354L437.474 313.37C437.474 310.97 435.959 309.35 433.709 309.35C431.459 309.35 429.944 310.91 429.944 313.25C429.944 315.59 431.459 317.15 433.709 317.15ZM431.219 312.44C431.489 311.225 432.494 310.4 433.709 310.4C434.924 310.4 435.929 311.225 436.199 312.44H431.219ZM438.918 319.79H440.118V315.725C440.703 316.58 441.798 317.15 442.863 317.15C445.083 317.15 446.568 315.59 446.568 313.25C446.568 310.91 445.083 309.35 442.863 309.35C441.798 309.35 440.703 309.92 440.118 310.775V309.5H438.918V319.79ZM442.743 316.1C441.168 316.1 440.118 314.96 440.118 313.25C440.118 311.54 441.168 310.4 442.743 310.4C444.318 310.4 445.368 311.54 445.368 313.25C445.368 314.96 444.318 316.1 442.743 316.1ZM447.868 317H449.068V306.71H447.868V317ZM454.276 317.15C456.526 317.15 458.041 315.59 458.041 313.25C458.041 310.91 456.526 309.35 454.276 309.35C452.026 309.35 450.511 310.91 450.511 313.25C450.511 315.59 452.026 317.15 454.276 317.15ZM454.276 316.1C452.746 316.1 451.711 314.96 451.711 313.25C451.711 311.54 452.746 310.4 454.276 310.4C455.806 310.4 456.841 311.54 456.841 313.25C456.841 314.96 455.806 316.1 454.276 316.1ZM460.065 319.79H461.355L465.405 309.5H464.115L461.955 315.005L459.765 309.5H458.49L461.34 316.55L460.065 319.79Z" fill="white"/>
<path d="M413.561 304H408.787C408.671 304 408.559 304.046 408.477 304.128C408.395 304.211 408.349 304.322 408.349 304.439C408.349 304.555 408.395 304.666 408.477 304.749C408.559 304.831 408.671 304.877 408.787 304.877H412.523L408.66 308.824C408.619 308.865 408.588 308.914 408.566 308.967C408.545 309.021 408.534 309.078 408.535 309.136C408.535 309.193 408.547 309.25 408.57 309.303C408.592 309.356 408.625 309.404 408.666 309.445C408.707 309.485 408.756 309.517 408.809 309.538C408.863 309.56 408.92 309.57 408.978 309.57C409.035 309.569 409.092 309.557 409.145 309.535C409.198 309.512 409.246 309.479 409.286 309.438L413.123 305.517V309.219C413.123 309.335 413.17 309.447 413.252 309.529C413.334 309.611 413.445 309.657 413.561 309.657C413.678 309.657 413.789 309.611 413.871 309.529C413.953 309.447 413.999 309.335 413.999 309.219V304.439C413.999 304.322 413.953 304.211 413.871 304.128C413.789 304.046 413.678 304 413.561 304Z" fill="white"/>
<path d="M404.161 307.828L400.219 310.096C400.152 310.134 400.097 310.19 400.058 310.257C400.02 310.324 400 310.4 400 310.477V315.301C400 315.378 400.02 315.454 400.058 315.521C400.097 315.588 400.152 315.644 400.219 315.683L404.161 317.941C404.228 317.98 404.304 318 404.381 318C404.457 318 404.533 317.98 404.6 317.941L408.542 315.683C408.609 315.644 408.664 315.588 408.703 315.521C408.741 315.454 408.761 315.378 408.761 315.301V310.477C408.761 310.4 408.741 310.324 408.703 310.257C408.664 310.19 408.609 310.134 408.542 310.096L404.6 307.828C404.533 307.79 404.457 307.77 404.381 307.77C404.304 307.77 404.228 307.79 404.161 307.828ZM403.925 316.753L400.859 314.999V311.209L403.925 312.964V316.753ZM404.363 312.332L401.213 310.521L404.363 308.727L407.521 310.534L404.363 312.332ZM407.867 315.003L404.801 316.757V312.964L407.867 311.209V315.003Z" fill="white"/>
</svg>
