<svg width="510" height="350" viewBox="0 0 510 350" fill="none" xmlns="http://www.w3.org/2000/svg">
<rect x="0.5" y="0.5" width="509" height="349" stroke="#2667FF"/>
<path d="M186.4 45H188.2V33.48L193.02 45H194.38L199.2 33.48V45H201V31.28H198.58L193.7 42.72L188.82 31.28H186.4V45ZM208.142 45.2C211.142 45.2 213.162 43.12 213.162 40C213.162 36.88 211.142 34.8 208.142 34.8C205.142 34.8 203.122 36.88 203.122 40C203.122 43.12 205.142 45.2 208.142 45.2ZM208.142 43.8C206.102 43.8 204.722 42.28 204.722 40C204.722 37.72 206.102 36.2 208.142 36.2C210.182 36.2 211.562 37.72 211.562 40C211.562 42.28 210.182 43.8 208.142 43.8ZM219.567 45.2C220.967 45.2 222.427 44.44 223.207 43.3V45H224.807V31.28H223.207V36.7C222.427 35.56 220.967 34.8 219.567 34.8C216.607 34.8 214.607 36.88 214.607 40C214.607 43.12 216.607 45.2 219.567 45.2ZM219.727 43.8C217.627 43.8 216.207 42.28 216.207 40C216.207 37.72 217.627 36.2 219.727 36.2C221.807 36.2 223.207 37.72 223.207 40C223.207 42.28 221.807 43.8 219.727 43.8ZM231.756 45.2C233.996 45.2 235.916 43.76 236.556 41.6H234.956C234.516 42.92 233.236 43.8 231.756 43.8C229.796 43.8 228.436 42.4 228.356 40.32H236.616L236.776 40.16C236.776 36.96 234.756 34.8 231.756 34.8C228.756 34.8 226.736 36.88 226.736 40C226.736 43.12 228.756 45.2 231.756 45.2ZM228.436 38.92C228.796 37.3 230.136 36.2 231.756 36.2C233.376 36.2 234.716 37.3 235.076 38.92H228.436ZM238.7 45H240.3V31.28H238.7V45ZM247.67 45H252.57C256.49 45 259.11 42.24 259.11 38.12C259.11 34.02 256.49 31.28 252.57 31.28H247.67V45ZM249.47 43.4V32.88H252.57C255.41 32.88 257.31 34.98 257.31 38.12C257.31 41.28 255.41 43.4 252.57 43.4H249.47ZM265.564 45.2C267.804 45.2 269.724 43.76 270.364 41.6H268.764C268.324 42.92 267.044 43.8 265.564 43.8C263.604 43.8 262.244 42.4 262.164 40.32H270.424L270.584 40.16C270.584 36.96 268.564 34.8 265.564 34.8C262.564 34.8 260.544 36.88 260.544 40C260.544 43.12 262.564 45.2 265.564 45.2ZM262.244 38.92C262.604 37.3 263.944 36.2 265.564 36.2C267.184 36.2 268.524 37.3 268.884 38.92H262.244ZM272.509 48.72H274.109V43.3C274.889 44.44 276.349 45.2 277.769 45.2C280.729 45.2 282.709 43.12 282.709 40C282.709 36.88 280.729 34.8 277.769 34.8C276.349 34.8 274.889 35.56 274.109 36.7V35H272.509V48.72ZM277.609 43.8C275.509 43.8 274.109 42.28 274.109 40C274.109 37.72 275.509 36.2 277.609 36.2C279.709 36.2 281.109 37.72 281.109 40C281.109 42.28 279.709 43.8 277.609 43.8ZM284.442 45H286.042V31.28H284.442V45ZM292.986 45.2C295.986 45.2 298.006 43.12 298.006 40C298.006 36.88 295.986 34.8 292.986 34.8C289.986 34.8 287.966 36.88 287.966 40C287.966 43.12 289.986 45.2 292.986 45.2ZM292.986 43.8C290.946 43.8 289.566 42.28 289.566 40C289.566 37.72 290.946 36.2 292.986 36.2C295.026 36.2 296.406 37.72 296.406 40C296.406 42.28 295.026 43.8 292.986 43.8ZM300.705 48.72H302.425L307.825 35H306.105L303.225 42.34L300.305 35H298.605L302.405 44.4L300.705 48.72ZM309.501 45H311.101V38.26C311.101 37.02 312.001 36.2 313.321 36.2C314.641 36.2 315.541 37.02 315.541 38.26V45H317.141V38.26C317.141 37.02 318.041 36.2 319.361 36.2C320.681 36.2 321.581 37.02 321.581 38.26V45H323.181V38.1C323.181 36.12 321.721 34.8 319.521 34.8C318.341 34.8 317.141 35.42 316.501 36.32C315.861 35.42 314.721 34.8 313.661 34.8C312.681 34.8 311.661 35.32 311.101 36.12V35H309.501V45ZM329.92 45.2C332.16 45.2 334.08 43.76 334.72 41.6H333.12C332.68 42.92 331.4 43.8 329.92 43.8C327.96 43.8 326.6 42.4 326.52 40.32H334.78L334.94 40.16C334.94 36.96 332.92 34.8 329.92 34.8C326.92 34.8 324.9 36.88 324.9 40C324.9 43.12 326.92 45.2 329.92 45.2ZM326.6 38.92C326.96 37.3 328.3 36.2 329.92 36.2C331.54 36.2 332.88 37.3 333.24 38.92H326.6ZM336.864 45H338.464V39.08C338.464 37.36 339.604 36.2 341.304 36.2C343.004 36.2 344.144 37.36 344.144 39.08V45H345.744V38.8C345.744 36.4 344.084 34.8 341.584 34.8C340.424 34.8 339.164 35.4 338.464 36.28V35H336.864V45ZM351.743 45.2C352.223 45.2 352.883 45.12 353.383 45V43.8H351.643C350.883 43.8 350.363 43.26 350.363 42.44V36.4H353.283V35H350.363V31.28H348.763V35H347.163V36.4H348.763V42.44C348.763 44.1 349.963 45.2 351.743 45.2Z" fill="black"/>
<path d="M174.374 27H167.553C167.387 27 167.227 27.066 167.11 27.1835C166.993 27.301 166.927 27.4603 166.927 27.6265C166.927 27.7927 166.993 27.952 167.11 28.0695C167.227 28.187 167.387 28.253 167.553 28.253H172.891L167.371 33.8916C167.314 33.9504 167.268 34.02 167.237 34.0964C167.207 34.1728 167.192 34.2545 167.192 34.3368C167.193 34.4191 167.21 34.5005 167.243 34.5762C167.275 34.6519 167.322 34.7205 167.38 34.7781C167.439 34.8357 167.509 34.8812 167.585 34.9119C167.661 34.9426 167.743 34.9579 167.825 34.957C167.907 34.9562 167.989 34.9391 168.064 34.9068C168.14 34.8745 168.208 34.8276 168.266 34.7687L173.748 29.1677V34.4555C173.748 34.6216 173.814 34.781 173.931 34.8985C174.049 35.016 174.208 35.082 174.374 35.082C174.54 35.082 174.699 35.016 174.816 34.8985C174.934 34.781 175 34.6216 175 34.4555V27.6265C175 27.4603 174.934 27.301 174.816 27.1835C174.699 27.066 174.54 27 174.374 27Z" fill="#2667FF"/>
<path d="M160.945 32.4692L155.313 35.7082C155.217 35.7634 155.138 35.8429 155.083 35.9386C155.028 36.0344 155 36.1429 155 36.2533V43.1449C155 43.2553 155.028 43.3639 155.083 43.4596C155.138 43.5553 155.217 43.6348 155.313 43.69L160.945 46.9165C161.04 46.9715 161.148 47.0005 161.258 47.0005C161.368 47.0005 161.476 46.9715 161.571 46.9165L167.203 43.69C167.299 43.6348 167.378 43.5553 167.433 43.4596C167.488 43.3639 167.516 43.2553 167.516 43.1449V36.2533C167.516 36.1429 167.488 36.0344 167.433 35.9386C167.378 35.8429 167.299 35.7634 167.203 35.7082L161.571 32.4692C161.476 32.4142 161.368 32.3853 161.258 32.3853C161.148 32.3853 161.04 32.4142 160.945 32.4692ZM160.607 45.2187L156.227 42.7126V37.2996L160.607 39.8056V45.2187ZM161.233 38.9035L156.733 36.316L161.233 33.7535L165.745 36.3348L161.233 38.9035ZM166.239 42.7189L161.859 45.2249V39.8056L166.239 37.2996V42.7189Z" fill="#2667FF"/>
<rect x="151.5" y="106.5" width="207" height="37" rx="1.5" stroke="#2667FF"/>
<path d="M162.05 131H163.4V126.575H166.295C168.23 126.575 169.52 125.39 169.52 123.62C169.52 121.88 168.23 120.71 166.295 120.71H162.05V131ZM163.4 125.375V121.91H166.295C167.42 121.91 168.17 122.6 168.17 123.62C168.17 124.67 167.42 125.375 166.295 125.375H163.4ZM170.66 131H171.86V126.62C171.86 125.285 172.76 124.4 174.11 124.4H174.62V123.5C174.47 123.41 174.23 123.35 174.005 123.35C173.255 123.35 172.4 123.83 171.86 124.535V123.5H170.66V131ZM178.62 131.15C180.3 131.15 181.74 130.07 182.22 128.45H181.02C180.69 129.44 179.73 130.1 178.62 130.1C177.15 130.1 176.13 129.05 176.07 127.49H182.265L182.385 127.37C182.385 124.97 180.87 123.35 178.62 123.35C176.37 123.35 174.855 124.91 174.855 127.25C174.855 129.59 176.37 131.15 178.62 131.15ZM176.13 126.44C176.4 125.225 177.405 124.4 178.62 124.4C179.835 124.4 180.84 125.225 181.11 126.44H176.13ZM187.189 131.15C188.239 131.15 189.334 130.58 189.919 129.725V131H191.119V120.71H189.919V124.775C189.334 123.92 188.239 123.35 187.189 123.35C184.969 123.35 183.469 124.91 183.469 127.25C183.469 129.59 184.969 131.15 187.189 131.15ZM187.309 130.1C185.734 130.1 184.669 128.96 184.669 127.25C184.669 125.54 185.734 124.4 187.309 124.4C188.869 124.4 189.919 125.54 189.919 127.25C189.919 128.96 188.869 130.1 187.309 130.1ZM193.218 122.36H194.418V120.71H193.218V122.36ZM193.218 131H194.418V123.5H193.218V131ZM199.626 131.15C201.546 131.15 203.016 129.86 203.301 127.955H202.161C201.936 129.245 200.916 130.1 199.626 130.1C198.096 130.1 197.061 128.96 197.061 127.25C197.061 125.54 198.096 124.4 199.626 124.4C200.916 124.4 201.921 125.225 202.146 126.47H203.286C203.001 124.595 201.531 123.35 199.626 123.35C197.376 123.35 195.861 124.91 195.861 127.25C195.861 129.59 197.376 131.15 199.626 131.15ZM207.131 131.15C207.491 131.15 207.986 131.09 208.361 131V130.1H207.056C206.486 130.1 206.096 129.695 206.096 129.08V124.55H208.286V123.5H206.096V120.71H204.896V123.5H203.696V124.55H204.896V129.08C204.896 130.325 205.796 131.15 207.131 131.15ZM210.005 122.36H211.205V120.71H210.005V122.36ZM210.005 131H211.205V123.5H210.005V131ZM216.413 131.15C218.663 131.15 220.178 129.59 220.178 127.25C220.178 124.91 218.663 123.35 216.413 123.35C214.163 123.35 212.648 124.91 212.648 127.25C212.648 129.59 214.163 131.15 216.413 131.15ZM216.413 130.1C214.883 130.1 213.848 128.96 213.848 127.25C213.848 125.54 214.883 124.4 216.413 124.4C217.943 124.4 218.978 125.54 218.978 127.25C218.978 128.96 217.943 130.1 216.413 130.1ZM221.475 131H222.675V126.56C222.675 125.27 223.53 124.4 224.805 124.4C226.08 124.4 226.935 125.27 226.935 126.56V131H228.135V126.35C228.135 124.55 226.89 123.35 225.015 123.35C224.145 123.35 223.2 123.8 222.675 124.46V123.5H221.475V131ZM236.628 131.15C238.878 131.15 240.393 129.59 240.393 127.25C240.393 124.91 238.878 123.35 236.628 123.35C234.378 123.35 232.863 124.91 232.863 127.25C232.863 129.59 234.378 131.15 236.628 131.15ZM236.628 130.1C235.098 130.1 234.063 128.96 234.063 127.25C234.063 125.54 235.098 124.4 236.628 124.4C238.158 124.4 239.193 125.54 239.193 127.25C239.193 128.96 238.158 130.1 236.628 130.1ZM241.69 131H242.89V126.56C242.89 125.27 243.745 124.4 245.02 124.4C246.295 124.4 247.15 125.27 247.15 126.56V131H248.35V126.35C248.35 124.55 247.105 123.35 245.23 123.35C244.36 123.35 243.415 123.8 242.89 124.46V123.5H241.69V131ZM253.881 131H255.231V120.71H253.881V131ZM257.188 131H258.388V126.56C258.388 125.27 259.243 124.4 260.518 124.4C261.793 124.4 262.648 125.27 262.648 126.56V131H263.848V126.35C263.848 124.55 262.603 123.35 260.728 123.35C259.858 123.35 258.913 123.8 258.388 124.46V123.5H257.188V131ZM271.182 123.5V124.7C270.627 123.89 269.592 123.35 268.587 123.35C266.442 123.35 265.002 124.88 265.002 127.175C265.002 129.47 266.442 131 268.587 131C269.592 131 270.642 130.46 271.182 129.665V130.19C271.182 131.81 270.177 132.89 268.692 132.89C267.477 132.89 266.517 132.125 266.292 131H265.167C265.467 132.755 266.877 133.94 268.692 133.94C270.897 133.94 272.382 132.44 272.382 130.19V123.5H271.182ZM268.707 129.95C267.207 129.95 266.202 128.84 266.202 127.175C266.202 125.51 267.207 124.4 268.707 124.4C270.192 124.4 271.182 125.51 271.182 127.175C271.182 128.84 270.192 129.95 268.707 129.95ZM277.439 131.15C279.119 131.15 280.559 130.07 281.039 128.45H279.839C279.509 129.44 278.549 130.1 277.439 130.1C275.969 130.1 274.949 129.05 274.889 127.49H281.084L281.204 127.37C281.204 124.97 279.689 123.35 277.439 123.35C275.189 123.35 273.674 124.91 273.674 127.25C273.674 129.59 275.189 131.15 277.439 131.15ZM274.949 126.44C275.219 125.225 276.224 124.4 277.439 124.4C278.654 124.4 279.659 125.225 279.929 126.44H274.949ZM285.103 131.15C287.038 131.15 288.328 130.22 288.328 128.84C288.328 127.595 287.548 126.995 285.283 126.53C283.978 126.215 283.513 125.93 283.513 125.42C283.513 124.805 284.158 124.4 285.103 124.4C285.973 124.4 286.708 124.85 286.933 125.525L288.028 125.255C287.623 124.115 286.453 123.35 285.103 123.35C283.438 123.35 282.313 124.22 282.313 125.51C282.313 126.62 283.018 127.16 285.028 127.61C286.603 127.97 287.143 128.3 287.143 128.9C287.143 129.62 286.318 130.1 285.103 130.1C283.843 130.1 282.988 129.44 282.958 128.45H281.833C281.863 130.07 283.183 131.15 285.103 131.15ZM292.458 131.15C292.818 131.15 293.313 131.09 293.688 131V130.1H292.383C291.813 130.1 291.423 129.695 291.423 129.08V124.55H293.613V123.5H291.423V120.71H290.223V123.5H289.023V124.55H290.223V129.08C290.223 130.325 291.123 131.15 292.458 131.15ZM298.152 131.15C299.832 131.15 301.272 130.07 301.752 128.45H300.552C300.222 129.44 299.262 130.1 298.152 130.1C296.682 130.1 295.662 129.05 295.602 127.49H301.797L301.917 127.37C301.917 124.97 300.402 123.35 298.152 123.35C295.902 123.35 294.387 124.91 294.387 127.25C294.387 129.59 295.902 131.15 298.152 131.15ZM295.662 126.44C295.932 125.225 296.937 124.4 298.152 124.4C299.367 124.4 300.372 125.225 300.642 126.44H295.662ZM306.72 131.15C307.77 131.15 308.865 130.58 309.45 129.725V131H310.65V120.71H309.45V124.775C308.865 123.92 307.77 123.35 306.72 123.35C304.5 123.35 303 124.91 303 127.25C303 129.59 304.5 131.15 306.72 131.15ZM306.84 130.1C305.265 130.1 304.2 128.96 304.2 127.25C304.2 125.54 305.265 124.4 306.84 124.4C308.4 124.4 309.45 125.54 309.45 127.25C309.45 128.96 308.4 130.1 306.84 130.1ZM316.181 131H319.856C322.796 131 324.761 128.93 324.761 125.84C324.761 122.765 322.796 120.71 319.856 120.71H316.181V131ZM317.531 129.8V121.91H319.856C321.986 121.91 323.411 123.485 323.411 125.84C323.411 128.21 321.986 129.8 319.856 129.8H317.531ZM329.497 131.15C330.502 131.15 331.582 130.58 332.167 129.74V131H333.367V123.5H332.167V124.76C331.582 123.92 330.502 123.35 329.497 123.35C327.307 123.35 325.837 124.91 325.837 127.25C325.837 129.59 327.307 131.15 329.497 131.15ZM329.617 130.1C328.072 130.1 327.037 128.96 327.037 127.25C327.037 125.54 328.072 124.4 329.617 124.4C331.147 124.4 332.167 125.54 332.167 127.25C332.167 128.96 331.147 130.1 329.617 130.1ZM337.854 131.15C338.214 131.15 338.709 131.09 339.084 131V130.1H337.779C337.209 130.1 336.819 129.695 336.819 129.08V124.55H339.009V123.5H336.819V120.71H335.619V123.5H334.419V124.55H335.619V129.08C335.619 130.325 336.519 131.15 337.854 131.15ZM343.442 131.15C344.447 131.15 345.527 130.58 346.112 129.74V131H347.312V123.5H346.112V124.76C345.527 123.92 344.447 123.35 343.442 123.35C341.252 123.35 339.782 124.91 339.782 127.25C339.782 129.59 341.252 131.15 343.442 131.15ZM343.562 130.1C342.017 130.1 340.982 128.96 340.982 127.25C340.982 125.54 342.017 124.4 343.562 124.4C345.092 124.4 346.112 125.54 346.112 127.25C346.112 128.96 345.092 130.1 343.562 130.1Z" fill="#2667FF"/>
<rect x="151.5" y="164.5" width="207" height="29" rx="1.5" stroke="#2667FF"/>
<path d="M202.05 185H208.695V183.8H203.4V180.08H208.155V178.88H203.4V175.91H208.695V174.71H202.05V185ZM208.904 185H210.374L212.489 182.015L214.589 185H216.059L213.179 181.055L215.774 177.5H214.319L212.489 180.095L210.644 177.5H209.174L211.799 181.055L208.904 185ZM217.325 187.79H218.525V183.725C219.11 184.58 220.205 185.15 221.27 185.15C223.49 185.15 224.975 183.59 224.975 181.25C224.975 178.91 223.49 177.35 221.27 177.35C220.205 177.35 219.11 177.92 218.525 178.775V177.5H217.325V187.79ZM221.15 184.1C219.575 184.1 218.525 182.96 218.525 181.25C218.525 179.54 219.575 178.4 221.15 178.4C222.725 178.4 223.775 179.54 223.775 181.25C223.775 182.96 222.725 184.1 221.15 184.1ZM229.826 185.15C232.076 185.15 233.591 183.59 233.591 181.25C233.591 178.91 232.076 177.35 229.826 177.35C227.576 177.35 226.061 178.91 226.061 181.25C226.061 183.59 227.576 185.15 229.826 185.15ZM229.826 184.1C228.296 184.1 227.261 182.96 227.261 181.25C227.261 179.54 228.296 178.4 229.826 178.4C231.356 178.4 232.391 179.54 232.391 181.25C232.391 182.96 231.356 184.1 229.826 184.1ZM242.175 184.1C241.605 184.1 241.215 183.695 241.215 183.08V178.55H243.405V177.5H241.215V174.71H240.015V177.5H238.965H238.38C237.57 177.5 236.7 177.92 236.235 178.535V177.5H235.035V185H236.235V180.77C236.235 179.435 237.135 178.55 238.485 178.55H238.815H240.015V183.08C240.015 184.325 240.915 185.15 242.25 185.15C242.61 185.15 243.105 185.09 243.48 185V184.1H242.175ZM248.266 185H251.941C254.881 185 256.846 182.93 256.846 179.84C256.846 176.765 254.881 174.71 251.941 174.71H248.266V185ZM249.616 183.8V175.91H251.941C254.071 175.91 255.496 177.485 255.496 179.84C255.496 182.21 254.071 183.8 251.941 183.8H249.616ZM261.582 185.15C262.587 185.15 263.667 184.58 264.252 183.74V185H265.452V177.5H264.252V178.76C263.667 177.92 262.587 177.35 261.582 177.35C259.392 177.35 257.922 178.91 257.922 181.25C257.922 183.59 259.392 185.15 261.582 185.15ZM261.702 184.1C260.157 184.1 259.122 182.96 259.122 181.25C259.122 179.54 260.157 178.4 261.702 178.4C263.232 178.4 264.252 179.54 264.252 181.25C264.252 182.96 263.232 184.1 261.702 184.1ZM269.939 185.15C270.299 185.15 270.794 185.09 271.169 185V184.1H269.864C269.294 184.1 268.904 183.695 268.904 183.08V178.55H271.094V177.5H268.904V174.71H267.704V177.5H266.504V178.55H267.704V183.08C267.704 184.325 268.604 185.15 269.939 185.15ZM275.527 185.15C276.532 185.15 277.612 184.58 278.197 183.74V185H279.397V177.5H278.197V178.76C277.612 177.92 276.532 177.35 275.527 177.35C273.337 177.35 271.867 178.91 271.867 181.25C271.867 183.59 273.337 185.15 275.527 185.15ZM275.647 184.1C274.102 184.1 273.067 182.96 273.067 181.25C273.067 179.54 274.102 178.4 275.647 178.4C277.177 178.4 278.197 179.54 278.197 181.25C278.197 182.96 277.177 184.1 275.647 184.1ZM283.956 185.15C285.891 185.15 287.181 184.22 287.181 182.84C287.181 181.595 286.401 180.995 284.136 180.53C282.831 180.215 282.366 179.93 282.366 179.42C282.366 178.805 283.011 178.4 283.956 178.4C284.826 178.4 285.561 178.85 285.786 179.525L286.881 179.255C286.476 178.115 285.306 177.35 283.956 177.35C282.291 177.35 281.166 178.22 281.166 179.51C281.166 180.62 281.871 181.16 283.881 181.61C285.456 181.97 285.996 182.3 285.996 182.9C285.996 183.62 285.171 184.1 283.956 184.1C282.696 184.1 281.841 183.44 281.811 182.45H280.686C280.716 184.07 282.036 185.15 283.956 185.15ZM292.024 185.15C293.704 185.15 295.144 184.07 295.624 182.45H294.424C294.094 183.44 293.134 184.1 292.024 184.1C290.554 184.1 289.534 183.05 289.474 181.49H295.669L295.789 181.37C295.789 178.97 294.274 177.35 292.024 177.35C289.774 177.35 288.259 178.91 288.259 181.25C288.259 183.59 289.774 185.15 292.024 185.15ZM289.534 180.44C289.804 179.225 290.809 178.4 292.024 178.4C293.239 178.4 294.244 179.225 294.514 180.44H289.534ZM299.616 185.15C299.976 185.15 300.471 185.09 300.846 185V184.1H299.541C298.971 184.1 298.581 183.695 298.581 183.08V178.55H300.771V177.5H298.581V174.71H297.381V177.5H296.181V178.55H297.381V183.08C297.381 184.325 298.281 185.15 299.616 185.15ZM304.961 185.15C306.896 185.15 308.186 184.22 308.186 182.84C308.186 181.595 307.406 180.995 305.141 180.53C303.836 180.215 303.371 179.93 303.371 179.42C303.371 178.805 304.016 178.4 304.961 178.4C305.831 178.4 306.566 178.85 306.791 179.525L307.886 179.255C307.481 178.115 306.311 177.35 304.961 177.35C303.296 177.35 302.171 178.22 302.171 179.51C302.171 180.62 302.876 181.16 304.886 181.61C306.461 181.97 307.001 182.3 307.001 182.9C307.001 183.62 306.176 184.1 304.961 184.1C303.701 184.1 302.846 183.44 302.816 182.45H301.691C301.721 184.07 303.041 185.15 304.961 185.15Z" fill="#2667FF"/>
<rect x="151.5" y="214.5" width="207" height="29" rx="1.5" stroke="#2667FF"/>
<path d="M194.05 235H195.4V230.575H198.295C200.23 230.575 201.52 229.39 201.52 227.62C201.52 225.88 200.23 224.71 198.295 224.71H194.05V235ZM195.4 229.375V225.91H198.295C199.42 225.91 200.17 226.6 200.17 227.62C200.17 228.67 199.42 229.375 198.295 229.375H195.4ZM202.66 235H203.86V230.62C203.86 229.285 204.76 228.4 206.11 228.4H206.62V227.5C206.47 227.41 206.23 227.35 206.005 227.35C205.255 227.35 204.4 227.83 203.86 228.535V227.5H202.66V235ZM210.62 235.15C212.3 235.15 213.74 234.07 214.22 232.45H213.02C212.69 233.44 211.73 234.1 210.62 234.1C209.15 234.1 208.13 233.05 208.07 231.49H214.265L214.385 231.37C214.385 228.97 212.87 227.35 210.62 227.35C208.37 227.35 206.855 228.91 206.855 231.25C206.855 233.59 208.37 235.15 210.62 235.15ZM208.13 230.44C208.4 229.225 209.405 228.4 210.62 228.4C211.835 228.4 212.84 229.225 213.11 230.44H208.13ZM219.189 235.15C220.239 235.15 221.334 234.58 221.919 233.725V235H223.119V224.71H221.919V228.775C221.334 227.92 220.239 227.35 219.189 227.35C216.969 227.35 215.469 228.91 215.469 231.25C215.469 233.59 216.969 235.15 219.189 235.15ZM219.309 234.1C217.734 234.1 216.669 232.96 216.669 231.25C216.669 229.54 217.734 228.4 219.309 228.4C220.869 228.4 221.919 229.54 221.919 231.25C221.919 232.96 220.869 234.1 219.309 234.1ZM225.218 226.36H226.418V224.71H225.218V226.36ZM225.218 235H226.418V227.5H225.218V235ZM231.626 235.15C233.546 235.15 235.016 233.86 235.301 231.955H234.161C233.936 233.245 232.916 234.1 231.626 234.1C230.096 234.1 229.061 232.96 229.061 231.25C229.061 229.54 230.096 228.4 231.626 228.4C232.916 228.4 233.921 229.225 234.146 230.47H235.286C235.001 228.595 233.531 227.35 231.626 227.35C229.376 227.35 227.861 228.91 227.861 231.25C227.861 233.59 229.376 235.15 231.626 235.15ZM239.131 235.15C239.491 235.15 239.986 235.09 240.361 235V234.1H239.056C238.486 234.1 238.096 233.695 238.096 233.08V228.55H240.286V227.5H238.096V224.71H236.896V227.5H235.696V228.55H236.896V233.08C236.896 234.325 237.796 235.15 239.131 235.15ZM242.005 226.36H243.205V224.71H242.005V226.36ZM242.005 235H243.205V227.5H242.005V235ZM248.413 235.15C250.663 235.15 252.178 233.59 252.178 231.25C252.178 228.91 250.663 227.35 248.413 227.35C246.163 227.35 244.648 228.91 244.648 231.25C244.648 233.59 246.163 235.15 248.413 235.15ZM248.413 234.1C246.883 234.1 245.848 232.96 245.848 231.25C245.848 229.54 246.883 228.4 248.413 228.4C249.943 228.4 250.978 229.54 250.978 231.25C250.978 232.96 249.943 234.1 248.413 234.1ZM253.475 235H254.675V230.56C254.675 229.27 255.53 228.4 256.805 228.4C258.08 228.4 258.935 229.27 258.935 230.56V235H260.135V230.35C260.135 228.55 258.89 227.35 257.015 227.35C256.145 227.35 255.2 227.8 254.675 228.46V227.5H253.475V235ZM269.041 235.15C271.591 235.15 273.301 233.92 273.301 232.075C273.301 230.5 272.236 229.705 269.176 228.985C267.271 228.55 266.611 228.16 266.611 227.44C266.611 226.435 267.586 225.76 269.041 225.76C270.391 225.76 271.486 226.585 271.756 227.815L272.986 227.515C272.551 225.745 270.961 224.56 269.041 224.56C266.776 224.56 265.261 225.715 265.261 227.44C265.261 228.88 266.206 229.6 268.906 230.23C271.171 230.755 271.951 231.235 271.951 232.075C271.951 233.2 270.781 233.95 269.041 233.95C267.121 233.95 265.831 232.945 265.831 231.46H264.556C264.556 233.665 266.356 235.15 269.041 235.15ZM278.003 235.15C279.683 235.15 281.123 234.07 281.603 232.45H280.403C280.073 233.44 279.113 234.1 278.003 234.1C276.533 234.1 275.513 233.05 275.453 231.49H281.648L281.768 231.37C281.768 228.97 280.253 227.35 278.003 227.35C275.753 227.35 274.238 228.91 274.238 231.25C274.238 233.59 275.753 235.15 278.003 235.15ZM275.513 230.44C275.783 229.225 276.788 228.4 278.003 228.4C279.218 228.4 280.223 229.225 280.493 230.44H275.513ZM283.212 235H284.412V230.62C284.412 229.285 285.312 228.4 286.662 228.4H287.172V227.5C287.022 227.41 286.782 227.35 286.557 227.35C285.807 227.35 284.952 227.83 284.412 228.535V227.5H283.212V235ZM290.974 235H292.099L295.099 227.5H293.809L291.529 233.665L289.264 227.5H287.974L290.974 235ZM296.219 226.36H297.419V224.71H296.219V226.36ZM296.219 235H297.419V227.5H296.219V235ZM302.627 235.15C304.547 235.15 306.017 233.86 306.302 231.955H305.162C304.937 233.245 303.917 234.1 302.627 234.1C301.097 234.1 300.062 232.96 300.062 231.25C300.062 229.54 301.097 228.4 302.627 228.4C303.917 228.4 304.922 229.225 305.147 230.47H306.287C306.002 228.595 304.532 227.35 302.627 227.35C300.377 227.35 298.862 228.91 298.862 231.25C298.862 233.59 300.377 235.15 302.627 235.15ZM311.153 235.15C312.833 235.15 314.273 234.07 314.753 232.45H313.553C313.223 233.44 312.263 234.1 311.153 234.1C309.683 234.1 308.663 233.05 308.603 231.49H314.798L314.918 231.37C314.918 228.97 313.403 227.35 311.153 227.35C308.903 227.35 307.388 228.91 307.388 231.25C307.388 233.59 308.903 235.15 311.153 235.15ZM308.663 230.44C308.933 229.225 309.938 228.4 311.153 228.4C312.368 228.4 313.373 229.225 313.643 230.44H308.663Z" fill="#2667FF"/>
</svg>
