<svg width="510" height="350" viewBox="0 0 510 350" fill="none" xmlns="http://www.w3.org/2000/svg">
<rect x="0.5" y="0.5" width="509" height="349" stroke="#2667FF"/>
<path d="M268.115 89.0077C231.212 88.4898 195.817 114.233 185.226 149.665C177.084 175.147 181.841 204.306 197.751 225.831L158.34 218.202L155 235.457L225.869 249.176L239.591 178.875L222.34 175.508L214.012 218.175C193.693 193.921 193.986 155.522 214.652 131.559C234.779 106.409 273.121 99.1896 301.173 114.862C328.01 128.713 342.899 161.525 335.577 190.84C329.02 221.438 299.341 244.642 268.115 244.014C259.988 243.438 255.904 255.174 262.632 259.768C268.506 263.428 275.938 260.847 282.377 260.424C318.726 254.895 349.387 223.888 354.074 187.351C359.492 152.489 340.689 115.74 309.431 99.4373C296.81 92.5873 282.472 88.985 268.115 89.0075V89.0077Z" fill="#2667FF"/>
</svg>
