<svg width="22" height="22" viewBox="0 0 22 22" fill="none" xmlns="http://www.w3.org/2000/svg">
<path d="M18.8571 15.7143C18.3022 15.717 17.7587 15.8719 17.2857 16.1621L14.8579 13.7264C15.4228 12.9295 15.7262 11.9768 15.7262 11C15.7262 10.0232 15.4228 9.07047 14.8579 8.27357L17.2857 5.83786C17.7587 6.1281 18.3022 6.283 18.8571 6.28571C19.4787 6.28571 20.0864 6.10139 20.6032 5.75605C21.1201 5.41071 21.5229 4.91986 21.7608 4.34558C21.9986 3.7713 22.0609 3.13937 21.9396 2.52972C21.8183 1.92006 21.519 1.36006 21.0795 0.920523C20.6399 0.480986 20.0799 0.181658 19.4703 0.0603905C18.8606 -0.0608773 18.2287 0.00136174 17.6544 0.239237C17.0801 0.477113 16.5893 0.87994 16.244 1.39678C15.8986 1.91362 15.7143 2.52126 15.7143 3.14286C15.717 3.69778 15.8719 4.24131 16.1621 4.71429L13.7264 7.14214C12.9295 6.57721 11.9768 6.27377 11 6.27377C10.0232 6.27377 9.07047 6.57721 8.27357 7.14214L5.83786 4.71429C6.1281 4.24131 6.283 3.69778 6.28571 3.14286C6.28571 2.52126 6.10139 1.91362 5.75605 1.39678C5.41071 0.87994 4.91986 0.477113 4.34558 0.239237C3.7713 0.00136174 3.13937 -0.0608773 2.52972 0.0603905C1.92006 0.181658 1.36006 0.480986 0.920523 0.920523C0.480986 1.36006 0.181658 1.92006 0.0603905 2.52972C-0.0608773 3.13937 0.00136174 3.7713 0.239237 4.34558C0.477113 4.91986 0.87994 5.41071 1.39678 5.75605C1.91362 6.10139 2.52126 6.28571 3.14286 6.28571C3.69778 6.283 4.24131 6.1281 4.71429 5.83786L7.14214 8.27357C6.57721 9.07047 6.27377 10.0232 6.27377 11C6.27377 11.9768 6.57721 12.9295 7.14214 13.7264L4.71429 16.1621C4.24131 15.8719 3.69778 15.717 3.14286 15.7143C2.52126 15.7143 1.91362 15.8986 1.39678 16.244C0.87994 16.5893 0.477113 17.0801 0.239237 17.6544C0.00136174 18.2287 -0.0608773 18.8606 0.0603905 19.4703C0.181658 20.0799 0.480986 20.6399 0.920523 21.0795C1.36006 21.519 1.92006 21.8183 2.52972 21.9396C3.13937 22.0609 3.7713 21.9986 4.34558 21.7608C4.91986 21.5229 5.41071 21.1201 5.75605 20.6032C6.10139 20.0864 6.28571 19.4787 6.28571 18.8571C6.283 18.3022 6.1281 17.7587 5.83786 17.2857L8.27357 14.8579C9.07047 15.4228 10.0232 15.7262 11 15.7262C11.9768 15.7262 12.9295 15.4228 13.7264 14.8579L16.1621 17.2857C15.8719 17.7587 15.717 18.3022 15.7143 18.8571C15.7143 19.4787 15.8986 20.0864 16.244 20.6032C16.5893 21.1201 17.0801 21.5229 17.6544 21.7608C18.2287 21.9986 18.8606 22.0609 19.4703 21.9396C20.0799 21.8183 20.6399 21.519 21.0795 21.0795C21.519 20.6399 21.8183 20.0799 21.9396 19.4703C22.0609 18.8606 21.9986 18.2287 21.7608 17.6544C21.5229 17.0801 21.1201 16.5893 20.6032 16.244C20.0864 15.8986 19.4787 15.7143 18.8571 15.7143ZM18.8571 1.57143C19.1679 1.57143 19.4718 1.66359 19.7302 1.83626C19.9886 2.00893 20.19 2.25436 20.309 2.5415C20.4279 2.82864 20.459 3.1446 20.3984 3.44943C20.3377 3.75426 20.1881 4.03426 19.9683 4.25403C19.7485 4.47379 19.4685 4.62346 19.1637 4.68409C18.8589 4.74473 18.5429 4.71361 18.2558 4.59467C17.9686 4.47573 17.7232 4.27432 17.5505 4.0159C17.3779 3.75748 17.2857 3.45366 17.2857 3.14286C17.2857 2.72609 17.4513 2.32639 17.746 2.03169C18.0407 1.73699 18.4404 1.57143 18.8571 1.57143ZM1.57143 3.14286C1.57143 2.83206 1.66359 2.52824 1.83626 2.26982C2.00893 2.0114 2.25436 1.80999 2.5415 1.69105C2.82864 1.57211 3.1446 1.54099 3.44943 1.60162C3.75426 1.66226 4.03426 1.81192 4.25403 2.03169C4.47379 2.25146 4.62346 2.53146 4.68409 2.83629C4.74473 3.14111 4.71361 3.45708 4.59467 3.74422C4.47573 4.03136 4.27432 4.27678 4.0159 4.44945C3.75748 4.62212 3.45366 4.71429 3.14286 4.71429C2.72609 4.71429 2.32639 4.54873 2.03169 4.25403C1.73699 3.95933 1.57143 3.55963 1.57143 3.14286ZM3.14286 20.4286C2.83206 20.4286 2.52824 20.3364 2.26982 20.1637C2.0114 19.9911 1.80999 19.7456 1.69105 19.4585C1.57211 19.1714 1.54099 18.8554 1.60162 18.5506C1.66226 18.2457 1.81192 17.9657 2.03169 17.746C2.25146 17.5262 2.53146 17.3765 2.83629 17.3159C3.14111 17.2553 3.45708 17.2864 3.74422 17.4053C4.03136 17.5243 4.27678 17.7257 4.44945 17.9841C4.62212 18.2425 4.71429 18.5463 4.71429 18.8571C4.71429 19.2739 4.54873 19.6736 4.25403 19.9683C3.95933 20.263 3.55963 20.4286 3.14286 20.4286ZM11 14.1429C10.3784 14.1429 9.77076 13.9585 9.25392 13.6132C8.73708 13.2678 8.33425 12.777 8.09638 12.2027C7.8585 11.6284 7.79626 10.9965 7.91753 10.3869C8.0388 9.7772 8.33813 9.2172 8.77766 8.77766C9.2172 8.33813 9.7772 8.0388 10.3869 7.91753C10.9965 7.79626 11.6284 7.8585 12.2027 8.09638C12.777 8.33425 13.2678 8.73708 13.6132 9.25392C13.9585 9.77076 14.1429 10.3784 14.1429 11C14.1429 11.8335 13.8117 12.6329 13.2223 13.2223C12.6329 13.8117 11.8335 14.1429 11 14.1429ZM18.8571 20.4286C18.5463 20.4286 18.2425 20.3364 17.9841 20.1637C17.7257 19.9911 17.5243 19.7456 17.4053 19.4585C17.2864 19.1714 17.2553 18.8554 17.3159 18.5506C17.3765 18.2457 17.5262 17.9657 17.746 17.746C17.9657 17.5262 18.2457 17.3765 18.5506 17.3159C18.8554 17.2553 19.1714 17.2864 19.4585 17.4053C19.7456 17.5243 19.9911 17.7257 20.1637 17.9841C20.3364 18.2425 20.4286 18.5463 20.4286 18.8571C20.4286 19.2739 20.263 19.6736 19.9683 19.9683C19.6736 20.263 19.2739 20.4286 18.8571 20.4286Z" fill="black"/>
</svg>
