<svg width="16" height="16" viewBox="0 0 16 16" fill="none" xmlns="http://www.w3.org/2000/svg">
<path fill-rule="evenodd" clip-rule="evenodd" d="M16 8C16 3.58172 12.4183 0 8 0C3.58172 0 0 3.58172 0 8C0 12.4183 3.58172 16 8 16C12.4183 16 16 12.4183 16 8ZM8.3055 4.85633C8.3056 4.85612 8.3056 4.85588 8.3055 4.85567C8.27713 4.79902 8.23358 4.75138 8.17969 4.71806C8.1257 4.68467 8.06348 4.66699 8 4.66699C7.93652 4.66699 7.8743 4.68467 7.82031 4.71806C7.76632 4.75144 7.7227 4.79921 7.69433 4.856L6.87667 6.50667C6.82667 6.60667 6.73067 6.67667 6.62 6.69267L4.792 6.957C4.72909 6.96584 4.66992 6.99216 4.62122 7.03297C4.57253 7.07378 4.53628 7.12744 4.51658 7.18785C4.49689 7.24825 4.49455 7.31297 4.50982 7.37464C4.5251 7.4363 4.55739 7.49244 4.603 7.53667L5.92567 8.82133C6.00567 8.89933 6.04233 9.01167 6.02367 9.122L5.71133 10.9357C5.66367 11.2133 5.956 11.425 6.206 11.294L7.841 10.4373C7.94033 10.3853 8.059 10.3853 8.15833 10.4373L9.79333 11.294C10.0433 11.425 10.3357 11.2133 10.288 10.9357L9.97567 9.122C9.95667 9.012 9.99333 8.89933 10.0737 8.82133L11.3963 7.53667C11.4419 7.49244 11.4742 7.4363 11.4895 7.37464C11.5048 7.31297 11.5024 7.24825 11.4828 7.18785C11.4631 7.12744 11.4268 7.07378 11.3781 7.03297C11.3294 6.99216 11.2702 6.96584 11.2073 6.957L9.37967 6.69233C9.32506 6.68446 9.27317 6.66345 9.22847 6.63111C9.18376 6.59877 9.14757 6.55607 9.123 6.50667L8.3055 4.857C8.3054 4.85679 8.3054 4.85654 8.3055 4.85633Z" fill="#fff"/>
</svg>
