<svg width="20" height="22" viewBox="0 0 20 22" fill="none" xmlns="http://www.w3.org/2000/svg">
<path d="M19.25 3.14286V5.10714C19.25 6.83818 14.9388 8.25 9.625 8.25C4.31118 8.25 0 6.83818 0 5.10714V3.14286C0 1.41182 4.31118 0 9.625 0C14.9388 0 19.25 1.41182 19.25 3.14286ZM19.25 7.5625V11.9821C19.25 13.7132 14.9388 15.125 9.625 15.125C4.31118 15.125 0 13.7132 0 11.9821V7.5625C2.06787 8.98661 5.85269 9.64958 9.625 9.64958C13.3973 9.64958 17.1821 8.98661 19.25 7.5625ZM19.25 14.4375V18.8571C19.25 20.5882 14.9388 22 9.625 22C4.31118 22 0 20.5882 0 18.8571V14.4375C2.06787 15.8616 5.85269 16.5246 9.625 16.5246C13.3973 16.5246 17.1821 15.8616 19.25 14.4375Z" fill="black"/>
</svg>
