<svg width="1280" height="280" viewBox="0 0 1280 280" fill="none" xmlns="http://www.w3.org/2000/svg">
<rect width="2771" height="280" fill="white"/>
<path d="M45.082 61H46.972V48.274H51.424V46.594H40.63V48.274H45.082V61ZM53.3186 61H54.9986V54.784C54.9986 52.978 56.1956 51.76 57.9806 51.76C59.7656 51.76 60.9626 52.978 60.9626 54.784V61H62.6426V54.49C62.6426 51.97 60.8996 50.29 58.2746 50.29C57.0566 50.29 55.7336 50.92 54.9986 51.844V46.594H53.3186V61ZM65.1721 48.904H66.8521V46.594H65.1721V48.904ZM65.1721 61H66.8521V50.5H65.1721V61ZM73.4502 61.21C76.1592 61.21 77.9652 59.908 77.9652 57.976C77.9652 56.233 76.8732 55.393 73.7022 54.742C71.8752 54.301 71.2242 53.902 71.2242 53.188C71.2242 52.327 72.1272 51.76 73.4502 51.76C74.6682 51.76 75.6972 52.39 76.0122 53.335L77.5452 52.957C76.9782 51.361 75.3402 50.29 73.4502 50.29C71.1192 50.29 69.5442 51.508 69.5442 53.314C69.5442 54.868 70.5312 55.624 73.3452 56.254C75.5502 56.758 76.3062 57.22 76.3062 58.06C76.3062 59.068 75.1512 59.74 73.4502 59.74C71.6862 59.74 70.4892 58.816 70.4472 57.43H68.8722C68.9142 59.698 70.7622 61.21 73.4502 61.21ZM87.4375 61.21C90.3145 61.21 92.2465 58.921 92.2465 55.498V46.594H90.3565V55.498C90.3565 57.913 89.1805 59.53 87.4375 59.53C85.9675 59.53 84.7495 58.417 84.3925 56.737H82.5655C83.0695 59.404 85.0225 61.21 87.4375 61.21ZM99.5319 61.21C102.682 61.21 104.803 59.026 104.803 55.75C104.803 52.474 102.682 50.29 99.5319 50.29C96.3819 50.29 94.2609 52.474 94.2609 55.75C94.2609 59.026 96.3819 61.21 99.5319 61.21ZM99.5319 59.74C97.3899 59.74 95.9409 58.144 95.9409 55.75C95.9409 53.356 97.3899 51.76 99.5319 51.76C101.674 51.76 103.123 53.356 103.123 55.75C103.123 58.144 101.674 59.74 99.5319 59.74ZM116.147 50.5H114.467V56.716C114.467 58.522 113.27 59.74 111.485 59.74C109.7 59.74 108.503 58.522 108.503 56.716V50.5H106.823V57.01C106.823 59.53 108.566 61.21 111.191 61.21C112.409 61.21 113.732 60.58 114.467 59.656V61H116.147V50.5ZM118.677 61H120.357V54.868C120.357 52.999 121.617 51.76 123.507 51.76H124.221V50.5C124.011 50.374 123.675 50.29 123.36 50.29C122.31 50.29 121.113 50.962 120.357 51.949V50.5H118.677V61ZM125.896 61H127.576V54.784C127.576 52.978 128.773 51.76 130.558 51.76C132.343 51.76 133.54 52.978 133.54 54.784V61H135.22V54.49C135.22 51.97 133.477 50.29 130.852 50.29C129.634 50.29 128.311 50.92 127.576 51.844V50.5H125.896V61ZM142.311 61.21C144.663 61.21 146.679 59.698 147.351 57.43H145.671C145.209 58.816 143.865 59.74 142.311 59.74C140.253 59.74 138.825 58.27 138.741 56.086H147.414L147.582 55.918C147.582 52.558 145.461 50.29 142.311 50.29C139.161 50.29 137.04 52.474 137.04 55.75C137.04 59.026 139.161 61.21 142.311 61.21ZM138.825 54.616C139.203 52.915 140.61 51.76 142.311 51.76C144.012 51.76 145.419 52.915 145.797 54.616H138.825ZM150.416 64.906H152.222L157.892 50.5H156.086L153.062 58.207L149.996 50.5H148.211L152.201 60.37L150.416 64.906ZM165.625 61H167.347L169.552 52.831L171.757 61H173.479L177.091 50.5H175.327L172.66 59.089L170.329 50.5H168.796L166.444 59.089L163.777 50.5H162.013L165.625 61ZM178.847 48.904H180.527V46.594H178.847V48.904ZM178.847 61H180.527V50.5H178.847V61ZM183.256 61H184.936V46.594H183.256V61ZM187.87 61H189.55V46.594H187.87V61ZM201.052 61.21C201.556 61.21 202.249 61.126 202.774 61V59.74H200.947C200.149 59.74 199.603 59.173 199.603 58.312V51.97H202.669V50.5H199.603V46.594H197.923V50.5H196.243V51.97H197.923V58.312C197.923 60.055 199.183 61.21 201.052 61.21ZM208.876 61.21C210.283 61.21 211.795 60.412 212.614 59.236V61H214.294V50.5H212.614V52.264C211.795 51.088 210.283 50.29 208.876 50.29C205.81 50.29 203.752 52.474 203.752 55.75C203.752 59.026 205.81 61.21 208.876 61.21ZM209.044 59.74C206.881 59.74 205.432 58.144 205.432 55.75C205.432 53.356 206.881 51.76 209.044 51.76C211.186 51.76 212.614 53.356 212.614 55.75C212.614 58.144 211.186 59.74 209.044 59.74ZM216.807 61H218.487V57.304L219.789 56.023L223.8 61H225.942L220.986 54.847L225.375 50.5H223.023L218.487 55.057V46.594H216.807V61ZM231.418 61.21C233.77 61.21 235.786 59.698 236.458 57.43H234.778C234.316 58.816 232.972 59.74 231.418 59.74C229.36 59.74 227.932 58.27 227.848 56.086H236.521L236.689 55.918C236.689 52.558 234.568 50.29 231.418 50.29C228.268 50.29 226.147 52.474 226.147 55.75C226.147 59.026 228.268 61.21 231.418 61.21ZM227.932 54.616C228.31 52.915 229.717 51.76 231.418 51.76C233.119 51.76 234.526 52.915 234.904 54.616H227.932ZM243.501 64.906H245.307L250.977 50.5H249.171L246.147 58.207L243.081 50.5H241.296L245.286 60.37L243.501 64.906ZM256.663 61.21C259.813 61.21 261.934 59.026 261.934 55.75C261.934 52.474 259.813 50.29 256.663 50.29C253.513 50.29 251.392 52.474 251.392 55.75C251.392 59.026 253.513 61.21 256.663 61.21ZM256.663 59.74C254.521 59.74 253.072 58.144 253.072 55.75C253.072 53.356 254.521 51.76 256.663 51.76C258.805 51.76 260.254 53.356 260.254 55.75C260.254 58.144 258.805 59.74 256.663 59.74ZM273.278 50.5H271.598V56.716C271.598 58.522 270.401 59.74 268.616 59.74C266.831 59.74 265.634 58.522 265.634 56.716V50.5H263.954V57.01C263.954 59.53 265.697 61.21 268.322 61.21C269.54 61.21 270.863 60.58 271.598 59.656V61H273.278V50.5ZM45.439 86.21C45.943 86.21 46.636 86.126 47.161 86V84.74H45.334C44.536 84.74 43.99 84.173 43.99 83.312V76.97H47.056V75.5H43.99V71.594H42.31V75.5H40.63V76.97H42.31V83.312C42.31 85.055 43.57 86.21 45.439 86.21ZM49.053 86H50.733V79.784C50.733 77.978 51.93 76.76 53.715 76.76C55.5 76.76 56.697 77.978 56.697 79.784V86H58.377V79.49C58.377 76.97 56.634 75.29 54.009 75.29C52.791 75.29 51.468 75.92 50.733 76.844V71.594H49.053V86ZM60.9065 86H62.5865V79.868C62.5865 77.999 63.8465 76.76 65.7365 76.76H66.4505V75.5C66.2405 75.374 65.9045 75.29 65.5895 75.29C64.5395 75.29 63.3425 75.962 62.5865 76.949V75.5H60.9065V86ZM72.0514 86.21C75.2014 86.21 77.3224 84.026 77.3224 80.75C77.3224 77.474 75.2014 75.29 72.0514 75.29C68.9014 75.29 66.7804 77.474 66.7804 80.75C66.7804 84.026 68.9014 86.21 72.0514 86.21ZM72.0514 84.74C69.9094 84.74 68.4604 83.144 68.4604 80.75C68.4604 78.356 69.9094 76.76 72.0514 76.76C74.1934 76.76 75.6424 78.356 75.6424 80.75C75.6424 83.144 74.1934 84.74 72.0514 84.74ZM88.667 75.5H86.987V81.716C86.987 83.522 85.79 84.74 84.005 84.74C82.22 84.74 81.023 83.522 81.023 81.716V75.5H79.343V82.01C79.343 84.53 81.086 86.21 83.711 86.21C84.929 86.21 86.252 85.58 86.987 84.656V86H88.667V75.5ZM99.3445 75.5V77.18C98.5675 76.046 97.1185 75.29 95.7115 75.29C92.7085 75.29 90.6925 77.432 90.6925 80.645C90.6925 83.858 92.7085 86 95.7115 86C97.1185 86 98.5885 85.244 99.3445 84.131V84.866C99.3445 87.134 97.9375 88.646 95.8585 88.646C94.1575 88.646 92.8135 87.575 92.4985 86H90.9235C91.3435 88.457 93.3175 90.116 95.8585 90.116C98.9455 90.116 101.025 88.016 101.025 84.866V75.5H99.3445ZM95.8795 84.53C93.7795 84.53 92.3725 82.976 92.3725 80.645C92.3725 78.314 93.7795 76.76 95.8795 76.76C97.9585 76.76 99.3445 78.314 99.3445 80.645C99.3445 82.976 97.9585 84.53 95.8795 84.53ZM103.542 86H105.222V79.784C105.222 77.978 106.419 76.76 108.204 76.76C109.989 76.76 111.186 77.978 111.186 79.784V86H112.866V79.49C112.866 76.97 111.123 75.29 108.498 75.29C107.28 75.29 105.957 75.92 105.222 76.844V71.594H103.542V86ZM124.374 86.21C124.878 86.21 125.571 86.126 126.096 86V84.74H124.269C123.471 84.74 122.925 84.173 122.925 83.312V76.97H125.991V75.5H122.925V71.594H121.245V75.5H119.565V76.97H121.245V83.312C121.245 85.055 122.505 86.21 124.374 86.21ZM127.988 86H129.668V79.784C129.668 77.978 130.865 76.76 132.65 76.76C134.435 76.76 135.632 77.978 135.632 79.784V86H137.312V79.49C137.312 76.97 135.569 75.29 132.944 75.29C131.726 75.29 130.403 75.92 129.668 76.844V71.594H127.988V86ZM144.403 86.21C146.755 86.21 148.771 84.698 149.443 82.43H147.763C147.301 83.816 145.957 84.74 144.403 84.74C142.345 84.74 140.917 83.27 140.833 81.086H149.506L149.674 80.918C149.674 77.558 147.553 75.29 144.403 75.29C141.253 75.29 139.132 77.474 139.132 80.75C139.132 84.026 141.253 86.21 144.403 86.21ZM140.917 79.616C141.295 77.915 142.702 76.76 144.403 76.76C146.104 76.76 147.511 77.915 147.889 79.616H140.917ZM276.797 86H278.687V79.805H282.74C285.449 79.805 287.255 78.146 287.255 75.668C287.255 73.232 285.449 71.594 282.74 71.594H276.797V86ZM278.687 78.125V73.274H282.74C284.315 73.274 285.365 74.24 285.365 75.668C285.365 77.138 284.315 78.125 282.74 78.125H278.687ZM289.261 73.904H290.941V71.594H289.261V73.904ZM289.261 86H290.941V75.5H289.261V86ZM293.67 89.906H295.35V84.215C296.169 85.412 297.702 86.21 299.193 86.21C302.301 86.21 304.38 84.026 304.38 80.75C304.38 77.474 302.301 75.29 299.193 75.29C297.702 75.29 296.169 76.088 295.35 77.285V75.5H293.67V89.906ZM299.025 84.74C296.82 84.74 295.35 83.144 295.35 80.75C295.35 78.356 296.82 76.76 299.025 76.76C301.23 76.76 302.7 78.356 302.7 80.75C302.7 83.144 301.23 84.74 299.025 84.74ZM311.173 86.21C313.525 86.21 315.541 84.698 316.213 82.43H314.533C314.071 83.816 312.727 84.74 311.173 84.74C309.115 84.74 307.687 83.27 307.603 81.086H316.276L316.444 80.918C316.444 77.558 314.323 75.29 311.173 75.29C308.023 75.29 305.902 77.474 305.902 80.75C305.902 84.026 308.023 86.21 311.173 86.21ZM307.687 79.616C308.065 77.915 309.472 76.76 311.173 76.76C312.874 76.76 314.281 77.915 314.659 79.616H307.687ZM318.464 86H320.144V71.594H318.464V86ZM323.078 73.904H324.758V71.594H323.078V73.904ZM323.078 86H324.758V75.5H323.078V86ZM327.282 86H328.962V79.784C328.962 77.978 330.159 76.76 331.944 76.76C333.729 76.76 334.926 77.978 334.926 79.784V86H336.606V79.49C336.606 76.97 334.863 75.29 332.238 75.29C331.02 75.29 329.697 75.92 328.962 76.844V75.5H327.282V86ZM343.698 86.21C346.05 86.21 348.066 84.698 348.738 82.43H347.058C346.596 83.816 345.252 84.74 343.698 84.74C341.64 84.74 340.212 83.27 340.128 81.086H348.801L348.969 80.918C348.969 77.558 346.848 75.29 343.698 75.29C340.548 75.29 338.427 77.474 338.427 80.75C338.427 84.026 340.548 86.21 343.698 86.21ZM340.212 79.616C340.59 77.915 341.997 76.76 343.698 76.76C345.399 76.76 346.806 77.915 347.184 79.616H340.212ZM350.149 86H352.459V83.69H350.149V86Z" fill="black"/>
<path d="M156.498 86H161.643C165.759 86 168.51 83.102 168.51 78.776C168.51 74.471 165.759 71.594 161.643 71.594H156.498V86ZM158.388 84.32V73.274H161.643C164.625 73.274 166.62 75.479 166.62 78.776C166.62 82.094 164.625 84.32 161.643 84.32H158.388ZM175.141 86.21C176.548 86.21 178.06 85.412 178.879 84.236V86H180.559V75.5H178.879V77.264C178.06 76.088 176.548 75.29 175.141 75.29C172.075 75.29 170.017 77.474 170.017 80.75C170.017 84.026 172.075 86.21 175.141 86.21ZM175.309 84.74C173.146 84.74 171.697 83.144 171.697 80.75C171.697 78.356 173.146 76.76 175.309 76.76C177.451 76.76 178.879 78.356 178.879 80.75C178.879 83.144 177.451 84.74 175.309 84.74ZM186.84 86.21C187.344 86.21 188.037 86.126 188.562 86V84.74H186.735C185.937 84.74 185.391 84.173 185.391 83.312V76.97H188.457V75.5H185.391V71.594H183.711V75.5H182.031V76.97H183.711V83.312C183.711 85.055 184.971 86.21 186.84 86.21ZM194.664 86.21C196.071 86.21 197.583 85.412 198.402 84.236V86H200.082V75.5H198.402V77.264C197.583 76.088 196.071 75.29 194.664 75.29C191.598 75.29 189.54 77.474 189.54 80.75C189.54 84.026 191.598 86.21 194.664 86.21ZM194.832 84.74C192.669 84.74 191.22 83.144 191.22 80.75C191.22 78.356 192.669 76.76 194.832 76.76C196.974 76.76 198.402 78.356 198.402 80.75C198.402 83.144 196.974 84.74 194.832 84.74ZM202.805 86H204.695V74.24L212.759 86H214.859V71.594H212.969V83.375L204.884 71.594H202.805V86ZM222.353 86.21C224.705 86.21 226.721 84.698 227.393 82.43H225.713C225.251 83.816 223.907 84.74 222.353 84.74C220.295 84.74 218.867 83.27 218.783 81.086H227.456L227.624 80.918C227.624 77.558 225.503 75.29 222.353 75.29C219.203 75.29 217.082 77.474 217.082 80.75C217.082 84.026 219.203 86.21 222.353 86.21ZM218.867 79.616C219.245 77.915 220.652 76.76 222.353 76.76C224.054 76.76 225.461 77.915 225.839 79.616H218.867ZM238.969 75.5H237.289V81.716C237.289 83.522 236.092 84.74 234.307 84.74C232.522 84.74 231.325 83.522 231.325 81.716V75.5H229.645V82.01C229.645 84.53 231.388 86.21 234.013 86.21C235.231 86.21 236.554 85.58 237.289 84.656V86H238.969V75.5ZM241.498 86H243.178V79.868C243.178 77.999 244.438 76.76 246.328 76.76H247.042V75.5C246.832 75.374 246.496 75.29 246.181 75.29C245.131 75.29 243.934 75.962 243.178 76.949V75.5H241.498V86ZM252.643 86.21C255.793 86.21 257.914 84.026 257.914 80.75C257.914 77.474 255.793 75.29 252.643 75.29C249.493 75.29 247.372 77.474 247.372 80.75C247.372 84.026 249.493 86.21 252.643 86.21ZM252.643 84.74C250.501 84.74 249.052 83.144 249.052 80.75C249.052 78.356 250.501 76.76 252.643 76.76C254.785 76.76 256.234 78.356 256.234 80.75C256.234 83.144 254.785 84.74 252.643 84.74ZM259.73 86H261.41V79.784C261.41 77.978 262.607 76.76 264.392 76.76C266.177 76.76 267.374 77.978 267.374 79.784V86H269.054V79.49C269.054 76.97 267.311 75.29 264.686 75.29C263.468 75.29 262.145 75.92 261.41 76.844V75.5H259.73V86Z" fill="#0000FF"/>
<circle cx="52.5" cy="206.5" r="12" stroke="#0000FF"/>
<path fill-rule="evenodd" clip-rule="evenodd" d="M1101.41 213.845C1101.41 216.691 1099.53 219 1097.2 219C1094.87 219 1092.98 216.695 1092.98 213.845V154.15C1092.98 151.309 1094.87 149 1097.2 149C1099.53 149 1101.41 151.305 1101.41 154.15V213.845Z" fill="black"/>
<path fill-rule="evenodd" clip-rule="evenodd" d="M1148.62 157.608C1151.64 157.608 1154.1 159.534 1154.1 161.914C1154.1 164.293 1151.64 166.22 1148.62 166.22H1089.48C1086.45 166.22 1084 164.293 1084 161.914C1084 159.534 1086.45 157.608 1089.48 157.608H1148.62Z" fill="black"/>
<path d="M1149.2 179.766V179.767V201.165C1149.2 202.34 1148.96 203.134 1148.58 203.684C1148.21 204.228 1147.66 204.588 1146.92 204.823C1146.17 205.062 1145.26 205.164 1144.2 205.203C1143.45 205.231 1142.64 205.226 1141.79 205.221C1141.44 205.219 1141.09 205.217 1140.73 205.217H1115.14C1114.78 205.217 1114.43 205.219 1114.08 205.221C1113.23 205.226 1112.42 205.231 1111.67 205.203C1110.61 205.164 1109.7 205.062 1108.95 204.823C1108.21 204.588 1107.66 204.228 1107.29 203.684C1106.91 203.134 1106.67 202.34 1106.67 201.165V179.767C1106.67 178.581 1106.88 177.779 1107.22 177.226C1107.56 176.684 1108.05 176.332 1108.71 176.102C1109.39 175.867 1110.23 175.764 1111.24 175.724C1111.96 175.696 1112.74 175.701 1113.59 175.706C1113.92 175.708 1114.27 175.71 1114.63 175.71H1141.15C1141.51 175.71 1141.86 175.708 1142.2 175.706C1143.04 175.701 1143.83 175.696 1144.55 175.724C1145.57 175.764 1146.43 175.867 1147.12 176.102C1147.8 176.334 1148.3 176.688 1148.64 177.229C1148.98 177.782 1149.2 178.582 1149.2 179.766Z" stroke="black"/>
<path fill-rule="evenodd" clip-rule="evenodd" d="M1110.39 161.821H1114.51V174.462H1110.39V161.821Z" fill="black"/>
<path fill-rule="evenodd" clip-rule="evenodd" d="M1141.18 161.821H1145.3V174.462H1141.18V161.821Z" fill="black"/>
<path fill-rule="evenodd" clip-rule="evenodd" d="M1132.51 187.682C1132.57 187.74 1132.61 187.809 1132.64 187.885C1132.67 187.961 1132.69 188.043 1132.69 188.125C1132.69 188.207 1132.67 188.288 1132.64 188.364C1132.61 188.44 1132.57 188.509 1132.51 188.567L1128.77 192.317C1128.72 192.376 1128.65 192.422 1128.57 192.453C1128.5 192.485 1128.42 192.501 1128.33 192.501C1128.25 192.501 1128.17 192.485 1128.09 192.453C1128.02 192.422 1127.95 192.376 1127.89 192.317L1126.03 190.442C1125.97 190.384 1125.92 190.315 1125.89 190.239C1125.86 190.163 1125.84 190.082 1125.84 190C1125.84 189.918 1125.86 189.836 1125.89 189.76C1125.92 189.684 1125.97 189.615 1126.03 189.557C1126.08 189.499 1126.15 189.453 1126.23 189.422C1126.3 189.39 1126.38 189.374 1126.47 189.374C1126.55 189.374 1126.63 189.39 1126.71 189.422C1126.78 189.453 1126.85 189.499 1126.91 189.557L1128.33 190.991L1131.63 187.682C1131.68 187.624 1131.75 187.578 1131.83 187.546C1131.9 187.515 1131.98 187.499 1132.07 187.499C1132.15 187.499 1132.23 187.515 1132.31 187.546C1132.38 187.578 1132.45 187.624 1132.51 187.682Z" fill="#0000FF"/>
<path d="M1122.73 180H1135.18C1135.84 180 1136.47 180.263 1136.94 180.732C1137.4 181.201 1137.67 181.837 1137.67 182.5V197.5C1137.67 198.163 1137.4 198.799 1136.94 199.268C1136.47 199.737 1135.84 200 1135.18 200H1122.73C1122.07 200 1121.44 199.737 1120.97 199.268C1120.51 198.799 1120.24 198.163 1120.24 197.5V196.25H1121.49V197.5C1121.49 197.832 1121.62 198.149 1121.85 198.384C1122.09 198.618 1122.4 198.75 1122.73 198.75H1135.18C1135.51 198.75 1135.82 198.618 1136.06 198.384C1136.29 198.149 1136.42 197.832 1136.42 197.5V182.5C1136.42 182.168 1136.29 181.851 1136.06 181.616C1135.82 181.382 1135.51 181.25 1135.18 181.25H1122.73C1122.4 181.25 1122.09 181.382 1121.85 181.616C1121.62 181.851 1121.49 182.168 1121.49 182.5V183.75H1120.24V182.5C1120.24 181.837 1120.51 181.201 1120.97 180.732C1121.44 180.263 1122.07 180 1122.73 180V180Z" fill="#0000FF"/>
<path d="M1120.24 186.25V185.625C1120.24 185.459 1120.31 185.3 1120.43 185.183C1120.54 185.066 1120.7 185 1120.87 185C1121.03 185 1121.19 185.066 1121.31 185.183C1121.42 185.3 1121.49 185.459 1121.49 185.625V186.25H1122.11C1122.28 186.25 1122.43 186.316 1122.55 186.433C1122.67 186.55 1122.73 186.709 1122.73 186.875C1122.73 187.041 1122.67 187.2 1122.55 187.317C1122.43 187.434 1122.28 187.5 1122.11 187.5H1119.62C1119.46 187.5 1119.3 187.434 1119.18 187.317C1119.07 187.2 1119 187.041 1119 186.875C1119 186.709 1119.07 186.55 1119.18 186.433C1119.3 186.316 1119.46 186.25 1119.62 186.25H1120.24ZM1120.24 190V189.375C1120.24 189.209 1120.31 189.05 1120.43 188.933C1120.54 188.816 1120.7 188.75 1120.87 188.75C1121.03 188.75 1121.19 188.816 1121.31 188.933C1121.42 189.05 1121.49 189.209 1121.49 189.375V190H1122.11C1122.28 190 1122.43 190.066 1122.55 190.183C1122.67 190.3 1122.73 190.459 1122.73 190.625C1122.73 190.791 1122.67 190.95 1122.55 191.067C1122.43 191.184 1122.28 191.25 1122.11 191.25H1119.62C1119.46 191.25 1119.3 191.184 1119.18 191.067C1119.07 190.95 1119 190.791 1119 190.625C1119 190.459 1119.07 190.3 1119.18 190.183C1119.3 190.066 1119.46 190 1119.62 190H1120.24ZM1120.24 193.75V193.125C1120.24 192.959 1120.31 192.8 1120.43 192.683C1120.54 192.566 1120.7 192.5 1120.87 192.5C1121.03 192.5 1121.19 192.566 1121.31 192.683C1121.42 192.8 1121.49 192.959 1121.49 193.125V193.75H1122.11C1122.28 193.75 1122.43 193.816 1122.55 193.933C1122.67 194.05 1122.73 194.209 1122.73 194.375C1122.73 194.541 1122.67 194.7 1122.55 194.817C1122.43 194.934 1122.28 195 1122.11 195H1119.62C1119.46 195 1119.3 194.934 1119.18 194.817C1119.07 194.7 1119 194.541 1119 194.375C1119 194.209 1119.07 194.05 1119.18 193.933C1119.3 193.816 1119.46 193.75 1119.62 193.75H1120.24Z" fill="#0000FF"/>
<path fill-rule="evenodd" clip-rule="evenodd" d="M781.41 213.845C781.41 216.691 779.527 219 777.196 219C774.869 219 772.982 216.695 772.982 213.845V154.15C772.982 151.309 774.869 149 777.196 149C779.527 149 781.41 151.305 781.41 154.15V213.845Z" fill="black"/>
<path fill-rule="evenodd" clip-rule="evenodd" d="M828.616 157.608C831.642 157.608 834.097 159.534 834.097 161.914C834.097 164.293 831.642 166.22 828.616 166.22H769.48C766.454 166.22 764 164.293 764 161.914C764 159.534 766.454 157.608 769.48 157.608H828.616Z" fill="black"/>
<path d="M829.198 179.766V179.767V201.165C829.198 202.34 828.96 203.134 828.581 203.684C828.207 204.228 827.656 204.588 826.919 204.823C826.173 205.062 825.261 205.164 824.202 205.203C823.447 205.231 822.642 205.226 821.789 205.221C821.444 205.219 821.091 205.217 820.73 205.217H795.14C794.779 205.217 794.426 205.219 794.081 205.221C793.228 205.226 792.423 205.231 791.668 205.203C790.609 205.164 789.697 205.062 788.951 204.823C788.214 204.588 787.663 204.228 787.289 203.684C786.91 203.134 786.672 202.34 786.672 201.165V179.767C786.672 178.581 786.883 177.779 787.223 177.226C787.557 176.684 788.046 176.332 788.71 176.102C789.387 175.867 790.231 175.764 791.242 175.724C791.964 175.696 792.743 175.701 793.585 175.706C793.925 175.708 794.274 175.71 794.634 175.71H821.148C821.507 175.71 821.857 175.708 822.197 175.706C823.042 175.701 823.826 175.696 824.554 175.724C825.574 175.764 826.43 175.867 827.12 176.102C827.797 176.334 828.297 176.688 828.637 177.229C828.984 177.782 829.199 178.582 829.198 179.766Z" stroke="black"/>
<path fill-rule="evenodd" clip-rule="evenodd" d="M790.391 161.821H794.512V174.462H790.391V161.821Z" fill="black"/>
<path fill-rule="evenodd" clip-rule="evenodd" d="M821.179 161.821H825.3V174.462H821.179V161.821Z" fill="black"/>
<path d="M815.857 194.379V191.423C815.857 191.045 815.707 190.681 815.439 190.414C815.171 190.146 814.807 189.995 814.429 189.995H808.714V187.14H815.143C815.522 187.14 815.885 186.989 816.153 186.721C816.421 186.454 816.571 186.09 816.571 185.712V181.428C816.571 181.049 816.421 180.686 816.153 180.418C815.885 180.15 815.522 180 815.143 180H800.857C800.478 180 800.115 180.15 799.847 180.418C799.579 180.686 799.429 181.049 799.429 181.428V185.712C799.429 186.09 799.579 186.454 799.847 186.721C800.115 186.989 800.478 187.14 800.857 187.14H807.286V189.995H801.571C801.193 189.995 800.829 190.146 800.561 190.414C800.293 190.681 800.143 191.045 800.143 191.423V194.379C799.47 194.553 798.883 194.966 798.492 195.541C798.102 196.117 797.935 196.814 798.023 197.504C798.11 198.194 798.447 198.828 798.968 199.287C799.49 199.746 800.162 200 800.857 200C801.553 200 802.224 199.746 802.746 199.287C803.268 198.828 803.604 198.194 803.692 197.504C803.779 196.814 803.612 196.117 803.222 195.541C802.832 194.966 802.245 194.553 801.571 194.379V191.423H807.286V194.279H805.143V199.991H810.857V194.279H808.714V191.423H814.429V194.379C813.755 194.553 813.168 194.966 812.778 195.541C812.388 196.117 812.221 196.814 812.308 197.504C812.396 198.194 812.732 198.828 813.254 199.287C813.776 199.746 814.447 200 815.143 200C815.838 200 816.51 199.746 817.032 199.287C817.553 198.828 817.89 198.194 817.977 197.504C818.065 196.814 817.898 196.117 817.508 195.541C817.117 194.966 816.53 194.553 815.857 194.379ZM802.286 197.135C802.286 197.417 802.202 197.693 802.045 197.928C801.888 198.163 801.665 198.346 801.404 198.454C801.143 198.562 800.856 198.59 800.578 198.535C800.301 198.48 800.047 198.344 799.847 198.145C799.647 197.945 799.511 197.69 799.456 197.413C799.401 197.136 799.429 196.849 799.537 196.588C799.645 196.328 799.829 196.105 800.063 195.948C800.298 195.791 800.575 195.707 800.857 195.707C801.236 195.707 801.599 195.857 801.867 196.125C802.135 196.393 802.286 196.756 802.286 197.135ZM809.429 195.707V198.563H806.571V195.707H809.429ZM800.857 185.712V181.428H815.143V185.712H800.857ZM815.143 198.563C814.86 198.563 814.584 198.479 814.349 198.322C814.114 198.165 813.931 197.942 813.823 197.681C813.715 197.42 813.687 197.133 813.742 196.856C813.797 196.579 813.933 196.325 814.133 196.125C814.332 195.926 814.587 195.79 814.864 195.734C815.141 195.679 815.429 195.708 815.69 195.816C815.951 195.924 816.174 196.107 816.331 196.342C816.488 196.576 816.571 196.852 816.571 197.135C816.571 197.514 816.421 197.877 816.153 198.145C815.885 198.412 815.522 198.563 815.143 198.563Z" fill="#0000FF"/>
<path fill-rule="evenodd" clip-rule="evenodd" d="M461.41 213.845C461.41 216.691 459.527 219 457.196 219C454.869 219 452.982 216.695 452.982 213.845V154.15C452.982 151.309 454.869 149 457.196 149C459.527 149 461.41 151.305 461.41 154.15V213.845Z" fill="black"/>
<path fill-rule="evenodd" clip-rule="evenodd" d="M508.616 157.608C511.642 157.608 514.097 159.534 514.097 161.914C514.097 164.293 511.642 166.22 508.616 166.22H449.48C446.454 166.22 444 164.293 444 161.914C444 159.534 446.454 157.608 449.48 157.608H508.616Z" fill="black"/>
<path d="M509.198 179.766V179.767V201.165C509.198 202.34 508.96 203.134 508.581 203.684C508.207 204.228 507.656 204.588 506.919 204.823C506.173 205.062 505.261 205.164 504.202 205.203C503.447 205.231 502.642 205.226 501.789 205.221C501.444 205.219 501.091 205.217 500.73 205.217H475.14C474.779 205.217 474.426 205.219 474.081 205.221C473.228 205.226 472.423 205.231 471.668 205.203C470.609 205.164 469.697 205.062 468.951 204.823C468.214 204.588 467.663 204.228 467.289 203.684C466.91 203.134 466.672 202.34 466.672 201.165V179.767C466.672 178.581 466.883 177.779 467.223 177.226C467.557 176.684 468.046 176.332 468.71 176.102C469.387 175.867 470.231 175.764 471.242 175.724C471.964 175.696 472.743 175.701 473.585 175.706C473.925 175.708 474.274 175.71 474.634 175.71H501.148C501.507 175.71 501.857 175.708 502.197 175.706C503.042 175.701 503.826 175.696 504.554 175.724C505.574 175.764 506.43 175.867 507.12 176.102C507.797 176.334 508.297 176.688 508.637 177.229C508.984 177.782 509.199 178.582 509.198 179.766Z" stroke="black"/>
<path fill-rule="evenodd" clip-rule="evenodd" d="M470.391 161.821H474.512V174.462H470.391V161.821Z" fill="black"/>
<path fill-rule="evenodd" clip-rule="evenodd" d="M501.179 161.821H505.3V174.462H501.179V161.821Z" fill="black"/>
<path d="M496.5 182.857V184.643C496.5 186.217 492.581 187.5 487.75 187.5C482.919 187.5 479 186.217 479 184.643V182.857C479 181.283 482.919 180 487.75 180C492.581 180 496.5 181.283 496.5 182.857ZM496.5 186.875V190.893C496.5 192.467 492.581 193.75 487.75 193.75C482.919 193.75 479 192.467 479 190.893V186.875C480.88 188.17 484.321 188.772 487.75 188.772C491.179 188.772 494.62 188.17 496.5 186.875ZM496.5 193.125V197.143C496.5 198.717 492.581 200 487.75 200C482.919 200 479 198.717 479 197.143V193.125C480.88 194.42 484.321 195.022 487.75 195.022C491.179 195.022 494.62 194.42 496.5 193.125Z" fill="#0000FF"/>
<line y1="219.5" x2="2771" y2="219.5" stroke="black"/>
<path d="M33.8698 248.962C34.3438 249.582 34.3438 250.419 33.8698 251.038C32.3768 252.987 28.7948 257 24.6128 257C20.4308 257 16.8488 252.987 15.3558 251.038C15.1252 250.741 15 250.376 15 250C15 249.624 15.1252 249.259 15.3558 248.962C16.8488 247.013 20.4308 243 24.6128 243C28.7948 243 32.3768 247.013 33.8698 248.962V248.962Z" stroke="#7A7A7A" stroke-linecap="round" stroke-linejoin="round"/>
<path d="M24.6133 253C26.2701 253 27.6133 251.657 27.6133 250C27.6133 248.343 26.2701 247 24.6133 247C22.9564 247 21.6133 248.343 21.6133 250C21.6133 251.657 22.9564 253 24.6133 253Z" stroke="#7A7A7A" stroke-linecap="round" stroke-linejoin="round"/>
</svg>
