<svg width="50" height="50" viewBox="0 0 50 50" fill="none" xmlns="http://www.w3.org/2000/svg">
<rect x="0.25" y="0.25" width="49.5" height="49.5" rx="24.75" stroke="black" stroke-width="0.5"/>
<path d="M33.5714 17H16.4286C16.0497 17 15.6863 17.158 15.4184 17.4393C15.1505 17.7206 15 18.1022 15 18.5V30.5C15 30.8978 15.1505 31.2794 15.4184 31.5607C15.6863 31.842 16.0497 32 16.4286 32H33.5714C33.9503 32 34.3137 31.842 34.5816 31.5607C34.8495 31.2794 35 30.8978 35 30.5V18.5C35 18.1022 34.8495 17.7206 34.5816 17.4393C34.3137 17.158 33.9503 17 33.5714 17ZM32 18.5L25 23.585L18 18.5H32ZM16.4286 30.5V19.1825L24.5929 25.115C24.7124 25.2021 24.8545 25.2488 25 25.2488C25.1455 25.2488 25.2876 25.2021 25.4071 25.115L33.5714 19.1825V30.5H16.4286Z" fill="black"/>
</svg>
