<svg width="24" height="22" viewBox="0 0 24 22" fill="none" xmlns="http://www.w3.org/2000/svg">
<path d="M1.57143 7.55071H7.55071V1.57143H15.7143V8.15571H17.2857V1.57143C17.2857 1.15466 17.1202 0.754961 16.8255 0.460261C16.5308 0.165561 16.1311 0 15.7143 0H5.39786L0 5.39786V20.4286C0 20.8453 0.165561 21.245 0.460261 21.5397C0.754961 21.8344 1.15466 22 1.57143 22H15.7143C16.1311 22 16.5308 21.8344 16.8255 21.5397C17.1202 21.245 17.2857 20.8453 17.2857 20.4286H1.57143V7.55071ZM1.57143 6.04214L6.04214 1.57143H6.28571V6.28571H1.57143V6.04214Z" fill="black"/>
<path d="M19.1086 9.70363C18.9583 9.5749 18.765 9.50764 18.5672 9.51528C18.3695 9.52292 18.1819 9.60489 18.042 9.74483C17.9021 9.88476 17.8201 10.0723 17.8124 10.2701C17.8048 10.4678 17.8721 10.6612 18.0008 10.8115L20.5544 13.3572H11.0001C10.7917 13.3572 10.5918 13.44 10.4445 13.5873C10.2971 13.7347 10.2144 13.9345 10.2144 14.1429C10.2144 14.3513 10.2971 14.5511 10.4445 14.6985C10.5918 14.8458 10.7917 14.9286 11.0001 14.9286H20.5779L18.0008 17.5058C17.9185 17.5762 17.8517 17.6629 17.8046 17.7604C17.7574 17.8578 17.7309 17.964 17.7267 18.0722C17.7225 18.1804 17.7408 18.2883 17.7803 18.3892C17.8198 18.49 17.8797 18.5816 17.9563 18.6581C18.0328 18.7347 18.1244 18.7946 18.2252 18.8341C18.3261 18.8736 18.434 18.8919 18.5422 18.8877C18.6504 18.8835 18.7566 18.857 18.854 18.8098C18.9515 18.7627 19.0382 18.6959 19.1086 18.6136L23.5715 14.1429L19.1086 9.70363Z" fill="black"/>
</svg>
