<svg width="14" height="16" viewBox="0 0 14 16" fill="none" xmlns="http://www.w3.org/2000/svg">
<path d="M12.8333 0H2.33333C2.02391 0 1.72717 0.120408 1.50838 0.334735C1.28958 0.549062 1.16667 0.839753 1.16667 1.14286V3.42857H0V4.57143H1.16667V7.42857H0V8.57143H1.16667V11.4286H0V12.5714H1.16667V14.8571C1.16667 15.1602 1.28958 15.4509 1.50838 15.6653C1.72717 15.8796 2.02391 16 2.33333 16H12.8333C13.1428 16 13.4395 15.8796 13.6583 15.6653C13.8771 15.4509 14 15.1602 14 14.8571V1.14286C14 0.839753 13.8771 0.549062 13.6583 0.334735C13.4395 0.120408 13.1428 0 12.8333 0ZM12.8333 14.8571H2.33333V12.5714H3.5V11.4286H2.33333V8.57143H3.5V7.42857H2.33333V4.57143H3.5V3.42857H2.33333V1.14286H12.8333V14.8571Z" fill="white"/>
<path d="M5.83301 3.42857H10.4997V4.57143H5.83301V3.42857Z" fill="white"/>
<path d="M5.83301 7.42857H10.4997V8.57143H5.83301V7.42857Z" fill="white"/>
<path d="M5.83301 11.4286H10.4997V12.5714H5.83301V11.4286Z" fill="white"/>
</svg>
