<svg width="992" height="106" viewBox="0 0 992 106" fill="none" xmlns="http://www.w3.org/2000/svg">
<path d="M511 62.0257C511 61.3357 511.958 60.7757 513.138 60.7757H568.638L546.705 48.1657C546.496 48.052 546.328 47.9148 546.21 47.7624C546.093 47.6099 546.03 47.4453 546.023 47.2782C546.017 47.1112 546.068 46.945 546.173 46.7897C546.278 46.6343 546.436 46.4928 546.636 46.3737C546.836 46.2545 547.076 46.16 547.34 46.0958C547.604 46.0317 547.887 45.9991 548.173 46C548.459 46.001 548.741 46.0354 549.004 46.1013C549.267 46.1672 549.504 46.2632 549.702 46.3837L575.339 61.1217L575.386 61.1477C575.608 61.2792 575.777 61.438 575.881 61.6125C575.985 61.7871 576.022 61.973 575.988 62.1567C575.934 62.4574 575.695 62.7364 575.315 62.9417L549.702 77.6667C549.504 77.7872 549.267 77.8832 549.004 77.9491C548.741 78.015 548.459 78.0495 548.173 78.0504C547.887 78.0514 547.604 78.0188 547.34 77.9546C547.076 77.8904 546.836 77.796 546.636 77.6768C546.436 77.5576 546.278 77.4162 546.173 77.2608C546.068 77.1054 546.017 76.9393 546.023 76.7722C546.03 76.6051 546.093 76.4405 546.21 76.2881C546.328 76.1356 546.496 75.9985 546.705 75.8847L568.638 63.2747H513.138C511.958 63.2757 511 62.7157 511 62.0257Z" fill="black"/>
<path d="M79 60.0257C79 59.3357 79.9579 58.7757 81.1381 58.7757H136.638L114.705 46.1657C114.496 46.052 114.328 45.9148 114.21 45.7624C114.093 45.6099 114.03 45.4453 114.023 45.2782C114.017 45.1112 114.068 44.945 114.173 44.7897C114.278 44.6343 114.436 44.4928 114.636 44.3737C114.836 44.2545 115.076 44.16 115.34 44.0958C115.604 44.0317 115.887 43.9991 116.173 44C116.459 44.001 116.741 44.0354 117.004 44.1013C117.267 44.1672 117.504 44.2632 117.702 44.3837L143.339 59.1217L143.386 59.1477C143.608 59.2792 143.777 59.438 143.881 59.6125C143.985 59.7871 144.022 59.973 143.988 60.1567C143.934 60.4574 143.695 60.7364 143.315 60.9417L117.702 75.6667C117.504 75.7872 117.267 75.8832 117.004 75.9491C116.741 76.015 116.459 76.0495 116.173 76.0504C115.887 76.0514 115.604 76.0188 115.34 75.9546C115.076 75.8904 114.836 75.796 114.636 75.6768C114.436 75.5576 114.278 75.4162 114.173 75.2608C114.068 75.1054 114.017 74.9393 114.023 74.7722C114.03 74.6051 114.093 74.4405 114.21 74.2881C114.328 74.1356 114.496 73.9985 114.705 73.8847L136.638 61.2747H81.1381C79.9579 61.2757 79 60.7157 79 60.0257Z" fill="black"/>
<path d="M223 61.0257C223 60.3357 223.958 59.7757 225.138 59.7757H280.638L258.705 47.1657C258.496 47.052 258.328 46.9148 258.21 46.7624C258.093 46.6099 258.03 46.4453 258.023 46.2782C258.017 46.1112 258.068 45.945 258.173 45.7897C258.278 45.6343 258.436 45.4928 258.636 45.3737C258.836 45.2545 259.076 45.16 259.34 45.0958C259.604 45.0317 259.887 44.9991 260.173 45C260.459 45.001 260.741 45.0354 261.004 45.1013C261.267 45.1672 261.504 45.2632 261.702 45.3837L287.339 60.1217L287.386 60.1477C287.608 60.2792 287.777 60.438 287.881 60.6125C287.985 60.7871 288.022 60.973 287.988 61.1567C287.934 61.4574 287.695 61.7364 287.315 61.9417L261.702 76.6667C261.504 76.7872 261.267 76.8832 261.004 76.9491C260.741 77.015 260.459 77.0495 260.173 77.0504C259.887 77.0514 259.604 77.0188 259.34 76.9546C259.076 76.8904 258.836 76.796 258.636 76.6768C258.436 76.5576 258.278 76.4162 258.173 76.2608C258.068 76.1054 258.017 75.9393 258.023 75.7722C258.03 75.6051 258.093 75.4405 258.21 75.2881C258.328 75.1356 258.496 74.9985 258.705 74.8847L280.638 62.2747H225.138C223.958 62.2757 223 61.7157 223 61.0257Z" fill="black"/>
<path d="M367 61.0257C367 60.3357 367.958 59.7757 369.138 59.7757H424.638L402.705 47.1657C402.496 47.052 402.328 46.9148 402.21 46.7624C402.093 46.6099 402.03 46.4453 402.023 46.2782C402.017 46.1112 402.068 45.945 402.173 45.7897C402.278 45.6343 402.436 45.4928 402.636 45.3737C402.836 45.2545 403.076 45.16 403.34 45.0958C403.604 45.0317 403.887 44.9991 404.173 45C404.459 45.001 404.741 45.0354 405.004 45.1013C405.267 45.1672 405.504 45.2632 405.702 45.3837L431.339 60.1217L431.386 60.1477C431.608 60.2792 431.777 60.438 431.881 60.6125C431.985 60.7871 432.022 60.973 431.988 61.1567C431.934 61.4574 431.695 61.7364 431.315 61.9417L405.702 76.6667C405.504 76.7872 405.267 76.8832 405.004 76.9491C404.741 77.015 404.459 77.0495 404.173 77.0504C403.887 77.0514 403.604 77.0188 403.34 76.9546C403.076 76.8904 402.836 76.796 402.636 76.6768C402.436 76.5576 402.278 76.4162 402.173 76.2608C402.068 76.1054 402.017 75.9393 402.023 75.7722C402.03 75.6051 402.093 75.4405 402.21 75.2881C402.328 75.1356 402.496 74.9985 402.705 74.8847L424.638 62.2747H369.138C367.958 62.2757 367 61.7157 367 61.0257Z" fill="black"/>
<path d="M799 61.0257C799 60.3357 799.958 59.7757 801.138 59.7757H856.638L834.705 47.1657C834.496 47.052 834.328 46.9148 834.21 46.7624C834.093 46.6099 834.03 46.4453 834.023 46.2782C834.017 46.1112 834.068 45.945 834.173 45.7897C834.278 45.6343 834.436 45.4928 834.636 45.3737C834.836 45.2545 835.076 45.16 835.34 45.0958C835.604 45.0317 835.887 44.9991 836.173 45C836.459 45.001 836.741 45.0354 837.004 45.1013C837.267 45.1672 837.504 45.2632 837.702 45.3837L863.339 60.1217L863.386 60.1477C863.608 60.2792 863.777 60.438 863.881 60.6125C863.985 60.7871 864.022 60.973 863.988 61.1567C863.934 61.4574 863.695 61.7364 863.315 61.9417L837.702 76.6667C837.504 76.7872 837.267 76.8832 837.004 76.9491C836.741 77.015 836.459 77.0495 836.173 77.0504C835.887 77.0514 835.604 77.0188 835.34 76.9546C835.076 76.8904 834.836 76.796 834.636 76.6768C834.436 76.5576 834.278 76.4162 834.173 76.2608C834.068 76.1054 834.017 75.9393 834.023 75.7722C834.03 75.6051 834.093 75.4405 834.21 75.2881C834.328 75.1356 834.496 74.9985 834.705 74.8847L856.638 62.2747H801.138C799.958 62.2757 799 61.7157 799 61.0257Z" fill="black"/>
<path d="M655 60.0257C655 59.3357 655.958 58.7757 657.138 58.7757H712.638L690.705 46.1657C690.496 46.052 690.328 45.9148 690.21 45.7624C690.093 45.6099 690.03 45.4453 690.023 45.2782C690.017 45.1112 690.068 44.945 690.173 44.7897C690.278 44.6343 690.436 44.4928 690.636 44.3737C690.836 44.2545 691.076 44.16 691.34 44.0958C691.604 44.0317 691.887 43.9991 692.173 44C692.459 44.001 692.741 44.0354 693.004 44.1013C693.267 44.1672 693.504 44.2632 693.702 44.3837L719.339 59.1217L719.386 59.1477C719.608 59.2792 719.777 59.438 719.881 59.6125C719.985 59.7871 720.022 59.973 719.988 60.1567C719.934 60.4574 719.695 60.7364 719.315 60.9417L693.702 75.6667C693.504 75.7872 693.267 75.8832 693.004 75.9491C692.741 76.015 692.459 76.0495 692.173 76.0504C691.887 76.0514 691.604 76.0188 691.34 75.9546C691.076 75.8904 690.836 75.796 690.636 75.6768C690.436 75.5576 690.278 75.4162 690.173 75.2608C690.068 75.1054 690.017 74.9393 690.023 74.7722C690.03 74.6051 690.093 74.4405 690.21 74.2881C690.328 74.1356 690.496 73.9985 690.705 73.8847L712.638 61.2747H657.138C655.958 61.2757 655 60.7157 655 60.0257Z" fill="black"/>
<path d="M724.922 106H793.828C796.542 106 798.75 103.792 798.75 101.078V32.1719C798.75 32.1161 798.724 32.0702 798.72 32.0177C798.714 31.9422 798.694 31.8766 798.678 31.8044C798.626 31.5764 798.525 31.3625 798.382 31.1777C798.36 31.1481 798.363 31.112 798.34 31.0825L772.09 1.55125C772.08 1.54141 772.067 1.54141 772.057 1.53156C771.857 1.32225 771.604 1.17042 771.325 1.09188C771.263 1.07219 771.207 1.06563 771.142 1.05578C771.046 1.03938 770.958 1 770.859 1H724.922C722.208 1 720 3.20828 720 5.92188V101.078C720 103.792 722.208 106 724.922 106ZM772.5 6.95547L793.457 30.5312H774.141C773.419 30.5312 772.5 29.1531 772.5 28.0703V6.95547ZM723.281 5.92188C723.281 5.48675 723.454 5.06945 723.762 4.76178C724.069 4.4541 724.487 4.28125 724.922 4.28125H769.219V28.0703C769.219 30.7248 771.368 33.8125 774.141 33.8125H795.469V101.078C795.469 101.513 795.296 101.931 794.988 102.238C794.681 102.546 794.263 102.719 793.828 102.719H724.922C724.003 102.719 723.281 101.997 723.281 101.078V5.92188Z" fill="black"/>
<rect x="734.5" y="85.5" width="7" height="7" fill="white" stroke="#777777"/>
<path d="M747.63 92H748.44V89.345H750.177C751.338 89.345 752.112 88.634 752.112 87.572C752.112 86.528 751.338 85.826 750.177 85.826H747.63V92ZM748.44 88.625V86.546H750.177C750.852 86.546 751.302 86.96 751.302 87.572C751.302 88.202 750.852 88.625 750.177 88.625H748.44ZM752.796 92H753.516V89.372C753.516 88.571 754.056 88.04 754.866 88.04H755.172V87.5C755.082 87.446 754.938 87.41 754.803 87.41C754.353 87.41 753.84 87.698 753.516 88.121V87.5H752.796V92ZM757.572 92.09C758.58 92.09 759.444 91.442 759.732 90.47H759.012C758.814 91.064 758.238 91.46 757.572 91.46C756.69 91.46 756.078 90.83 756.042 89.894H759.759L759.831 89.822C759.831 88.382 758.922 87.41 757.572 87.41C756.222 87.41 755.313 88.346 755.313 89.75C755.313 91.154 756.222 92.09 757.572 92.09ZM756.078 89.264C756.24 88.535 756.843 88.04 757.572 88.04C758.301 88.04 758.904 88.535 759.066 89.264H756.078ZM762.713 92.09C763.343 92.09 764 91.748 764.351 91.235V92H765.071V85.826H764.351V88.265C764 87.752 763.343 87.41 762.713 87.41C761.381 87.41 760.481 88.346 760.481 89.75C760.481 91.154 761.381 92.09 762.713 92.09ZM762.785 91.46C761.84 91.46 761.201 90.776 761.201 89.75C761.201 88.724 761.84 88.04 762.785 88.04C763.721 88.04 764.351 88.724 764.351 89.75C764.351 90.776 763.721 91.46 762.785 91.46ZM766.331 86.816H767.051V85.826H766.331V86.816ZM766.331 92H767.051V87.5H766.331V92ZM770.176 92.09C771.328 92.09 772.21 91.316 772.381 90.173H771.697C771.562 90.947 770.95 91.46 770.176 91.46C769.258 91.46 768.637 90.776 768.637 89.75C768.637 88.724 769.258 88.04 770.176 88.04C770.95 88.04 771.553 88.535 771.688 89.282H772.372C772.201 88.157 771.319 87.41 770.176 87.41C768.826 87.41 767.917 88.346 767.917 89.75C767.917 91.154 768.826 92.09 770.176 92.09ZM774.679 92.09C774.895 92.09 775.192 92.054 775.417 92V91.46H774.634C774.292 91.46 774.058 91.217 774.058 90.848V88.13H775.372V87.5H774.058V85.826H773.338V87.5H772.618V88.13H773.338V90.848C773.338 91.595 773.878 92.09 774.679 92.09ZM776.403 86.816H777.123V85.826H776.403V86.816ZM776.403 92H777.123V87.5H776.403V92ZM780.248 92.09C781.598 92.09 782.507 91.154 782.507 89.75C782.507 88.346 781.598 87.41 780.248 87.41C778.898 87.41 777.989 88.346 777.989 89.75C777.989 91.154 778.898 92.09 780.248 92.09ZM780.248 91.46C779.33 91.46 778.709 90.776 778.709 89.75C778.709 88.724 779.33 88.04 780.248 88.04C781.166 88.04 781.787 88.724 781.787 89.75C781.787 90.776 781.166 91.46 780.248 91.46ZM783.285 92H784.005V89.336C784.005 88.562 784.518 88.04 785.283 88.04C786.048 88.04 786.561 88.562 786.561 89.336V92H787.281V89.21C787.281 88.13 786.534 87.41 785.409 87.41C784.887 87.41 784.32 87.68 784.005 88.076V87.5H783.285V92Z" fill="black"/>
<rect x="734.5" y="69.5" width="7" height="7" fill="white" stroke="#777777"/>
<path d="M747.63 76H749.835C751.599 76 752.778 74.758 752.778 72.904C752.778 71.059 751.599 69.826 749.835 69.826H747.63V76ZM748.44 75.28V70.546H749.835C751.113 70.546 751.968 71.491 751.968 72.904C751.968 74.326 751.113 75.28 749.835 75.28H748.44ZM755.62 76.09C756.223 76.09 756.871 75.748 757.222 75.244V76H757.942V71.5H757.222V72.256C756.871 71.752 756.223 71.41 755.62 71.41C754.306 71.41 753.424 72.346 753.424 73.75C753.424 75.154 754.306 76.09 755.62 76.09ZM755.692 75.46C754.765 75.46 754.144 74.776 754.144 73.75C754.144 72.724 754.765 72.04 755.692 72.04C756.61 72.04 757.222 72.724 757.222 73.75C757.222 74.776 756.61 75.46 755.692 75.46ZM760.634 76.09C760.85 76.09 761.147 76.054 761.372 76V75.46H760.589C760.247 75.46 760.013 75.217 760.013 74.848V72.13H761.327V71.5H760.013V69.826H759.293V71.5H758.573V72.13H759.293V74.848C759.293 75.595 759.833 76.09 760.634 76.09ZM763.987 76.09C764.59 76.09 765.238 75.748 765.589 75.244V76H766.309V71.5H765.589V72.256C765.238 71.752 764.59 71.41 763.987 71.41C762.673 71.41 761.791 72.346 761.791 73.75C761.791 75.154 762.673 76.09 763.987 76.09ZM764.059 75.46C763.132 75.46 762.511 74.776 762.511 73.75C762.511 72.724 763.132 72.04 764.059 72.04C764.977 72.04 765.589 72.724 765.589 73.75C765.589 74.776 764.977 75.46 764.059 75.46ZM769.044 76.09C770.205 76.09 770.979 75.532 770.979 74.704C770.979 73.957 770.511 73.597 769.152 73.318C768.369 73.129 768.09 72.958 768.09 72.652C768.09 72.283 768.477 72.04 769.044 72.04C769.566 72.04 770.007 72.31 770.142 72.715L770.799 72.553C770.556 71.869 769.854 71.41 769.044 71.41C768.045 71.41 767.37 71.932 767.37 72.706C767.37 73.372 767.793 73.696 768.999 73.966C769.944 74.182 770.268 74.38 770.268 74.74C770.268 75.172 769.773 75.46 769.044 75.46C768.288 75.46 767.775 75.064 767.757 74.47H767.082C767.1 75.442 767.892 76.09 769.044 76.09ZM773.885 76.09C774.893 76.09 775.757 75.442 776.045 74.47H775.325C775.127 75.064 774.551 75.46 773.885 75.46C773.003 75.46 772.391 74.83 772.355 73.894H776.072L776.144 73.822C776.144 72.382 775.235 71.41 773.885 71.41C772.535 71.41 771.626 72.346 771.626 73.75C771.626 75.154 772.535 76.09 773.885 76.09ZM772.391 73.264C772.553 72.535 773.156 72.04 773.885 72.04C774.614 72.04 775.217 72.535 775.379 73.264H772.391ZM778.44 76.09C778.656 76.09 778.953 76.054 779.178 76V75.46H778.395C778.053 75.46 777.819 75.217 777.819 74.848V72.13H779.133V71.5H777.819V69.826H777.099V71.5H776.379V72.13H777.099V74.848C777.099 75.595 777.639 76.09 778.44 76.09Z" fill="black"/>
<rect x="734.5" y="53.5" width="7" height="7" fill="white" stroke="#777777"/>
<path d="M747.63 60H748.44V54.816L750.609 60H751.221L753.39 54.816V60H754.2V53.826H753.111L750.915 58.974L748.719 53.826H747.63V60ZM757.351 60.09C757.954 60.09 758.602 59.748 758.953 59.244V60H759.673V55.5H758.953V56.256C758.602 55.752 757.954 55.41 757.351 55.41C756.037 55.41 755.155 56.346 755.155 57.75C755.155 59.154 756.037 60.09 757.351 60.09ZM757.423 59.46C756.496 59.46 755.875 58.776 755.875 57.75C755.875 56.724 756.496 56.04 757.423 56.04C758.341 56.04 758.953 56.724 758.953 57.75C758.953 58.776 758.341 59.46 757.423 59.46ZM762.408 60.09C763.569 60.09 764.343 59.532 764.343 58.704C764.343 57.957 763.875 57.597 762.516 57.318C761.733 57.129 761.454 56.958 761.454 56.652C761.454 56.283 761.841 56.04 762.408 56.04C762.93 56.04 763.371 56.31 763.506 56.715L764.163 56.553C763.92 55.869 763.218 55.41 762.408 55.41C761.409 55.41 760.734 55.932 760.734 56.706C760.734 57.372 761.157 57.696 762.363 57.966C763.308 58.182 763.632 58.38 763.632 58.74C763.632 59.172 763.137 59.46 762.408 59.46C761.652 59.46 761.139 59.064 761.121 58.47H760.446C760.464 59.442 761.256 60.09 762.408 60.09ZM766.821 60.09C767.037 60.09 767.334 60.054 767.559 60V59.46H766.776C766.434 59.46 766.2 59.217 766.2 58.848V56.13H767.514V55.5H766.2V53.826H765.48V55.5H764.76V56.13H765.48V58.848C765.48 59.595 766.02 60.09 766.821 60.09ZM770.237 60.09C771.245 60.09 772.109 59.442 772.397 58.47H771.677C771.479 59.064 770.903 59.46 770.237 59.46C769.355 59.46 768.743 58.83 768.707 57.894H772.424L772.496 57.822C772.496 56.382 771.587 55.41 770.237 55.41C768.887 55.41 767.978 56.346 767.978 57.75C767.978 59.154 768.887 60.09 770.237 60.09ZM768.743 57.264C768.905 56.535 769.508 56.04 770.237 56.04C770.966 56.04 771.569 56.535 771.731 57.264H768.743ZM773.362 60H774.082V57.372C774.082 56.571 774.622 56.04 775.432 56.04H775.738V55.5C775.648 55.446 775.504 55.41 775.369 55.41C774.919 55.41 774.406 55.698 774.082 56.121V55.5H773.362V60ZM776.544 60H777.264V53.826H776.544V60ZM778.521 54.816H779.241V53.826H778.521V54.816ZM778.521 60H779.241V55.5H778.521V60ZM782.069 60.09C783.23 60.09 784.004 59.532 784.004 58.704C784.004 57.957 783.536 57.597 782.177 57.318C781.394 57.129 781.115 56.958 781.115 56.652C781.115 56.283 781.502 56.04 782.069 56.04C782.591 56.04 783.032 56.31 783.167 56.715L783.824 56.553C783.581 55.869 782.879 55.41 782.069 55.41C781.07 55.41 780.395 55.932 780.395 56.706C780.395 57.372 780.818 57.696 782.024 57.966C782.969 58.182 783.293 58.38 783.293 58.74C783.293 59.172 782.798 59.46 782.069 59.46C781.313 59.46 780.8 59.064 780.782 58.47H780.107C780.125 59.442 780.917 60.09 782.069 60.09ZM786.482 60.09C786.698 60.09 786.995 60.054 787.22 60V59.46H786.437C786.095 59.46 785.861 59.217 785.861 58.848V56.13H787.175V55.5H785.861V53.826H785.141V55.5H784.421V56.13H785.141V58.848C785.141 59.595 785.681 60.09 786.482 60.09Z" fill="black"/>
<path d="M747.464 43H751.184V42.04H748.536V40.664H750.896V39.704H748.536V38.472H751.184V37.512H747.464V43ZM751.262 43H752.438L753.374 41.584L754.302 43H755.478L753.926 40.888L755.326 39H754.15L753.374 40.2L752.582 39H751.414L752.814 40.888L751.262 43ZM758.312 38.888C757.824 38.888 757.288 39.112 756.984 39.44V39H756.024V44.488H756.984V42.56C757.288 42.888 757.824 43.112 758.312 43.112C759.576 43.112 760.424 42.264 760.424 41C760.424 39.736 759.576 38.888 758.312 38.888ZM758.216 39.736C758.968 39.736 759.464 40.24 759.464 41C759.464 41.76 758.968 42.264 758.216 42.264C757.48 42.264 756.984 41.76 756.984 41C756.984 40.24 757.48 39.736 758.216 39.736ZM763.009 43.112C764.313 43.112 765.177 42.264 765.177 41C765.177 39.736 764.313 38.888 763.009 38.888C761.705 38.888 760.841 39.736 760.841 41C760.841 42.264 761.705 43.112 763.009 43.112ZM763.009 42.264C762.281 42.264 761.801 41.76 761.801 41C761.801 40.24 762.281 39.736 763.009 39.736C763.737 39.736 764.217 40.24 764.217 41C764.217 41.76 763.737 42.264 763.009 42.264ZM769.737 42.312C769.529 42.312 769.385 42.176 769.385 41.976V39.8H770.393V39H769.385V37.512H768.425V39H768.001H767.617C767.209 39 766.809 39.192 766.633 39.488V39H765.673V43H766.633V40.696C766.633 40.16 767.049 39.8 767.673 39.8H767.785H768.425V41.976C768.425 42.656 768.953 43.112 769.753 43.112C770.017 43.112 770.289 43.064 770.433 43V42.312H769.737Z" fill="#1BA94C"/>
<path d="M580.922 106H649.828C652.542 106 654.75 103.792 654.75 101.078V32.1719C654.75 32.1161 654.724 32.0702 654.72 32.0177C654.714 31.9422 654.694 31.8766 654.678 31.8044C654.626 31.5764 654.525 31.3625 654.382 31.1777C654.36 31.1481 654.363 31.112 654.34 31.0825L628.09 1.55125C628.08 1.54141 628.067 1.54141 628.057 1.53156C627.857 1.32225 627.604 1.17042 627.325 1.09188C627.263 1.07219 627.207 1.06563 627.142 1.05578C627.046 1.03938 626.958 1 626.859 1H580.922C578.208 1 576 3.20828 576 5.92188V101.078C576 103.792 578.208 106 580.922 106ZM628.5 6.95547L649.457 30.5312H630.141C629.419 30.5312 628.5 29.1531 628.5 28.0703V6.95547ZM579.281 5.92188C579.281 5.48675 579.454 5.06945 579.762 4.76178C580.069 4.4541 580.487 4.28125 580.922 4.28125H625.219V28.0703C625.219 30.7248 627.368 33.8125 630.141 33.8125H651.469V101.078C651.469 101.513 651.296 101.931 650.988 102.238C650.681 102.546 650.263 102.719 649.828 102.719H580.922C580.003 102.719 579.281 101.997 579.281 101.078V5.92188Z" fill="black"/>
<path d="M582.63 88H583.44V85.345H585.177C586.338 85.345 587.112 84.634 587.112 83.572C587.112 82.528 586.338 81.826 585.177 81.826H582.63V88ZM583.44 84.625V82.546H585.177C585.852 82.546 586.302 82.96 586.302 83.572C586.302 84.202 585.852 84.625 585.177 84.625H583.44ZM587.796 88H588.516V85.372C588.516 84.571 589.056 84.04 589.866 84.04H590.172V83.5C590.082 83.446 589.938 83.41 589.803 83.41C589.353 83.41 588.84 83.698 588.516 84.121V83.5H587.796V88ZM592.572 88.09C593.58 88.09 594.444 87.442 594.732 86.47H594.012C593.814 87.064 593.238 87.46 592.572 87.46C591.69 87.46 591.078 86.83 591.042 85.894H594.759L594.831 85.822C594.831 84.382 593.922 83.41 592.572 83.41C591.222 83.41 590.313 84.346 590.313 85.75C590.313 87.154 591.222 88.09 592.572 88.09ZM591.078 85.264C591.24 84.535 591.843 84.04 592.572 84.04C593.301 84.04 593.904 84.535 594.066 85.264H591.078ZM597.713 88.09C598.343 88.09 599 87.748 599.351 87.235V88H600.071V81.826H599.351V84.265C599 83.752 598.343 83.41 597.713 83.41C596.381 83.41 595.481 84.346 595.481 85.75C595.481 87.154 596.381 88.09 597.713 88.09ZM597.785 87.46C596.84 87.46 596.201 86.776 596.201 85.75C596.201 84.724 596.84 84.04 597.785 84.04C598.721 84.04 599.351 84.724 599.351 85.75C599.351 86.776 598.721 87.46 597.785 87.46ZM601.331 82.816H602.051V81.826H601.331V82.816ZM601.331 88H602.051V83.5H601.331V88ZM605.176 88.09C606.328 88.09 607.21 87.316 607.381 86.173H606.697C606.562 86.947 605.95 87.46 605.176 87.46C604.258 87.46 603.637 86.776 603.637 85.75C603.637 84.724 604.258 84.04 605.176 84.04C605.95 84.04 606.553 84.535 606.688 85.282H607.372C607.201 84.157 606.319 83.41 605.176 83.41C603.826 83.41 602.917 84.346 602.917 85.75C602.917 87.154 603.826 88.09 605.176 88.09ZM609.679 88.09C609.895 88.09 610.192 88.054 610.417 88V87.46H609.634C609.292 87.46 609.058 87.217 609.058 86.848V84.13H610.372V83.5H609.058V81.826H608.338V83.5H607.618V84.13H608.338V86.848C608.338 87.595 608.878 88.09 609.679 88.09ZM611.403 82.816H612.123V81.826H611.403V82.816ZM611.403 88H612.123V83.5H611.403V88ZM615.248 88.09C616.598 88.09 617.507 87.154 617.507 85.75C617.507 84.346 616.598 83.41 615.248 83.41C613.898 83.41 612.989 84.346 612.989 85.75C612.989 87.154 613.898 88.09 615.248 88.09ZM615.248 87.46C614.33 87.46 613.709 86.776 613.709 85.75C613.709 84.724 614.33 84.04 615.248 84.04C616.166 84.04 616.787 84.724 616.787 85.75C616.787 86.776 616.166 87.46 615.248 87.46ZM618.285 88H619.005V85.336C619.005 84.562 619.518 84.04 620.283 84.04C621.048 84.04 621.561 84.562 621.561 85.336V88H622.281V85.21C622.281 84.13 621.534 83.41 620.409 83.41C619.887 83.41 619.32 83.68 619.005 84.076V83.5H618.285V88ZM625.6 88H627.805C629.569 88 630.748 86.758 630.748 84.904C630.748 83.059 629.569 81.826 627.805 81.826H625.6V88ZM626.41 87.28V82.546H627.805C629.083 82.546 629.938 83.491 629.938 84.904C629.938 86.326 629.083 87.28 627.805 87.28H626.41ZM633.652 88.09C635.002 88.09 635.911 87.154 635.911 85.75C635.911 84.346 635.002 83.41 633.652 83.41C632.302 83.41 631.393 84.346 631.393 85.75C631.393 87.154 632.302 88.09 633.652 88.09ZM633.652 87.46C632.734 87.46 632.113 86.776 632.113 85.75C632.113 84.724 632.734 84.04 633.652 84.04C634.57 84.04 635.191 84.724 635.191 85.75C635.191 86.776 634.57 87.46 633.652 87.46ZM636.689 88H637.409V85.336C637.409 84.562 637.922 84.04 638.687 84.04C639.452 84.04 639.965 84.562 639.965 85.336V88H640.685V85.21C640.685 84.13 639.938 83.41 638.813 83.41C638.291 83.41 637.724 83.68 637.409 84.076V83.5H636.689V88ZM643.725 88.09C644.733 88.09 645.597 87.442 645.885 86.47H645.165C644.967 87.064 644.391 87.46 643.725 87.46C642.843 87.46 642.231 86.83 642.195 85.894H645.912L645.984 85.822C645.984 84.382 645.075 83.41 643.725 83.41C642.375 83.41 641.466 84.346 641.466 85.75C641.466 87.154 642.375 88.09 643.725 88.09ZM642.231 85.264C642.393 84.535 642.996 84.04 643.725 84.04C644.454 84.04 645.057 84.535 645.219 85.264H642.231ZM647.03 86.02H647.66L647.795 81.826H646.895L647.03 86.02ZM646.85 88H647.84V87.01H646.85V88Z" fill="black"/>
<path d="M612.76 40.0841C614.427 40.0841 615.998 40.5033 617.37 41.2407C617.26 41.8841 617.046 42.3395 616.754 42.633C616.572 42.8081 616.358 42.9457 616.122 43.0378C615.22 42.6141 614.243 42.3721 613.248 42.3259C612.252 42.2796 611.257 42.43 610.319 42.7683C609.382 43.1066 608.52 43.6263 607.783 44.2977C607.046 44.9691 606.449 45.779 606.025 46.6812C605.601 47.5835 605.359 48.5603 605.313 49.5561C605.267 50.5518 605.417 51.5469 605.755 52.4845C606.094 53.4222 606.613 54.284 607.285 55.0208C607.956 55.7576 608.766 56.3549 609.668 56.7787C610.663 57.1662 611.583 57.3801 612.424 57.425L612.76 57.4336C613.692 57.4336 614.721 57.2168 615.849 56.7801C617.168 56.1899 618.292 55.2372 619.091 54.0331C620.016 54.3512 621.128 54.1575 621.829 53.4534C621.232 54.9489 620.275 56.274 619.043 57.3107L621.387 64.3445C621.573 64.9043 621.558 65.5117 621.344 66.0616C621.131 66.6116 620.731 67.0695 620.216 67.3561C618.233 68.4593 615.744 69 612.76 69C609.775 69 607.286 68.4593 605.304 67.3561C604.788 67.0695 604.388 66.6116 604.175 66.0616C603.961 65.5117 603.946 64.9043 604.132 64.3445L606.476 57.3107C604.944 56.022 603.846 54.2935 603.33 52.3595C602.814 50.4255 602.905 48.3796 603.591 46.4991C604.277 44.6186 605.524 42.9945 607.164 41.8469C608.805 40.6994 610.758 40.084 612.76 40.0841ZM617.179 58.5773L616.659 58.7927L616.633 58.8042C615.556 59.2697 614.404 59.5362 613.232 59.5908H613.208C613.173 59.5939 613.137 59.5958 613.102 59.5965L612.76 59.6023L612.476 59.5965L612.288 59.5893C611.116 59.5364 609.963 59.2703 608.886 58.8042L608.86 58.7927C608.685 58.724 608.512 58.6522 608.34 58.5773L606.19 65.0298C606.163 65.1098 606.165 65.1966 606.195 65.2753C606.226 65.354 606.282 65.4196 606.356 65.4607C607.99 66.3672 610.12 66.8313 612.76 66.8313C615.4 66.8313 617.531 66.3687 619.163 65.4607C619.236 65.4196 619.293 65.3543 619.323 65.2759C619.354 65.1975 619.356 65.111 619.329 65.0313L617.179 58.5773ZM612.311 59.5922L612.476 59.5965L612.524 59.5994L612.76 59.6023C612.609 59.6023 612.46 59.5994 612.311 59.5922ZM621.423 39.9106L621.434 40.0841C621.434 41.7467 621.825 42.9178 622.562 43.6552C623.243 44.3347 624.294 44.7207 625.757 44.7757L626.133 44.7829C627.518 44.7829 627.576 46.7752 626.307 46.94L626.133 46.9516C624.47 46.9516 623.299 47.342 622.562 48.0793C621.883 48.7617 621.496 49.8114 621.442 51.2745L621.434 51.6504C621.434 53.0962 619.266 53.0962 619.266 51.6504C619.266 49.9878 618.875 48.8167 618.138 48.0793C617.455 47.3998 616.406 47.0138 614.943 46.9588L614.567 46.9516C613.182 46.9516 613.124 44.9593 614.393 44.7945L614.567 44.7829C616.229 44.7829 617.401 44.3925 618.138 43.6552C618.875 42.9178 619.266 41.7467 619.266 40.0841C619.266 38.699 621.258 38.6412 621.423 39.9106ZM620.35 44.3535L620.142 44.647C619.78 45.1259 619.337 45.5388 618.835 45.8673C619.438 46.2625 619.954 46.7778 620.35 47.381C620.745 46.7779 621.261 46.2627 621.864 45.8673C621.362 45.538 620.921 45.1253 620.558 44.647L620.35 44.3535Z" fill="#1BA94C"/>
<path d="M436.922 105H505.828C508.542 105 510.75 102.792 510.75 100.078V31.1719C510.75 31.1161 510.724 31.0702 510.72 31.0177C510.714 30.9422 510.694 30.8766 510.678 30.8044C510.626 30.5764 510.525 30.3625 510.382 30.1777C510.36 30.1481 510.363 30.112 510.34 30.0825L484.09 0.55125C484.08 0.541406 484.067 0.541406 484.057 0.531563C483.857 0.322253 483.604 0.170425 483.325 0.091875C483.263 0.0721875 483.207 0.065625 483.142 0.0557813C483.046 0.039375 482.958 0 482.859 0H436.922C434.208 0 432 2.20828 432 4.92188V100.078C432 102.792 434.208 105 436.922 105ZM484.5 5.95547L505.457 29.5312H486.141C485.419 29.5312 484.5 28.1531 484.5 27.0703V5.95547ZM435.281 4.92188C435.281 4.48675 435.454 4.06945 435.762 3.76178C436.069 3.4541 436.487 3.28125 436.922 3.28125H481.219V27.0703C481.219 29.7248 483.368 32.8125 486.141 32.8125H507.469V100.078C507.469 100.513 507.296 100.931 506.988 101.238C506.681 101.546 506.263 101.719 505.828 101.719H436.922C436.003 101.719 435.281 100.997 435.281 100.078V4.92188Z" fill="black"/>
<path fill-rule="evenodd" clip-rule="evenodd" d="M484.226 37.9978C480.573 34.7771 475.87 33 471 33V36.064C480.361 36.1102 487.936 43.7131 487.936 53.0851C487.936 62.4857 480.315 70.1064 470.914 70.1064C461.514 70.1064 453.893 62.4857 453.893 53.0851C453.893 46.6166 457.501 40.9909 462.815 38.1108L461.365 35.4739C457.097 37.8201 453.832 41.643 452.182 46.2252C450.533 50.8075 450.612 55.8343 452.404 60.3625C454.197 64.8907 457.581 68.6091 461.92 70.8201C466.26 73.0312 471.257 73.5828 475.974 72.3717C480.691 71.1605 484.804 68.2697 487.542 64.2417C490.279 60.2136 491.453 55.3251 490.842 50.4933C490.232 45.6615 487.879 41.2185 484.226 37.9978Z" fill="#1BA94C"/>
<path d="M462.03 49.6C460.086 49.6 458.79 50.836 458.79 52.696C458.79 54.532 459.966 55.768 461.742 55.78C462.582 55.78 463.398 55.348 463.794 54.7C463.722 56.02 463.014 56.896 462.018 56.896C461.178 56.896 460.59 56.56 460.374 55.948H458.994C459.378 57.364 460.47 58.168 462.018 58.168C463.974 58.168 465.27 56.452 465.27 53.884C465.27 51.316 463.974 49.6 462.03 49.6ZM461.946 54.52C460.914 54.52 460.23 53.788 460.23 52.696C460.23 51.592 460.926 50.86 461.958 50.86C462.954 50.86 463.626 51.592 463.626 52.684C463.626 53.788 462.954 54.52 461.946 54.52ZM466.402 58H472.642V56.728H468.814L471.214 55.06C472.078 54.484 472.654 53.38 472.654 52.3C472.654 50.68 471.406 49.6 469.522 49.6C467.698 49.6 466.474 50.884 466.474 52.804H467.83C467.83 51.64 468.502 50.872 469.522 50.872C470.542 50.872 471.214 51.448 471.214 52.3C471.214 52.972 470.878 53.656 470.374 54.004L466.402 56.788V58ZM475.165 58.12H476.485L481.525 49.648H480.205L475.165 58.12ZM475.897 54.064C477.085 54.064 478.045 53.104 478.045 51.916C478.045 50.728 477.085 49.768 475.897 49.768C474.709 49.768 473.749 50.956 473.749 51.916C473.749 53.104 474.709 54.064 475.897 54.064ZM475.897 52.768C475.417 52.768 475.045 52.396 475.045 51.916C475.045 51.436 475.417 51.064 475.897 51.064C476.377 51.064 476.749 51.436 476.749 51.916C476.749 52.396 476.377 52.768 475.897 52.768ZM480.793 58.168C481.981 58.168 482.941 57.208 482.941 56.02C482.941 54.832 481.981 53.872 480.793 53.872C479.605 53.872 478.645 55.06 478.645 56.02C478.645 57.208 479.605 58.168 480.793 58.168ZM480.793 56.872C480.313 56.872 479.941 56.5 479.941 56.02C479.941 55.54 480.313 55.168 480.793 55.168C481.273 55.168 481.645 55.54 481.645 56.02C481.645 56.5 481.273 56.872 480.793 56.872Z" fill="#1BA94C"/>
<path d="M442.166 87H442.976V81.816L445.145 87H445.757L447.926 81.816V87H448.736V80.826H447.647L445.451 85.974L443.255 80.826H442.166V87ZM451.95 87.09C453.3 87.09 454.209 86.154 454.209 84.75C454.209 83.346 453.3 82.41 451.95 82.41C450.6 82.41 449.691 83.346 449.691 84.75C449.691 86.154 450.6 87.09 451.95 87.09ZM451.95 86.46C451.032 86.46 450.411 85.776 450.411 84.75C450.411 83.724 451.032 83.04 451.95 83.04C452.868 83.04 453.489 83.724 453.489 84.75C453.489 85.776 452.868 86.46 451.95 86.46ZM457.091 87.09C457.721 87.09 458.378 86.748 458.729 86.235V87H459.449V80.826H458.729V83.265C458.378 82.752 457.721 82.41 457.091 82.41C455.759 82.41 454.859 83.346 454.859 84.75C454.859 86.154 455.759 87.09 457.091 87.09ZM457.163 86.46C456.218 86.46 455.579 85.776 455.579 84.75C455.579 83.724 456.218 83.04 457.163 83.04C458.099 83.04 458.729 83.724 458.729 84.75C458.729 85.776 458.099 86.46 457.163 86.46ZM462.576 87.09C463.584 87.09 464.448 86.442 464.736 85.47H464.016C463.818 86.064 463.242 86.46 462.576 86.46C461.694 86.46 461.082 85.83 461.046 84.894H464.763L464.835 84.822C464.835 83.382 463.926 82.41 462.576 82.41C461.226 82.41 460.317 83.346 460.317 84.75C460.317 86.154 461.226 87.09 462.576 87.09ZM461.082 84.264C461.244 83.535 461.847 83.04 462.576 83.04C463.305 83.04 463.908 83.535 464.07 84.264H461.082ZM465.701 87H466.421V80.826H465.701V87ZM470.564 87H471.374V81.546H473.282V80.826H468.656V81.546H470.564V87ZM473.013 87H473.733V84.372C473.733 83.571 474.273 83.04 475.083 83.04H475.389V82.5C475.299 82.446 475.155 82.41 475.02 82.41C474.57 82.41 474.057 82.698 473.733 83.121V82.5H473.013V87ZM477.727 87.09C478.33 87.09 478.978 86.748 479.329 86.244V87H480.049V82.5H479.329V83.256C478.978 82.752 478.33 82.41 477.727 82.41C476.413 82.41 475.531 83.346 475.531 84.75C475.531 86.154 476.413 87.09 477.727 87.09ZM477.799 86.46C476.872 86.46 476.251 85.776 476.251 84.75C476.251 83.724 476.872 83.04 477.799 83.04C478.717 83.04 479.329 83.724 479.329 84.75C479.329 85.776 478.717 86.46 477.799 86.46ZM481.125 81.816H481.845V80.826H481.125V81.816ZM481.125 87H481.845V82.5H481.125V87ZM482.927 87H483.647V84.336C483.647 83.562 484.16 83.04 484.925 83.04C485.69 83.04 486.203 83.562 486.203 84.336V87H486.923V84.21C486.923 83.13 486.176 82.41 485.051 82.41C484.529 82.41 483.962 82.68 483.647 83.076V82.5H482.927V87ZM488.007 81.816H488.727V80.826H488.007V81.816ZM488.007 87H488.727V82.5H488.007V87ZM489.809 87H490.529V84.336C490.529 83.562 491.042 83.04 491.807 83.04C492.572 83.04 493.085 83.562 493.085 84.336V87H493.805V84.21C493.805 83.13 493.058 82.41 491.933 82.41C491.411 82.41 490.844 82.68 490.529 83.076V82.5H489.809V87ZM498.205 82.5V83.22C497.872 82.734 497.251 82.41 496.648 82.41C495.361 82.41 494.497 83.328 494.497 84.705C494.497 86.082 495.361 87 496.648 87C497.251 87 497.881 86.676 498.205 86.199V86.514C498.205 87.486 497.602 88.134 496.711 88.134C495.982 88.134 495.406 87.675 495.271 87H494.596C494.776 88.053 495.622 88.764 496.711 88.764C498.034 88.764 498.925 87.864 498.925 86.514V82.5H498.205ZM496.72 86.37C495.82 86.37 495.217 85.704 495.217 84.705C495.217 83.706 495.82 83.04 496.72 83.04C497.611 83.04 498.205 83.706 498.205 84.705C498.205 85.704 497.611 86.37 496.72 86.37ZM454.226 98.09C455.684 98.09 456.863 97.082 457.16 95.579H456.377C456.143 96.65 455.279 97.37 454.226 97.37C452.903 97.37 452.021 96.38 452.021 94.913C452.021 93.446 452.903 92.456 454.226 92.456C455.216 92.456 456.062 93.113 456.341 94.103H457.133C456.809 92.69 455.639 91.736 454.226 91.736C452.417 91.736 451.211 93.014 451.211 94.913C451.211 96.812 452.417 98.09 454.226 98.09ZM460.071 98.09C461.421 98.09 462.33 97.154 462.33 95.75C462.33 94.346 461.421 93.41 460.071 93.41C458.721 93.41 457.812 94.346 457.812 95.75C457.812 97.154 458.721 98.09 460.071 98.09ZM460.071 97.46C459.153 97.46 458.532 96.776 458.532 95.75C458.532 94.724 459.153 94.04 460.071 94.04C460.989 94.04 461.61 94.724 461.61 95.75C461.61 96.776 460.989 97.46 460.071 97.46ZM463.108 98H463.828V94.967C463.828 94.409 464.233 94.04 464.827 94.04C465.421 94.04 465.826 94.409 465.826 94.967V98H466.546V94.967C466.546 94.409 466.951 94.04 467.545 94.04C468.139 94.04 468.544 94.409 468.544 94.967V98H469.264V94.895C469.264 94.004 468.607 93.41 467.617 93.41C467.086 93.41 466.546 93.689 466.258 94.094C465.97 93.689 465.457 93.41 464.98 93.41C464.539 93.41 464.08 93.644 463.828 94.004V93.5H463.108V98ZM470.341 99.674H471.061V97.235C471.412 97.748 472.069 98.09 472.708 98.09C474.04 98.09 474.931 97.154 474.931 95.75C474.931 94.346 474.04 93.41 472.708 93.41C472.069 93.41 471.412 93.752 471.061 94.265V93.5H470.341V99.674ZM472.636 97.46C471.691 97.46 471.061 96.776 471.061 95.75C471.061 94.724 471.691 94.04 472.636 94.04C473.581 94.04 474.211 94.724 474.211 95.75C474.211 96.776 473.581 97.46 472.636 97.46ZM475.711 98H476.431V91.826H475.711V98ZM479.556 98.09C480.564 98.09 481.428 97.442 481.716 96.47H480.996C480.798 97.064 480.222 97.46 479.556 97.46C478.674 97.46 478.062 96.83 478.026 95.894H481.743L481.815 95.822C481.815 94.382 480.906 93.41 479.556 93.41C478.206 93.41 477.297 94.346 477.297 95.75C477.297 97.154 478.206 98.09 479.556 98.09ZM478.062 95.264C478.224 94.535 478.827 94.04 479.556 94.04C480.285 94.04 480.888 94.535 481.05 95.264H478.062ZM484.112 98.09C484.328 98.09 484.625 98.054 484.85 98V97.46H484.067C483.725 97.46 483.491 97.217 483.491 96.848V94.13H484.805V93.5H483.491V91.826H482.771V93.5H482.051V94.13H482.771V96.848C482.771 97.595 483.311 98.09 484.112 98.09ZM487.528 98.09C488.536 98.09 489.4 97.442 489.688 96.47H488.968C488.77 97.064 488.194 97.46 487.528 97.46C486.646 97.46 486.034 96.83 485.998 95.894H489.715L489.787 95.822C489.787 94.382 488.878 93.41 487.528 93.41C486.178 93.41 485.269 94.346 485.269 95.75C485.269 97.154 486.178 98.09 487.528 98.09ZM486.034 95.264C486.196 94.535 486.799 94.04 487.528 94.04C488.257 94.04 488.86 94.535 489.022 95.264H486.034Z" fill="black"/>
<path d="M292.922 105H361.828C364.542 105 366.75 102.792 366.75 100.078V31.1719C366.75 31.1161 366.724 31.0702 366.72 31.0177C366.714 30.9422 366.694 30.8766 366.678 30.8044C366.626 30.5764 366.525 30.3625 366.382 30.1777C366.36 30.1481 366.363 30.112 366.34 30.0825L340.09 0.55125C340.08 0.541406 340.067 0.541406 340.057 0.531563C339.857 0.322253 339.604 0.170425 339.325 0.091875C339.263 0.0721875 339.207 0.065625 339.142 0.0557813C339.046 0.039375 338.958 0 338.859 0H292.922C290.208 0 288 2.20828 288 4.92188V100.078C288 102.792 290.208 105 292.922 105ZM340.5 5.95547L361.457 29.5312H342.141C341.419 29.5312 340.5 28.1531 340.5 27.0703V5.95547ZM291.281 4.92188C291.281 4.48675 291.454 4.06945 291.762 3.76178C292.069 3.4541 292.487 3.28125 292.922 3.28125H337.219V27.0703C337.219 29.7248 339.368 32.8125 342.141 32.8125H363.469V100.078C363.469 100.513 363.296 100.931 362.988 101.238C362.681 101.546 362.263 101.719 361.828 101.719H292.922C292.003 101.719 291.281 100.997 291.281 100.078V4.92188Z" fill="black"/>
<path d="M299.484 45.9375H342.141C342.576 45.9375 342.993 45.7647 343.301 45.457C343.608 45.1493 343.781 44.732 343.781 44.2969C343.781 43.8618 343.608 43.4445 343.301 43.1368C342.993 42.8291 342.576 42.6562 342.141 42.6562H299.484C299.049 42.6562 298.632 42.8291 298.324 43.1368C298.017 43.4445 297.844 43.8618 297.844 44.2969C297.844 44.732 298.017 45.1493 298.324 45.457C298.632 45.7647 299.049 45.9375 299.484 45.9375Z" fill="#DADADA"/>
<path d="M299.484 63H342.141C342.576 63 342.993 62.8272 343.301 62.5195C343.608 62.2118 343.781 61.7945 343.781 61.3594C343.781 60.9243 343.608 60.507 343.301 60.1993C342.993 59.8916 342.576 59.7188 342.141 59.7188H299.484C299.049 59.7188 298.632 59.8916 298.324 60.1993C298.017 60.507 297.844 60.9243 297.844 61.3594C297.844 61.7945 298.017 62.2118 298.324 62.5195C298.632 62.8272 299.049 63 299.484 63Z" fill="#DADADA"/>
<path d="M300.141 80.7188H342.797C343.232 80.7188 343.649 80.5459 343.957 80.2382C344.265 79.9305 344.438 79.5132 344.438 79.0781C344.438 78.643 344.265 78.2257 343.957 77.918C343.649 77.6103 343.232 77.4375 342.797 77.4375H300.141C299.706 77.4375 299.288 77.6103 298.981 77.918C298.673 78.2257 298.5 78.643 298.5 79.0781C298.5 79.5132 298.673 79.9305 298.981 80.2382C299.288 80.5459 299.706 80.7188 300.141 80.7188Z" fill="#DADADA"/>
<path fill-rule="evenodd" clip-rule="evenodd" d="M348.375 44.625C348.375 43.2326 348.928 41.8973 349.913 40.9127C350.897 39.9281 352.233 39.375 353.625 39.375C355.017 39.375 356.353 39.9281 357.337 40.9127C358.322 41.8973 358.875 43.2326 358.875 44.625C358.875 46.0174 358.322 47.3527 357.337 48.3373C356.353 49.3219 355.017 49.875 353.625 49.875C352.233 49.875 350.897 49.3219 349.913 48.3373C348.928 47.3527 348.375 46.0174 348.375 44.625V44.625ZM353.325 46.872L356.348 43.0934L355.802 42.6566L353.225 45.8773L351.399 44.3562L350.951 44.8938L353.325 46.8727V46.872Z" fill="#1BA94C"/>
<path d="M353.625 66.9375C356.524 66.9375 358.875 64.587 358.875 61.6875C358.875 58.788 356.524 56.4375 353.625 56.4375C350.726 56.4375 348.375 58.788 348.375 61.6875C348.375 64.587 350.726 66.9375 353.625 66.9375Z" stroke="#E63946" stroke-linecap="round" stroke-linejoin="round"/>
<path d="M351.656 59.7188L355.594 63.6562" stroke="#E63946" stroke-linecap="round" stroke-linejoin="round"/>
<path d="M355.594 59.7188L351.656 63.6562" stroke="#E63946" stroke-linecap="round" stroke-linejoin="round"/>
<path fill-rule="evenodd" clip-rule="evenodd" d="M348.375 78.75C348.375 77.3576 348.928 76.0223 349.913 75.0377C350.897 74.0531 352.233 73.5 353.625 73.5C355.017 73.5 356.353 74.0531 357.337 75.0377C358.322 76.0223 358.875 77.3576 358.875 78.75C358.875 80.1424 358.322 81.4777 357.337 82.4623C356.353 83.4469 355.017 84 353.625 84C352.233 84 350.897 83.4469 349.913 82.4623C348.928 81.4777 348.375 80.1424 348.375 78.75V78.75ZM353.325 80.997L356.348 77.2184L355.802 76.7816L353.225 80.0023L351.399 78.4812L350.951 79.0188L353.325 80.9977V80.997Z" fill="#1BA94C"/>
<path d="M148.922 106H217.828C220.542 106 222.75 103.792 222.75 101.078V32.1719C222.75 32.1161 222.724 32.0702 222.72 32.0177C222.714 31.9422 222.694 31.8766 222.678 31.8044C222.626 31.5764 222.525 31.3625 222.382 31.1777C222.36 31.1481 222.363 31.112 222.34 31.0825L196.09 1.55125C196.08 1.54141 196.067 1.54141 196.057 1.53156C195.857 1.32225 195.604 1.17042 195.325 1.09188C195.263 1.07219 195.207 1.06563 195.142 1.05578C195.046 1.03938 194.958 1 194.859 1H148.922C146.208 1 144 3.20828 144 5.92188V101.078C144 103.792 146.208 106 148.922 106ZM196.5 6.95547L217.457 30.5312H198.141C197.419 30.5312 196.5 29.1531 196.5 28.0703V6.95547ZM147.281 5.92188C147.281 5.48675 147.454 5.06945 147.762 4.76178C148.069 4.4541 148.487 4.28125 148.922 4.28125H193.219V28.0703C193.219 30.7248 195.368 33.8125 198.141 33.8125H219.469V101.078C219.469 101.513 219.296 101.931 218.988 102.238C218.681 102.546 218.263 102.719 217.828 102.719H148.922C148.003 102.719 147.281 101.997 147.281 101.078V5.92188Z" fill="black"/>
<path d="M151.63 94H152.44V88.816L154.609 94H155.221L157.39 88.816V94H158.2V87.826H157.111L154.915 92.974L152.719 87.826H151.63V94ZM161.351 94.09C161.954 94.09 162.602 93.748 162.953 93.244V94H163.673V89.5H162.953V90.256C162.602 89.752 161.954 89.41 161.351 89.41C160.037 89.41 159.155 90.346 159.155 91.75C159.155 93.154 160.037 94.09 161.351 94.09ZM161.423 93.46C160.496 93.46 159.875 92.776 159.875 91.75C159.875 90.724 160.496 90.04 161.423 90.04C162.341 90.04 162.953 90.724 162.953 91.75C162.953 92.776 162.341 93.46 161.423 93.46ZM166.408 94.09C167.569 94.09 168.343 93.532 168.343 92.704C168.343 91.957 167.875 91.597 166.516 91.318C165.733 91.129 165.454 90.958 165.454 90.652C165.454 90.283 165.841 90.04 166.408 90.04C166.93 90.04 167.371 90.31 167.506 90.715L168.163 90.553C167.92 89.869 167.218 89.41 166.408 89.41C165.409 89.41 164.734 89.932 164.734 90.706C164.734 91.372 165.157 91.696 166.363 91.966C167.308 92.182 167.632 92.38 167.632 92.74C167.632 93.172 167.137 93.46 166.408 93.46C165.652 93.46 165.139 93.064 165.121 92.47H164.446C164.464 93.442 165.256 94.09 166.408 94.09ZM170.821 94.09C171.037 94.09 171.334 94.054 171.559 94V93.46H170.776C170.434 93.46 170.2 93.217 170.2 92.848V90.13H171.514V89.5H170.2V87.826H169.48V89.5H168.76V90.13H169.48V92.848C169.48 93.595 170.02 94.09 170.821 94.09ZM174.237 94.09C175.245 94.09 176.109 93.442 176.397 92.47H175.677C175.479 93.064 174.903 93.46 174.237 93.46C173.355 93.46 172.743 92.83 172.707 91.894H176.424L176.496 91.822C176.496 90.382 175.587 89.41 174.237 89.41C172.887 89.41 171.978 90.346 171.978 91.75C171.978 93.154 172.887 94.09 174.237 94.09ZM172.743 91.264C172.905 90.535 173.508 90.04 174.237 90.04C174.966 90.04 175.569 90.535 175.731 91.264H172.743ZM177.362 94H178.082V91.372C178.082 90.571 178.622 90.04 179.432 90.04H179.738V89.5C179.648 89.446 179.504 89.41 179.369 89.41C178.919 89.41 178.406 89.698 178.082 90.121V89.5H177.362V94ZM180.544 94H181.264V87.826H180.544V94ZM182.521 88.816H183.241V87.826H182.521V88.816ZM182.521 94H183.241V89.5H182.521V94ZM186.069 94.09C187.23 94.09 188.004 93.532 188.004 92.704C188.004 91.957 187.536 91.597 186.177 91.318C185.394 91.129 185.115 90.958 185.115 90.652C185.115 90.283 185.502 90.04 186.069 90.04C186.591 90.04 187.032 90.31 187.167 90.715L187.824 90.553C187.581 89.869 186.879 89.41 186.069 89.41C185.07 89.41 184.395 89.932 184.395 90.706C184.395 91.372 184.818 91.696 186.024 91.966C186.969 92.182 187.293 92.38 187.293 92.74C187.293 93.172 186.798 93.46 186.069 93.46C185.313 93.46 184.8 93.064 184.782 92.47H184.107C184.125 93.442 184.917 94.09 186.069 94.09ZM190.482 94.09C190.698 94.09 190.995 94.054 191.22 94V93.46H190.437C190.095 93.46 189.861 93.217 189.861 92.848V90.13H191.175V89.5H189.861V87.826H189.141V89.5H188.421V90.13H189.141V92.848C189.141 93.595 189.681 94.09 190.482 94.09ZM194.09 94H196.295C198.059 94 199.238 92.758 199.238 90.904C199.238 89.059 198.059 87.826 196.295 87.826H194.09V94ZM194.9 93.28V88.546H196.295C197.573 88.546 198.428 89.491 198.428 90.904C198.428 92.326 197.573 93.28 196.295 93.28H194.9ZM202.143 94.09C203.493 94.09 204.402 93.154 204.402 91.75C204.402 90.346 203.493 89.41 202.143 89.41C200.793 89.41 199.884 90.346 199.884 91.75C199.884 93.154 200.793 94.09 202.143 94.09ZM202.143 93.46C201.225 93.46 200.604 92.776 200.604 91.75C200.604 90.724 201.225 90.04 202.143 90.04C203.061 90.04 203.682 90.724 203.682 91.75C203.682 92.776 203.061 93.46 202.143 93.46ZM205.18 94H205.9V91.336C205.9 90.562 206.413 90.04 207.178 90.04C207.943 90.04 208.456 90.562 208.456 91.336V94H209.176V91.21C209.176 90.13 208.429 89.41 207.304 89.41C206.782 89.41 206.215 89.68 205.9 90.076V89.5H205.18V94ZM212.215 94.09C213.223 94.09 214.087 93.442 214.375 92.47H213.655C213.457 93.064 212.881 93.46 212.215 93.46C211.333 93.46 210.721 92.83 210.685 91.894H214.402L214.474 91.822C214.474 90.382 213.565 89.41 212.215 89.41C210.865 89.41 209.956 90.346 209.956 91.75C209.956 93.154 210.865 94.09 212.215 94.09ZM210.721 91.264C210.883 90.535 211.486 90.04 212.215 90.04C212.944 90.04 213.547 90.535 213.709 91.264H210.721Z" fill="black"/>
<path d="M191.915 56.1702H202.128C202.917 56.1693 203.675 55.8552 204.233 55.2968C204.791 54.7383 205.105 53.9812 205.106 53.1915V42.9787C205.105 42.189 204.791 41.4319 204.233 40.8734C203.675 40.315 202.917 40.0009 202.128 40H191.915C191.125 40.0009 190.368 40.315 189.81 40.8734C189.251 41.4319 188.937 42.189 188.936 42.9787V46.8085H186.809C185.116 46.8104 183.494 47.4835 182.297 48.6802C181.101 49.8768 180.427 51.4992 180.426 53.1915V58.7234H174.468V55.7447C174.467 54.955 174.153 54.1978 173.595 53.6394C173.036 53.081 172.279 52.7669 171.489 52.766H162.979C162.189 52.7669 161.432 53.081 160.873 53.6394C160.315 54.1978 160.001 54.955 160 55.7447V64.2553C160.001 65.045 160.315 65.8022 160.873 66.3606C161.432 66.919 162.189 67.2331 162.979 67.234H171.489C172.279 67.2331 173.036 66.919 173.595 66.3606C174.153 65.8022 174.467 65.045 174.468 64.2553V61.2766H180.426V66.8085C180.427 68.5008 181.101 70.1232 182.297 71.3198C183.494 72.5165 185.116 73.1896 186.809 73.1915H188.936V77.0213C188.937 77.811 189.251 78.5681 189.81 79.1266C190.368 79.685 191.125 79.9991 191.915 80H202.128C202.917 79.9991 203.675 79.685 204.233 79.1266C204.791 78.5681 205.105 77.811 205.106 77.0213V66.8085C205.105 66.0188 204.791 65.2617 204.233 64.7032C203.675 64.1448 202.917 63.8307 202.128 63.8298H191.915C191.125 63.8307 190.368 64.1448 189.81 64.7032C189.251 65.2617 188.937 66.0188 188.936 66.8085V70.6383H186.809C185.793 70.6372 184.82 70.2333 184.102 69.5153C183.384 68.7974 182.98 67.8239 182.979 66.8085V53.1915C182.98 52.1761 183.384 51.2026 184.102 50.4847C184.82 49.7667 185.793 49.3628 186.809 49.3617H188.936V53.1915C188.937 53.9812 189.251 54.7383 189.81 55.2968C190.368 55.8552 191.125 56.1693 191.915 56.1702ZM171.915 64.2553C171.915 64.3681 171.87 64.4763 171.79 64.556C171.71 64.6358 171.602 64.6807 171.489 64.6809H162.979C162.866 64.6807 162.758 64.6358 162.678 64.556C162.598 64.4763 162.553 64.3681 162.553 64.2553V55.7447C162.553 55.6319 162.598 55.5237 162.678 55.444C162.758 55.3642 162.866 55.3193 162.979 55.3191H171.489C171.602 55.3193 171.71 55.3642 171.79 55.444C171.87 55.5237 171.915 55.6319 171.915 55.7447V64.2553ZM191.489 66.8085C191.49 66.6957 191.534 66.5876 191.614 66.5078C191.694 66.428 191.802 66.3831 191.915 66.383H202.128C202.24 66.3831 202.349 66.428 202.428 66.5078C202.508 66.5876 202.553 66.6957 202.553 66.8085V77.0213C202.553 77.1341 202.508 77.2422 202.428 77.322C202.349 77.4017 202.24 77.4466 202.128 77.4468H191.915C191.802 77.4466 191.694 77.4017 191.614 77.322C191.534 77.2422 191.49 77.1341 191.489 77.0213V66.8085ZM191.489 42.9787C191.49 42.8659 191.534 42.7578 191.614 42.678C191.694 42.5982 191.802 42.5534 191.915 42.5532H202.128C202.24 42.5534 202.349 42.5982 202.428 42.678C202.508 42.7578 202.553 42.8659 202.553 42.9787V53.1915C202.553 53.3043 202.508 53.4124 202.428 53.4922C202.349 53.572 202.24 53.6169 202.128 53.617H191.915C191.802 53.6169 191.694 53.572 191.614 53.4922C191.534 53.4124 191.49 53.3043 191.489 53.1915V42.9787Z" fill="#1BA94C"/>
<path d="M4.92188 106H73.8281C76.5417 106 78.75 103.792 78.75 101.078V32.1719C78.75 32.1161 78.7237 32.0702 78.7205 32.0177C78.7139 31.9422 78.6942 31.8766 78.6778 31.8044C78.6263 31.5764 78.5255 31.3625 78.3825 31.1777C78.3595 31.1481 78.3628 31.112 78.3398 31.0825L52.0898 1.55125C52.08 1.54141 52.0669 1.54141 52.057 1.53156C51.8568 1.32225 51.6041 1.17042 51.3253 1.09188C51.263 1.07219 51.2072 1.06563 51.1416 1.05578C51.0464 1.03938 50.9578 1 50.8594 1H4.92188C2.20828 1 0 3.20828 0 5.92188V101.078C0 103.792 2.20828 106 4.92188 106ZM52.5 6.95547L73.4573 30.5312H54.1406C53.4188 30.5312 52.5 29.1531 52.5 28.0703V6.95547ZM3.28125 5.92188C3.28125 5.48675 3.4541 5.06945 3.76178 4.76178C4.06945 4.4541 4.48675 4.28125 4.92188 4.28125H49.2188V28.0703C49.2188 30.7248 51.368 33.8125 54.1406 33.8125H75.4688V101.078C75.4688 101.513 75.2959 101.931 74.9882 102.238C74.6805 102.546 74.2632 102.719 73.8281 102.719H4.92188C4.00313 102.719 3.28125 101.997 3.28125 101.078V5.92188Z" fill="black"/>
<path d="M18.0469 46.9375H60.7031C61.1382 46.9375 61.5555 46.7647 61.8632 46.457C62.1709 46.1493 62.3438 45.732 62.3438 45.2969C62.3438 44.8618 62.1709 44.4445 61.8632 44.1368C61.5555 43.8291 61.1382 43.6562 60.7031 43.6562H18.0469C17.6118 43.6562 17.1945 43.8291 16.8868 44.1368C16.5791 44.4445 16.4062 44.8618 16.4062 45.2969C16.4062 45.732 16.5791 46.1493 16.8868 46.457C17.1945 46.7647 17.6118 46.9375 18.0469 46.9375Z" fill="#DADADA"/>
<path d="M18.0469 60.0625H60.7031C61.1382 60.0625 61.5555 59.8897 61.8632 59.582C62.1709 59.2743 62.3438 58.857 62.3438 58.4219C62.3438 57.9868 62.1709 57.5695 61.8632 57.2618C61.5555 56.9541 61.1382 56.7812 60.7031 56.7812H18.0469C17.6118 56.7812 17.1945 56.9541 16.8868 57.2618C16.5791 57.5695 16.4062 57.9868 16.4062 58.4219C16.4062 58.857 16.5791 59.2743 16.8868 59.582C17.1945 59.8897 17.6118 60.0625 18.0469 60.0625Z" fill="#DADADA"/>
<path d="M18.0469 33.8125H37.7344C38.1695 33.8125 38.5868 33.6397 38.8945 33.332C39.2022 33.0243 39.375 32.607 39.375 32.1719C39.375 31.7368 39.2022 31.3195 38.8945 31.0118C38.5868 30.7041 38.1695 30.5312 37.7344 30.5312H18.0469C17.6118 30.5312 17.1945 30.7041 16.8868 31.0118C16.5791 31.3195 16.4062 31.7368 16.4062 32.1719C16.4062 32.607 16.5791 33.0243 16.8868 33.332C17.1945 33.6397 17.6118 33.8125 18.0469 33.8125Z" fill="#DADADA"/>
<path d="M18.0469 73.1875H60.7031C61.1382 73.1875 61.5555 73.0147 61.8632 72.707C62.1709 72.3993 62.3438 71.982 62.3438 71.5469C62.3438 71.1118 62.1709 70.6945 61.8632 70.3868C61.5555 70.0791 61.1382 69.9062 60.7031 69.9062H18.0469C17.6118 69.9062 17.1945 70.0791 16.8868 70.3868C16.5791 70.6945 16.4062 71.1118 16.4062 71.5469C16.4062 71.982 16.5791 72.3993 16.8868 72.707C17.1945 73.0147 17.6118 73.1875 18.0469 73.1875Z" fill="#DADADA"/>
<path d="M18.0469 86.3125H60.7031C61.1382 86.3125 61.5555 86.1397 61.8632 85.832C62.1709 85.5243 62.3438 85.107 62.3438 84.6719C62.3438 84.2368 62.1709 83.8195 61.8632 83.5118C61.5555 83.2041 61.1382 83.0312 60.7031 83.0312H18.0469C17.6118 83.0312 17.1945 83.2041 16.8868 83.5118C16.5791 83.8195 16.4062 84.2368 16.4062 84.6719C16.4062 85.107 16.5791 85.5243 16.8868 85.832C17.1945 86.1397 17.6118 86.3125 18.0469 86.3125Z" fill="#DADADA"/>
<path d="M912.125 51.6666L906.625 57.4999H910.75C910.75 62.327 907.051 66.2499 902.5 66.2499C901.157 66.2548 899.833 65.9039 898.65 65.2291L896.642 67.3583C898.393 68.5399 900.425 69.1672 902.5 69.1666C908.577 69.1666 913.5 63.9458 913.5 57.4999H917.625L912.125 51.6666ZM894.25 57.4999C894.25 52.6728 897.949 48.7499 902.5 48.7499C903.889 48.7499 905.209 49.1145 906.35 49.7708L908.358 47.6416C906.607 46.46 904.575 45.8326 902.5 45.8333C896.422 45.8333 891.5 51.0541 891.5 57.4999H887.375L892.875 63.3333L898.375 57.4999H894.25Z" fill="#1BA94C"/>
<path d="M868.922 106H937.828C940.542 106 942.75 103.792 942.75 101.078V32.1719C942.75 32.1161 942.724 32.0702 942.72 32.0177C942.714 31.9422 942.694 31.8766 942.678 31.8044C942.626 31.5764 942.525 31.3625 942.382 31.1777C942.36 31.1481 942.363 31.112 942.34 31.0825L916.09 1.55125C916.08 1.54141 916.067 1.54141 916.057 1.53156C915.857 1.32225 915.604 1.17042 915.325 1.09188C915.263 1.07219 915.207 1.06563 915.142 1.05578C915.046 1.03938 914.958 1 914.859 1H868.922C866.208 1 864 3.20828 864 5.92188V101.078C864 103.792 866.208 106 868.922 106ZM916.5 6.95547L937.457 30.5312H918.141C917.419 30.5312 916.5 29.1531 916.5 28.0703V6.95547ZM867.281 5.92188C867.281 5.48675 867.454 5.06945 867.762 4.76178C868.069 4.4541 868.487 4.28125 868.922 4.28125H913.219V28.0703C913.219 30.7248 915.368 33.8125 918.141 33.8125H939.469V101.078C939.469 101.513 939.296 101.931 938.988 102.238C938.681 102.546 938.263 102.719 937.828 102.719H868.922C868.003 102.719 867.281 101.997 867.281 101.078V5.92188Z" fill="black"/>
<line x1="944.25" y1="59.75" x2="990.75" y2="59.75" stroke="black" stroke-width="2.5" stroke-linecap="round"/>
</svg>
