<svg width="510" height="350" viewBox="0 0 510 350" fill="none" xmlns="http://www.w3.org/2000/svg">
<rect x="0.5" y="0.5" width="509" height="349" stroke="#2667FF"/>
<rect x="30.5" y="80.5" width="449" height="188" stroke="#E0E0E0"/>
<path d="M40.84 99H41.92V95.46H44.236C45.784 95.46 46.816 94.512 46.816 93.096C46.816 91.704 45.784 90.768 44.236 90.768H40.84V99ZM41.92 94.5V91.728H44.236C45.136 91.728 45.736 92.28 45.736 93.096C45.736 93.936 45.136 94.5 44.236 94.5H41.92ZM47.7278 99H48.6878V95.496C48.6878 94.428 49.4078 93.72 50.4878 93.72H50.8958V93C50.7758 92.928 50.5838 92.88 50.4038 92.88C49.7318 92.88 49.1798 93.18 48.6878 93.828V93H47.7278V99ZM54.0963 99.12C55.9083 99.12 57.1083 97.872 57.1083 96C57.1083 94.128 55.9083 92.88 54.0963 92.88C52.2843 92.88 51.0843 94.128 51.0843 96C51.0843 97.872 52.2843 99.12 54.0963 99.12ZM54.0963 98.28C52.8603 98.28 52.0443 97.368 52.0443 96C52.0443 94.632 52.8603 93.72 54.0963 93.72C55.3323 93.72 56.1483 94.632 56.1483 96C56.1483 97.368 55.3323 98.28 54.0963 98.28ZM58.443 92.1H59.403V90.768H58.443V92.1ZM57.723 101.352C58.731 101.352 59.403 100.68 59.403 99.66V93H58.443V99.66C58.443 100.152 58.131 100.488 57.675 100.488H57.135V101.232C57.303 101.304 57.543 101.352 57.723 101.352ZM63.5651 99.12C64.9091 99.12 66.0611 98.256 66.4451 96.96H65.4851C65.2211 97.752 64.4531 98.28 63.5651 98.28C62.3891 98.28 61.5731 97.44 61.5251 96.192H66.4811L66.5771 96.096C66.5771 94.164 65.3771 92.88 63.5651 92.88C61.7531 92.88 60.5531 94.128 60.5531 96C60.5531 97.872 61.7531 99.12 63.5651 99.12ZM61.5731 95.352C61.8011 94.308 62.5211 93.72 63.5651 93.72C64.6091 93.72 65.3291 94.308 65.5571 95.352H61.5731ZM70.4557 99.12C71.9917 99.12 73.1677 98.1 73.3957 96.564H72.4837C72.3037 97.596 71.4997 98.28 70.4557 98.28C69.2197 98.28 68.4037 97.368 68.4037 96C68.4037 94.632 69.2197 93.72 70.4557 93.72C71.4877 93.72 72.2917 94.38 72.4717 95.376H73.3837C73.1557 93.876 71.9917 92.88 70.4557 92.88C68.6437 92.88 67.4437 94.128 67.4437 96C67.4437 97.872 68.6437 99.12 70.4557 99.12ZM76.4596 99.12C76.7476 99.12 77.1436 99.072 77.4436 99V98.28H76.3996C75.9436 98.28 75.6316 97.956 75.6316 97.464V93.84H77.3836V93H75.6316V90.768H74.6716V93H73.7116V93.84H74.6716V97.464C74.6716 98.46 75.3916 99.12 76.4596 99.12ZM80.7355 99.12C82.2835 99.12 83.3155 98.376 83.3155 97.272C83.3155 96.252 82.7275 95.808 80.8795 95.424C79.7995 95.16 79.4635 94.944 79.4635 94.536C79.4635 94.044 79.9675 93.72 80.7355 93.72C81.4315 93.72 82.0195 94.08 82.1995 94.62L83.0755 94.404C82.7515 93.492 81.8155 92.88 80.7355 92.88C79.3915 92.88 78.5035 93.576 78.5035 94.608C78.5035 95.52 79.0195 95.916 80.6755 96.288C82.0315 96.6 82.3675 96.816 82.3675 97.32C82.3675 97.896 81.7195 98.28 80.7355 98.28C79.7275 98.28 79.0435 97.752 79.0195 96.96H78.1195C78.1435 98.256 79.1875 99.12 80.7355 99.12ZM90.5887 99.12C93.0007 99.12 94.6087 97.416 94.6087 94.872C94.6087 92.34 93.0007 90.648 90.5887 90.648C88.1767 90.648 86.5687 92.34 86.5687 94.872C86.5687 97.416 88.1767 99.12 90.5887 99.12ZM90.5887 98.16C88.8247 98.16 87.6487 96.84 87.6487 94.872C87.6487 92.916 88.8247 91.608 90.5887 91.608C92.3527 91.608 93.5287 92.916 93.5287 94.872C93.5287 96.84 92.3527 98.16 90.5887 98.16ZM97.731 99H98.631L101.031 93H99.999L98.175 97.932L96.363 93H95.331L97.731 99ZM104.405 99.12C105.749 99.12 106.901 98.256 107.285 96.96H106.325C106.061 97.752 105.293 98.28 104.405 98.28C103.229 98.28 102.413 97.44 102.365 96.192H107.321L107.417 96.096C107.417 94.164 106.217 92.88 104.405 92.88C102.593 92.88 101.393 94.128 101.393 96C101.393 97.872 102.593 99.12 104.405 99.12ZM102.413 95.352C102.641 94.308 103.361 93.72 104.405 93.72C105.449 93.72 106.169 94.308 106.397 95.352H102.413ZM108.572 99H109.532V95.496C109.532 94.428 110.252 93.72 111.332 93.72H111.74V93C111.62 92.928 111.428 92.88 111.248 92.88C110.576 92.88 110.024 93.18 109.532 93.828V93H108.572V99ZM114.782 99H115.682L118.082 93H117.05L115.226 97.932L113.414 93H112.382L114.782 99ZM118.978 92.088H119.938V90.768H118.978V92.088ZM118.978 99H119.938V93H118.978V99ZM124.104 99.12C125.448 99.12 126.6 98.256 126.984 96.96H126.024C125.76 97.752 124.992 98.28 124.104 98.28C122.928 98.28 122.112 97.44 122.064 96.192H127.02L127.116 96.096C127.116 94.164 125.916 92.88 124.104 92.88C122.292 92.88 121.092 94.128 121.092 96C121.092 97.872 122.292 99.12 124.104 99.12ZM122.112 95.352C122.34 94.308 123.06 93.72 124.104 93.72C125.148 93.72 125.868 94.308 126.096 95.352H122.112ZM129.54 99H130.524L131.784 94.332L133.044 99H134.028L136.092 93H135.084L133.56 97.908L132.228 93H131.352L130.008 97.908L128.484 93H127.476L129.54 99Z" fill="black"/>
<path d="M271.84 99H272.92V95.46H275.236C276.784 95.46 277.816 94.512 277.816 93.096C277.816 91.704 276.784 90.768 275.236 90.768H271.84V99ZM272.92 94.5V91.728H275.236C276.136 91.728 276.736 92.28 276.736 93.096C276.736 93.936 276.136 94.5 275.236 94.5H272.92ZM278.728 99H279.688V95.496C279.688 94.428 280.408 93.72 281.488 93.72H281.896V93C281.776 92.928 281.584 92.88 281.404 92.88C280.732 92.88 280.18 93.18 279.688 93.828V93H278.728V99ZM285.096 99.12C286.908 99.12 288.108 97.872 288.108 96C288.108 94.128 286.908 92.88 285.096 92.88C283.284 92.88 282.084 94.128 282.084 96C282.084 97.872 283.284 99.12 285.096 99.12ZM285.096 98.28C283.86 98.28 283.044 97.368 283.044 96C283.044 94.632 283.86 93.72 285.096 93.72C286.332 93.72 287.148 94.632 287.148 96C287.148 97.368 286.332 98.28 285.096 98.28ZM289.443 92.1H290.403V90.768H289.443V92.1ZM288.723 101.352C289.731 101.352 290.403 100.68 290.403 99.66V93H289.443V99.66C289.443 100.152 289.131 100.488 288.675 100.488H288.135V101.232C288.303 101.304 288.543 101.352 288.723 101.352ZM294.565 99.12C295.909 99.12 297.061 98.256 297.445 96.96H296.485C296.221 97.752 295.453 98.28 294.565 98.28C293.389 98.28 292.573 97.44 292.525 96.192H297.481L297.577 96.096C297.577 94.164 296.377 92.88 294.565 92.88C292.753 92.88 291.553 94.128 291.553 96C291.553 97.872 292.753 99.12 294.565 99.12ZM292.573 95.352C292.801 94.308 293.521 93.72 294.565 93.72C295.609 93.72 296.329 94.308 296.557 95.352H292.573ZM301.456 99.12C302.992 99.12 304.168 98.1 304.396 96.564H303.484C303.304 97.596 302.5 98.28 301.456 98.28C300.22 98.28 299.404 97.368 299.404 96C299.404 94.632 300.22 93.72 301.456 93.72C302.488 93.72 303.292 94.38 303.472 95.376H304.384C304.156 93.876 302.992 92.88 301.456 92.88C299.644 92.88 298.444 94.128 298.444 96C298.444 97.872 299.644 99.12 301.456 99.12ZM307.46 99.12C307.748 99.12 308.144 99.072 308.444 99V98.28H307.4C306.944 98.28 306.632 97.956 306.632 97.464V93.84H308.384V93H306.632V90.768H305.672V93H304.712V93.84H305.672V97.464C305.672 98.46 306.392 99.12 307.46 99.12ZM312.27 99H313.35V90.768H312.27V99ZM314.915 99H315.875V95.448C315.875 94.416 316.559 93.72 317.579 93.72C318.599 93.72 319.283 94.416 319.283 95.448V99H320.243V95.28C320.243 93.84 319.247 92.88 317.747 92.88C317.051 92.88 316.295 93.24 315.875 93.768V93H314.915V99ZM322.054 99H323.014V93.84H324.358V93H323.014V92.328C323.014 91.752 323.23 91.524 323.782 91.524H324.358V90.768C324.202 90.696 323.95 90.648 323.71 90.648C322.714 90.648 322.054 91.32 322.054 92.328V93H321.094V93.84H322.054V99ZM327.565 99.12C329.377 99.12 330.577 97.872 330.577 96C330.577 94.128 329.377 92.88 327.565 92.88C325.753 92.88 324.553 94.128 324.553 96C324.553 97.872 325.753 99.12 327.565 99.12ZM327.565 98.28C326.329 98.28 325.513 97.368 325.513 96C325.513 94.632 326.329 93.72 327.565 93.72C328.801 93.72 329.617 94.632 329.617 96C329.617 97.368 328.801 98.28 327.565 98.28ZM331.615 99H332.575V95.496C332.575 94.428 333.295 93.72 334.375 93.72H334.783V93C334.663 92.928 334.471 92.88 334.291 92.88C333.619 92.88 333.067 93.18 332.575 93.828V93H331.615V99ZM335.74 99H336.7V94.956C336.7 94.212 337.228 93.72 338.032 93.72C338.836 93.72 339.364 94.212 339.364 94.956V99H340.324V94.956C340.324 94.212 340.852 93.72 341.656 93.72C342.46 93.72 342.988 94.212 342.988 94.956V99H343.948V94.86C343.948 93.672 343.072 92.88 341.752 92.88C341.056 92.88 340.324 93.24 339.94 93.792C339.556 93.24 338.872 92.88 338.236 92.88C337.648 92.88 337.036 93.192 336.7 93.672V93H335.74V99ZM348.024 99.12C348.84 99.12 349.692 98.664 350.16 97.992V99H351.12V93H350.16V94.008C349.692 93.336 348.84 92.88 348.024 92.88C346.272 92.88 345.096 94.128 345.096 96C345.096 97.872 346.272 99.12 348.024 99.12ZM348.12 98.28C346.884 98.28 346.056 97.368 346.056 96C346.056 94.632 346.884 93.72 348.12 93.72C349.344 93.72 350.16 94.632 350.16 96C350.16 97.368 349.344 98.28 348.12 98.28ZM354.71 99.12C354.998 99.12 355.394 99.072 355.694 99V98.28H354.65C354.194 98.28 353.882 97.956 353.882 97.464V93.84H355.634V93H353.882V90.768H352.922V93H351.962V93.84H352.922V97.464C352.922 98.46 353.642 99.12 354.71 99.12ZM357.009 92.088H357.969V90.768H357.009V92.088ZM357.009 99H357.969V93H357.009V99ZM362.135 99.12C363.947 99.12 365.147 97.872 365.147 96C365.147 94.128 363.947 92.88 362.135 92.88C360.323 92.88 359.123 94.128 359.123 96C359.123 97.872 360.323 99.12 362.135 99.12ZM362.135 98.28C360.899 98.28 360.083 97.368 360.083 96C360.083 94.632 360.899 93.72 362.135 93.72C363.371 93.72 364.187 94.632 364.187 96C364.187 97.368 363.371 98.28 362.135 98.28ZM366.185 99H367.145V95.448C367.145 94.416 367.829 93.72 368.849 93.72C369.869 93.72 370.553 94.416 370.553 95.448V99H371.513V95.28C371.513 93.84 370.517 92.88 369.017 92.88C368.321 92.88 367.565 93.24 367.145 93.768V93H366.185V99Z" fill="black"/>
<path d="M154.917 92.25H149.083C148.623 92.25 148.25 92.6231 148.25 93.0833V98.9167C148.25 99.3769 148.623 99.75 149.083 99.75H154.917C155.377 99.75 155.75 99.3769 155.75 98.9167V93.0833C155.75 92.6231 155.377 92.25 154.917 92.25Z" stroke="#2667FF" stroke-linecap="round" stroke-linejoin="round"/>
<path d="M151.167 93.9141H149.917V97.6641H151.167V93.9141Z" stroke="#2667FF" stroke-linecap="round" stroke-linejoin="round"/>
<path d="M154.082 93.9141H152.832V95.9974H154.082V93.9141Z" stroke="#2667FF" stroke-linecap="round" stroke-linejoin="round"/>
<path d="M388 100.167C390.301 100.167 392.166 98.3013 392.166 96.0002C392.166 93.699 390.301 91.8335 388 91.8335C385.698 91.8335 383.833 93.699 383.833 96.0002C383.833 98.3013 385.698 100.167 388 100.167Z" stroke="#2667FF" stroke-linecap="round" stroke-linejoin="round"/>
<path d="M388 93.5V96L389.667 96.8333" stroke="#2667FF" stroke-linecap="round" stroke-linejoin="round"/>
<rect x="40.5" y="107.5" width="212" height="46" rx="1.5" stroke="#C4C4C4"/>
<rect x="40.5" y="160.5" width="212" height="46" rx="1.5" stroke="#C4C4C4"/>
<rect x="40.5" y="213.5" width="212" height="46" rx="1.5" stroke="#C4C4C4"/>
<line x1="97" y1="125.5" x2="197" y2="125.5" stroke="#2D7DD2"/>
<line x1="97" y1="134.5" x2="197" y2="134.5" stroke="#2D7DD2"/>
<line x1="97" y1="131.5" x2="197" y2="131.5" stroke="#2D7DD2"/>
<line x1="97" y1="128.5" x2="197" y2="128.5" stroke="#2D7DD2"/>
<line x1="97" y1="178.5" x2="197" y2="178.5" stroke="#2D7DD2"/>
<line x1="97" y1="187.5" x2="197" y2="187.5" stroke="#2D7DD2"/>
<line x1="97" y1="184.5" x2="197" y2="184.5" stroke="#2D7DD2"/>
<line x1="97" y1="181.5" x2="197" y2="181.5" stroke="#2D7DD2"/>
<line x1="97" y1="231.5" x2="197" y2="231.5" stroke="#2D7DD2"/>
<line x1="97" y1="240.5" x2="197" y2="240.5" stroke="#2D7DD2"/>
<line x1="97" y1="237.5" x2="197" y2="237.5" stroke="#2D7DD2"/>
<line x1="97" y1="234.5" x2="197" y2="234.5" stroke="#2D7DD2"/>
<circle cx="373" cy="185" r="60" fill="#DCDCDC"/>
<path d="M330.574 227.426C323.818 220.671 318.774 212.401 315.86 203.302C312.945 194.204 312.246 184.542 313.819 175.119L373 185L330.574 227.426Z" fill="#D1D1D1"/>
<path d="M343.428 237.206C338.314 234.31 333.654 230.677 329.596 226.426L373 185L343.428 237.206Z" fill="#C5C5C5"/>
<path d="M343.428 237.206C338.314 234.31 333.654 230.677 329.596 226.426L373 185L343.428 237.206Z" fill="#C5C5C5"/>
<path d="M343.428 237.206C338.314 234.31 333.654 230.677 329.596 226.426L373 185L343.428 237.206Z" fill="#C5C5C5"/>
<path d="M343.428 237.206C338.314 234.31 333.654 230.677 329.596 226.426L373 185L343.428 237.206Z" fill="#C5C5C5"/>
<path d="M373 245C362.631 245 352.438 242.313 343.417 237.2L373 185L373 245Z" fill="#BAB9B9"/>
<path d="M428.043 161.12C432.17 170.633 433.761 181.053 432.662 191.364L373 185L428.043 161.12Z" fill="#2667FF"/>
<path d="M421.76 150.036C424.429 153.759 426.663 157.774 428.418 162.005L373 185L421.76 150.036Z" fill="#CECDCD"/>
<path d="M381.188 244.439C378.442 244.817 375.673 245.004 372.901 245L373 185L381.188 244.439Z" fill="#AEAEAE"/>
<path d="M432.685 191.144C431.29 204.692 425.328 217.362 415.778 227.072C406.228 236.782 393.659 242.954 380.137 244.574L373 185L432.685 191.144Z" fill="#A3A3A3"/>
<circle cx="373" cy="185" r="45" fill="white"/>
<path d="M348.117 184.913C348.117 183.005 347.217 181.736 345.858 181.736C344.499 181.736 343.599 182.636 343.599 183.977C343.599 185.318 344.472 186.218 345.786 186.218C346.479 186.218 347.127 185.777 347.397 185.12C347.397 186.524 346.785 187.46 345.858 187.46C345.147 187.46 344.571 187.118 344.409 186.596H343.716C343.923 187.496 344.778 188.09 345.858 188.09C347.217 188.09 348.117 186.821 348.117 184.913ZM347.244 183.977C347.244 185.057 346.515 185.597 345.795 185.597C345.057 185.597 344.319 185.048 344.319 183.977C344.319 182.906 345.066 182.357 345.804 182.357C346.524 182.357 347.244 182.888 347.244 183.977ZM349.085 188H353.423V187.37H350.093C350.876 186.857 351.785 186.182 352.352 185.696C352.964 185.156 353.378 184.364 353.378 183.716C353.378 182.528 352.532 181.736 351.254 181.736C349.949 181.736 349.085 182.681 349.085 184.103H349.76C349.76 183.059 350.354 182.366 351.254 182.366C352.1 182.366 352.658 182.906 352.658 183.716C352.658 184.202 352.352 184.796 351.902 185.192C351.164 185.831 350.03 186.668 349.085 187.28V188ZM355.346 188.09H355.976L359.756 181.736H359.126L355.346 188.09ZM355.931 184.706C355.139 184.706 354.491 184.058 354.491 183.266C354.491 182.474 355.139 181.826 355.931 181.826C356.723 181.826 357.371 182.474 357.371 183.266C357.371 184.058 356.723 184.706 355.931 184.706ZM355.931 182.456C355.481 182.456 355.121 182.816 355.121 183.266C355.121 183.716 355.481 184.076 355.931 184.076C356.381 184.076 356.741 183.716 356.741 183.266C356.741 182.816 356.381 182.456 355.931 182.456ZM359.261 188C358.469 188 357.821 187.352 357.821 186.56C357.821 185.768 358.469 185.12 359.261 185.12C360.053 185.12 360.701 185.768 360.701 186.56C360.701 187.352 360.053 188 359.261 188ZM359.261 185.75C358.811 185.75 358.451 186.11 358.451 186.56C358.451 187.01 358.811 187.37 359.261 187.37C359.711 187.37 360.071 187.01 360.071 186.56C360.071 186.11 359.711 185.75 359.261 185.75ZM368.277 188H369.141L366.603 181.826H365.775L363.237 188H364.101L364.92 185.939H367.458L368.277 188ZM365.208 185.219L366.189 182.753L367.17 185.219H365.208ZM371.668 188.09C372.82 188.09 373.702 187.325 373.873 186.173H373.189C373.054 186.947 372.451 187.46 371.668 187.46C370.741 187.46 370.129 186.776 370.129 185.75C370.129 184.724 370.741 184.04 371.668 184.04C372.442 184.04 373.045 184.535 373.18 185.282H373.864C373.693 184.157 372.82 183.41 371.668 183.41C370.309 183.41 369.409 184.346 369.409 185.75C369.409 187.154 370.309 188.09 371.668 188.09ZM376.784 188.09C377.936 188.09 378.818 187.325 378.989 186.173H378.305C378.17 186.947 377.567 187.46 376.784 187.46C375.857 187.46 375.245 186.776 375.245 185.75C375.245 184.724 375.857 184.04 376.784 184.04C377.558 184.04 378.161 184.535 378.296 185.282H378.98C378.809 184.157 377.936 183.41 376.784 183.41C375.425 183.41 374.525 184.346 374.525 185.75C374.525 187.154 375.425 188.09 376.784 188.09ZM383.852 183.5H383.132V186.164C383.132 186.938 382.619 187.46 381.854 187.46C381.089 187.46 380.576 186.938 380.576 186.164V183.5H379.856V186.29C379.856 187.37 380.603 188.09 381.728 188.09C382.25 188.09 382.817 187.82 383.132 187.424V188H383.852V183.5ZM384.936 188H385.656V185.372C385.656 184.571 386.196 184.04 387.006 184.04H387.312V183.5C387.222 183.446 387.078 183.41 386.943 183.41C386.439 183.41 386.025 183.635 385.656 184.121V183.5H384.936V188ZM389.649 188.09C390.261 188.09 390.9 187.748 391.251 187.244V188H391.971V183.5H391.251V184.256C390.9 183.752 390.261 183.41 389.649 183.41C388.335 183.41 387.453 184.346 387.453 185.75C387.453 187.154 388.335 188.09 389.649 188.09ZM389.721 187.46C388.794 187.46 388.173 186.776 388.173 185.75C388.173 184.724 388.794 184.04 389.721 184.04C390.639 184.04 391.251 184.724 391.251 185.75C391.251 186.776 390.639 187.46 389.721 187.46ZM395.003 188.09C396.155 188.09 397.037 187.325 397.208 186.173H396.524C396.389 186.947 395.786 187.46 395.003 187.46C394.076 187.46 393.464 186.776 393.464 185.75C393.464 184.724 394.076 184.04 395.003 184.04C395.777 184.04 396.38 184.535 396.515 185.282H397.199C397.028 184.157 396.155 183.41 395.003 183.41C393.644 183.41 392.744 184.346 392.744 185.75C392.744 187.154 393.644 188.09 395.003 188.09ZM398.424 189.674H399.198L401.628 183.5H400.854L399.558 186.803L398.244 183.5H397.479L399.189 187.73L398.424 189.674Z" fill="#2667FF"/>
</svg>
