<svg width="18" height="14" viewBox="0 0 18 14" fill="none" xmlns="http://www.w3.org/2000/svg">
<path d="M7 0C6.57157 0 6.16069 0.170192 5.85775 0.473135C5.55481 0.776079 5.38461 1.18696 5.38461 1.61538V2.15385H1.61538C1.18696 2.15385 0.776079 2.32404 0.473135 2.62698C0.170192 2.92992 0 3.3408 0 3.76923L0 12.3846C0 12.813 0.170192 13.2239 0.473135 13.5269C0.776079 13.8298 1.18696 14 1.61538 14H15.6154C16.0438 14 16.4547 13.8298 16.7576 13.5269C17.0606 13.2239 17.2308 12.813 17.2308 12.3846V3.76923C17.2308 3.3408 17.0606 2.92992 16.7576 2.62698C16.4547 2.32404 16.0438 2.15385 15.6154 2.15385H11.8462V1.61538C11.8462 1.18696 11.676 0.776079 11.373 0.473135C11.0701 0.170192 10.6592 0 10.2308 0H7ZM7 1.07692H10.2308C10.3736 1.07692 10.5105 1.13365 10.6115 1.23463C10.7125 1.33562 10.7692 1.47258 10.7692 1.61538V2.15385H6.46154V1.61538C6.46154 1.47258 6.51827 1.33562 6.61925 1.23463C6.72023 1.13365 6.85719 1.07692 7 1.07692ZM9.03108 8.52277L16.1538 6.62415V12.3846C16.1538 12.5274 16.0971 12.6644 15.9961 12.7654C15.8952 12.8663 15.7582 12.9231 15.6154 12.9231H1.61538C1.47258 12.9231 1.33562 12.8663 1.23463 12.7654C1.13365 12.6644 1.07692 12.5274 1.07692 12.3846V6.62308L8.19969 8.52277C8.47207 8.5953 8.75869 8.5953 9.03108 8.52277ZM1.61538 3.23077H15.6154C15.7582 3.23077 15.8952 3.2875 15.9961 3.38848C16.0971 3.48946 16.1538 3.62642 16.1538 3.76923V5.50954L8.75431 7.48246C8.66329 7.50677 8.56748 7.50677 8.47646 7.48246L1.07692 5.50954V3.76923C1.07692 3.62642 1.13365 3.48946 1.23463 3.38848C1.33562 3.2875 1.47258 3.23077 1.61538 3.23077Z" fill="#0000FF"/>
</svg>
