<svg width="50" height="50" viewBox="0 0 50 50" fill="none" xmlns="http://www.w3.org/2000/svg">
<rect x="0.25" y="0.25" width="49.5" height="49.5" rx="24.75" stroke="black" stroke-width="0.5"/>
<path d="M34.2 15H15.8C15.3575 15 15 15.3575 15 15.8V34.2C15 34.6425 15.3575 35 15.8 35H34.2C34.6425 35 35 34.6425 35 34.2V15.8C35 15.3575 34.6425 15 34.2 15ZM20.9325 32.0425H17.965V22.4975H20.9325V32.0425ZM19.45 21.1925C19.1098 21.1925 18.7773 21.0916 18.4944 20.9026C18.2116 20.7136 17.9911 20.445 17.8609 20.1307C17.7307 19.8164 17.6967 19.4706 17.763 19.1369C17.8294 18.8033 17.9932 18.4968 18.2338 18.2563C18.4743 18.0157 18.7808 17.8519 19.1144 17.7855C19.4481 17.7192 19.7939 17.7532 20.1082 17.8834C20.4225 18.0136 20.6911 18.2341 20.8801 18.5169C21.0691 18.7998 21.17 19.1323 21.17 19.4725C21.1675 20.4225 20.3975 21.1925 19.45 21.1925ZM32.0425 32.0425H29.0775V27.4C29.0775 26.2925 29.0575 24.87 27.535 24.87C25.9925 24.87 25.755 26.075 25.755 27.32V32.0425H22.7925V22.4975H25.6375V23.8025H25.6775C26.0725 23.0525 27.04 22.26 28.485 22.26C31.49 22.26 32.0425 24.2375 32.0425 26.8075V32.0425Z" fill="black"/>
</svg>
