<svg width="20" height="15" viewBox="0 0 20 15" fill="none" xmlns="http://www.w3.org/2000/svg">
<path d="M18.5714 0H1.42857C1.04969 0 0.686328 0.158035 0.418419 0.43934C0.15051 0.720644 0 1.10218 0 1.5V13.5C0 13.8978 0.15051 14.2794 0.418419 14.5607C0.686328 14.842 1.04969 15 1.42857 15H18.5714C18.9503 15 19.3137 14.842 19.5816 14.5607C19.8495 14.2794 20 13.8978 20 13.5V1.5C20 1.10218 19.8495 0.720644 19.5816 0.43934C19.3137 0.158035 18.9503 0 18.5714 0ZM17 1.5L10 6.585L3 1.5H17ZM1.42857 13.5V2.1825L9.59286 8.115C9.71243 8.2021 9.85448 8.24877 10 8.24877C10.1455 8.24877 10.2876 8.2021 10.4071 8.115L18.5714 2.1825V13.5H1.42857Z" fill="white"/>
</svg>
