<svg width="22" height="22" viewBox="0 0 22 22" fill="none" xmlns="http://www.w3.org/2000/svg">
<path d="M11.7849 11.7857H15.8207C16.0117 12.5264 16.466 13.1719 17.0985 13.6012C17.7309 14.0305 18.498 14.2142 19.2561 14.1178C20.0141 14.0214 20.711 13.6516 21.2162 13.0776C21.7213 12.5036 22 11.7649 22 11C22 10.235 21.7213 9.49636 21.2162 8.92239C20.711 8.34842 20.0141 7.97858 19.2561 7.88219C18.498 7.78581 17.7309 7.96949 17.0985 8.39881C16.466 8.82814 16.0117 9.47363 15.8207 10.2143H11.7849V3.92858H15.8207C16.0117 4.66924 16.466 5.31472 17.0985 5.74405C17.7309 6.17337 18.498 6.35705 19.2561 6.26067C20.0141 6.16428 20.711 5.79444 21.2162 5.22047C21.7213 4.6465 22 3.90781 22 3.14286C22 2.37791 21.7213 1.63922 21.2162 1.06525C20.711 0.491284 20.0141 0.121444 19.2561 0.0250572C18.498 -0.0713298 17.7309 0.112354 17.0985 0.541677C16.466 0.971001 16.0117 1.61649 15.8207 2.35715H11.7849C11.3687 2.35756 10.9696 2.52326 10.6753 2.81787C10.3811 3.11248 10.2155 3.51194 10.2151 3.92858V10.2143H6.1793C5.98826 9.47363 5.53395 8.82814 4.90152 8.39881C4.26908 7.96949 3.50195 7.78581 2.7439 7.88219C1.98586 7.97858 1.28896 8.34842 0.783823 8.92239C0.278687 9.49636 0 10.235 0 11C0 11.7649 0.278687 12.5036 0.783823 13.0776C1.28896 13.6516 1.98586 14.0214 2.7439 14.1178C3.50195 14.2142 4.26908 14.0305 4.90152 13.6012C5.53395 13.1719 5.98826 12.5264 6.1793 11.7857H10.2151V18.0714C10.2155 18.4881 10.3811 18.8875 10.6753 19.1821C10.9696 19.4767 11.3687 19.6424 11.7849 19.6429H15.8207C16.0117 20.3835 16.466 21.029 17.0985 21.4583C17.7309 21.8876 18.498 22.0713 19.2561 21.9749C20.0141 21.8786 20.711 21.5087 21.2162 20.9347C21.7213 20.3608 22 19.6221 22 18.8571C22 18.0922 21.7213 17.3535 21.2162 16.7795C20.711 16.2056 20.0141 15.8357 19.2561 15.7393C18.498 15.6429 17.7309 15.8266 17.0985 16.256C16.466 16.6853 16.0117 17.3308 15.8207 18.0714H11.7849V11.7857ZM18.8487 9.42857C19.1592 9.42857 19.4627 9.52073 19.7208 9.69341C19.979 9.86608 20.1802 10.1115 20.299 10.3986C20.4178 10.6858 20.4489 11.0017 20.3883 11.3066C20.3277 11.6114 20.1782 11.8914 19.9587 12.1112C19.7392 12.3309 19.4595 12.4806 19.155 12.5412C18.8505 12.6019 18.5348 12.5707 18.248 12.4518C17.9612 12.3329 17.716 12.1315 17.5435 11.873C17.371 11.6146 17.279 11.3108 17.279 11C17.2794 10.5834 17.4449 10.1839 17.7392 9.88929C18.0335 9.59468 18.4325 9.42899 18.8487 9.42857ZM18.8487 1.57143C19.1592 1.57143 19.4627 1.6636 19.7208 1.83627C19.979 2.00894 20.1802 2.25436 20.299 2.5415C20.4178 2.82864 20.4489 3.14461 20.3883 3.44943C20.3277 3.75426 20.1782 4.03426 19.9587 4.25403C19.7392 4.4738 19.4595 4.62346 19.155 4.6841C18.8505 4.74473 18.5348 4.71361 18.248 4.59467C17.9612 4.47573 17.716 4.27432 17.5435 4.0159C17.371 3.75748 17.279 3.45366 17.279 3.14286C17.2794 2.72622 17.4449 2.32676 17.7392 2.03216C18.0335 1.73755 18.4325 1.57185 18.8487 1.57143ZM3.15125 12.5714C2.84079 12.5714 2.53729 12.4793 2.27915 12.3066C2.02101 12.1339 1.81981 11.8885 1.701 11.6014C1.58219 11.3142 1.5511 10.9983 1.61167 10.6934C1.67224 10.3886 1.82174 10.1086 2.04128 9.88883C2.26081 9.66906 2.54051 9.5194 2.84501 9.45877C3.14951 9.39813 3.46514 9.42925 3.75197 9.54819C4.03881 9.66713 4.28397 9.86854 4.45645 10.127C4.62894 10.3854 4.721 10.6892 4.721 11C4.72059 11.4166 4.55507 11.8161 4.26077 12.1107C3.96648 12.4053 3.56745 12.571 3.15125 12.5714ZM18.8487 17.2857C19.1592 17.2857 19.4627 17.3779 19.7208 17.5505C19.979 17.7232 20.1802 17.9686 20.299 18.2558C20.4178 18.5429 20.4489 18.8589 20.3883 19.1637C20.3277 19.4685 20.1782 19.7485 19.9587 19.9683C19.7392 20.1881 19.4595 20.3377 19.155 20.3984C18.8505 20.459 18.5348 20.4279 18.248 20.3089C17.9612 20.19 17.716 19.9886 17.5435 19.7302C17.371 19.4718 17.279 19.1679 17.279 18.8571C17.2794 18.4405 17.4449 18.041 17.7392 17.7464C18.0335 17.4518 18.4325 17.2861 18.8487 17.2857Z" fill="black"/>
</svg>
