<svg width="50" height="50" viewBox="0 0 50 50" fill="none" xmlns="http://www.w3.org/2000/svg">
<rect x="0.25" y="0.25" width="49.5" height="49.5" rx="24.75" stroke="black" stroke-width="0.5"/>
<path d="M34.2 15H15.8C15.3575 15 15 15.3575 15 15.8V34.2C15 34.6425 15.3575 35 15.8 35H34.2C34.6425 35 35 34.6425 35 34.2V15.8C35 15.3575 34.6425 15 34.2 15ZM31.4 20.1425L30.38 21.12C30.29 21.1875 30.2475 21.2975 30.265 21.405V28.5975C30.2475 28.7075 30.29 28.8175 30.38 28.8825L31.38 29.86V30.0775H26.36V29.87L27.3925 28.8675C27.495 28.765 27.495 28.735 27.495 28.5825V22.7625L24.62 30.0525H24.2325L20.8875 22.7625V27.65C20.8575 27.855 20.93 28.0625 21.075 28.21L22.42 29.8375V30.055H18.6V29.8375L19.945 28.21C20.0159 28.1368 20.0686 28.048 20.099 27.9508C20.1294 27.8535 20.1366 27.7505 20.12 27.65V22C20.1375 21.8425 20.0775 21.69 19.9575 21.5825L18.7625 20.1425V19.925H22.475L25.34 26.2125L27.8625 19.93H31.4V20.1425Z" fill="black"/>
</svg>
