<svg width="24" height="22" viewBox="0 0 24 22" fill="none" xmlns="http://www.w3.org/2000/svg">
<path d="M0 3.63209C0 2.6688 0.379285 1.74496 1.05442 1.06381C1.72955 0.382666 2.64522 0 3.6 0H20.4C21.3548 0 22.2705 0.382666 22.9456 1.06381C23.6207 1.74496 24 2.6688 24 3.63209V14.5284C24 15.4916 23.6207 16.4155 22.9456 17.0966C22.2705 17.7778 21.3548 18.1604 20.4 18.1604H17.7936C17.4754 18.1605 17.1702 18.2881 16.9452 18.5152L14.5452 20.9366C13.8701 21.6175 12.9546 22 12 22C11.0454 22 10.1299 21.6175 9.4548 20.9366L7.0548 18.5152C6.82981 18.2881 6.52463 18.1605 6.2064 18.1604H3.6C2.64522 18.1604 1.72955 17.7778 1.05442 17.0966C0.379285 16.4155 0 15.4916 0 14.5284V3.63209ZM3.6 2.42139C3.28174 2.42139 2.97652 2.54895 2.75147 2.776C2.52643 3.00305 2.4 3.31099 2.4 3.63209V14.5284C2.4 14.8495 2.52643 15.1574 2.75147 15.3844C2.97652 15.6115 3.28174 15.7391 3.6 15.7391H6.2064C7.16069 15.7396 8.07572 16.1224 8.7504 16.8033L11.1504 19.2246C11.2618 19.3372 11.3942 19.4265 11.5399 19.4874C11.6855 19.5484 11.8417 19.5797 11.9994 19.5797C12.1571 19.5797 12.3133 19.5484 12.4589 19.4874C12.6046 19.4265 12.737 19.3372 12.8484 19.2246L15.2484 16.8033C15.9234 16.1221 16.8389 15.7393 17.7936 15.7391H20.4C20.7183 15.7391 21.0235 15.6115 21.2485 15.3844C21.4736 15.1574 21.6 14.8495 21.6 14.5284V3.63209C21.6 3.31099 21.4736 3.00305 21.2485 2.776C21.0235 2.54895 20.7183 2.42139 20.4 2.42139H3.6ZM4.8 6.05348C4.8 5.73239 4.92643 5.42444 5.15147 5.19739C5.37652 4.97034 5.68174 4.84279 6 4.84279H18C18.3183 4.84279 18.6235 4.97034 18.8485 5.19739C19.0736 5.42444 19.2 5.73239 19.2 6.05348C19.2 6.37458 19.0736 6.68252 18.8485 6.90957C18.6235 7.13662 18.3183 7.26418 18 7.26418H6C5.68174 7.26418 5.37652 7.13662 5.15147 6.90957C4.92643 6.68252 4.8 6.37458 4.8 6.05348ZM4.8 10.8963C4.8 10.5752 4.92643 10.2672 5.15147 10.0402C5.37652 9.81313 5.68174 9.68557 6 9.68557H12C12.3183 9.68557 12.6235 9.81313 12.8485 10.0402C13.0736 10.2672 13.2 10.5752 13.2 10.8963C13.2 11.2174 13.0736 11.5253 12.8485 11.7524C12.6235 11.9794 12.3183 12.107 12 12.107H6C5.68174 12.107 5.37652 11.9794 5.15147 11.7524C4.92643 11.5253 4.8 11.2174 4.8 10.8963Z" fill="black"/>
</svg>
