<svg width="19" height="22" viewBox="0 0 19 22" fill="none" xmlns="http://www.w3.org/2000/svg">
<path d="M13.9266 5.95413V4.74312C13.9266 4.63211 13.8358 4.54128 13.7248 4.54128H4.0367C3.92569 4.54128 3.83486 4.63211 3.83486 4.74312V5.95413C3.83486 6.06514 3.92569 6.15596 4.0367 6.15596H13.7248C13.8358 6.15596 13.9266 6.06514 13.9266 5.95413ZM4.0367 8.17431C3.92569 8.17431 3.83486 8.26514 3.83486 8.37615V9.58716C3.83486 9.69816 3.92569 9.78899 4.0367 9.78899H8.6789C8.78991 9.78899 8.88073 9.69816 8.88073 9.58716V8.37615C8.88073 8.26514 8.78991 8.17431 8.6789 8.17431H4.0367ZM7.66972 19.578H1.81651V1.81651H15.945V10.4954C15.945 10.6064 16.0358 10.6972 16.1468 10.6972H17.5596C17.6706 10.6972 17.7615 10.6064 17.7615 10.4954V0.807339C17.7615 0.36078 17.4007 0 16.9541 0H0.807339C0.36078 0 0 0.36078 0 0.807339V20.5872C0 21.0337 0.36078 21.3945 0.807339 21.3945H7.66972C7.78073 21.3945 7.87156 21.3037 7.87156 21.1927V19.7798C7.87156 19.6688 7.78073 19.578 7.66972 19.578ZM18.9144 20.8773L16.5606 18.5234C17.1232 17.7791 17.4587 16.8507 17.4587 15.844C17.4587 13.3917 15.4706 11.4037 13.0183 11.4037C10.5661 11.4037 8.57798 13.3917 8.57798 15.844C8.57798 18.2963 10.5661 20.2844 13.0183 20.2844C13.9216 20.2844 14.7592 20.0144 15.4605 19.5528L17.8498 21.942C17.8901 21.9823 17.9406 22 17.9911 22C18.0415 22 18.0945 21.9798 18.1323 21.942L18.9144 21.1599C18.9331 21.1413 18.9478 21.1193 18.9579 21.0951C18.968 21.0708 18.9732 21.0448 18.9732 21.0186C18.9732 20.9923 18.968 20.9663 18.9579 20.9421C18.9478 20.9178 18.9331 20.8958 18.9144 20.8773ZM13.0183 18.6697C11.4567 18.6697 10.1927 17.4057 10.1927 15.844C10.1927 14.2823 11.4567 13.0183 13.0183 13.0183C14.58 13.0183 15.844 14.2823 15.844 15.844C15.844 17.4057 14.58 18.6697 13.0183 18.6697Z" fill="black"/>
</svg>
