<svg width="28" height="28" viewBox="0 0 28 28" fill="none" xmlns="http://www.w3.org/2000/svg">
<path d="M14 0C21.7322 0 28 6.2678 28 14C28 21.7322 21.7322 28 14 28C6.2678 28 0 21.7322 0 14C0 6.2678 6.2678 0 14 0ZM14 2.8C11.0296 2.8 8.18081 3.98 6.0804 6.0804C3.98 8.18081 2.8 11.0296 2.8 14C2.8 16.9704 3.98 19.8192 6.0804 21.9196C8.18081 24.02 11.0296 25.2 14 25.2C16.9704 25.2 19.8192 24.02 21.9196 21.9196C24.02 19.8192 25.2 16.9704 25.2 14C25.2 11.0296 24.02 8.18081 21.9196 6.0804C19.8192 3.98 16.9704 2.8 14 2.8ZM14 12.6C16.8 12.6 19.1338 13.0662 21 14C21 15.8565 20.2625 17.637 18.9497 18.9497C17.637 20.2625 15.8565 21 14 21C12.1435 21 10.363 20.2625 9.05025 18.9497C7.7375 17.637 7 15.8565 7 14C8.8662 13.0662 11.2 12.6 14 12.6ZM9.1 7C9.90686 6.99984 10.689 7.27845 11.314 7.78869C11.9391 8.29892 12.3686 9.00944 12.53 9.8H5.67C5.83137 9.00944 6.26093 8.29892 6.88597 7.78869C7.51101 7.27845 8.29314 6.99984 9.1 7ZM18.9 7C19.7069 6.99984 20.489 7.27845 21.114 7.78869C21.7391 8.29892 22.1686 9.00944 22.33 9.8H15.47C15.6314 9.00944 16.0609 8.29892 16.686 7.78869C17.311 7.27845 18.0931 6.99984 18.9 7Z" fill="#0000FF"/>
</svg>
