<svg width="28" height="28" viewBox="0 0 28 28" fill="none" xmlns="http://www.w3.org/2000/svg">
<path fill-rule="evenodd" clip-rule="evenodd" d="M5.85285 18.0585C7.6602 18.0585 9.30212 16.8023 9.90301 14.9473H1.80268C2.40357 16.8023 4.04549 18.0585 5.85285 18.0585ZM0.184173 14.9473C0.0612965 14.4379 -0.000525091 13.9157 3.35928e-06 13.3918H11.7057V13.3941C11.7057 13.9308 11.6417 14.4503 11.5215 14.9473C10.8715 17.6307 8.57949 19.614 5.85285 19.614C3.12542 19.614 0.834229 17.6307 0.184173 14.9473Z" fill="#0000FF"/>
<path fill-rule="evenodd" clip-rule="evenodd" d="M22.1478 13.2222C23.9551 13.2222 25.597 11.9661 26.1979 10.1111H18.0976C18.6985 11.9661 20.3404 13.2222 22.1478 13.2222ZM16.4791 10.1111C16.3562 9.60166 16.2944 9.07949 16.2949 8.55554H28.0006V8.55788C28.0006 9.09454 27.9366 9.61488 27.8164 10.1111C27.1664 12.7944 24.8744 14.7778 22.1478 14.7778C19.4203 14.7778 17.1292 12.7944 16.4791 10.1111Z" fill="#0000FF"/>
<path d="M6.14941 26.4445H21.757V28H6.14941V26.4445Z" fill="#0000FF"/>
<path d="M10.832 24.8889H17.0751V26.4445H10.832V24.8889Z" fill="#0000FF"/>
<path fill-rule="evenodd" clip-rule="evenodd" d="M13.1729 25.2778V7.38892H14.7336V25.2778H13.1729Z" fill="#0000FF"/>
<path fill-rule="evenodd" clip-rule="evenodd" d="M12.756 5.6327C12.8094 5.83196 12.7812 6.0442 12.6776 6.22272C12.574 6.40125 12.4034 6.53145 12.2035 6.5847L7.3878 7.86492L11.0969 13.5777C11.2093 13.751 11.248 13.9616 11.2046 14.1634C11.1611 14.3651 11.039 14.5414 10.8652 14.6534C10.6913 14.7654 10.4799 14.804 10.2775 14.7606C10.0751 14.7173 9.89829 14.5956 9.78591 14.4224L6.12125 8.77725L2.10464 14.4488C1.98522 14.6173 1.80351 14.7317 1.5995 14.7667C1.39549 14.8017 1.18588 14.7545 1.01679 14.6355C0.847696 14.5165 0.732968 14.3354 0.697844 14.132C0.66272 13.9287 0.710078 13.7198 0.829499 13.5513L5.51177 6.94014C5.61725 6.79109 5.77193 6.68372 5.94878 6.63681L11.8016 5.08125C12.0017 5.02835 12.2146 5.05681 12.3936 5.16037C12.5726 5.26393 12.7029 5.43411 12.756 5.63348V5.6327Z" fill="#0000FF"/>
<path fill-rule="evenodd" clip-rule="evenodd" d="M22.9053 2.92207C22.9556 3.12216 22.924 3.33397 22.8176 3.51089C22.7112 3.68782 22.5387 3.81538 22.3379 3.86551L16.0949 5.42107C15.9948 5.44783 15.8904 5.45446 15.7878 5.44057C15.6851 5.42669 15.5862 5.39257 15.4969 5.3402C15.4076 5.28784 15.3297 5.21827 15.2677 5.13557C15.2056 5.05286 15.1607 4.95867 15.1356 4.8585C15.1105 4.75832 15.1056 4.65416 15.1213 4.55209C15.137 4.45002 15.1729 4.35208 15.227 4.26399C15.281 4.17591 15.3522 4.09943 15.4362 4.03903C15.5202 3.97863 15.6155 3.9355 15.7164 3.91218L21.9594 2.35662C22.1601 2.30674 22.3724 2.33827 22.5498 2.44429C22.7271 2.55031 22.855 2.72215 22.9053 2.92207Z" fill="#0000FF"/>
<path fill-rule="evenodd" clip-rule="evenodd" d="M22.1642 2.33332C22.2936 2.33618 22.4203 2.37109 22.5328 2.4349C22.6454 2.49872 22.7402 2.58943 22.8088 2.69888L26.7107 8.9211L25.3872 9.74554L22.1158 4.52899L18.498 9.77432L17.2119 8.89232L21.504 2.6701C21.5774 2.56378 21.6761 2.47734 21.7914 2.41855C21.9066 2.35976 22.0348 2.33047 22.1642 2.33332Z" fill="#0000FF"/>
<path fill-rule="evenodd" clip-rule="evenodd" d="M13.9534 6.22219C14.1604 6.22219 14.3589 6.14025 14.5053 5.99439C14.6516 5.84853 14.7338 5.6507 14.7338 5.44442C14.7338 5.23814 14.6516 5.04031 14.5053 4.89445C14.3589 4.74858 14.1604 4.66664 13.9534 4.66664C13.7465 4.66664 13.548 4.74858 13.4016 4.89445C13.2553 5.04031 13.1731 5.23814 13.1731 5.44442C13.1731 5.6507 13.2553 5.84853 13.4016 5.99439C13.548 6.14025 13.7465 6.22219 13.9534 6.22219ZM13.9534 7.77775C14.5743 7.77775 15.1698 7.53192 15.6089 7.09433C16.0479 6.65675 16.2946 6.06326 16.2946 5.44442C16.2946 4.82558 16.0479 4.23209 15.6089 3.7945C15.1698 3.35692 14.5743 3.11108 13.9534 3.11108C13.3325 3.11108 12.7371 3.35692 12.298 3.7945C11.859 4.23209 11.6123 4.82558 11.6123 5.44442C11.6123 6.06326 11.859 6.65675 12.298 7.09433C12.7371 7.53192 13.3325 7.77775 13.9534 7.77775Z" fill="#0000FF"/>
<path fill-rule="evenodd" clip-rule="evenodd" d="M13.1729 3.88889V0H14.7336V3.88889H13.1729Z" fill="#0000FF"/>
</svg>
