<svg width="24" height="28" viewBox="0 0 24 28" fill="none" xmlns="http://www.w3.org/2000/svg">
<path d="M13.3273 12L21.2593 24.688C21.2989 24.7519 21.3208 24.8252 21.3226 24.9003C21.3245 24.9754 21.3063 25.0497 21.2699 25.1154C21.2335 25.1812 21.1802 25.236 21.1155 25.2743C21.0509 25.3126 20.9772 25.333 20.902 25.3333H3.08601C3.01048 25.333 2.93642 25.3124 2.87155 25.2737C2.80668 25.235 2.75336 25.1796 2.71715 25.1133C2.68094 25.047 2.66316 24.9722 2.66566 24.8967C2.66815 24.8212 2.69084 24.7478 2.73135 24.684L10.6607 12V2.66667H13.3273V12ZM5.32735 0V2.66667H7.99401V11.28L0.47268 23.2667C0.17942 23.734 0.0166271 24.2714 0.00120738 24.823C-0.0142123 25.3745 0.118303 25.9201 0.384993 26.4032C0.651683 26.8862 1.04282 27.289 1.51779 27.5698C1.99276 27.8506 2.53425 27.9992 3.08601 28H20.902C21.4538 27.9992 21.9953 27.8506 22.4702 27.5698C22.9452 27.289 23.3363 26.8862 23.603 26.4032C23.8697 25.9201 24.0022 25.3745 23.9868 24.823C23.9714 24.2714 23.8086 23.734 23.5153 23.2667L15.9953 11.28L15.994 2.66667H18.6607V0H5.32735Z" fill="#0000FF"/>
</svg>
