<svg width="15" height="19" viewBox="0 0 15 19" fill="none" xmlns="http://www.w3.org/2000/svg">
<path d="M4.175 1.638C3.60767 2.38933 3.14767 3.179 2.795 4.007C2.45767 4.81967 2.289 5.76267 2.289 6.836C2.289 7.95533 2.46533 8.85233 2.818 9.527C3.186 10.1863 3.669 10.6693 4.267 10.976C4.865 11.2827 5.51667 11.4743 6.222 11.551V4.697C6.222 3.30167 6.544 2.24367 7.188 1.523C7.84733 0.802333 8.73667 0.442 9.856 0.442C10.8067 0.442 11.6193 0.702666 12.294 1.224C12.9687 1.73 13.49 2.443 13.858 3.363C14.226 4.26767 14.41 5.32567 14.41 6.537C14.41 8.02433 14.1187 9.251 13.536 10.217C12.9687 11.1677 12.2097 11.8883 11.259 12.379C10.3237 12.8697 9.304 13.1457 8.2 13.207V18.52H6.222V13.207C5.08733 13.1457 4.06767 12.8927 3.163 12.448C2.27367 12.0033 1.56833 11.321 1.047 10.401C0.525667 9.481 0.265 8.26967 0.265 6.767C0.265 5.525 0.487333 4.39033 0.932 3.363C1.37667 2.32033 1.93633 1.385 2.611 0.557L4.175 1.638ZM9.879 2.121C9.43433 2.121 9.04333 2.305 8.706 2.673C8.36867 3.041 8.2 3.708 8.2 4.674V11.551C8.982 11.4743 9.68733 11.252 10.316 10.884C10.9447 10.5007 11.443 9.95633 11.811 9.251C12.179 8.53033 12.363 7.63333 12.363 6.56C12.363 5.11867 12.1253 4.02233 11.65 3.271C11.19 2.50433 10.5997 2.121 9.879 2.121Z" fill="#0000FF"/>
</svg>
