<svg width="28" height="28" viewBox="0 0 28 28" fill="none" xmlns="http://www.w3.org/2000/svg">
<path d="M12.9231 0C11.6308 0 10.7692 0.861538 10.7692 2.15385V10.7692H2.15385C0.861538 10.7692 0 11.6308 0 12.9231V15.0769C0 16.3692 0.861538 17.2308 2.15385 17.2308H10.7692V25.8462C10.7692 27.1385 11.6308 28 12.9231 28H15.0769C16.3692 28 17.2308 27.1385 17.2308 25.8462V17.2308H25.8462C27.1385 17.2308 28 16.3692 28 15.0769V12.9231C28 11.6308 27.1385 10.7692 25.8462 10.7692H17.2308V2.15385C17.2308 0.861538 16.3692 0 15.0769 0H12.9231Z" fill="#0000FF"/>
</svg>
