<svg width="15" height="18" viewBox="0 0 15 18" fill="none" xmlns="http://www.w3.org/2000/svg">
<path d="M1 2.6V15.4C1 15.8243 1.1712 16.2313 1.47595 16.5314C1.7807 16.8314 2.19402 17 2.625 17H12.375C12.806 17 13.2193 16.8314 13.524 16.5314C13.8288 16.2313 14 15.8243 14 15.4V6.0736C14 5.86045 13.9567 5.64945 13.8727 5.453C13.7887 5.25654 13.6657 5.07859 13.5109 4.9296L9.90338 1.456C9.59979 1.16373 9.19209 1.00005 8.7675 1H2.625C2.19402 1 1.7807 1.16857 1.47595 1.46863C1.1712 1.76869 1 2.17565 1 2.6V2.6Z" stroke="#fff" stroke-linecap="round" stroke-linejoin="round"/>
<path d="M9.125 1V4.2C9.125 4.62435 9.29621 5.03131 9.60095 5.33137C9.9057 5.63143 10.319 5.8 10.75 5.8H14" stroke="#fff" stroke-linejoin="round"/>
</svg>
