<svg width="180" height="250" viewBox="0 0 180 250" fill="none" xmlns="http://www.w3.org/2000/svg">
<path d="M54.5026 184.15C56.9326 184.15 58.5526 182.545 58.5526 180.145V173.71H57.2026V180.145C57.2026 181.825 56.1226 182.95 54.5026 182.95C52.8676 182.95 51.7726 181.825 51.7726 180.145V173.71H50.4226V180.145C50.4226 182.545 52.0576 184.15 54.5026 184.15ZM60.4972 186.79H61.6972V182.725C62.2822 183.58 63.3772 184.15 64.4422 184.15C66.6622 184.15 68.1472 182.59 68.1472 180.25C68.1472 177.91 66.6622 176.35 64.4422 176.35C63.3772 176.35 62.2822 176.92 61.6972 177.775V176.5H60.4972V186.79ZM64.3222 183.1C62.7472 183.1 61.6972 181.96 61.6972 180.25C61.6972 178.54 62.7472 177.4 64.3222 177.4C65.8972 177.4 66.9472 178.54 66.9472 180.25C66.9472 181.96 65.8972 183.1 64.3222 183.1ZM69.4474 184H70.6474V173.71H69.4474V184ZM75.8553 184.15C78.1053 184.15 79.6203 182.59 79.6203 180.25C79.6203 177.91 78.1053 176.35 75.8553 176.35C73.6053 176.35 72.0903 177.91 72.0903 180.25C72.0903 182.59 73.6053 184.15 75.8553 184.15ZM75.8553 183.1C74.3253 183.1 73.2903 181.96 73.2903 180.25C73.2903 178.54 74.3253 177.4 75.8553 177.4C77.3853 177.4 78.4203 178.54 78.4203 180.25C78.4203 181.96 77.3853 183.1 75.8553 183.1ZM84.3636 184.15C85.3686 184.15 86.4486 183.58 87.0336 182.74V184H88.2336V176.5H87.0336V177.76C86.4486 176.92 85.3686 176.35 84.3636 176.35C82.1736 176.35 80.7036 177.91 80.7036 180.25C80.7036 182.59 82.1736 184.15 84.3636 184.15ZM84.4836 183.1C82.9386 183.1 81.9036 181.96 81.9036 180.25C81.9036 178.54 82.9386 177.4 84.4836 177.4C86.0136 177.4 87.0336 178.54 87.0336 180.25C87.0336 181.96 86.0136 183.1 84.4836 183.1ZM93.2419 184.15C94.2919 184.15 95.3869 183.58 95.9719 182.725V184H97.1719V173.71H95.9719V177.775C95.3869 176.92 94.2919 176.35 93.2419 176.35C91.0219 176.35 89.5219 177.91 89.5219 180.25C89.5219 182.59 91.0219 184.15 93.2419 184.15ZM93.3619 183.1C91.7869 183.1 90.7219 181.96 90.7219 180.25C90.7219 178.54 91.7869 177.4 93.3619 177.4C94.9219 177.4 95.9719 178.54 95.9719 180.25C95.9719 181.96 94.9219 183.1 93.3619 183.1ZM102.703 184H104.053V179.08H106.183L109.243 184H110.833L107.758 179.05C109.198 178.87 110.173 177.805 110.173 176.395C110.173 174.79 108.958 173.71 107.158 173.71H102.703V184ZM104.053 177.88V174.91H107.158C108.148 174.91 108.823 175.51 108.823 176.395C108.823 177.28 108.148 177.88 107.158 177.88H104.053ZM114.979 184.15C115.984 184.15 117.064 183.58 117.649 182.74V184H118.849V176.5H117.649V177.76C117.064 176.92 115.984 176.35 114.979 176.35C112.789 176.35 111.319 177.91 111.319 180.25C111.319 182.59 112.789 184.15 114.979 184.15ZM115.099 183.1C113.554 183.1 112.519 181.96 112.519 180.25C112.519 178.54 113.554 177.4 115.099 177.4C116.629 177.4 117.649 178.54 117.649 180.25C117.649 181.96 116.629 183.1 115.099 183.1ZM122.083 184H123.313L124.888 178.165L126.463 184H127.693L130.273 176.5H129.013L127.108 182.635L125.443 176.5H124.348L122.668 182.635L120.763 176.5H119.503L122.083 184ZM17.2146 202H20.8896C23.8296 202 25.7946 199.93 25.7946 196.84C25.7946 193.765 23.8296 191.71 20.8896 191.71H17.2146V202ZM18.5646 200.8V192.91H20.8896C23.0196 192.91 24.4446 194.485 24.4446 196.84C24.4446 199.21 23.0196 200.8 20.8896 200.8H18.5646ZM30.6356 202.15C32.8856 202.15 34.4006 200.59 34.4006 198.25C34.4006 195.91 32.8856 194.35 30.6356 194.35C28.3856 194.35 26.8706 195.91 26.8706 198.25C26.8706 200.59 28.3856 202.15 30.6356 202.15ZM30.6356 201.1C29.1056 201.1 28.0706 199.96 28.0706 198.25C28.0706 196.54 29.1056 195.4 30.6356 195.4C32.1656 195.4 33.2006 196.54 33.2006 198.25C33.2006 199.96 32.1656 201.1 30.6356 201.1ZM39.2488 202.15C41.1688 202.15 42.6388 200.86 42.9238 198.955H41.7838C41.5588 200.245 40.5388 201.1 39.2488 201.1C37.7188 201.1 36.6838 199.96 36.6838 198.25C36.6838 196.54 37.7188 195.4 39.2488 195.4C40.5388 195.4 41.5438 196.225 41.7688 197.47H42.9088C42.6238 195.595 41.1538 194.35 39.2488 194.35C36.9988 194.35 35.4838 195.91 35.4838 198.25C35.4838 200.59 36.9988 202.15 39.2488 202.15ZM51.0292 194.5H49.8292V198.94C49.8292 200.23 48.9742 201.1 47.6992 201.1C46.4242 201.1 45.5692 200.23 45.5692 198.94V194.5H44.3692V199.15C44.3692 200.95 45.6142 202.15 47.4892 202.15C48.3592 202.15 49.3042 201.7 49.8292 201.04V202H51.0292V194.5ZM52.836 202H54.036V196.945C54.036 196.015 54.711 195.4 55.701 195.4C56.691 195.4 57.366 196.015 57.366 196.945V202H58.566V196.945C58.566 196.015 59.241 195.4 60.231 195.4C61.221 195.4 61.896 196.015 61.896 196.945V202H63.096V196.825C63.096 195.34 62.001 194.35 60.351 194.35C59.466 194.35 58.566 194.815 58.086 195.49C57.606 194.815 56.751 194.35 55.956 194.35C55.221 194.35 54.456 194.74 54.036 195.34V194.5H52.836V202ZM68.1502 202.15C69.8302 202.15 71.2702 201.07 71.7502 199.45H70.5502C70.2202 200.44 69.2602 201.1 68.1502 201.1C66.6802 201.1 65.6602 200.05 65.6002 198.49H71.7952L71.9152 198.37C71.9152 195.97 70.4002 194.35 68.1502 194.35C65.9002 194.35 64.3852 195.91 64.3852 198.25C64.3852 200.59 65.9002 202.15 68.1502 202.15ZM65.6602 197.44C65.9302 196.225 66.9352 195.4 68.1502 195.4C69.3652 195.4 70.3702 196.225 70.6402 197.44H65.6602ZM73.3585 202H74.5585V197.56C74.5585 196.27 75.4135 195.4 76.6885 195.4C77.9635 195.4 78.8185 196.27 78.8185 197.56V202H80.0185V197.35C80.0185 195.55 78.7735 194.35 76.8985 194.35C76.0285 194.35 75.0835 194.8 74.5585 195.46V194.5H73.3585V202ZM84.5173 202.15C84.8773 202.15 85.3723 202.09 85.7473 202V201.1H84.4423C83.8723 201.1 83.4823 200.695 83.4823 200.08V195.55H85.6723V194.5H83.4823V191.71H82.2823V194.5H81.0823V195.55H82.2823V200.08C82.2823 201.325 83.1823 202.15 84.5173 202.15ZM93.9044 202.15C96.4544 202.15 98.1644 200.92 98.1644 199.075C98.1644 197.5 97.0994 196.705 94.0394 195.985C92.1344 195.55 91.4744 195.16 91.4744 194.44C91.4744 193.435 92.4494 192.76 93.9044 192.76C95.2544 192.76 96.3494 193.585 96.6194 194.815L97.8494 194.515C97.4144 192.745 95.8244 191.56 93.9044 191.56C91.6394 191.56 90.1244 192.715 90.1244 194.44C90.1244 195.88 91.0694 196.6 93.7694 197.23C96.0344 197.755 96.8144 198.235 96.8144 199.075C96.8144 200.2 95.6444 200.95 93.9044 200.95C91.9844 200.95 90.6944 199.945 90.6944 198.46H89.4194C89.4194 200.665 91.2194 202.15 93.9044 202.15ZM102.867 202.15C105.117 202.15 106.632 200.59 106.632 198.25C106.632 195.91 105.117 194.35 102.867 194.35C100.617 194.35 99.102 195.91 99.102 198.25C99.102 200.59 100.617 202.15 102.867 202.15ZM102.867 201.1C101.337 201.1 100.302 199.96 100.302 198.25C100.302 196.54 101.337 195.4 102.867 195.4C104.397 195.4 105.432 196.54 105.432 198.25C105.432 199.96 104.397 201.1 102.867 201.1ZM114.735 194.5H113.535V198.94C113.535 200.23 112.68 201.1 111.405 201.1C110.13 201.1 109.275 200.23 109.275 198.94V194.5H108.075V199.15C108.075 200.95 109.32 202.15 111.195 202.15C112.065 202.15 113.01 201.7 113.535 201.04V202H114.735V194.5ZM116.542 202H117.742V197.62C117.742 196.285 118.642 195.4 119.992 195.4H120.502V194.5C120.352 194.41 120.112 194.35 119.887 194.35C119.137 194.35 118.282 194.83 117.742 195.535V194.5H116.542V202ZM124.503 202.15C126.423 202.15 127.893 200.86 128.178 198.955H127.038C126.813 200.245 125.793 201.1 124.503 201.1C122.973 201.1 121.938 199.96 121.938 198.25C121.938 196.54 122.973 195.4 124.503 195.4C125.793 195.4 126.798 196.225 127.023 197.47H128.163C127.878 195.595 126.408 194.35 124.503 194.35C122.253 194.35 120.738 195.91 120.738 198.25C120.738 200.59 122.253 202.15 124.503 202.15ZM133.028 202.15C134.708 202.15 136.148 201.07 136.628 199.45H135.428C135.098 200.44 134.138 201.1 133.028 201.1C131.558 201.1 130.538 200.05 130.478 198.49H136.673L136.793 198.37C136.793 195.97 135.278 194.35 133.028 194.35C130.778 194.35 129.263 195.91 129.263 198.25C129.263 200.59 130.778 202.15 133.028 202.15ZM130.538 197.44C130.808 196.225 131.813 195.4 133.028 195.4C134.243 195.4 135.248 196.225 135.518 197.44H130.538ZM140.692 202.15C142.627 202.15 143.917 201.22 143.917 199.84C143.917 198.595 143.137 197.995 140.872 197.53C139.567 197.215 139.102 196.93 139.102 196.42C139.102 195.805 139.747 195.4 140.692 195.4C141.562 195.4 142.297 195.85 142.522 196.525L143.617 196.255C143.212 195.115 142.042 194.35 140.692 194.35C139.027 194.35 137.902 195.22 137.902 196.51C137.902 197.62 138.607 198.16 140.617 198.61C142.192 198.97 142.732 199.3 142.732 199.9C142.732 200.62 141.907 201.1 140.692 201.1C139.432 201.1 138.577 200.44 138.547 199.45H137.422C137.452 201.07 138.772 202.15 140.692 202.15ZM151.937 202.15C152.942 202.15 154.022 201.58 154.607 200.74V202H155.807V194.5H154.607V195.76C154.022 194.92 152.942 194.35 151.937 194.35C149.747 194.35 148.277 195.91 148.277 198.25C148.277 200.59 149.747 202.15 151.937 202.15ZM152.057 201.1C150.512 201.1 149.477 199.96 149.477 198.25C149.477 196.54 150.512 195.4 152.057 195.4C153.587 195.4 154.607 196.54 154.607 198.25C154.607 199.96 153.587 201.1 152.057 201.1ZM160.365 202.15C162.3 202.15 163.59 201.22 163.59 199.84C163.59 198.595 162.81 197.995 160.545 197.53C159.24 197.215 158.775 196.93 158.775 196.42C158.775 195.805 159.42 195.4 160.365 195.4C161.235 195.4 161.97 195.85 162.195 196.525L163.29 196.255C162.885 195.115 161.715 194.35 160.365 194.35C158.7 194.35 157.575 195.22 157.575 196.51C157.575 197.62 158.28 198.16 160.29 198.61C161.865 198.97 162.405 199.3 162.405 199.9C162.405 200.62 161.58 201.1 160.365 201.1C159.105 201.1 158.25 200.44 158.22 199.45H157.095C157.125 201.07 158.445 202.15 160.365 202.15ZM30.3255 220.15C31.3305 220.15 32.4105 219.58 32.9955 218.74V220H34.1955V212.5H32.9955V213.76C32.4105 212.92 31.3305 212.35 30.3255 212.35C28.1355 212.35 26.6655 213.91 26.6655 216.25C26.6655 218.59 28.1355 220.15 30.3255 220.15ZM30.4455 219.1C28.9005 219.1 27.8655 217.96 27.8655 216.25C27.8655 214.54 28.9005 213.4 30.4455 213.4C31.9755 213.4 32.9955 214.54 32.9955 216.25C32.9955 217.96 31.9755 219.1 30.4455 219.1ZM41.0934 220H42.4434V210.91H45.6234V209.71H37.9134V210.91H41.0934V220ZM48.4334 220.15C50.1134 220.15 51.5534 219.07 52.0334 217.45H50.8334C50.5034 218.44 49.5434 219.1 48.4334 219.1C46.9634 219.1 45.9434 218.05 45.8834 216.49H52.0784L52.1984 216.37C52.1984 213.97 50.6834 212.35 48.4334 212.35C46.1834 212.35 44.6684 213.91 44.6684 216.25C44.6684 218.59 46.1834 220.15 48.4334 220.15ZM45.9434 215.44C46.2134 214.225 47.2184 213.4 48.4334 213.4C49.6484 213.4 50.6534 214.225 50.9234 215.44H45.9434ZM52.2081 220H53.6781L55.7931 217.015L57.8931 220H59.3631L56.4831 216.055L59.0781 212.5H57.6231L55.7931 215.095L53.9481 212.5H52.4781L55.1031 216.055L52.2081 220ZM62.8669 220.15C63.2269 220.15 63.7219 220.09 64.0969 220V219.1H62.7919C62.2219 219.1 61.8319 218.695 61.8319 218.08V213.55H64.0219V212.5H61.8319V209.71H60.6319V212.5H59.4319V213.55H60.6319V218.08C60.6319 219.325 61.5319 220.15 62.8669 220.15ZM65.1554 221.65C66.1454 221.65 66.8054 220.99 66.8054 220V218.35H65.1554V220H65.9054C65.9054 220.45 65.6054 220.75 65.1554 220.75V221.65ZM76.5587 220.15C78.9887 220.15 80.9537 218.47 81.4487 215.965H80.1437C79.7537 217.75 78.3137 218.95 76.5587 218.95C74.3537 218.95 72.8837 217.3 72.8837 214.855C72.8837 212.41 74.3537 210.76 76.5587 210.76C78.2087 210.76 79.6187 211.855 80.0837 213.505H81.4037C80.8637 211.15 78.9137 209.56 76.5587 209.56C73.5437 209.56 71.5337 211.69 71.5337 214.855C71.5337 218.02 73.5437 220.15 76.5587 220.15ZM87.0196 220.15C89.5696 220.15 91.2796 218.92 91.2796 217.075C91.2796 215.5 90.2146 214.705 87.1546 213.985C85.2496 213.55 84.5896 213.16 84.5896 212.44C84.5896 211.435 85.5646 210.76 87.0196 210.76C88.3696 210.76 89.4646 211.585 89.7346 212.815L90.9646 212.515C90.5296 210.745 88.9396 209.56 87.0196 209.56C84.7546 209.56 83.2396 210.715 83.2396 212.44C83.2396 213.88 84.1846 214.6 86.8846 215.23C89.1496 215.755 89.9296 216.235 89.9296 217.075C89.9296 218.2 88.7596 218.95 87.0196 218.95C85.0996 218.95 83.8096 217.945 83.8096 216.46H82.5346C82.5346 218.665 84.3346 220.15 87.0196 220.15ZM95.6667 220H97.0467L101.277 209.71H99.8367L96.3567 218.455L92.8767 209.71H91.4367L95.6667 220ZM108.331 220.15C110.581 220.15 112.096 218.59 112.096 216.25C112.096 213.91 110.581 212.35 108.331 212.35C106.081 212.35 104.566 213.91 104.566 216.25C104.566 218.59 106.081 220.15 108.331 220.15ZM108.331 219.1C106.801 219.1 105.766 217.96 105.766 216.25C105.766 214.54 106.801 213.4 108.331 213.4C109.861 213.4 110.896 214.54 110.896 216.25C110.896 217.96 109.861 219.1 108.331 219.1ZM113.393 220H114.593V215.62C114.593 214.285 115.493 213.4 116.843 213.4H117.353V212.5C117.203 212.41 116.963 212.35 116.738 212.35C115.988 212.35 115.133 212.83 114.593 213.535V212.5H113.393V220ZM124.969 220.15C125.974 220.15 127.054 219.58 127.639 218.74V220H128.839V212.5H127.639V213.76C127.054 212.92 125.974 212.35 124.969 212.35C122.779 212.35 121.309 213.91 121.309 216.25C121.309 218.59 122.779 220.15 124.969 220.15ZM125.089 219.1C123.544 219.1 122.509 217.96 122.509 216.25C122.509 214.54 123.544 213.4 125.089 213.4C126.619 213.4 127.639 214.54 127.639 216.25C127.639 217.96 126.619 219.1 125.089 219.1ZM133.758 220H141.468V218.8H135.558L141.468 210.775V209.71H133.758V210.91H139.683L133.758 218.95V220ZM142.821 211.36H144.021V209.71H142.821V211.36ZM142.821 220H144.021V212.5H142.821V220ZM145.971 222.79H147.171V218.725C147.756 219.58 148.851 220.15 149.916 220.15C152.136 220.15 153.621 218.59 153.621 216.25C153.621 213.91 152.136 212.35 149.916 212.35C148.851 212.35 147.756 212.92 147.171 213.775V212.5H145.971V222.79ZM149.796 219.1C148.221 219.1 147.171 217.96 147.171 216.25C147.171 214.54 148.221 213.4 149.796 213.4C151.371 213.4 152.421 214.54 152.421 216.25C152.421 217.96 151.371 219.1 149.796 219.1ZM78.1667 238H79.5167V233.08H84.1217V231.88H79.5167V228.91H84.8117V227.71H78.1667V238ZM86.1612 229.36H87.3612V227.71H86.1612V229.36ZM86.1612 238H87.3612V230.5H86.1612V238ZM89.3106 238H90.5106V227.71H89.3106V238ZM95.7186 238.15C97.3986 238.15 98.8386 237.07 99.3186 235.45H98.1186C97.7886 236.44 96.8286 237.1 95.7186 237.1C94.2486 237.1 93.2286 236.05 93.1686 234.49H99.3636L99.4836 234.37C99.4836 231.97 97.9686 230.35 95.7186 230.35C93.4686 230.35 91.9536 231.91 91.9536 234.25C91.9536 236.59 93.4686 238.15 95.7186 238.15ZM93.2286 233.44C93.4986 232.225 94.5036 231.4 95.7186 231.4C96.9336 231.4 97.9386 232.225 98.2086 233.44H93.2286ZM100.326 238H101.976V236.35H100.326V238Z" fill="black"/>
<rect x="0.5" y="0.5" width="179" height="249" stroke="#E0E0E0"/>
<path d="M65.05 25H66.4V14.71H65.05V25ZM68.8 25H70.15V16.6L75.91 25H77.41V14.71H76.06V23.125L70.285 14.71H68.8V25ZM84.023 25.15C87.038 25.15 89.048 23.02 89.048 19.84V19.375H83.753V20.575H87.653C87.353 22.6 85.898 23.95 84.023 23.95C81.818 23.95 80.348 22.3 80.348 19.84C80.348 17.395 81.818 15.76 84.023 15.76C85.343 15.76 86.633 16.54 87.233 17.695L88.478 17.395C87.683 15.7 85.898 14.56 84.023 14.56C81.008 14.56 78.998 16.675 78.998 19.84C78.998 23.02 81.008 25.15 84.023 25.15ZM90.6408 25H97.2858V23.8H91.9908V20.08H96.7458V18.88H91.9908V15.91H97.2858V14.71H90.6408V25ZM102.16 25.15C104.71 25.15 106.42 23.92 106.42 22.075C106.42 20.5 105.355 19.705 102.295 18.985C100.39 18.55 99.7298 18.16 99.7298 17.44C99.7298 16.435 100.705 15.76 102.16 15.76C103.51 15.76 104.605 16.585 104.875 17.815L106.105 17.515C105.67 15.745 104.08 14.56 102.16 14.56C99.8948 14.56 98.3798 15.715 98.3798 17.44C98.3798 18.88 99.3248 19.6 102.025 20.23C104.29 20.755 105.07 21.235 105.07 22.075C105.07 23.2 103.9 23.95 102.16 23.95C100.24 23.95 98.9498 22.945 98.9498 21.46H97.6748C97.6748 23.665 99.4748 25.15 102.16 25.15ZM109.993 25H111.343V15.91H114.523V14.71H106.813V15.91H109.993V25Z" fill="black"/>
<path d="M55.9219 155H124.828C127.542 155 129.75 152.792 129.75 150.078V81.1719C129.75 81.1161 129.724 81.0702 129.72 81.0177C129.714 80.9422 129.694 80.8766 129.678 80.8044C129.626 80.5764 129.525 80.3625 129.382 80.1777C129.36 80.1481 129.363 80.112 129.34 80.0825L103.09 50.5512C103.08 50.5414 103.067 50.5414 103.057 50.5316C102.857 50.3223 102.604 50.1704 102.325 50.0919C102.263 50.0722 102.207 50.0656 102.142 50.0558C102.046 50.0394 101.958 50 101.859 50H55.9219C53.2083 50 51 52.2083 51 54.9219V150.078C51 152.792 53.2083 155 55.9219 155ZM103.5 55.9555L124.457 79.5312H105.141C104.419 79.5312 103.5 78.1531 103.5 77.0703V55.9555ZM54.2812 54.9219C54.2812 54.4868 54.4541 54.0695 54.7618 53.7618C55.0695 53.4541 55.4868 53.2812 55.9219 53.2812H100.219V77.0703C100.219 79.7248 102.368 82.8125 105.141 82.8125H126.469V150.078C126.469 150.513 126.296 150.931 125.988 151.238C125.681 151.546 125.263 151.719 124.828 151.719H55.9219C55.0031 151.719 54.2812 150.997 54.2812 150.078V54.9219Z" fill="black"/>
<path d="M69.0469 95.9375H111.703C112.138 95.9375 112.556 95.7647 112.863 95.457C113.171 95.1493 113.344 94.732 113.344 94.2969C113.344 93.8618 113.171 93.4445 112.863 93.1368C112.556 92.8291 112.138 92.6562 111.703 92.6562H69.0469C68.6118 92.6562 68.1945 92.8291 67.8868 93.1368C67.5791 93.4445 67.4062 93.8618 67.4062 94.2969C67.4062 94.732 67.5791 95.1493 67.8868 95.457C68.1945 95.7647 68.6118 95.9375 69.0469 95.9375Z" fill="#DADADA"/>
<path d="M69.0469 109.062H111.703C112.138 109.062 112.556 108.89 112.863 108.582C113.171 108.274 113.344 107.857 113.344 107.422C113.344 106.987 113.171 106.569 112.863 106.262C112.556 105.954 112.138 105.781 111.703 105.781H69.0469C68.6118 105.781 68.1945 105.954 67.8868 106.262C67.5791 106.569 67.4062 106.987 67.4062 107.422C67.4062 107.857 67.5791 108.274 67.8868 108.582C68.1945 108.89 68.6118 109.062 69.0469 109.062Z" fill="#DADADA"/>
<path d="M69.0469 82.8125H88.7344C89.1695 82.8125 89.5868 82.6397 89.8945 82.332C90.2022 82.0243 90.375 81.607 90.375 81.1719C90.375 80.7368 90.2022 80.3195 89.8945 80.0118C89.5868 79.7041 89.1695 79.5312 88.7344 79.5312H69.0469C68.6118 79.5312 68.1945 79.7041 67.8868 80.0118C67.5791 80.3195 67.4062 80.7368 67.4062 81.1719C67.4062 81.607 67.5791 82.0243 67.8868 82.332C68.1945 82.6397 68.6118 82.8125 69.0469 82.8125Z" fill="#DADADA"/>
<path d="M69.0469 122.188H111.703C112.138 122.188 112.556 122.015 112.863 121.707C113.171 121.399 113.344 120.982 113.344 120.547C113.344 120.112 113.171 119.694 112.863 119.387C112.556 119.079 112.138 118.906 111.703 118.906H69.0469C68.6118 118.906 68.1945 119.079 67.8868 119.387C67.5791 119.694 67.4062 120.112 67.4062 120.547C67.4062 120.982 67.5791 121.399 67.8868 121.707C68.1945 122.015 68.6118 122.188 69.0469 122.188Z" fill="#DADADA"/>
<path d="M69.0469 135.312H111.703C112.138 135.312 112.556 135.14 112.863 134.832C113.171 134.524 113.344 134.107 113.344 133.672C113.344 133.237 113.171 132.819 112.863 132.512C112.556 132.204 112.138 132.031 111.703 132.031H69.0469C68.6118 132.031 68.1945 132.204 67.8868 132.512C67.5791 132.819 67.4062 133.237 67.4062 133.672C67.4062 134.107 67.5791 134.524 67.8868 134.832C68.1945 135.14 68.6118 135.312 69.0469 135.312Z" fill="#DADADA"/>
</svg>
