<svg width="180" height="250" viewBox="0 0 180 250" fill="none" xmlns="http://www.w3.org/2000/svg">
<path d="M35.9992 184H39.6742C42.6142 184 44.5792 181.93 44.5792 178.84C44.5792 175.765 42.6142 173.71 39.6742 173.71H35.9992V184ZM37.3492 182.8V174.91H39.6742C41.8042 174.91 43.2292 176.485 43.2292 178.84C43.2292 181.21 41.8042 182.8 39.6742 182.8H37.3492ZM49.4202 184.15C51.1002 184.15 52.5402 183.07 53.0202 181.45H51.8202C51.4902 182.44 50.5302 183.1 49.4202 183.1C47.9502 183.1 46.9302 182.05 46.8702 180.49H53.0652L53.1852 180.37C53.1852 177.97 51.6702 176.35 49.4202 176.35C47.1702 176.35 45.6552 177.91 45.6552 180.25C45.6552 182.59 47.1702 184.15 49.4202 184.15ZM46.9302 179.44C47.2002 178.225 48.2052 177.4 49.4202 177.4C50.6352 177.4 51.6402 178.225 51.9102 179.44H46.9302ZM54.6285 186.79H55.8285V182.725C56.4135 183.58 57.5085 184.15 58.5735 184.15C60.7935 184.15 62.2785 182.59 62.2785 180.25C62.2785 177.91 60.7935 176.35 58.5735 176.35C57.5085 176.35 56.4135 176.92 55.8285 177.775V176.5H54.6285V186.79ZM58.4535 183.1C56.8785 183.1 55.8285 181.96 55.8285 180.25C55.8285 178.54 56.8785 177.4 58.4535 177.4C60.0285 177.4 61.0785 178.54 61.0785 180.25C61.0785 181.96 60.0285 183.1 58.4535 183.1ZM63.5787 184H64.7787V173.71H63.5787V184ZM69.9866 184.15C72.2366 184.15 73.7516 182.59 73.7516 180.25C73.7516 177.91 72.2366 176.35 69.9866 176.35C67.7366 176.35 66.2216 177.91 66.2216 180.25C66.2216 182.59 67.7366 184.15 69.9866 184.15ZM69.9866 183.1C68.4566 183.1 67.4216 181.96 67.4216 180.25C67.4216 178.54 68.4566 177.4 69.9866 177.4C71.5166 177.4 72.5516 178.54 72.5516 180.25C72.5516 181.96 71.5166 183.1 69.9866 183.1ZM75.7758 186.79H77.0658L81.1158 176.5H79.8258L77.6658 182.005L75.4758 176.5H74.2008L77.0508 183.55L75.7758 186.79ZM85.0533 184H86.2533V178.945C86.2533 178.015 86.9283 177.4 87.9183 177.4C88.9083 177.4 89.5833 178.015 89.5833 178.945V184H90.7833V178.945C90.7833 178.015 91.4583 177.4 92.4483 177.4C93.4383 177.4 94.1133 178.015 94.1133 178.945V184H95.3133V178.825C95.3133 177.34 94.2183 176.35 92.5683 176.35C91.6833 176.35 90.7833 176.815 90.3033 177.49C89.8233 176.815 88.9683 176.35 88.1733 176.35C87.4383 176.35 86.6733 176.74 86.2533 177.34V176.5H85.0533V184ZM100.368 184.15C102.618 184.15 104.133 182.59 104.133 180.25C104.133 177.91 102.618 176.35 100.368 176.35C98.1175 176.35 96.6025 177.91 96.6025 180.25C96.6025 182.59 98.1175 184.15 100.368 184.15ZM100.368 183.1C98.8375 183.1 97.8025 181.96 97.8025 180.25C97.8025 178.54 98.8375 177.4 100.368 177.4C101.898 177.4 102.933 178.54 102.933 180.25C102.933 181.96 101.898 183.1 100.368 183.1ZM108.936 184.15C109.986 184.15 111.081 183.58 111.666 182.725V184H112.866V173.71H111.666V177.775C111.081 176.92 109.986 176.35 108.936 176.35C106.716 176.35 105.216 177.91 105.216 180.25C105.216 182.59 106.716 184.15 108.936 184.15ZM109.056 183.1C107.481 183.1 106.416 181.96 106.416 180.25C106.416 178.54 107.481 177.4 109.056 177.4C110.616 177.4 111.666 178.54 111.666 180.25C111.666 181.96 110.616 183.1 109.056 183.1ZM118.077 184.15C119.757 184.15 121.197 183.07 121.677 181.45H120.477C120.147 182.44 119.187 183.1 118.077 183.1C116.607 183.1 115.587 182.05 115.527 180.49H121.722L121.842 180.37C121.842 177.97 120.327 176.35 118.077 176.35C115.827 176.35 114.312 177.91 114.312 180.25C114.312 182.59 115.827 184.15 118.077 184.15ZM115.587 179.44C115.857 178.225 116.862 177.4 118.077 177.4C119.292 177.4 120.297 178.225 120.567 179.44H115.587ZM123.286 184H124.486V173.71H123.286V184ZM133.793 184.15C136.013 184.15 137.513 182.59 137.513 180.25C137.513 177.91 136.013 176.35 133.793 176.35C132.743 176.35 131.648 176.92 131.063 177.775V173.71H129.863V184H131.063V182.725C131.648 183.58 132.743 184.15 133.793 184.15ZM133.673 183.1C132.113 183.1 131.063 181.96 131.063 180.25C131.063 178.54 132.113 177.4 133.673 177.4C135.248 177.4 136.313 178.54 136.313 180.25C136.313 181.96 135.248 183.1 133.673 183.1ZM139.248 186.79H140.538L144.588 176.5H143.298L141.138 182.005L138.948 176.5H137.673L140.523 183.55L139.248 186.79ZM12.6746 202.15C14.3546 202.15 15.7946 201.07 16.2746 199.45H15.0746C14.7446 200.44 13.7846 201.1 12.6746 201.1C11.2046 201.1 10.1846 200.05 10.1246 198.49H16.3196L16.4396 198.37C16.4396 195.97 14.9246 194.35 12.6746 194.35C10.4246 194.35 8.90963 195.91 8.90963 198.25C8.90963 200.59 10.4246 202.15 12.6746 202.15ZM10.1846 197.44C10.4546 196.225 11.4596 195.4 12.6746 195.4C13.8896 195.4 14.8946 196.225 15.1646 197.44H10.1846ZM16.4494 202H17.9194L20.0344 199.015L22.1344 202H23.6044L20.7244 198.055L23.3194 194.5H21.8644L20.0344 197.095L18.1894 194.5H16.7194L19.3444 198.055L16.4494 202ZM24.8702 204.79H26.0702V200.725C26.6552 201.58 27.7502 202.15 28.8152 202.15C31.0352 202.15 32.5202 200.59 32.5202 198.25C32.5202 195.91 31.0352 194.35 28.8152 194.35C27.7502 194.35 26.6552 194.92 26.0702 195.775V194.5H24.8702V204.79ZM28.6952 201.1C27.1202 201.1 26.0702 199.96 26.0702 198.25C26.0702 196.54 27.1202 195.4 28.6952 195.4C30.2702 195.4 31.3202 196.54 31.3202 198.25C31.3202 199.96 30.2702 201.1 28.6952 201.1ZM37.3719 202.15C39.6219 202.15 41.1369 200.59 41.1369 198.25C41.1369 195.91 39.6219 194.35 37.3719 194.35C35.1219 194.35 33.6069 195.91 33.6069 198.25C33.6069 200.59 35.1219 202.15 37.3719 202.15ZM37.3719 201.1C35.8419 201.1 34.8069 199.96 34.8069 198.25C34.8069 196.54 35.8419 195.4 37.3719 195.4C38.9019 195.4 39.9369 196.54 39.9369 198.25C39.9369 199.96 38.9019 201.1 37.3719 201.1ZM49.7202 201.1C49.1502 201.1 48.7602 200.695 48.7602 200.08V195.55H50.9502V194.5H48.7602V191.71H47.5602V194.5H46.5102H45.9252C45.1152 194.5 44.2452 194.92 43.7802 195.535V194.5H42.5802V202H43.7802V197.77C43.7802 196.435 44.6802 195.55 46.0302 195.55H46.3602H47.5602V200.08C47.5602 201.325 48.4602 202.15 49.7952 202.15C50.1552 202.15 50.6502 202.09 51.0252 202V201.1H49.7202ZM52.6729 193.36H53.8729V191.71H52.6729V193.36ZM52.6729 202H53.8729V194.5H52.6729V202ZM55.6759 202H56.8759V197.56C56.8759 196.27 57.7309 195.4 59.0059 195.4C60.2809 195.4 61.1359 196.27 61.1359 197.56V202H62.3359V197.35C62.3359 195.55 61.0909 194.35 59.2159 194.35C58.3459 194.35 57.4009 194.8 56.8759 195.46V194.5H55.6759V202ZM69.6697 194.5V195.7C69.1147 194.89 68.0797 194.35 67.0747 194.35C64.9297 194.35 63.4897 195.88 63.4897 198.175C63.4897 200.47 64.9297 202 67.0747 202C68.0797 202 69.1297 201.46 69.6697 200.665V201.19C69.6697 202.81 68.6647 203.89 67.1797 203.89C65.9647 203.89 65.0047 203.125 64.7797 202H63.6547C63.9547 203.755 65.3647 204.94 67.1797 204.94C69.3847 204.94 70.8697 203.44 70.8697 201.19V194.5H69.6697ZM67.1947 200.95C65.6947 200.95 64.6897 199.84 64.6897 198.175C64.6897 196.51 65.6947 195.4 67.1947 195.4C68.6797 195.4 69.6697 196.51 69.6697 198.175C69.6697 199.84 68.6797 200.95 67.1947 200.95ZM79.0808 202.15C79.4408 202.15 79.9358 202.09 80.3108 202V201.1H79.0058C78.4358 201.1 78.0458 200.695 78.0458 200.08V195.55H80.2358V194.5H78.0458V191.71H76.8458V194.5H75.6458V195.55H76.8458V200.08C76.8458 201.325 77.7458 202.15 79.0808 202.15ZM81.6622 202H82.8622V197.56C82.8622 196.27 83.7172 195.4 84.9922 195.4C86.2672 195.4 87.1222 196.27 87.1222 197.56V202H88.3222V197.35C88.3222 195.55 87.0772 194.35 85.2022 194.35C84.3322 194.35 83.3872 194.8 82.8622 195.46V191.71H81.6622V202ZM93.3875 202.15C95.0675 202.15 96.5075 201.07 96.9875 199.45H95.7875C95.4575 200.44 94.4975 201.1 93.3875 201.1C91.9175 201.1 90.8975 200.05 90.8375 198.49H97.0325L97.1525 198.37C97.1525 195.97 95.6375 194.35 93.3875 194.35C91.1375 194.35 89.6225 195.91 89.6225 198.25C89.6225 200.59 91.1375 202.15 93.3875 202.15ZM90.8975 197.44C91.1675 196.225 92.1725 195.4 93.3875 195.4C94.6025 195.4 95.6075 196.225 95.8775 197.44H90.8975ZM101.877 202H103.077V196.945C103.077 196.015 103.752 195.4 104.742 195.4C105.732 195.4 106.407 196.015 106.407 196.945V202H107.607V196.945C107.607 196.015 108.282 195.4 109.272 195.4C110.262 195.4 110.937 196.015 110.937 196.945V202H112.137V196.825C112.137 195.34 111.042 194.35 109.392 194.35C108.507 194.35 107.607 194.815 107.127 195.49C106.647 194.815 105.792 194.35 104.997 194.35C104.262 194.35 103.497 194.74 103.077 195.34V194.5H101.877V202ZM117.233 202.15C118.238 202.15 119.318 201.58 119.903 200.74V202H121.103V194.5H119.903V195.76C119.318 194.92 118.238 194.35 117.233 194.35C115.043 194.35 113.573 195.91 113.573 198.25C113.573 200.59 115.043 202.15 117.233 202.15ZM117.353 201.1C115.808 201.1 114.773 199.96 114.773 198.25C114.773 196.54 115.808 195.4 117.353 195.4C118.883 195.4 119.903 196.54 119.903 198.25C119.903 199.96 118.883 201.1 117.353 201.1ZM125.661 202.15C127.596 202.15 128.886 201.22 128.886 199.84C128.886 198.595 128.106 197.995 125.841 197.53C124.536 197.215 124.071 196.93 124.071 196.42C124.071 195.805 124.716 195.4 125.661 195.4C126.531 195.4 127.266 195.85 127.491 196.525L128.586 196.255C128.181 195.115 127.011 194.35 125.661 194.35C123.996 194.35 122.871 195.22 122.871 196.51C122.871 197.62 123.576 198.16 125.586 198.61C127.161 198.97 127.701 199.3 127.701 199.9C127.701 200.62 126.876 201.1 125.661 201.1C124.401 201.1 123.546 200.44 123.516 199.45H122.391C122.421 201.07 123.741 202.15 125.661 202.15ZM133.016 202.15C133.376 202.15 133.871 202.09 134.246 202V201.1H132.941C132.371 201.1 131.981 200.695 131.981 200.08V195.55H134.171V194.5H131.981V191.71H130.781V194.5H129.581V195.55H130.781V200.08C130.781 201.325 131.681 202.15 133.016 202.15ZM138.71 202.15C140.39 202.15 141.83 201.07 142.31 199.45H141.11C140.78 200.44 139.82 201.1 138.71 201.1C137.24 201.1 136.22 200.05 136.16 198.49H142.355L142.475 198.37C142.475 195.97 140.96 194.35 138.71 194.35C136.46 194.35 134.945 195.91 134.945 198.25C134.945 200.59 136.46 202.15 138.71 202.15ZM136.22 197.44C136.49 196.225 137.495 195.4 138.71 195.4C139.925 195.4 140.93 196.225 141.2 197.44H136.22ZM143.918 202H145.118V197.62C145.118 196.285 146.018 195.4 147.368 195.4H147.878V194.5C147.728 194.41 147.488 194.35 147.263 194.35C146.513 194.35 145.658 194.83 145.118 195.535V194.5H143.918V202ZM149.221 202H150.421V191.71H149.221V202ZM152.517 193.36H153.717V191.71H152.517V193.36ZM152.517 202H153.717V194.5H152.517V202ZM158.43 202.15C160.365 202.15 161.655 201.22 161.655 199.84C161.655 198.595 160.875 197.995 158.61 197.53C157.305 197.215 156.84 196.93 156.84 196.42C156.84 195.805 157.485 195.4 158.43 195.4C159.3 195.4 160.035 195.85 160.26 196.525L161.355 196.255C160.95 195.115 159.78 194.35 158.43 194.35C156.765 194.35 155.64 195.22 155.64 196.51C155.64 197.62 156.345 198.16 158.355 198.61C159.93 198.97 160.47 199.3 160.47 199.9C160.47 200.62 159.645 201.1 158.43 201.1C157.17 201.1 156.315 200.44 156.285 199.45H155.16C155.19 201.07 156.51 202.15 158.43 202.15ZM165.785 202.15C166.145 202.15 166.64 202.09 167.015 202V201.1H165.71C165.14 201.1 164.75 200.695 164.75 200.08V195.55H166.94V194.5H164.75V191.71H163.55V194.5H162.35V195.55H163.55V200.08C163.55 201.325 164.45 202.15 165.785 202.15ZM168.073 203.65C169.063 203.65 169.723 202.99 169.723 202V200.35H168.073V202H168.823C168.823 202.45 168.523 202.75 168.073 202.75V203.65ZM9.65049 220H10.8505V209.71H9.65049V220ZM15.9534 220.15C16.9584 220.15 18.0384 219.58 18.6234 218.74V220H19.8234V212.5H18.6234V213.76C18.0384 212.92 16.9584 212.35 15.9534 212.35C13.7634 212.35 12.2934 213.91 12.2934 216.25C12.2934 218.59 13.7634 220.15 15.9534 220.15ZM16.0734 219.1C14.5284 219.1 13.4934 217.96 13.4934 216.25C13.4934 214.54 14.5284 213.4 16.0734 213.4C17.6034 213.4 18.6234 214.54 18.6234 216.25C18.6234 217.96 17.6034 219.1 16.0734 219.1ZM25.5483 220.15C27.7683 220.15 29.2683 218.59 29.2683 216.25C29.2683 213.91 27.7683 212.35 25.5483 212.35C24.4983 212.35 23.4033 212.92 22.8183 213.775V209.71H21.6183V220H22.8183V218.725C23.4033 219.58 24.4983 220.15 25.5483 220.15ZM25.4283 219.1C23.8683 219.1 22.8183 217.96 22.8183 216.25C22.8183 214.54 23.8683 213.4 25.4283 213.4C27.0033 213.4 28.0683 214.54 28.0683 216.25C28.0683 217.96 27.0033 219.1 25.4283 219.1ZM34.1199 220.15C35.7999 220.15 37.2399 219.07 37.7199 217.45H36.5199C36.1899 218.44 35.2299 219.1 34.1199 219.1C32.6499 219.1 31.6299 218.05 31.5699 216.49H37.7649L37.8849 216.37C37.8849 213.97 36.3699 212.35 34.1199 212.35C31.8699 212.35 30.3549 213.91 30.3549 216.25C30.3549 218.59 31.8699 220.15 34.1199 220.15ZM31.6299 215.44C31.8999 214.225 32.9049 213.4 34.1199 213.4C35.3349 213.4 36.3399 214.225 36.6099 215.44H31.6299ZM39.3282 220H40.5282V209.71H39.3282V220ZM42.6241 220H43.8241V209.71H42.6241V220ZM49.0321 220.15C50.7121 220.15 52.1521 219.07 52.6321 217.45H51.4321C51.1021 218.44 50.1421 219.1 49.0321 219.1C47.5621 219.1 46.5421 218.05 46.4821 216.49H52.6771L52.7971 216.37C52.7971 213.97 51.2821 212.35 49.0321 212.35C46.7821 212.35 45.2671 213.91 45.2671 216.25C45.2671 218.59 46.7821 220.15 49.0321 220.15ZM46.5421 215.44C46.8121 214.225 47.8171 213.4 49.0321 213.4C50.2471 213.4 51.2521 214.225 51.5221 215.44H46.5421ZM57.6003 220.15C58.6503 220.15 59.7453 219.58 60.3303 218.725V220H61.5303V209.71H60.3303V213.775C59.7453 212.92 58.6503 212.35 57.6003 212.35C55.3803 212.35 53.8803 213.91 53.8803 216.25C53.8803 218.59 55.3803 220.15 57.6003 220.15ZM57.7203 219.1C56.1453 219.1 55.0803 217.96 55.0803 216.25C55.0803 214.54 56.1453 213.4 57.7203 213.4C59.2803 213.4 60.3303 214.54 60.3303 216.25C60.3303 217.96 59.2803 219.1 57.7203 219.1ZM69.9783 220.15C71.0283 220.15 72.1233 219.58 72.7083 218.725V220H73.9083V209.71H72.7083V213.775C72.1233 212.92 71.0283 212.35 69.9783 212.35C67.7583 212.35 66.2583 213.91 66.2583 216.25C66.2583 218.59 67.7583 220.15 69.9783 220.15ZM70.0983 219.1C68.5233 219.1 67.4583 217.96 67.4583 216.25C67.4583 214.54 68.5233 213.4 70.0983 213.4C71.6583 213.4 72.7083 214.54 72.7083 216.25C72.7083 217.96 71.6583 219.1 70.0983 219.1ZM79.0149 220.15C80.0199 220.15 81.0999 219.58 81.6849 218.74V220H82.8849V212.5H81.6849V213.76C81.0999 212.92 80.0199 212.35 79.0149 212.35C76.8249 212.35 75.3549 213.91 75.3549 216.25C75.3549 218.59 76.8249 220.15 79.0149 220.15ZM79.1349 219.1C77.5899 219.1 76.5549 217.96 76.5549 216.25C76.5549 214.54 77.5899 213.4 79.1349 213.4C80.6649 213.4 81.6849 214.54 81.6849 216.25C81.6849 217.96 80.6649 219.1 79.1349 219.1ZM87.3718 220.15C87.7318 220.15 88.2268 220.09 88.6018 220V219.1H87.2968C86.7268 219.1 86.3368 218.695 86.3368 218.08V213.55H88.5268V212.5H86.3368V209.71H85.1368V212.5H83.9368V213.55H85.1368V218.08C85.1368 219.325 86.0368 220.15 87.3718 220.15ZM92.9603 220.15C93.9653 220.15 95.0453 219.58 95.6303 218.74V220H96.8303V212.5H95.6303V213.76C95.0453 212.92 93.9653 212.35 92.9603 212.35C90.7703 212.35 89.3003 213.91 89.3003 216.25C89.3003 218.59 90.7703 220.15 92.9603 220.15ZM93.0803 219.1C91.5353 219.1 90.5003 217.96 90.5003 216.25C90.5003 214.54 91.5353 213.4 93.0803 213.4C94.6103 213.4 95.6303 214.54 95.6303 216.25C95.6303 217.96 94.6103 219.1 93.0803 219.1ZM101.389 220.15C103.324 220.15 104.614 219.22 104.614 217.84C104.614 216.595 103.834 215.995 101.569 215.53C100.264 215.215 99.7986 214.93 99.7986 214.42C99.7986 213.805 100.444 213.4 101.389 213.4C102.259 213.4 102.994 213.85 103.219 214.525L104.314 214.255C103.909 213.115 102.739 212.35 101.389 212.35C99.7236 212.35 98.5986 213.22 98.5986 214.51C98.5986 215.62 99.3036 216.16 101.314 216.61C102.889 216.97 103.429 217.3 103.429 217.9C103.429 218.62 102.604 219.1 101.389 219.1C100.129 219.1 99.2736 218.44 99.2436 217.45H98.1186C98.1486 219.07 99.4686 220.15 101.389 220.15ZM109.457 220.15C111.137 220.15 112.577 219.07 113.057 217.45H111.857C111.527 218.44 110.567 219.1 109.457 219.1C107.987 219.1 106.967 218.05 106.907 216.49H113.102L113.222 216.37C113.222 213.97 111.707 212.35 109.457 212.35C107.207 212.35 105.692 213.91 105.692 216.25C105.692 218.59 107.207 220.15 109.457 220.15ZM106.967 215.44C107.237 214.225 108.242 213.4 109.457 213.4C110.672 213.4 111.677 214.225 111.947 215.44H106.967ZM117.05 220.15C117.41 220.15 117.905 220.09 118.28 220V219.1H116.975C116.405 219.1 116.015 218.695 116.015 218.08V213.55H118.205V212.5H116.015V209.71H114.815V212.5H113.615V213.55H114.815V218.08C114.815 219.325 115.715 220.15 117.05 220.15ZM122.394 220.15C124.329 220.15 125.619 219.22 125.619 217.84C125.619 216.595 124.839 215.995 122.574 215.53C121.269 215.215 120.804 214.93 120.804 214.42C120.804 213.805 121.449 213.4 122.394 213.4C123.264 213.4 123.999 213.85 124.224 214.525L125.319 214.255C124.914 213.115 123.744 212.35 122.394 212.35C120.729 212.35 119.604 213.22 119.604 214.51C119.604 215.62 120.309 216.16 122.319 216.61C123.894 216.97 124.434 217.3 124.434 217.9C124.434 218.62 123.609 219.1 122.394 219.1C121.134 219.1 120.279 218.44 120.249 217.45H119.124C119.154 219.07 120.474 220.15 122.394 220.15ZM133.451 220.15C135.701 220.15 137.216 218.59 137.216 216.25C137.216 213.91 135.701 212.35 133.451 212.35C131.201 212.35 129.686 213.91 129.686 216.25C129.686 218.59 131.201 220.15 133.451 220.15ZM133.451 219.1C131.921 219.1 130.886 217.96 130.886 216.25C130.886 214.54 131.921 213.4 133.451 213.4C134.981 213.4 136.016 214.54 136.016 216.25C136.016 217.96 134.981 219.1 133.451 219.1ZM138.513 220H139.713V215.62C139.713 214.285 140.613 213.4 141.963 213.4H142.473V212.5C142.323 212.41 142.083 212.35 141.858 212.35C141.108 212.35 140.253 212.83 139.713 213.535V212.5H138.513V220ZM153.449 212.5H152.249V216.94C152.249 218.23 151.394 219.1 150.119 219.1C148.844 219.1 147.989 218.23 147.989 216.94V212.5H146.789V217.15C146.789 218.95 148.034 220.15 149.909 220.15C150.779 220.15 151.724 219.7 152.249 219.04V220H153.449V212.5ZM158.166 220.15C160.101 220.15 161.391 219.22 161.391 217.84C161.391 216.595 160.611 215.995 158.346 215.53C157.041 215.215 156.576 214.93 156.576 214.42C156.576 213.805 157.221 213.4 158.166 213.4C159.036 213.4 159.771 213.85 159.996 214.525L161.091 214.255C160.686 213.115 159.516 212.35 158.166 212.35C156.501 212.35 155.376 213.22 155.376 214.51C155.376 215.62 156.081 216.16 158.091 216.61C159.666 216.97 160.206 217.3 160.206 217.9C160.206 218.62 159.381 219.1 158.166 219.1C156.906 219.1 156.051 218.44 156.021 217.45H154.896C154.926 219.07 156.246 220.15 158.166 220.15ZM166.234 220.15C167.914 220.15 169.354 219.07 169.834 217.45H168.634C168.304 218.44 167.344 219.1 166.234 219.1C164.764 219.1 163.744 218.05 163.684 216.49H169.879L169.999 216.37C169.999 213.97 168.484 212.35 166.234 212.35C163.984 212.35 162.469 213.91 162.469 216.25C162.469 218.59 163.984 220.15 166.234 220.15ZM163.744 215.44C164.014 214.225 165.019 213.4 166.234 213.4C167.449 213.4 168.454 214.225 168.724 215.44H163.744ZM81.5828 238H83.0228L78.7928 227.71H77.4128L73.1828 238H74.6228L75.8078 235.015H80.3978L81.5828 238ZM76.2878 233.815L78.1028 229.255L79.9178 233.815H76.2878ZM84.1413 238H85.4913V233.575H88.3863C90.3213 233.575 91.6113 232.39 91.6113 230.62C91.6113 228.88 90.3213 227.71 88.3863 227.71H84.1413V238ZM85.4913 232.375V228.91H88.3863C89.5113 228.91 90.2613 229.6 90.2613 230.62C90.2613 231.67 89.5113 232.375 88.3863 232.375H85.4913ZM93.194 238H94.544V227.71H93.194V238ZM99.4111 238.15C101.346 238.15 102.636 237.22 102.636 235.84C102.636 234.595 101.856 233.995 99.5911 233.53C98.2861 233.215 97.8211 232.93 97.8211 232.42C97.8211 231.805 98.4661 231.4 99.4111 231.4C100.281 231.4 101.016 231.85 101.241 232.525L102.336 232.255C101.931 231.115 100.761 230.35 99.4111 230.35C97.7461 230.35 96.6211 231.22 96.6211 232.51C96.6211 233.62 97.3261 234.16 99.3361 234.61C100.911 234.97 101.451 235.3 101.451 235.9C101.451 236.62 100.626 237.1 99.4111 237.1C98.1511 237.1 97.2961 236.44 97.2661 235.45H96.1411C96.1711 237.07 97.4911 238.15 99.4111 238.15ZM103.62 238H105.27V236.35H103.62V238Z" fill="black"/>
<path d="M55.9219 155H124.828C127.542 155 129.75 152.792 129.75 150.078V81.1719C129.75 81.1161 129.724 81.0702 129.72 81.0177C129.714 80.9422 129.694 80.8766 129.678 80.8044C129.626 80.5764 129.525 80.3625 129.382 80.1777C129.36 80.1481 129.363 80.112 129.34 80.0825L103.09 50.5512C103.08 50.5414 103.067 50.5414 103.057 50.5316C102.857 50.3223 102.604 50.1704 102.325 50.0919C102.263 50.0722 102.207 50.0656 102.142 50.0558C102.046 50.0394 101.958 50 101.859 50H55.9219C53.2083 50 51 52.2083 51 54.9219V150.078C51 152.792 53.2083 155 55.9219 155ZM103.5 55.9555L124.457 79.5312H105.141C104.419 79.5312 103.5 78.1531 103.5 77.0703V55.9555ZM54.2812 54.9219C54.2812 54.4868 54.4541 54.0695 54.7618 53.7618C55.0695 53.4541 55.4868 53.2812 55.9219 53.2812H100.219V77.0703C100.219 79.7248 102.368 82.8125 105.141 82.8125H126.469V150.078C126.469 150.513 126.296 150.931 125.988 151.238C125.681 151.546 125.263 151.719 124.828 151.719H55.9219C55.0031 151.719 54.2812 150.997 54.2812 150.078V54.9219Z" fill="black"/>
<path d="M64.05 25H67.725C70.665 25 72.63 22.93 72.63 19.84C72.63 16.765 70.665 14.71 67.725 14.71H64.05V25ZM65.4 23.8V15.91H67.725C69.855 15.91 71.28 17.485 71.28 19.84C71.28 22.21 69.855 23.8 67.725 23.8H65.4ZM74.216 25H80.861V23.8H75.566V20.08H80.321V18.88H75.566V15.91H80.861V14.71H74.216V25ZM82.3605 25H83.7105V20.575H86.6055C88.5405 20.575 89.8305 19.39 89.8305 17.62C89.8305 15.88 88.5405 14.71 86.6055 14.71H82.3605V25ZM83.7105 19.375V15.91H86.6055C87.7305 15.91 88.4805 16.6 88.4805 17.62C88.4805 18.67 87.7305 19.375 86.6055 19.375H83.7105ZM91.4133 25H98.0583V23.8H92.7633V14.71H91.4133V25ZM103.018 25.15C106.033 25.15 108.043 23.02 108.043 19.84C108.043 16.675 106.033 14.56 103.018 14.56C100.003 14.56 97.9931 16.675 97.9931 19.84C97.9931 23.02 100.003 25.15 103.018 25.15ZM103.018 23.95C100.813 23.95 99.3431 22.3 99.3431 19.84C99.3431 17.395 100.813 15.76 103.018 15.76C105.223 15.76 106.693 17.395 106.693 19.84C106.693 22.3 105.223 23.95 103.018 23.95ZM111.397 25H112.747V21.475L116.077 14.71H114.592L112.072 19.945L109.537 14.71H108.052L111.397 21.475V25Z" fill="black"/>
<rect x="0.5" y="0.5" width="179" height="249" stroke="#E0E0E0"/>
<rect x="65.5" y="134.5" width="7" height="7" fill="white" stroke="#777777"/>
<path d="M78.63 141H79.44V138.345H81.177C82.338 138.345 83.112 137.634 83.112 136.572C83.112 135.528 82.338 134.826 81.177 134.826H78.63V141ZM79.44 137.625V135.546H81.177C81.852 135.546 82.302 135.96 82.302 136.572C82.302 137.202 81.852 137.625 81.177 137.625H79.44ZM83.7959 141H84.5159V138.372C84.5159 137.571 85.0559 137.04 85.8659 137.04H86.1719V136.5C86.0819 136.446 85.9379 136.41 85.8029 136.41C85.3529 136.41 84.8399 136.698 84.5159 137.121V136.5H83.7959V141ZM88.5723 141.09C89.5803 141.09 90.4443 140.442 90.7323 139.47H90.0123C89.8143 140.064 89.2383 140.46 88.5723 140.46C87.6903 140.46 87.0783 139.83 87.0423 138.894H90.7593L90.8313 138.822C90.8313 137.382 89.9223 136.41 88.5723 136.41C87.2223 136.41 86.3133 137.346 86.3133 138.75C86.3133 140.154 87.2223 141.09 88.5723 141.09ZM87.0783 138.264C87.2403 137.535 87.8433 137.04 88.5723 137.04C89.3013 137.04 89.9043 137.535 90.0663 138.264H87.0783ZM93.7132 141.09C94.3432 141.09 95.0002 140.748 95.3512 140.235V141H96.0712V134.826H95.3512V137.265C95.0002 136.752 94.3432 136.41 93.7132 136.41C92.3812 136.41 91.4812 137.346 91.4812 138.75C91.4812 140.154 92.3812 141.09 93.7132 141.09ZM93.7852 140.46C92.8402 140.46 92.2012 139.776 92.2012 138.75C92.2012 137.724 92.8402 137.04 93.7852 137.04C94.7212 137.04 95.3512 137.724 95.3512 138.75C95.3512 139.776 94.7212 140.46 93.7852 140.46ZM97.331 135.816H98.051V134.826H97.331V135.816ZM97.331 141H98.051V136.5H97.331V141ZM101.176 141.09C102.328 141.09 103.21 140.316 103.381 139.173H102.697C102.562 139.947 101.95 140.46 101.176 140.46C100.258 140.46 99.6368 139.776 99.6368 138.75C99.6368 137.724 100.258 137.04 101.176 137.04C101.95 137.04 102.553 137.535 102.688 138.282H103.372C103.201 137.157 102.319 136.41 101.176 136.41C99.8258 136.41 98.9168 137.346 98.9168 138.75C98.9168 140.154 99.8258 141.09 101.176 141.09ZM105.679 141.09C105.895 141.09 106.192 141.054 106.417 141V140.46H105.634C105.292 140.46 105.058 140.217 105.058 139.848V137.13H106.372V136.5H105.058V134.826H104.338V136.5H103.618V137.13H104.338V139.848C104.338 140.595 104.878 141.09 105.679 141.09ZM107.403 135.816H108.123V134.826H107.403V135.816ZM107.403 141H108.123V136.5H107.403V141ZM111.248 141.09C112.598 141.09 113.507 140.154 113.507 138.75C113.507 137.346 112.598 136.41 111.248 136.41C109.898 136.41 108.989 137.346 108.989 138.75C108.989 140.154 109.898 141.09 111.248 141.09ZM111.248 140.46C110.33 140.46 109.709 139.776 109.709 138.75C109.709 137.724 110.33 137.04 111.248 137.04C112.166 137.04 112.787 137.724 112.787 138.75C112.787 139.776 112.166 140.46 111.248 140.46ZM114.285 141H115.005V138.336C115.005 137.562 115.518 137.04 116.283 137.04C117.048 137.04 117.561 137.562 117.561 138.336V141H118.281V138.21C118.281 137.13 117.534 136.41 116.409 136.41C115.887 136.41 115.32 136.68 115.005 137.076V136.5H114.285V141Z" fill="black"/>
<rect x="65.5" y="118.5" width="7" height="7" fill="white" stroke="#777777"/>
<path d="M78.63 125H80.835C82.599 125 83.778 123.758 83.778 121.904C83.778 120.059 82.599 118.826 80.835 118.826H78.63V125ZM79.44 124.28V119.546H80.835C82.113 119.546 82.968 120.491 82.968 121.904C82.968 123.326 82.113 124.28 80.835 124.28H79.44ZM86.6196 125.09C87.2226 125.09 87.8706 124.748 88.2216 124.244V125H88.9416V120.5H88.2216V121.256C87.8706 120.752 87.2226 120.41 86.6196 120.41C85.3056 120.41 84.4236 121.346 84.4236 122.75C84.4236 124.154 85.3056 125.09 86.6196 125.09ZM86.6916 124.46C85.7646 124.46 85.1436 123.776 85.1436 122.75C85.1436 121.724 85.7646 121.04 86.6916 121.04C87.6096 121.04 88.2216 121.724 88.2216 122.75C88.2216 123.776 87.6096 124.46 86.6916 124.46ZM91.6337 125.09C91.8497 125.09 92.1467 125.054 92.3717 125V124.46H91.5887C91.2467 124.46 91.0127 124.217 91.0127 123.848V121.13H92.3267V120.5H91.0127V118.826H90.2927V120.5H89.5727V121.13H90.2927V123.848C90.2927 124.595 90.8327 125.09 91.6337 125.09ZM94.9868 125.09C95.5898 125.09 96.2378 124.748 96.5888 124.244V125H97.3088V120.5H96.5888V121.256C96.2378 120.752 95.5898 120.41 94.9868 120.41C93.6728 120.41 92.7908 121.346 92.7908 122.75C92.7908 124.154 93.6728 125.09 94.9868 125.09ZM95.0588 124.46C94.1318 124.46 93.5108 123.776 93.5108 122.75C93.5108 121.724 94.1318 121.04 95.0588 121.04C95.9768 121.04 96.5888 121.724 96.5888 122.75C96.5888 123.776 95.9768 124.46 95.0588 124.46ZM100.044 125.09C101.205 125.09 101.979 124.532 101.979 123.704C101.979 122.957 101.511 122.597 100.152 122.318C99.3688 122.129 99.0898 121.958 99.0898 121.652C99.0898 121.283 99.4768 121.04 100.044 121.04C100.566 121.04 101.007 121.31 101.142 121.715L101.799 121.553C101.556 120.869 100.854 120.41 100.044 120.41C99.0448 120.41 98.3698 120.932 98.3698 121.706C98.3698 122.372 98.7928 122.696 99.9988 122.966C100.944 123.182 101.268 123.38 101.268 123.74C101.268 124.172 100.773 124.46 100.044 124.46C99.2878 124.46 98.7748 124.064 98.7568 123.47H98.0818C98.0998 124.442 98.8918 125.09 100.044 125.09ZM104.885 125.09C105.893 125.09 106.757 124.442 107.045 123.47H106.325C106.127 124.064 105.551 124.46 104.885 124.46C104.003 124.46 103.391 123.83 103.355 122.894H107.072L107.144 122.822C107.144 121.382 106.235 120.41 104.885 120.41C103.535 120.41 102.626 121.346 102.626 122.75C102.626 124.154 103.535 125.09 104.885 125.09ZM103.391 122.264C103.553 121.535 104.156 121.04 104.885 121.04C105.614 121.04 106.217 121.535 106.379 122.264H103.391ZM109.44 125.09C109.656 125.09 109.953 125.054 110.178 125V124.46H109.395C109.053 124.46 108.819 124.217 108.819 123.848V121.13H110.133V120.5H108.819V118.826H108.099V120.5H107.379V121.13H108.099V123.848C108.099 124.595 108.639 125.09 109.44 125.09Z" fill="black"/>
<rect x="65.5" y="102.5" width="7" height="7" fill="white" stroke="#777777"/>
<path d="M78.63 109H79.44V103.816L81.609 109H82.221L84.39 103.816V109H85.2V102.826H84.111L81.915 107.974L79.719 102.826H78.63V109ZM88.3511 109.09C88.9541 109.09 89.6021 108.748 89.9531 108.244V109H90.6731V104.5H89.9531V105.256C89.6021 104.752 88.9541 104.41 88.3511 104.41C87.0371 104.41 86.1551 105.346 86.1551 106.75C86.1551 108.154 87.0371 109.09 88.3511 109.09ZM88.4231 108.46C87.4961 108.46 86.8751 107.776 86.8751 106.75C86.8751 105.724 87.4961 105.04 88.4231 105.04C89.3411 105.04 89.9531 105.724 89.9531 106.75C89.9531 107.776 89.3411 108.46 88.4231 108.46ZM93.4081 109.09C94.5691 109.09 95.3431 108.532 95.3431 107.704C95.3431 106.957 94.8751 106.597 93.5161 106.318C92.7331 106.129 92.4541 105.958 92.4541 105.652C92.4541 105.283 92.8411 105.04 93.4081 105.04C93.9301 105.04 94.3711 105.31 94.5061 105.715L95.1631 105.553C94.9201 104.869 94.2181 104.41 93.4081 104.41C92.4091 104.41 91.7341 104.932 91.7341 105.706C91.7341 106.372 92.1571 106.696 93.3631 106.966C94.3081 107.182 94.6321 107.38 94.6321 107.74C94.6321 108.172 94.1371 108.46 93.4081 108.46C92.6521 108.46 92.1391 108.064 92.1211 107.47H91.4461C91.4641 108.442 92.2561 109.09 93.4081 109.09ZM97.8212 109.09C98.0372 109.09 98.3342 109.054 98.5592 109V108.46H97.7762C97.4342 108.46 97.2002 108.217 97.2002 107.848V105.13H98.5142V104.5H97.2002V102.826H96.4802V104.5H95.7602V105.13H96.4802V107.848C96.4802 108.595 97.0202 109.09 97.8212 109.09ZM101.237 109.09C102.245 109.09 103.109 108.442 103.397 107.47H102.677C102.479 108.064 101.903 108.46 101.237 108.46C100.355 108.46 99.7433 107.83 99.7073 106.894H103.424L103.496 106.822C103.496 105.382 102.587 104.41 101.237 104.41C99.8873 104.41 98.9783 105.346 98.9783 106.75C98.9783 108.154 99.8873 109.09 101.237 109.09ZM99.7433 106.264C99.9053 105.535 100.508 105.04 101.237 105.04C101.966 105.04 102.569 105.535 102.731 106.264H99.7433ZM104.362 109H105.082V106.372C105.082 105.571 105.622 105.04 106.432 105.04H106.738V104.5C106.648 104.446 106.504 104.41 106.369 104.41C105.919 104.41 105.406 104.698 105.082 105.121V104.5H104.362V109ZM107.544 109H108.264V102.826H107.544V109ZM109.521 103.816H110.241V102.826H109.521V103.816ZM109.521 109H110.241V104.5H109.521V109ZM113.069 109.09C114.23 109.09 115.004 108.532 115.004 107.704C115.004 106.957 114.536 106.597 113.177 106.318C112.394 106.129 112.115 105.958 112.115 105.652C112.115 105.283 112.502 105.04 113.069 105.04C113.591 105.04 114.032 105.31 114.167 105.715L114.824 105.553C114.581 104.869 113.879 104.41 113.069 104.41C112.07 104.41 111.395 104.932 111.395 105.706C111.395 106.372 111.818 106.696 113.024 106.966C113.969 107.182 114.293 107.38 114.293 107.74C114.293 108.172 113.798 108.46 113.069 108.46C112.313 108.46 111.8 108.064 111.782 107.47H111.107C111.125 108.442 111.917 109.09 113.069 109.09ZM117.482 109.09C117.698 109.09 117.995 109.054 118.22 109V108.46H117.437C117.095 108.46 116.861 108.217 116.861 107.848V105.13H118.175V104.5H116.861V102.826H116.141V104.5H115.421V105.13H116.141V107.848C116.141 108.595 116.681 109.09 117.482 109.09Z" fill="black"/>
<path d="M78.464 92H82.184V91.04H79.536V89.664H81.896V88.704H79.536V87.472H82.184V86.512H78.464V92ZM82.2619 92H83.4379L84.3739 90.584L85.3019 92H86.4779L84.9259 89.888L86.3259 88H85.1499L84.3739 89.2L83.5819 88H82.4139L83.8139 89.888L82.2619 92ZM89.3123 87.888C88.8243 87.888 88.2883 88.112 87.9843 88.44V88H87.0243V93.488H87.9843V91.56C88.2883 91.888 88.8243 92.112 89.3123 92.112C90.5763 92.112 91.4243 91.264 91.4243 90C91.4243 88.736 90.5763 87.888 89.3123 87.888ZM89.2163 88.736C89.9683 88.736 90.4643 89.24 90.4643 90C90.4643 90.76 89.9683 91.264 89.2163 91.264C88.4803 91.264 87.9843 90.76 87.9843 90C87.9843 89.24 88.4803 88.736 89.2163 88.736ZM94.0088 92.112C95.3128 92.112 96.1768 91.264 96.1768 90C96.1768 88.736 95.3128 87.888 94.0088 87.888C92.7048 87.888 91.8408 88.736 91.8408 90C91.8408 91.264 92.7048 92.112 94.0088 92.112ZM94.0088 91.264C93.2808 91.264 92.8008 90.76 92.8008 90C92.8008 89.24 93.2808 88.736 94.0088 88.736C94.7368 88.736 95.2168 89.24 95.2168 90C95.2168 90.76 94.7368 91.264 94.0088 91.264ZM100.737 91.312C100.529 91.312 100.385 91.176 100.385 90.976V88.8H101.393V88H100.385V86.512H99.4247V88H99.0007H98.6167C98.2087 88 97.8087 88.192 97.6327 88.488V88H96.6727V92H97.6327V89.696C97.6327 89.16 98.0487 88.8 98.6727 88.8H98.7847H99.4247V90.976C99.4247 91.656 99.9527 92.112 100.753 92.112C101.017 92.112 101.289 92.064 101.433 92V91.312H100.737Z" fill="#1BA94C"/>
</svg>
