<svg width="180" height="250" viewBox="0 0 180 250" fill="none" xmlns="http://www.w3.org/2000/svg">
<path d="M34.2776 184H35.7176L31.4876 173.71H30.1076L25.8776 184H27.3176L28.5026 181.015H33.0926L34.2776 184ZM28.9826 179.815L30.7976 175.255L32.6126 179.815H28.9826ZM42.892 176.5H41.692V180.94C41.692 182.23 40.837 183.1 39.562 183.1C38.287 183.1 37.432 182.23 37.432 180.94V176.5H36.232V181.15C36.232 182.95 37.477 184.15 39.352 184.15C40.222 184.15 41.167 183.7 41.692 183.04V184H42.892V176.5ZM47.5373 184.15C47.8973 184.15 48.3923 184.09 48.7673 184V183.1H47.4623C46.8923 183.1 46.5023 182.695 46.5023 182.08V177.55H48.6923V176.5H46.5023V173.71H45.3023V176.5H44.1023V177.55H45.3023V182.08C45.3023 183.325 46.2023 184.15 47.5373 184.15ZM53.2308 184.15C55.4808 184.15 56.9958 182.59 56.9958 180.25C56.9958 177.91 55.4808 176.35 53.2308 176.35C50.9808 176.35 49.4658 177.91 49.4658 180.25C49.4658 182.59 50.9808 184.15 53.2308 184.15ZM53.2308 183.1C51.7008 183.1 50.6658 181.96 50.6658 180.25C50.6658 178.54 51.7008 177.4 53.2308 177.4C54.7608 177.4 55.7958 178.54 55.7958 180.25C55.7958 181.96 54.7608 183.1 53.2308 183.1ZM58.5891 184H59.9391V175.36L63.5541 184H64.5741L68.1891 175.36V184H69.5391V173.71H67.7241L64.0641 182.29L60.4041 173.71H58.5891V184ZM71.6408 184H78.2858V182.8H72.9908V173.71H71.6408V184ZM86.5096 184.15C87.5146 184.15 88.5946 183.58 89.1796 182.74V184H90.3796V176.5H89.1796V177.76C88.5946 176.92 87.5146 176.35 86.5096 176.35C84.3196 176.35 82.8496 177.91 82.8496 180.25C82.8496 182.59 84.3196 184.15 86.5096 184.15ZM86.6296 183.1C85.0846 183.1 84.0496 181.96 84.0496 180.25C84.0496 178.54 85.0846 177.4 86.6296 177.4C88.1596 177.4 89.1796 178.54 89.1796 180.25C89.1796 181.96 88.1596 183.1 86.6296 183.1ZM98.5414 176.5H97.3414V180.94C97.3414 182.23 96.4864 183.1 95.2114 183.1C93.9364 183.1 93.0814 182.23 93.0814 180.94V176.5H91.8814V181.15C91.8814 182.95 93.1264 184.15 95.0014 184.15C95.8714 184.15 96.8164 183.7 97.3414 183.04V184H98.5414V176.5ZM103.187 184.15C103.547 184.15 104.042 184.09 104.417 184V183.1H103.112C102.542 183.1 102.152 182.695 102.152 182.08V177.55H104.342V176.5H102.152V173.71H100.952V176.5H99.7518V177.55H100.952V182.08C100.952 183.325 101.852 184.15 103.187 184.15ZM108.88 184.15C111.13 184.15 112.645 182.59 112.645 180.25C112.645 177.91 111.13 176.35 108.88 176.35C106.63 176.35 105.115 177.91 105.115 180.25C105.115 182.59 106.63 184.15 108.88 184.15ZM108.88 183.1C107.35 183.1 106.315 181.96 106.315 180.25C106.315 178.54 107.35 177.4 108.88 177.4C110.41 177.4 111.445 178.54 111.445 180.25C111.445 181.96 110.41 183.1 108.88 183.1ZM113.942 184H115.142V178.945C115.142 178.015 115.817 177.4 116.807 177.4C117.797 177.4 118.472 178.015 118.472 178.945V184H119.672V178.945C119.672 178.015 120.347 177.4 121.337 177.4C122.327 177.4 123.002 178.015 123.002 178.945V184H124.202V178.825C124.202 177.34 123.107 176.35 121.457 176.35C120.572 176.35 119.672 176.815 119.192 177.49C118.712 176.815 117.857 176.35 117.062 176.35C116.327 176.35 115.562 176.74 115.142 177.34V176.5H113.942V184ZM129.298 184.15C130.303 184.15 131.383 183.58 131.968 182.74V184H133.168V176.5H131.968V177.76C131.383 176.92 130.303 176.35 129.298 176.35C127.108 176.35 125.638 177.91 125.638 180.25C125.638 182.59 127.108 184.15 129.298 184.15ZM129.418 183.1C127.873 183.1 126.838 181.96 126.838 180.25C126.838 178.54 127.873 177.4 129.418 177.4C130.948 177.4 131.968 178.54 131.968 180.25C131.968 181.96 130.948 183.1 129.418 183.1ZM137.655 184.15C138.015 184.15 138.51 184.09 138.885 184V183.1H137.58C137.01 183.1 136.62 182.695 136.62 182.08V177.55H138.81V176.5H136.62V173.71H135.42V176.5H134.22V177.55H135.42V182.08C135.42 183.325 136.32 184.15 137.655 184.15ZM143.348 184.15C145.028 184.15 146.468 183.07 146.948 181.45H145.748C145.418 182.44 144.458 183.1 143.348 183.1C141.878 183.1 140.858 182.05 140.798 180.49H146.993L147.113 180.37C147.113 177.97 145.598 176.35 143.348 176.35C141.098 176.35 139.583 177.91 139.583 180.25C139.583 182.59 141.098 184.15 143.348 184.15ZM140.858 179.44C141.128 178.225 142.133 177.4 143.348 177.4C144.563 177.4 145.568 178.225 145.838 179.44H140.858ZM151.012 184.15C152.947 184.15 154.237 183.22 154.237 181.84C154.237 180.595 153.457 179.995 151.192 179.53C149.887 179.215 149.422 178.93 149.422 178.42C149.422 177.805 150.067 177.4 151.012 177.4C151.882 177.4 152.617 177.85 152.842 178.525L153.937 178.255C153.532 177.115 152.362 176.35 151.012 176.35C149.347 176.35 148.222 177.22 148.222 178.51C148.222 179.62 148.927 180.16 150.937 180.61C152.512 180.97 153.052 181.3 153.052 181.9C153.052 182.62 152.227 183.1 151.012 183.1C149.752 183.1 148.897 182.44 148.867 181.45H147.742C147.772 183.07 149.092 184.15 151.012 184.15ZM30.655 202.15C31.015 202.15 31.51 202.09 31.885 202V201.1H30.58C30.01 201.1 29.62 200.695 29.62 200.08V195.55H31.81V194.5H29.62V191.71H28.42V194.5H27.22V195.55H28.42V200.08C28.42 201.325 29.32 202.15 30.655 202.15ZM33.2364 202H34.4364V197.56C34.4364 196.27 35.2914 195.4 36.5664 195.4C37.8414 195.4 38.6964 196.27 38.6964 197.56V202H39.8964V197.35C39.8964 195.55 38.6514 194.35 36.7764 194.35C35.9064 194.35 34.9614 194.8 34.4364 195.46V191.71H33.2364V202ZM44.9617 202.15C46.6417 202.15 48.0817 201.07 48.5617 199.45H47.3617C47.0317 200.44 46.0717 201.1 44.9617 201.1C43.4917 201.1 42.4717 200.05 42.4117 198.49H48.6067L48.7267 198.37C48.7267 195.97 47.2117 194.35 44.9617 194.35C42.7117 194.35 41.1967 195.91 41.1967 198.25C41.1967 200.59 42.7117 202.15 44.9617 202.15ZM42.4717 197.44C42.7417 196.225 43.7467 195.4 44.9617 195.4C46.1767 195.4 47.1817 196.225 47.4517 197.44H42.4717ZM53.4513 202H54.6513V196.945C54.6513 196.015 55.3263 195.4 56.3163 195.4C57.3063 195.4 57.9813 196.015 57.9813 196.945V202H59.1813V196.945C59.1813 196.015 59.8563 195.4 60.8463 195.4C61.8363 195.4 62.5113 196.015 62.5113 196.945V202H63.7113V196.825C63.7113 195.34 62.6163 194.35 60.9663 194.35C60.0813 194.35 59.1813 194.815 58.7013 195.49C58.2213 194.815 57.3663 194.35 56.5713 194.35C55.8363 194.35 55.0713 194.74 54.6513 195.34V194.5H53.4513V202ZM68.7654 202.15C71.0154 202.15 72.5304 200.59 72.5304 198.25C72.5304 195.91 71.0154 194.35 68.7654 194.35C66.5154 194.35 65.0004 195.91 65.0004 198.25C65.0004 200.59 66.5154 202.15 68.7654 202.15ZM68.7654 201.1C67.2354 201.1 66.2004 199.96 66.2004 198.25C66.2004 196.54 67.2354 195.4 68.7654 195.4C70.2954 195.4 71.3304 196.54 71.3304 198.25C71.3304 199.96 70.2954 201.1 68.7654 201.1ZM77.3337 202.15C78.3837 202.15 79.4787 201.58 80.0637 200.725V202H81.2637V191.71H80.0637V195.775C79.4787 194.92 78.3837 194.35 77.3337 194.35C75.1137 194.35 73.6137 195.91 73.6137 198.25C73.6137 200.59 75.1137 202.15 77.3337 202.15ZM77.4537 201.1C75.8787 201.1 74.8137 199.96 74.8137 198.25C74.8137 196.54 75.8787 195.4 77.4537 195.4C79.0137 195.4 80.0637 196.54 80.0637 198.25C80.0637 199.96 79.0137 201.1 77.4537 201.1ZM86.4754 202.15C88.1554 202.15 89.5954 201.07 90.0754 199.45H88.8754C88.5454 200.44 87.5854 201.1 86.4754 201.1C85.0054 201.1 83.9854 200.05 83.9254 198.49H90.1204L90.2404 198.37C90.2404 195.97 88.7254 194.35 86.4754 194.35C84.2254 194.35 82.7104 195.91 82.7104 198.25C82.7104 200.59 84.2254 202.15 86.4754 202.15ZM83.9854 197.44C84.2554 196.225 85.2604 195.4 86.4754 195.4C87.6904 195.4 88.6954 196.225 88.9654 197.44H83.9854ZM91.6837 202H92.8837V191.71H91.6837V202ZM101.373 202.15C103.293 202.15 104.763 200.86 105.048 198.955H103.908C103.683 200.245 102.663 201.1 101.373 201.1C99.8429 201.1 98.8079 199.96 98.8079 198.25C98.8079 196.54 99.8429 195.4 101.373 195.4C102.663 195.4 103.668 196.225 103.893 197.47H105.033C104.748 195.595 103.278 194.35 101.373 194.35C99.1229 194.35 97.6079 195.91 97.6079 198.25C97.6079 200.59 99.1229 202.15 101.373 202.15ZM106.493 202H107.693V197.62C107.693 196.285 108.593 195.4 109.943 195.4H110.453V194.5C110.303 194.41 110.063 194.35 109.838 194.35C109.088 194.35 108.233 194.83 107.693 195.535V194.5H106.493V202ZM114.454 202.15C116.134 202.15 117.574 201.07 118.054 199.45H116.854C116.524 200.44 115.564 201.1 114.454 201.1C112.984 201.1 111.964 200.05 111.904 198.49H118.099L118.219 198.37C118.219 195.97 116.704 194.35 114.454 194.35C112.204 194.35 110.689 195.91 110.689 198.25C110.689 200.59 112.204 202.15 114.454 202.15ZM111.964 197.44C112.234 196.225 113.239 195.4 114.454 195.4C115.669 195.4 116.674 196.225 116.944 197.44H111.964ZM122.962 202.15C123.967 202.15 125.047 201.58 125.632 200.74V202H126.832V194.5H125.632V195.76C125.047 194.92 123.967 194.35 122.962 194.35C120.772 194.35 119.302 195.91 119.302 198.25C119.302 200.59 120.772 202.15 122.962 202.15ZM123.082 201.1C121.537 201.1 120.502 199.96 120.502 198.25C120.502 196.54 121.537 195.4 123.082 195.4C124.612 195.4 125.632 196.54 125.632 198.25C125.632 199.96 124.612 201.1 123.082 201.1ZM131.319 202.15C131.679 202.15 132.174 202.09 132.549 202V201.1H131.244C130.674 201.1 130.284 200.695 130.284 200.08V195.55H132.474V194.5H130.284V191.71H129.084V194.5H127.884V195.55H129.084V200.08C129.084 201.325 129.984 202.15 131.319 202.15ZM134.193 193.36H135.393V191.71H134.193V193.36ZM134.193 202H135.393V194.5H134.193V202ZM140.601 202.15C142.851 202.15 144.366 200.59 144.366 198.25C144.366 195.91 142.851 194.35 140.601 194.35C138.351 194.35 136.836 195.91 136.836 198.25C136.836 200.59 138.351 202.15 140.601 202.15ZM140.601 201.1C139.071 201.1 138.036 199.96 138.036 198.25C138.036 196.54 139.071 195.4 140.601 195.4C142.131 195.4 143.166 196.54 143.166 198.25C143.166 199.96 142.131 201.1 140.601 201.1ZM145.663 202H146.863V197.56C146.863 196.27 147.718 195.4 148.993 195.4C150.268 195.4 151.123 196.27 151.123 197.56V202H152.323V197.35C152.323 195.55 151.078 194.35 149.203 194.35C148.333 194.35 147.388 194.8 146.863 195.46V194.5H145.663V202ZM31.6146 220.15C32.6196 220.15 33.6996 219.58 34.2846 218.74V220H35.4846V212.5H34.2846V213.76C33.6996 212.92 32.6196 212.35 31.6146 212.35C29.4246 212.35 27.9546 213.91 27.9546 216.25C27.9546 218.59 29.4246 220.15 31.6146 220.15ZM31.7346 219.1C30.1896 219.1 29.1546 217.96 29.1546 216.25C29.1546 214.54 30.1896 213.4 31.7346 213.4C33.2646 213.4 34.2846 214.54 34.2846 216.25C34.2846 217.96 33.2646 219.1 31.7346 219.1ZM37.2794 220H38.4794V215.56C38.4794 214.27 39.3344 213.4 40.6094 213.4C41.8844 213.4 42.7394 214.27 42.7394 215.56V220H43.9394V215.35C43.9394 213.55 42.6944 212.35 40.8194 212.35C39.9494 212.35 39.0044 212.8 38.4794 213.46V212.5H37.2794V220ZM48.9597 220.15C50.0097 220.15 51.1047 219.58 51.6897 218.725V220H52.8897V209.71H51.6897V213.775C51.1047 212.92 50.0097 212.35 48.9597 212.35C46.7397 212.35 45.2397 213.91 45.2397 216.25C45.2397 218.59 46.7397 220.15 48.9597 220.15ZM49.0797 219.1C47.5047 219.1 46.4397 217.96 46.4397 216.25C46.4397 214.54 47.5047 213.4 49.0797 213.4C50.6397 213.4 51.6897 214.54 51.6897 216.25C51.6897 217.96 50.6397 219.1 49.0797 219.1ZM58.2706 220H59.4706V214.945C59.4706 214.015 60.1456 213.4 61.1356 213.4C62.1256 213.4 62.8006 214.015 62.8006 214.945V220H64.0006V214.945C64.0006 214.015 64.6756 213.4 65.6656 213.4C66.6556 213.4 67.3306 214.015 67.3306 214.945V220H68.5306V214.825C68.5306 213.34 67.4356 212.35 65.7856 212.35C64.9006 212.35 64.0006 212.815 63.5206 213.49C63.0406 212.815 62.1856 212.35 61.3906 212.35C60.6556 212.35 59.8906 212.74 59.4706 213.34V212.5H58.2706V220ZM73.5848 220.15C75.8348 220.15 77.3498 218.59 77.3498 216.25C77.3498 213.91 75.8348 212.35 73.5848 212.35C71.3348 212.35 69.8198 213.91 69.8198 216.25C69.8198 218.59 71.3348 220.15 73.5848 220.15ZM73.5848 219.1C72.0548 219.1 71.0198 217.96 71.0198 216.25C71.0198 214.54 72.0548 213.4 73.5848 213.4C75.1148 213.4 76.1498 214.54 76.1498 216.25C76.1498 217.96 75.1148 219.1 73.5848 219.1ZM82.1531 220.15C83.2031 220.15 84.2981 219.58 84.8831 218.725V220H86.0831V209.71H84.8831V213.775C84.2981 212.92 83.2031 212.35 82.1531 212.35C79.9331 212.35 78.4331 213.91 78.4331 216.25C78.4331 218.59 79.9331 220.15 82.1531 220.15ZM82.2731 219.1C80.6981 219.1 79.6331 217.96 79.6331 216.25C79.6331 214.54 80.6981 213.4 82.2731 213.4C83.8331 213.4 84.8831 214.54 84.8831 216.25C84.8831 217.96 83.8331 219.1 82.2731 219.1ZM91.2947 220.15C92.9747 220.15 94.4147 219.07 94.8947 217.45H93.6947C93.3647 218.44 92.4047 219.1 91.2947 219.1C89.8247 219.1 88.8047 218.05 88.7447 216.49H94.9397L95.0597 216.37C95.0597 213.97 93.5447 212.35 91.2947 212.35C89.0447 212.35 87.5297 213.91 87.5297 216.25C87.5297 218.59 89.0447 220.15 91.2947 220.15ZM88.8047 215.44C89.0747 214.225 90.0797 213.4 91.2947 213.4C92.5097 213.4 93.5147 214.225 93.7847 215.44H88.8047ZM96.503 220H97.703V209.71H96.503V220ZM105.919 220.15C106.279 220.15 106.774 220.09 107.149 220V219.1H105.844C105.274 219.1 104.884 218.695 104.884 218.08V213.55H107.074V212.5H104.884V209.71H103.684V212.5H102.484V213.55H103.684V218.08C103.684 219.325 104.584 220.15 105.919 220.15ZM108.5 220H109.7V215.62C109.7 214.285 110.6 213.4 111.95 213.4H112.46V212.5C112.31 212.41 112.07 212.35 111.845 212.35C111.095 212.35 110.24 212.83 109.7 213.535V212.5H108.5V220ZM116.356 220.15C117.361 220.15 118.441 219.58 119.026 218.74V220H120.226V212.5H119.026V213.76C118.441 212.92 117.361 212.35 116.356 212.35C114.166 212.35 112.696 213.91 112.696 216.25C112.696 218.59 114.166 220.15 116.356 220.15ZM116.476 219.1C114.931 219.1 113.896 217.96 113.896 216.25C113.896 214.54 114.931 213.4 116.476 213.4C118.006 213.4 119.026 214.54 119.026 216.25C119.026 217.96 118.006 219.1 116.476 219.1ZM122.021 211.36H123.221V209.71H122.021V211.36ZM122.021 220H123.221V212.5H122.021V220ZM125.024 220H126.224V215.56C126.224 214.27 127.079 213.4 128.354 213.4C129.629 213.4 130.484 214.27 130.484 215.56V220H131.684V215.35C131.684 213.55 130.439 212.35 128.564 212.35C127.694 212.35 126.749 212.8 126.224 213.46V212.5H125.024V220ZM133.49 211.36H134.69V209.71H133.49V211.36ZM133.49 220H134.69V212.5H133.49V220ZM136.493 220H137.693V215.56C137.693 214.27 138.548 213.4 139.823 213.4C141.098 213.4 141.953 214.27 141.953 215.56V220H143.153V215.35C143.153 213.55 141.908 212.35 140.033 212.35C139.163 212.35 138.218 212.8 137.693 213.46V212.5H136.493V220ZM150.487 212.5V213.7C149.932 212.89 148.897 212.35 147.892 212.35C145.747 212.35 144.307 213.88 144.307 216.175C144.307 218.47 145.747 220 147.892 220C148.897 220 149.947 219.46 150.487 218.665V219.19C150.487 220.81 149.482 221.89 147.997 221.89C146.782 221.89 145.822 221.125 145.597 220H144.472C144.772 221.755 146.182 222.94 147.997 222.94C150.202 222.94 151.687 221.44 151.687 219.19V212.5H150.487ZM148.012 218.95C146.512 218.95 145.507 217.84 145.507 216.175C145.507 214.51 146.512 213.4 148.012 213.4C149.497 213.4 150.487 214.51 150.487 216.175C150.487 217.84 149.497 218.95 148.012 218.95ZM62.5699 240.79H63.7699V236.725C64.3549 237.58 65.4499 238.15 66.5149 238.15C68.7349 238.15 70.2199 236.59 70.2199 234.25C70.2199 231.91 68.7349 230.35 66.5149 230.35C65.4499 230.35 64.3549 230.92 63.7699 231.775V230.5H62.5699V240.79ZM66.3949 237.1C64.8199 237.1 63.7699 235.96 63.7699 234.25C63.7699 232.54 64.8199 231.4 66.3949 231.4C67.9699 231.4 69.0199 232.54 69.0199 234.25C69.0199 235.96 67.9699 237.1 66.3949 237.1ZM71.5201 238H72.7201V233.62C72.7201 232.285 73.6201 231.4 74.9701 231.4H75.4801V230.5C75.3301 230.41 75.0901 230.35 74.8651 230.35C74.1151 230.35 73.2601 230.83 72.7201 231.535V230.5H71.5201V238ZM79.4808 238.15C81.7308 238.15 83.2458 236.59 83.2458 234.25C83.2458 231.91 81.7308 230.35 79.4808 230.35C77.2308 230.35 75.7158 231.91 75.7158 234.25C75.7158 236.59 77.2308 238.15 79.4808 238.15ZM79.4808 237.1C77.9508 237.1 76.9158 235.96 76.9158 234.25C76.9158 232.54 77.9508 231.4 79.4808 231.4C81.0108 231.4 82.0458 232.54 82.0458 234.25C82.0458 235.96 81.0108 237.1 79.4808 237.1ZM88.0941 238.15C90.0141 238.15 91.4841 236.86 91.7691 234.955H90.6291C90.4041 236.245 89.3841 237.1 88.0941 237.1C86.5641 237.1 85.5291 235.96 85.5291 234.25C85.5291 232.54 86.5641 231.4 88.0941 231.4C89.3841 231.4 90.3891 232.225 90.6141 233.47H91.7541C91.4691 231.595 89.9991 230.35 88.0941 230.35C85.8441 230.35 84.3291 231.91 84.3291 234.25C84.3291 236.59 85.8441 238.15 88.0941 238.15ZM96.6195 238.15C98.2995 238.15 99.7395 237.07 100.219 235.45H99.0195C98.6895 236.44 97.7295 237.1 96.6195 237.1C95.1495 237.1 94.1295 236.05 94.0695 234.49H100.264L100.384 234.37C100.384 231.97 98.8695 230.35 96.6195 230.35C94.3695 230.35 92.8545 231.91 92.8545 234.25C92.8545 236.59 94.3695 238.15 96.6195 238.15ZM94.1295 233.44C94.3995 232.225 95.4045 231.4 96.6195 231.4C97.8345 231.4 98.8395 232.225 99.1095 233.44H94.1295ZM104.284 238.15C106.219 238.15 107.509 237.22 107.509 235.84C107.509 234.595 106.729 233.995 104.464 233.53C103.159 233.215 102.694 232.93 102.694 232.42C102.694 231.805 103.339 231.4 104.284 231.4C105.154 231.4 105.889 231.85 106.114 232.525L107.209 232.255C106.804 231.115 105.634 230.35 104.284 230.35C102.619 230.35 101.494 231.22 101.494 232.51C101.494 233.62 102.199 234.16 104.209 234.61C105.784 234.97 106.324 235.3 106.324 235.9C106.324 236.62 105.499 237.1 104.284 237.1C103.024 237.1 102.169 236.44 102.139 235.45H101.014C101.044 237.07 102.364 238.15 104.284 238.15ZM111.564 238.15C113.499 238.15 114.789 237.22 114.789 235.84C114.789 234.595 114.009 233.995 111.744 233.53C110.439 233.215 109.974 232.93 109.974 232.42C109.974 231.805 110.619 231.4 111.564 231.4C112.434 231.4 113.169 231.85 113.394 232.525L114.489 232.255C114.084 231.115 112.914 230.35 111.564 230.35C109.899 230.35 108.774 231.22 108.774 232.51C108.774 233.62 109.479 234.16 111.489 234.61C113.064 234.97 113.604 235.3 113.604 235.9C113.604 236.62 112.779 237.1 111.564 237.1C110.304 237.1 109.449 236.44 109.419 235.45H108.294C108.324 237.07 109.644 238.15 111.564 238.15ZM115.773 238H117.423V236.35H115.773V238Z" fill="black"/>
<path d="M55.9219 155H124.828C127.542 155 129.75 152.792 129.75 150.078V81.1719C129.75 81.1161 129.724 81.0702 129.72 81.0177C129.714 80.9422 129.694 80.8766 129.678 80.8044C129.626 80.5764 129.525 80.3625 129.382 80.1777C129.36 80.1481 129.363 80.112 129.34 80.0825L103.09 50.5512C103.08 50.5414 103.067 50.5414 103.057 50.5316C102.857 50.3223 102.604 50.1704 102.325 50.0919C102.263 50.0722 102.207 50.0656 102.142 50.0558C102.046 50.0394 101.958 50 101.859 50H55.9219C53.2083 50 51 52.2083 51 54.9219V150.078C51 152.792 53.2083 155 55.9219 155ZM103.5 55.9555L124.457 79.5312H105.141C104.419 79.5312 103.5 78.1531 103.5 77.0703V55.9555ZM54.2812 54.9219C54.2812 54.4868 54.4541 54.0695 54.7618 53.7618C55.0695 53.4541 55.4868 53.2812 55.9219 53.2812H100.219V77.0703C100.219 79.7248 102.368 82.8125 105.141 82.8125H126.469V150.078C126.469 150.513 126.296 150.931 125.988 151.238C125.681 151.546 125.263 151.719 124.828 151.719H55.9219C55.0031 151.719 54.2812 150.997 54.2812 150.078V54.9219Z" fill="black"/>
<path fill-rule="evenodd" clip-rule="evenodd" d="M103.226 87.9978C99.573 84.7771 94.8702 83 90 83V86.064C99.3611 86.1102 106.936 93.7131 106.936 103.085C106.936 112.486 99.3148 120.106 89.9142 120.106C80.5137 120.106 72.893 112.486 72.893 103.085C72.893 96.6166 76.5011 90.9909 81.8146 88.1108L80.3649 85.4739C76.0971 87.8201 72.8321 91.643 71.1824 96.2252C69.5327 100.808 69.6116 105.834 71.4045 110.362C73.1973 114.891 76.5808 118.609 80.9202 120.82C85.2596 123.031 90.2566 123.583 94.9738 122.372C99.691 121.16 103.804 118.27 106.542 114.242C109.279 110.214 110.453 105.325 109.842 100.493C109.232 95.6615 106.879 91.2185 103.226 87.9978Z" fill="#1BA94C"/>
<path d="M81.03 99.6C79.086 99.6 77.79 100.836 77.79 102.696C77.79 104.532 78.966 105.768 80.742 105.78C81.582 105.78 82.398 105.348 82.794 104.7C82.722 106.02 82.014 106.896 81.018 106.896C80.178 106.896 79.59 106.56 79.374 105.948H77.994C78.378 107.364 79.47 108.168 81.018 108.168C82.974 108.168 84.27 106.452 84.27 103.884C84.27 101.316 82.974 99.6 81.03 99.6ZM80.946 104.52C79.914 104.52 79.23 103.788 79.23 102.696C79.23 101.592 79.926 100.86 80.958 100.86C81.954 100.86 82.626 101.592 82.626 102.684C82.626 103.788 81.954 104.52 80.946 104.52ZM85.4016 108H91.6416V106.728H87.8136L90.2136 105.06C91.0776 104.484 91.6536 103.38 91.6536 102.3C91.6536 100.68 90.4056 99.6 88.5216 99.6C86.6976 99.6 85.4736 100.884 85.4736 102.804H86.8296C86.8296 101.64 87.5016 100.872 88.5216 100.872C89.5416 100.872 90.2136 101.448 90.2136 102.3C90.2136 102.972 89.8776 103.656 89.3736 104.004L85.4016 106.788V108ZM94.1653 108.12H95.4853L100.525 99.648H99.2053L94.1653 108.12ZM94.8973 104.064C96.0853 104.064 97.0453 103.104 97.0453 101.916C97.0453 100.728 96.0853 99.768 94.8973 99.768C93.7093 99.768 92.7493 100.956 92.7493 101.916C92.7493 103.104 93.7093 104.064 94.8973 104.064ZM94.8973 102.768C94.4173 102.768 94.0453 102.396 94.0453 101.916C94.0453 101.436 94.4173 101.064 94.8973 101.064C95.3773 101.064 95.7493 101.436 95.7493 101.916C95.7493 102.396 95.3773 102.768 94.8973 102.768ZM99.7933 108.168C100.981 108.168 101.941 107.208 101.941 106.02C101.941 104.832 100.981 103.872 99.7933 103.872C98.6053 103.872 97.6453 105.06 97.6453 106.02C97.6453 107.208 98.6053 108.168 99.7933 108.168ZM99.7933 106.872C99.3133 106.872 98.9413 106.5 98.9413 106.02C98.9413 105.54 99.3133 105.168 99.7933 105.168C100.273 105.168 100.645 105.54 100.645 106.02C100.645 106.5 100.273 106.872 99.7933 106.872Z" fill="#1BA94C"/>
<path d="M61.1656 137H61.9756V131.816L64.1446 137H64.7566L66.9256 131.816V137H67.7356V130.826H66.6466L64.4506 135.974L62.2546 130.826H61.1656V137ZM70.9497 137.09C72.2997 137.09 73.2087 136.154 73.2087 134.75C73.2087 133.346 72.2997 132.41 70.9497 132.41C69.5997 132.41 68.6907 133.346 68.6907 134.75C68.6907 136.154 69.5997 137.09 70.9497 137.09ZM70.9497 136.46C70.0317 136.46 69.4107 135.776 69.4107 134.75C69.4107 133.724 70.0317 133.04 70.9497 133.04C71.8677 133.04 72.4887 133.724 72.4887 134.75C72.4887 135.776 71.8677 136.46 70.9497 136.46ZM76.0907 137.09C76.7207 137.09 77.3777 136.748 77.7287 136.235V137H78.4487V130.826H77.7287V133.265C77.3777 132.752 76.7207 132.41 76.0907 132.41C74.7587 132.41 73.8587 133.346 73.8587 134.75C73.8587 136.154 74.7587 137.09 76.0907 137.09ZM76.1627 136.46C75.2177 136.46 74.5787 135.776 74.5787 134.75C74.5787 133.724 75.2177 133.04 76.1627 133.04C77.0987 133.04 77.7287 133.724 77.7287 134.75C77.7287 135.776 77.0987 136.46 76.1627 136.46ZM81.5757 137.09C82.5837 137.09 83.4477 136.442 83.7357 135.47H83.0157C82.8177 136.064 82.2417 136.46 81.5757 136.46C80.6937 136.46 80.0817 135.83 80.0457 134.894H83.7627L83.8347 134.822C83.8347 133.382 82.9257 132.41 81.5757 132.41C80.2257 132.41 79.3167 133.346 79.3167 134.75C79.3167 136.154 80.2257 137.09 81.5757 137.09ZM80.0817 134.264C80.2437 133.535 80.8467 133.04 81.5757 133.04C82.3047 133.04 82.9077 133.535 83.0697 134.264H80.0817ZM84.7006 137H85.4206V130.826H84.7006V137ZM89.5642 137H90.3742V131.546H92.2822V130.826H87.6562V131.546H89.5642V137ZM92.0131 137H92.7331V134.372C92.7331 133.571 93.2731 133.04 94.0831 133.04H94.3891V132.5C94.2991 132.446 94.1551 132.41 94.0201 132.41C93.5701 132.41 93.0571 132.698 92.7331 133.121V132.5H92.0131V137ZM96.7265 137.09C97.3295 137.09 97.9775 136.748 98.3285 136.244V137H99.0485V132.5H98.3285V133.256C97.9775 132.752 97.3295 132.41 96.7265 132.41C95.4125 132.41 94.5305 133.346 94.5305 134.75C94.5305 136.154 95.4125 137.09 96.7265 137.09ZM96.7985 136.46C95.8715 136.46 95.2505 135.776 95.2505 134.75C95.2505 133.724 95.8715 133.04 96.7985 133.04C97.7165 133.04 98.3285 133.724 98.3285 134.75C98.3285 135.776 97.7165 136.46 96.7985 136.46ZM100.125 131.816H100.845V130.826H100.125V131.816ZM100.125 137H100.845V132.5H100.125V137ZM101.927 137H102.647V134.336C102.647 133.562 103.16 133.04 103.925 133.04C104.69 133.04 105.203 133.562 105.203 134.336V137H105.923V134.21C105.923 133.13 105.176 132.41 104.051 132.41C103.529 132.41 102.962 132.68 102.647 133.076V132.5H101.927V137ZM107.007 131.816H107.727V130.826H107.007V131.816ZM107.007 137H107.727V132.5H107.007V137ZM108.809 137H109.529V134.336C109.529 133.562 110.042 133.04 110.807 133.04C111.572 133.04 112.085 133.562 112.085 134.336V137H112.805V134.21C112.805 133.13 112.058 132.41 110.933 132.41C110.411 132.41 109.844 132.68 109.529 133.076V132.5H108.809V137ZM117.205 132.5V133.22C116.872 132.734 116.251 132.41 115.648 132.41C114.361 132.41 113.497 133.328 113.497 134.705C113.497 136.082 114.361 137 115.648 137C116.251 137 116.881 136.676 117.205 136.199V136.514C117.205 137.486 116.602 138.134 115.711 138.134C114.982 138.134 114.406 137.675 114.271 137H113.596C113.776 138.053 114.622 138.764 115.711 138.764C117.034 138.764 117.925 137.864 117.925 136.514V132.5H117.205ZM115.72 136.37C114.82 136.37 114.217 135.704 114.217 134.705C114.217 133.706 114.82 133.04 115.72 133.04C116.611 133.04 117.205 133.706 117.205 134.705C117.205 135.704 116.611 136.37 115.72 136.37ZM73.2262 148.09C74.6842 148.09 75.8632 147.082 76.1602 145.579H75.3772C75.1432 146.65 74.2792 147.37 73.2262 147.37C71.9032 147.37 71.0212 146.38 71.0212 144.913C71.0212 143.446 71.9032 142.456 73.2262 142.456C74.2162 142.456 75.0622 143.113 75.3412 144.103H76.1332C75.8092 142.69 74.6392 141.736 73.2262 141.736C71.4172 141.736 70.2112 143.014 70.2112 144.913C70.2112 146.812 71.4172 148.09 73.2262 148.09ZM79.0708 148.09C80.4208 148.09 81.3298 147.154 81.3298 145.75C81.3298 144.346 80.4208 143.41 79.0708 143.41C77.7208 143.41 76.8118 144.346 76.8118 145.75C76.8118 147.154 77.7208 148.09 79.0708 148.09ZM79.0708 147.46C78.1528 147.46 77.5318 146.776 77.5318 145.75C77.5318 144.724 78.1528 144.04 79.0708 144.04C79.9888 144.04 80.6098 144.724 80.6098 145.75C80.6098 146.776 79.9888 147.46 79.0708 147.46ZM82.1079 148H82.8279V144.967C82.8279 144.409 83.2329 144.04 83.8269 144.04C84.4209 144.04 84.8259 144.409 84.8259 144.967V148H85.5459V144.967C85.5459 144.409 85.9509 144.04 86.5449 144.04C87.1389 144.04 87.5439 144.409 87.5439 144.967V148H88.2639V144.895C88.2639 144.004 87.6069 143.41 86.6169 143.41C86.0859 143.41 85.5459 143.689 85.2579 144.094C84.9699 143.689 84.4569 143.41 83.9799 143.41C83.5389 143.41 83.0799 143.644 82.8279 144.004V143.5H82.1079V148ZM89.3413 149.674H90.0613V147.235C90.4123 147.748 91.0693 148.09 91.7083 148.09C93.0403 148.09 93.9313 147.154 93.9313 145.75C93.9313 144.346 93.0403 143.41 91.7083 143.41C91.0693 143.41 90.4123 143.752 90.0613 144.265V143.5H89.3413V149.674ZM91.6363 147.46C90.6913 147.46 90.0613 146.776 90.0613 145.75C90.0613 144.724 90.6913 144.04 91.6363 144.04C92.5813 144.04 93.2113 144.724 93.2113 145.75C93.2113 146.776 92.5813 147.46 91.6363 147.46ZM94.7114 148H95.4314V141.826H94.7114V148ZM98.5561 148.09C99.5641 148.09 100.428 147.442 100.716 146.47H99.9961C99.7981 147.064 99.2221 147.46 98.5561 147.46C97.6741 147.46 97.0621 146.83 97.0261 145.894H100.743L100.815 145.822C100.815 144.382 99.9061 143.41 98.5561 143.41C97.2061 143.41 96.2971 144.346 96.2971 145.75C96.2971 147.154 97.2061 148.09 98.5561 148.09ZM97.0621 145.264C97.2241 144.535 97.8271 144.04 98.5561 144.04C99.2851 144.04 99.8881 144.535 100.05 145.264H97.0621ZM103.112 148.09C103.328 148.09 103.625 148.054 103.85 148V147.46H103.067C102.725 147.46 102.491 147.217 102.491 146.848V144.13H103.805V143.5H102.491V141.826H101.771V143.5H101.051V144.13H101.771V146.848C101.771 147.595 102.311 148.09 103.112 148.09ZM106.528 148.09C107.536 148.09 108.4 147.442 108.688 146.47H107.968C107.77 147.064 107.194 147.46 106.528 147.46C105.646 147.46 105.034 146.83 104.998 145.894H108.715L108.787 145.822C108.787 144.382 107.878 143.41 106.528 143.41C105.178 143.41 104.269 144.346 104.269 145.75C104.269 147.154 105.178 148.09 106.528 148.09ZM105.034 145.264C105.196 144.535 105.799 144.04 106.528 144.04C107.257 144.04 107.86 144.535 108.022 145.264H105.034Z" fill="black"/>
<path d="M72.63 25H73.98V15.91H77.16V14.71H69.45V15.91H72.63V25ZM78.6633 25H80.0133V20.08H82.1433L85.2033 25H86.7933L83.7183 20.05C85.1583 19.87 86.1333 18.805 86.1333 17.395C86.1333 15.79 84.9183 14.71 83.1183 14.71H78.6633V25ZM80.0133 18.88V15.91H83.1183C84.1083 15.91 84.7833 16.51 84.7833 17.395C84.7833 18.28 84.1083 18.88 83.1183 18.88H80.0133ZM94.6057 25H96.0457L91.8157 14.71H90.4357L86.2057 25H87.6457L88.8307 22.015H93.4207L94.6057 25ZM89.3107 20.815L91.1257 16.255L92.9407 20.815H89.3107ZM97.1643 25H98.5143V14.71H97.1643V25ZM100.914 25H102.264V16.6L108.024 25H109.524V14.71H108.174V23.125L102.399 14.71H100.914V25Z" fill="black"/>
<rect x="0.5" y="0.5" width="179" height="249" stroke="#E0E0E0"/>
</svg>
