<svg width="180" height="250" viewBox="0 0 180 250" fill="none" xmlns="http://www.w3.org/2000/svg">
<path d="M47.2292 184H48.5792V175.36L52.1942 184H53.2142L56.8292 175.36V184H58.1792V173.71H56.3642L52.7042 182.29L49.0442 173.71H47.2292V184ZM63.431 184.15C64.436 184.15 65.516 183.58 66.101 182.74V184H67.301V176.5H66.101V177.76C65.516 176.92 64.436 176.35 63.431 176.35C61.241 176.35 59.771 177.91 59.771 180.25C59.771 182.59 61.241 184.15 63.431 184.15ZM63.551 183.1C62.006 183.1 60.971 181.96 60.971 180.25C60.971 178.54 62.006 177.4 63.551 177.4C65.081 177.4 66.101 178.54 66.101 180.25C66.101 181.96 65.081 183.1 63.551 183.1ZM69.0958 184H70.2958V179.56C70.2958 178.27 71.1508 177.4 72.4258 177.4C73.7008 177.4 74.5558 178.27 74.5558 179.56V184H75.7558V179.35C75.7558 177.55 74.5108 176.35 72.6358 176.35C71.7658 176.35 70.8208 176.8 70.2958 177.46V176.5H69.0958V184ZM80.8626 184.15C81.8676 184.15 82.9476 183.58 83.5326 182.74V184H84.7326V176.5H83.5326V177.76C82.9476 176.92 81.8676 176.35 80.8626 176.35C78.6726 176.35 77.2026 177.91 77.2026 180.25C77.2026 182.59 78.6726 184.15 80.8626 184.15ZM80.9826 183.1C79.4376 183.1 78.4026 181.96 78.4026 180.25C78.4026 178.54 79.4376 177.4 80.9826 177.4C82.5126 177.4 83.5326 178.54 83.5326 180.25C83.5326 181.96 82.5126 183.1 80.9826 183.1ZM92.0545 176.5V177.7C91.4995 176.89 90.4645 176.35 89.4595 176.35C87.3145 176.35 85.8745 177.88 85.8745 180.175C85.8745 182.47 87.3145 184 89.4595 184C90.4645 184 91.5145 183.46 92.0545 182.665V183.19C92.0545 184.81 91.0495 185.89 89.5645 185.89C88.3495 185.89 87.3895 185.125 87.1645 184H86.0395C86.3395 185.755 87.7495 186.94 89.5645 186.94C91.7695 186.94 93.2545 185.44 93.2545 183.19V176.5H92.0545ZM89.5795 182.95C88.0795 182.95 87.0745 181.84 87.0745 180.175C87.0745 178.51 88.0795 177.4 89.5795 177.4C91.0645 177.4 92.0545 178.51 92.0545 180.175C92.0545 181.84 91.0645 182.95 89.5795 182.95ZM98.3113 184.15C99.9913 184.15 101.431 183.07 101.911 181.45H100.711C100.381 182.44 99.4213 183.1 98.3113 183.1C96.8413 183.1 95.8213 182.05 95.7613 180.49H101.956L102.076 180.37C102.076 177.97 100.561 176.35 98.3113 176.35C96.0613 176.35 94.5463 177.91 94.5463 180.25C94.5463 182.59 96.0613 184.15 98.3113 184.15ZM95.8213 179.44C96.0913 178.225 97.0963 177.4 98.3113 177.4C99.5263 177.4 100.531 178.225 100.801 179.44H95.8213ZM106.942 186.79H108.232L112.282 176.5H110.992L108.832 182.005L106.642 176.5H105.367L108.217 183.55L106.942 186.79ZM116.344 184.15C118.594 184.15 120.109 182.59 120.109 180.25C120.109 177.91 118.594 176.35 116.344 176.35C114.094 176.35 112.579 177.91 112.579 180.25C112.579 182.59 114.094 184.15 116.344 184.15ZM116.344 183.1C114.814 183.1 113.779 181.96 113.779 180.25C113.779 178.54 114.814 177.4 116.344 177.4C117.874 177.4 118.909 178.54 118.909 180.25C118.909 181.96 117.874 183.1 116.344 183.1ZM128.212 176.5H127.012V180.94C127.012 182.23 126.157 183.1 124.882 183.1C123.607 183.1 122.752 182.23 122.752 180.94V176.5H121.552V181.15C121.552 182.95 122.797 184.15 124.672 184.15C125.542 184.15 126.487 183.7 127.012 183.04V184H128.212V176.5ZM130.019 184H131.219V179.62C131.219 178.285 132.119 177.4 133.469 177.4H133.979V176.5C133.829 176.41 133.589 176.35 133.364 176.35C132.614 176.35 131.759 176.83 131.219 177.535V176.5H130.019V184ZM42.4758 202H43.8258V193.36L47.4408 202H48.4608L52.0758 193.36V202H53.4258V191.71H51.6108L47.9508 200.29L44.2908 191.71H42.4758V202ZM58.6775 202.15C59.6825 202.15 60.7625 201.58 61.3475 200.74V202H62.5475V194.5H61.3475V195.76C60.7625 194.92 59.6825 194.35 58.6775 194.35C56.4875 194.35 55.0175 195.91 55.0175 198.25C55.0175 200.59 56.4875 202.15 58.6775 202.15ZM58.7975 201.1C57.2525 201.1 56.2175 199.96 56.2175 198.25C56.2175 196.54 57.2525 195.4 58.7975 195.4C60.3275 195.4 61.3475 196.54 61.3475 198.25C61.3475 199.96 60.3275 201.1 58.7975 201.1ZM67.1059 202.15C69.0409 202.15 70.3309 201.22 70.3309 199.84C70.3309 198.595 69.5509 197.995 67.2859 197.53C65.9809 197.215 65.5159 196.93 65.5159 196.42C65.5159 195.805 66.1609 195.4 67.1059 195.4C67.9759 195.4 68.7109 195.85 68.9359 196.525L70.0309 196.255C69.6259 195.115 68.4559 194.35 67.1059 194.35C65.4409 194.35 64.3159 195.22 64.3159 196.51C64.3159 197.62 65.0209 198.16 67.0309 198.61C68.6059 198.97 69.1459 199.3 69.1459 199.9C69.1459 200.62 68.3209 201.1 67.1059 201.1C65.8459 201.1 64.9909 200.44 64.9609 199.45H63.8359C63.8659 201.07 65.1859 202.15 67.1059 202.15ZM74.4612 202.15C74.8212 202.15 75.3162 202.09 75.6912 202V201.1H74.3862C73.8162 201.1 73.4262 200.695 73.4262 200.08V195.55H75.6162V194.5H73.4262V191.71H72.2262V194.5H71.0262V195.55H72.2262V200.08C72.2262 201.325 73.1262 202.15 74.4612 202.15ZM80.1546 202.15C81.8346 202.15 83.2746 201.07 83.7546 199.45H82.5546C82.2246 200.44 81.2646 201.1 80.1546 201.1C78.6846 201.1 77.6646 200.05 77.6046 198.49H83.7996L83.9196 198.37C83.9196 195.97 82.4046 194.35 80.1546 194.35C77.9046 194.35 76.3896 195.91 76.3896 198.25C76.3896 200.59 77.9046 202.15 80.1546 202.15ZM77.6646 197.44C77.9346 196.225 78.9396 195.4 80.1546 195.4C81.3696 195.4 82.3746 196.225 82.6446 197.44H77.6646ZM85.3629 202H86.5629V197.62C86.5629 196.285 87.4629 195.4 88.8129 195.4H89.3229V194.5C89.1729 194.41 88.9329 194.35 88.7079 194.35C87.9579 194.35 87.1029 194.83 86.5629 195.535V194.5H85.3629V202ZM90.6656 202H91.8656V191.71H90.6656V202ZM93.9615 193.36H95.1615V191.71H93.9615V193.36ZM93.9615 202H95.1615V194.5H93.9615V202ZM99.8745 202.15C101.809 202.15 103.099 201.22 103.099 199.84C103.099 198.595 102.319 197.995 100.054 197.53C98.7495 197.215 98.2845 196.93 98.2845 196.42C98.2845 195.805 98.9295 195.4 99.8745 195.4C100.744 195.4 101.479 195.85 101.704 196.525L102.799 196.255C102.394 195.115 101.224 194.35 99.8745 194.35C98.2095 194.35 97.0845 195.22 97.0845 196.51C97.0845 197.62 97.7895 198.16 99.7995 198.61C101.374 198.97 101.914 199.3 101.914 199.9C101.914 200.62 101.089 201.1 99.8745 201.1C98.6145 201.1 97.7595 200.44 97.7295 199.45H96.6045C96.6345 201.07 97.9545 202.15 99.8745 202.15ZM107.23 202.15C107.59 202.15 108.085 202.09 108.46 202V201.1H107.155C106.585 201.1 106.195 200.695 106.195 200.08V195.55H108.385V194.5H106.195V191.71H104.995V194.5H103.795V195.55H104.995V200.08C104.995 201.325 105.895 202.15 107.23 202.15ZM116.392 202.15C117.397 202.15 118.477 201.58 119.062 200.74V202H120.262V194.5H119.062V195.76C118.477 194.92 117.397 194.35 116.392 194.35C114.202 194.35 112.732 195.91 112.732 198.25C112.732 200.59 114.202 202.15 116.392 202.15ZM116.512 201.1C114.967 201.1 113.932 199.96 113.932 198.25C113.932 196.54 114.967 195.4 116.512 195.4C118.042 195.4 119.062 196.54 119.062 198.25C119.062 199.96 118.042 201.1 116.512 201.1ZM122.057 202H123.257V197.56C123.257 196.27 124.112 195.4 125.387 195.4C126.662 195.4 127.517 196.27 127.517 197.56V202H128.717V197.35C128.717 195.55 127.472 194.35 125.597 194.35C124.727 194.35 123.782 194.8 123.257 195.46V194.5H122.057V202ZM133.738 202.15C134.788 202.15 135.883 201.58 136.468 200.725V202H137.668V191.71H136.468V195.775C135.883 194.92 134.788 194.35 133.738 194.35C131.518 194.35 130.018 195.91 130.018 198.25C130.018 200.59 131.518 202.15 133.738 202.15ZM133.858 201.1C132.283 201.1 131.218 199.96 131.218 198.25C131.218 196.54 132.283 195.4 133.858 195.4C135.418 195.4 136.468 196.54 136.468 198.25C136.468 199.96 135.418 201.1 133.858 201.1ZM29.5304 211.36H30.7304V209.71H29.5304V211.36ZM29.5304 220H30.7304V212.5H29.5304V220ZM32.5333 220H33.7333V214.945C33.7333 214.015 34.4083 213.4 35.3983 213.4C36.3883 213.4 37.0633 214.015 37.0633 214.945V220H38.2633V214.945C38.2633 214.015 38.9383 213.4 39.9283 213.4C40.9183 213.4 41.5933 214.015 41.5933 214.945V220H42.7933V214.825C42.7933 213.34 41.6983 212.35 40.0483 212.35C39.1633 212.35 38.2633 212.815 37.7833 213.49C37.3033 212.815 36.4483 212.35 35.6533 212.35C34.9183 212.35 34.1533 212.74 33.7333 213.34V212.5H32.5333V220ZM44.589 222.79H45.789V218.725C46.374 219.58 47.469 220.15 48.534 220.15C50.754 220.15 52.239 218.59 52.239 216.25C52.239 213.91 50.754 212.35 48.534 212.35C47.469 212.35 46.374 212.92 45.789 213.775V212.5H44.589V222.79ZM48.414 219.1C46.839 219.1 45.789 217.96 45.789 216.25C45.789 214.54 46.839 213.4 48.414 213.4C49.989 213.4 51.039 214.54 51.039 216.25C51.039 217.96 49.989 219.1 48.414 219.1ZM53.5392 220H54.7392V215.62C54.7392 214.285 55.6392 213.4 56.9892 213.4H57.4992V212.5C57.3492 212.41 57.1092 212.35 56.8842 212.35C56.1342 212.35 55.2792 212.83 54.7392 213.535V212.5H53.5392V220ZM61.4998 220.15C63.7498 220.15 65.2648 218.59 65.2648 216.25C65.2648 213.91 63.7498 212.35 61.4998 212.35C59.2498 212.35 57.7348 213.91 57.7348 216.25C57.7348 218.59 59.2498 220.15 61.4998 220.15ZM61.4998 219.1C59.9698 219.1 58.9348 217.96 58.9348 216.25C58.9348 214.54 59.9698 213.4 61.4998 213.4C63.0298 213.4 64.0648 214.54 64.0648 216.25C64.0648 217.96 63.0298 219.1 61.4998 219.1ZM68.5675 220H69.6925L72.6925 212.5H71.4025L69.1225 218.665L66.8575 212.5H65.5675L68.5675 220ZM76.91 220.15C78.59 220.15 80.03 219.07 80.51 217.45H79.31C78.98 218.44 78.02 219.1 76.91 219.1C75.44 219.1 74.42 218.05 74.36 216.49H80.555L80.675 216.37C80.675 213.97 79.16 212.35 76.91 212.35C74.66 212.35 73.145 213.91 73.145 216.25C73.145 218.59 74.66 220.15 76.91 220.15ZM74.42 215.44C74.69 214.225 75.695 213.4 76.91 213.4C78.125 213.4 79.13 214.225 79.4 215.44H74.42ZM88.238 220.15C88.598 220.15 89.093 220.09 89.468 220V219.1H88.163C87.593 219.1 87.203 218.695 87.203 218.08V213.55H89.393V212.5H87.203V209.71H86.003V212.5H84.803V213.55H86.003V218.08C86.003 219.325 86.903 220.15 88.238 220.15ZM90.8194 220H92.0194V215.56C92.0194 214.27 92.8744 213.4 94.1494 213.4C95.4244 213.4 96.2794 214.27 96.2794 215.56V220H97.4794V215.35C97.4794 213.55 96.2344 212.35 94.3594 212.35C93.4894 212.35 92.5444 212.8 92.0194 213.46V209.71H90.8194V220ZM102.545 220.15C104.225 220.15 105.665 219.07 106.145 217.45H104.945C104.615 218.44 103.655 219.1 102.545 219.1C101.075 219.1 100.055 218.05 99.9947 216.49H106.19L106.31 216.37C106.31 213.97 104.795 212.35 102.545 212.35C100.295 212.35 98.7797 213.91 98.7797 216.25C98.7797 218.59 100.295 220.15 102.545 220.15ZM100.055 215.44C100.325 214.225 101.33 213.4 102.545 213.4C103.76 213.4 104.765 214.225 105.035 215.44H100.055ZM111.034 220H112.234V214.945C112.234 214.015 112.909 213.4 113.899 213.4C114.889 213.4 115.564 214.015 115.564 214.945V220H116.764V214.945C116.764 214.015 117.439 213.4 118.429 213.4C119.419 213.4 120.094 214.015 120.094 214.945V220H121.294V214.825C121.294 213.34 120.199 212.35 118.549 212.35C117.664 212.35 116.764 212.815 116.284 213.49C115.804 212.815 114.949 212.35 114.154 212.35C113.419 212.35 112.654 212.74 112.234 213.34V212.5H111.034V220ZM126.348 220.15C128.598 220.15 130.113 218.59 130.113 216.25C130.113 213.91 128.598 212.35 126.348 212.35C124.098 212.35 122.583 213.91 122.583 216.25C122.583 218.59 124.098 220.15 126.348 220.15ZM126.348 219.1C124.818 219.1 123.783 217.96 123.783 216.25C123.783 214.54 124.818 213.4 126.348 213.4C127.878 213.4 128.913 214.54 128.913 216.25C128.913 217.96 127.878 219.1 126.348 219.1ZM134.917 220.15C135.967 220.15 137.062 219.58 137.647 218.725V220H138.847V209.71H137.647V213.775C137.062 212.92 135.967 212.35 134.917 212.35C132.697 212.35 131.197 213.91 131.197 216.25C131.197 218.59 132.697 220.15 134.917 220.15ZM135.037 219.1C133.462 219.1 132.397 217.96 132.397 216.25C132.397 214.54 133.462 213.4 135.037 213.4C136.597 213.4 137.647 214.54 137.647 216.25C137.647 217.96 136.597 219.1 135.037 219.1ZM144.058 220.15C145.738 220.15 147.178 219.07 147.658 217.45H146.458C146.128 218.44 145.168 219.1 144.058 219.1C142.588 219.1 141.568 218.05 141.508 216.49H147.703L147.823 216.37C147.823 213.97 146.308 212.35 144.058 212.35C141.808 212.35 140.293 213.91 140.293 216.25C140.293 218.59 141.808 220.15 144.058 220.15ZM141.568 215.44C141.838 214.225 142.843 213.4 144.058 213.4C145.273 213.4 146.278 214.225 146.548 215.44H141.568ZM149.267 220H150.467V209.71H149.267V220ZM25.7918 238.15C26.7968 238.15 27.8768 237.58 28.4618 236.74V238H29.6618V230.5H28.4618V231.76C27.8768 230.92 26.7968 230.35 25.7918 230.35C23.6018 230.35 22.1318 231.91 22.1318 234.25C22.1318 236.59 23.6018 238.15 25.7918 238.15ZM25.9118 237.1C24.3668 237.1 23.3318 235.96 23.3318 234.25C23.3318 232.54 24.3668 231.4 25.9118 231.4C27.4418 231.4 28.4618 232.54 28.4618 234.25C28.4618 235.96 27.4418 237.1 25.9118 237.1ZM34.7152 238.15C36.6352 238.15 38.1052 236.86 38.3902 234.955H37.2502C37.0252 236.245 36.0052 237.1 34.7152 237.1C33.1852 237.1 32.1502 235.96 32.1502 234.25C32.1502 232.54 33.1852 231.4 34.7152 231.4C36.0052 231.4 37.0102 232.225 37.2352 233.47H38.3752C38.0902 231.595 36.6202 230.35 34.7152 230.35C32.4652 230.35 30.9502 231.91 30.9502 234.25C30.9502 236.59 32.4652 238.15 34.7152 238.15ZM43.2405 238.15C45.1605 238.15 46.6305 236.86 46.9155 234.955H45.7755C45.5505 236.245 44.5305 237.1 43.2405 237.1C41.7105 237.1 40.6755 235.96 40.6755 234.25C40.6755 232.54 41.7105 231.4 43.2405 231.4C44.5305 231.4 45.5355 232.225 45.7605 233.47H46.9005C46.6155 231.595 45.1455 230.35 43.2405 230.35C40.9905 230.35 39.4755 231.91 39.4755 234.25C39.4755 236.59 40.9905 238.15 43.2405 238.15ZM55.0209 230.5H53.8209V234.94C53.8209 236.23 52.9659 237.1 51.6909 237.1C50.4159 237.1 49.5609 236.23 49.5609 234.94V230.5H48.3609V235.15C48.3609 236.95 49.6059 238.15 51.4809 238.15C52.3509 238.15 53.2959 237.7 53.8209 237.04V238H55.0209V230.5ZM56.8277 238H58.0277V233.62C58.0277 232.285 58.9277 231.4 60.2777 231.4H60.7877V230.5C60.6377 230.41 60.3977 230.35 60.1727 230.35C59.4227 230.35 58.5677 230.83 58.0277 231.535V230.5H56.8277V238ZM64.6834 238.15C65.6884 238.15 66.7684 237.58 67.3534 236.74V238H68.5534V230.5H67.3534V231.76C66.7684 230.92 65.6884 230.35 64.6834 230.35C62.4934 230.35 61.0234 231.91 61.0234 234.25C61.0234 236.59 62.4934 238.15 64.6834 238.15ZM64.8034 237.1C63.2584 237.1 62.2234 235.96 62.2234 234.25C62.2234 232.54 63.2584 231.4 64.8034 231.4C66.3334 231.4 67.3534 232.54 67.3534 234.25C67.3534 235.96 66.3334 237.1 64.8034 237.1ZM73.6068 238.15C75.5268 238.15 76.9968 236.86 77.2818 234.955H76.1418C75.9168 236.245 74.8968 237.1 73.6068 237.1C72.0768 237.1 71.0418 235.96 71.0418 234.25C71.0418 232.54 72.0768 231.4 73.6068 231.4C74.8968 231.4 75.9018 232.225 76.1268 233.47H77.2668C76.9818 231.595 75.5118 230.35 73.6068 230.35C71.3568 230.35 69.8418 231.91 69.8418 234.25C69.8418 236.59 71.3568 238.15 73.6068 238.15ZM79.308 240.79H80.598L84.648 230.5H83.358L81.198 236.005L79.008 230.5H77.733L80.583 237.55L79.308 240.79ZM88.5855 229.36H89.7855V227.71H88.5855V229.36ZM88.5855 238H89.7855V230.5H88.5855V238ZM92.3385 238H93.5385V231.55H95.2185V230.5H93.5385V229.66C93.5385 229.06 93.9285 228.655 94.4985 228.655H95.2185V227.71C95.0235 227.62 94.6935 227.56 94.4085 227.56C93.1635 227.56 92.3385 228.4 92.3385 229.66V230.5H91.1385V231.55H92.3385V238ZM99.8502 238H101.05V233.62C101.05 232.285 101.95 231.4 103.3 231.4H103.81V230.5C103.66 230.41 103.42 230.35 103.195 230.35C102.445 230.35 101.59 230.83 101.05 231.535V230.5H99.8502V238ZM107.811 238.15C109.491 238.15 110.931 237.07 111.411 235.45H110.211C109.881 236.44 108.921 237.1 107.811 237.1C106.341 237.1 105.321 236.05 105.261 234.49H111.456L111.576 234.37C111.576 231.97 110.061 230.35 107.811 230.35C105.561 230.35 104.046 231.91 104.046 234.25C104.046 236.59 105.561 238.15 107.811 238.15ZM105.321 233.44C105.591 232.225 106.596 231.4 107.811 231.4C109.026 231.4 110.031 232.225 110.301 233.44H105.321ZM119.109 240.79H120.309V230.5H119.109V231.775C118.524 230.92 117.429 230.35 116.379 230.35C114.144 230.35 112.659 231.91 112.659 234.25C112.659 236.59 114.144 238.15 116.379 238.15C117.444 238.15 118.539 237.58 119.109 236.725V240.79ZM116.499 237.1C114.909 237.1 113.859 235.96 113.859 234.25C113.859 233.485 114.129 232.675 114.519 232.24C114.984 231.73 115.779 231.4 116.499 231.4C118.059 231.4 119.109 232.54 119.109 234.25C119.109 235.96 118.059 237.1 116.499 237.1ZM128.776 230.5H127.576V234.94C127.576 236.23 126.721 237.1 125.446 237.1C124.171 237.1 123.316 236.23 123.316 234.94V230.5H122.116V235.15C122.116 236.95 123.361 238.15 125.236 238.15C126.106 238.15 127.051 237.7 127.576 237.04V238H128.776V230.5ZM130.583 229.36H131.783V227.71H130.583V229.36ZM130.583 238H131.783V230.5H130.583V238ZM133.586 238H134.786V233.62C134.786 232.285 135.686 231.4 137.036 231.4H137.546V230.5C137.396 230.41 137.156 230.35 136.931 230.35C136.181 230.35 135.326 230.83 134.786 231.535V230.5H133.586V238ZM141.546 238.15C143.226 238.15 144.666 237.07 145.146 235.45H143.946C143.616 236.44 142.656 237.1 141.546 237.1C140.076 237.1 139.056 236.05 138.996 234.49H145.191L145.311 234.37C145.311 231.97 143.796 230.35 141.546 230.35C139.296 230.35 137.781 231.91 137.781 234.25C137.781 236.59 139.296 238.15 141.546 238.15ZM139.056 233.44C139.326 232.225 140.331 231.4 141.546 231.4C142.761 231.4 143.766 232.225 144.036 233.44H139.056ZM150.114 238.15C151.164 238.15 152.259 237.58 152.844 236.725V238H154.044V227.71H152.844V231.775C152.259 230.92 151.164 230.35 150.114 230.35C147.894 230.35 146.394 231.91 146.394 234.25C146.394 236.59 147.894 238.15 150.114 238.15ZM150.234 237.1C148.659 237.1 147.594 235.96 147.594 234.25C147.594 232.54 148.659 231.4 150.234 231.4C151.794 231.4 152.844 232.54 152.844 234.25C152.844 235.96 151.794 237.1 150.234 237.1ZM155.851 238H157.501V236.35H155.851V238Z" fill="black"/>
<path d="M55.9219 155H124.828C127.542 155 129.75 152.792 129.75 150.078V81.1719C129.75 81.1161 129.724 81.0702 129.72 81.0177C129.714 80.9422 129.694 80.8766 129.678 80.8044C129.626 80.5764 129.525 80.3625 129.382 80.1777C129.36 80.1481 129.363 80.112 129.34 80.0825L103.09 50.5512C103.08 50.5414 103.067 50.5414 103.057 50.5316C102.857 50.3223 102.604 50.1704 102.325 50.0919C102.263 50.0722 102.207 50.0656 102.142 50.0558C102.046 50.0394 101.958 50 101.859 50H55.9219C53.2083 50 51 52.2083 51 54.9219V150.078C51 152.792 53.2083 155 55.9219 155ZM103.5 55.9555L124.457 79.5312H105.141C104.419 79.5312 103.5 78.1531 103.5 77.0703V55.9555ZM54.2812 54.9219C54.2812 54.4868 54.4541 54.0695 54.7618 53.7618C55.0695 53.4541 55.4868 53.2812 55.9219 53.2812H100.219V77.0703C100.219 79.7248 102.368 82.8125 105.141 82.8125H126.469V150.078C126.469 150.513 126.296 150.931 125.988 151.238C125.681 151.546 125.263 151.719 124.828 151.719H55.9219C55.0031 151.719 54.2812 150.997 54.2812 150.078V54.9219Z" fill="black"/>
<path d="M91.9672 90.0012C86.4318 89.9235 81.1225 93.785 79.5338 99.0998C78.3127 102.922 79.0262 107.296 81.4127 110.525L75.501 109.38L75 111.969L85.6303 114.026L87.6886 103.481L85.1011 102.976L83.8518 109.376C80.8039 105.738 80.8479 99.9783 83.9478 96.3839C86.9668 92.6113 92.7181 91.5284 96.926 93.8793C100.952 95.957 103.185 100.879 102.087 105.276C101.103 109.866 96.6512 113.346 91.9672 113.252C90.7483 113.166 90.1356 114.926 91.1448 115.615C92.0259 116.164 93.1406 115.777 94.1065 115.714C99.5589 114.884 104.158 110.233 104.861 104.753C105.674 99.5233 102.853 94.0109 98.1646 91.5656C96.2716 90.5381 94.1207 89.9977 91.9672 90.0011V90.0012Z" fill="#1BA94C"/>
<path d="M63.05 25H64.4V14.71H63.05V25ZM69.087 25H70.437V15.91H73.617V14.71H65.907V15.91H69.087V25ZM75.1203 25H81.7653V23.8H76.4703V20.08H81.2253V18.88H76.4703V15.91H81.7653V14.71H75.1203V25ZM83.2648 25H84.6148V20.08H86.7448L89.8048 25H91.3948L88.3198 20.05C89.7598 19.87 90.7348 18.805 90.7348 17.395C90.7348 15.79 89.5198 14.71 87.7198 14.71H83.2648V25ZM84.6148 18.88V15.91H87.7198C88.7098 15.91 89.3848 16.51 89.3848 17.395C89.3848 18.28 88.7098 18.88 87.7198 18.88H84.6148ZM99.2073 25H100.647L96.4173 14.71H95.0373L90.8073 25H92.2473L93.4323 22.015H98.0223L99.2073 25ZM93.9123 20.815L95.7273 16.255L97.5423 20.815H93.9123ZM103.145 25H104.495V15.91H107.675V14.71H99.9646V15.91H103.145V25ZM109.178 25H115.823V23.8H110.528V20.08H115.283V18.88H110.528V15.91H115.823V14.71H109.178V25Z" fill="black"/>
<rect x="0.5" y="0.5" width="179" height="249" stroke="#E0E0E0"/>
</svg>
