<svg width="180" height="250" viewBox="0 0 180 250" fill="none" xmlns="http://www.w3.org/2000/svg">
<path d="M26.3429 184H27.7229L31.9529 173.71H30.5129L27.0329 182.455L23.5529 173.71H22.1129L26.3429 184ZM34.7127 184.15C35.7177 184.15 36.7977 183.58 37.3827 182.74V184H38.5827V176.5H37.3827V177.76C36.7977 176.92 35.7177 176.35 34.7127 176.35C32.5227 176.35 31.0527 177.91 31.0527 180.25C31.0527 182.59 32.5227 184.15 34.7127 184.15ZM34.8327 183.1C33.2877 183.1 32.2527 181.96 32.2527 180.25C32.2527 178.54 33.2877 177.4 34.8327 177.4C36.3627 177.4 37.3827 178.54 37.3827 180.25C37.3827 181.96 36.3627 183.1 34.8327 183.1ZM40.3775 184H41.5775V173.71H40.3775V184ZM43.6734 175.36H44.8734V173.71H43.6734V175.36ZM43.6734 184H44.8734V176.5H43.6734V184ZM50.0364 184.15C51.0864 184.15 52.1814 183.58 52.7664 182.725V184H53.9664V173.71H52.7664V177.775C52.1814 176.92 51.0864 176.35 50.0364 176.35C47.8164 176.35 46.3164 177.91 46.3164 180.25C46.3164 182.59 47.8164 184.15 50.0364 184.15ZM50.1564 183.1C48.5814 183.1 47.5164 181.96 47.5164 180.25C47.5164 178.54 48.5814 177.4 50.1564 177.4C51.7164 177.4 52.7664 178.54 52.7664 180.25C52.7664 181.96 51.7164 183.1 50.1564 183.1ZM59.073 184.15C60.078 184.15 61.158 183.58 61.743 182.74V184H62.943V176.5H61.743V177.76C61.158 176.92 60.078 176.35 59.073 176.35C56.883 176.35 55.413 177.91 55.413 180.25C55.413 182.59 56.883 184.15 59.073 184.15ZM59.193 183.1C57.648 183.1 56.613 181.96 56.613 180.25C56.613 178.54 57.648 177.4 59.193 177.4C60.723 177.4 61.743 178.54 61.743 180.25C61.743 181.96 60.723 183.1 59.193 183.1ZM67.4299 184.15C67.7899 184.15 68.2849 184.09 68.6599 184V183.1H67.3549C66.7849 183.1 66.3949 182.695 66.3949 182.08V177.55H68.5849V176.5H66.3949V173.71H65.1949V176.5H63.9949V177.55H65.1949V182.08C65.1949 183.325 66.0949 184.15 67.4299 184.15ZM73.1234 184.15C74.8034 184.15 76.2434 183.07 76.7234 181.45H75.5234C75.1934 182.44 74.2334 183.1 73.1234 183.1C71.6534 183.1 70.6334 182.05 70.5734 180.49H76.7684L76.8884 180.37C76.8884 177.97 75.3734 176.35 73.1234 176.35C70.8734 176.35 69.3584 177.91 69.3584 180.25C69.3584 182.59 70.8734 184.15 73.1234 184.15ZM70.6334 179.44C70.9034 178.225 71.9084 177.4 73.1234 177.4C74.3384 177.4 75.3434 178.225 75.6134 179.44H70.6334ZM81.7629 184H83.1129V179.575H86.0079C87.9429 179.575 89.2329 178.39 89.2329 176.62C89.2329 174.88 87.9429 173.71 86.0079 173.71H81.7629V184ZM83.1129 178.375V174.91H86.0079C87.1329 174.91 87.8829 175.6 87.8829 176.62C87.8829 177.67 87.1329 178.375 86.0079 178.375H83.1129ZM93.365 184.15C94.37 184.15 95.45 183.58 96.035 182.74V184H97.235V176.5H96.035V177.76C95.45 176.92 94.37 176.35 93.365 176.35C91.175 176.35 89.705 177.91 89.705 180.25C89.705 182.59 91.175 184.15 93.365 184.15ZM93.485 183.1C91.94 183.1 90.905 181.96 90.905 180.25C90.905 178.54 91.94 177.4 93.485 177.4C95.015 177.4 96.035 178.54 96.035 180.25C96.035 181.96 95.015 183.1 93.485 183.1ZM99.0299 184H100.23V179.62C100.23 178.285 101.13 177.4 102.48 177.4H102.99V176.5C102.84 176.41 102.6 176.35 102.375 176.35C101.625 176.35 100.77 176.83 100.23 177.535V176.5H99.0299V184ZM106.886 184.15C107.891 184.15 108.971 183.58 109.556 182.74V184H110.756V176.5H109.556V177.76C108.971 176.92 107.891 176.35 106.886 176.35C104.696 176.35 103.226 177.91 103.226 180.25C103.226 182.59 104.696 184.15 106.886 184.15ZM107.006 183.1C105.461 183.1 104.426 181.96 104.426 180.25C104.426 178.54 105.461 177.4 107.006 177.4C108.536 177.4 109.556 178.54 109.556 180.25C109.556 181.96 108.536 183.1 107.006 183.1ZM118.077 176.5V177.7C117.522 176.89 116.487 176.35 115.482 176.35C113.337 176.35 111.897 177.88 111.897 180.175C111.897 182.47 113.337 184 115.482 184C116.487 184 117.537 183.46 118.077 182.665V183.19C118.077 184.81 117.072 185.89 115.587 185.89C114.372 185.89 113.412 185.125 113.187 184H112.062C112.362 185.755 113.772 186.94 115.587 186.94C117.792 186.94 119.277 185.44 119.277 183.19V176.5H118.077ZM115.602 182.95C114.102 182.95 113.097 181.84 113.097 180.175C113.097 178.51 114.102 177.4 115.602 177.4C117.087 177.4 118.077 178.51 118.077 180.175C118.077 181.84 117.087 182.95 115.602 182.95ZM121.076 184H122.276V179.62C122.276 178.285 123.176 177.4 124.526 177.4H125.036V176.5C124.886 176.41 124.646 176.35 124.421 176.35C123.671 176.35 122.816 176.83 122.276 177.535V176.5H121.076V184ZM128.931 184.15C129.936 184.15 131.016 183.58 131.601 182.74V184H132.801V176.5H131.601V177.76C131.016 176.92 129.936 176.35 128.931 176.35C126.741 176.35 125.271 177.91 125.271 180.25C125.271 182.59 126.741 184.15 128.931 184.15ZM129.051 183.1C127.506 183.1 126.471 181.96 126.471 180.25C126.471 178.54 127.506 177.4 129.051 177.4C130.581 177.4 131.601 178.54 131.601 180.25C131.601 181.96 130.581 183.1 129.051 183.1ZM134.596 186.79H135.796V182.725C136.381 183.58 137.476 184.15 138.541 184.15C140.761 184.15 142.246 182.59 142.246 180.25C142.246 177.91 140.761 176.35 138.541 176.35C137.476 176.35 136.381 176.92 135.796 177.775V176.5H134.596V186.79ZM138.421 183.1C136.846 183.1 135.796 181.96 135.796 180.25C135.796 178.54 136.846 177.4 138.421 177.4C139.996 177.4 141.046 178.54 141.046 180.25C141.046 181.96 139.996 183.1 138.421 183.1ZM143.546 184H144.746V179.56C144.746 178.27 145.601 177.4 146.876 177.4C148.151 177.4 149.006 178.27 149.006 179.56V184H150.206V179.35C150.206 177.55 148.961 176.35 147.086 176.35C146.216 176.35 145.271 176.8 144.746 177.46V173.71H143.546V184ZM154.777 184.15C156.712 184.15 158.002 183.22 158.002 181.84C158.002 180.595 157.222 179.995 154.957 179.53C153.652 179.215 153.187 178.93 153.187 178.42C153.187 177.805 153.832 177.4 154.777 177.4C155.647 177.4 156.382 177.85 156.607 178.525L157.702 178.255C157.297 177.115 156.127 176.35 154.777 176.35C153.112 176.35 151.987 177.22 151.987 178.51C151.987 179.62 152.692 180.16 154.702 180.61C156.277 180.97 156.817 181.3 156.817 181.9C156.817 182.62 155.992 183.1 154.777 183.1C153.517 183.1 152.662 182.44 152.632 181.45H151.507C151.537 183.07 152.857 184.15 154.777 184.15ZM42.4983 202.15C42.8583 202.15 43.3533 202.09 43.7283 202V201.1H42.4233C41.8533 201.1 41.4633 200.695 41.4633 200.08V195.55H43.6533V194.5H41.4633V191.71H40.2633V194.5H39.0633V195.55H40.2633V200.08C40.2633 201.325 41.1633 202.15 42.4983 202.15ZM45.0797 202H46.2797V197.56C46.2797 196.27 47.1347 195.4 48.4097 195.4C49.6847 195.4 50.5397 196.27 50.5397 197.56V202H51.7397V197.35C51.7397 195.55 50.4947 194.35 48.6197 194.35C47.7497 194.35 46.8047 194.8 46.2797 195.46V191.71H45.0797V202ZM56.8465 202.15C57.8515 202.15 58.9315 201.58 59.5165 200.74V202H60.7165V194.5H59.5165V195.76C58.9315 194.92 57.8515 194.35 56.8465 194.35C54.6565 194.35 53.1865 195.91 53.1865 198.25C53.1865 200.59 54.6565 202.15 56.8465 202.15ZM56.9665 201.1C55.4215 201.1 54.3865 199.96 54.3865 198.25C54.3865 196.54 55.4215 195.4 56.9665 195.4C58.4965 195.4 59.5165 196.54 59.5165 198.25C59.5165 199.96 58.4965 201.1 56.9665 201.1ZM65.2034 202.15C65.5634 202.15 66.0584 202.09 66.4334 202V201.1H65.1284C64.5584 201.1 64.1684 200.695 64.1684 200.08V195.55H66.3584V194.5H64.1684V191.71H62.9684V194.5H61.7684V195.55H62.9684V200.08C62.9684 201.325 63.8684 202.15 65.2034 202.15ZM71.066 202H72.266V197.56C72.266 196.27 73.121 195.4 74.396 195.4C75.671 195.4 76.526 196.27 76.526 197.56V202H77.726V197.35C77.726 195.55 76.481 194.35 74.606 194.35C73.736 194.35 72.791 194.8 72.266 195.46V191.71H71.066V202ZM82.8328 202.15C83.8378 202.15 84.9178 201.58 85.5028 200.74V202H86.7028V194.5H85.5028V195.76C84.9178 194.92 83.8378 194.35 82.8328 194.35C80.6428 194.35 79.1728 195.91 79.1728 198.25C79.1728 200.59 80.6428 202.15 82.8328 202.15ZM82.9528 201.1C81.4078 201.1 80.3728 199.96 80.3728 198.25C80.3728 196.54 81.4078 195.4 82.9528 195.4C84.4828 195.4 85.5028 196.54 85.5028 198.25C85.5028 199.96 84.4828 201.1 82.9528 201.1ZM90.6647 202H91.7897L94.7897 194.5H93.4997L91.2197 200.665L88.9547 194.5H87.6647L90.6647 202ZM99.0071 202.15C100.687 202.15 102.127 201.07 102.607 199.45H101.407C101.077 200.44 100.117 201.1 99.0071 201.1C97.5371 201.1 96.5171 200.05 96.4571 198.49H102.652L102.772 198.37C102.772 195.97 101.257 194.35 99.0071 194.35C96.7571 194.35 95.2421 195.91 95.2421 198.25C95.2421 200.59 96.7571 202.15 99.0071 202.15ZM96.5171 197.44C96.7871 196.225 97.7921 195.4 99.0071 195.4C100.222 195.4 101.227 196.225 101.497 197.44H96.5171ZM111.427 202.15C113.647 202.15 115.147 200.59 115.147 198.25C115.147 195.91 113.647 194.35 111.427 194.35C110.377 194.35 109.282 194.92 108.697 195.775V191.71H107.497V202H108.697V200.725C109.282 201.58 110.377 202.15 111.427 202.15ZM111.307 201.1C109.747 201.1 108.697 199.96 108.697 198.25C108.697 196.54 109.747 195.4 111.307 195.4C112.882 195.4 113.947 196.54 113.947 198.25C113.947 199.96 112.882 201.1 111.307 201.1ZM119.998 202.15C121.678 202.15 123.118 201.07 123.598 199.45H122.398C122.068 200.44 121.108 201.1 119.998 201.1C118.528 201.1 117.508 200.05 117.448 198.49H123.643L123.763 198.37C123.763 195.97 122.248 194.35 119.998 194.35C117.748 194.35 116.233 195.91 116.233 198.25C116.233 200.59 117.748 202.15 119.998 202.15ZM117.508 197.44C117.778 196.225 118.783 195.4 119.998 195.4C121.213 195.4 122.218 196.225 122.488 197.44H117.508ZM128.612 202.15C130.292 202.15 131.732 201.07 132.212 199.45H131.012C130.682 200.44 129.722 201.1 128.612 201.1C127.142 201.1 126.122 200.05 126.062 198.49H132.257L132.377 198.37C132.377 195.97 130.862 194.35 128.612 194.35C126.362 194.35 124.847 195.91 124.847 198.25C124.847 200.59 126.362 202.15 128.612 202.15ZM126.122 197.44C126.392 196.225 127.397 195.4 128.612 195.4C129.827 195.4 130.832 196.225 131.102 197.44H126.122ZM133.82 202H135.02V197.56C135.02 196.27 135.875 195.4 137.15 195.4C138.425 195.4 139.28 196.27 139.28 197.56V202H140.48V197.35C140.48 195.55 139.235 194.35 137.36 194.35C136.49 194.35 135.545 194.8 135.02 195.46V194.5H133.82V202ZM24.43 212.5V213.7C23.875 212.89 22.84 212.35 21.835 212.35C19.69 212.35 18.25 213.88 18.25 216.175C18.25 218.47 19.69 220 21.835 220C22.84 220 23.89 219.46 24.43 218.665V219.19C24.43 220.81 23.425 221.89 21.94 221.89C20.725 221.89 19.765 221.125 19.54 220H18.415C18.715 221.755 20.125 222.94 21.94 222.94C24.145 222.94 25.63 221.44 25.63 219.19V212.5H24.43ZM21.955 218.95C20.455 218.95 19.45 217.84 19.45 216.175C19.45 214.51 20.455 213.4 21.955 213.4C23.44 213.4 24.43 214.51 24.43 216.175C24.43 217.84 23.44 218.95 21.955 218.95ZM30.6868 220.15C32.3668 220.15 33.8068 219.07 34.2868 217.45H33.0868C32.7568 218.44 31.7968 219.1 30.6868 219.1C29.2168 219.1 28.1968 218.05 28.1368 216.49H34.3318L34.4518 216.37C34.4518 213.97 32.9368 212.35 30.6868 212.35C28.4368 212.35 26.9218 213.91 26.9218 216.25C26.9218 218.59 28.4368 220.15 30.6868 220.15ZM28.1968 215.44C28.4668 214.225 29.4718 213.4 30.6868 213.4C31.9018 213.4 32.9068 214.225 33.1768 215.44H28.1968ZM35.8951 220H37.0951V215.56C37.0951 214.27 37.9501 213.4 39.2251 213.4C40.5001 213.4 41.3551 214.27 41.3551 215.56V220H42.5551V215.35C42.5551 213.55 41.3101 212.35 39.4351 212.35C38.5651 212.35 37.6201 212.8 37.0951 213.46V212.5H35.8951V220ZM47.6204 220.15C49.3004 220.15 50.7404 219.07 51.2204 217.45H50.0204C49.6904 218.44 48.7304 219.1 47.6204 219.1C46.1504 219.1 45.1304 218.05 45.0704 216.49H51.2654L51.3854 216.37C51.3854 213.97 49.8704 212.35 47.6204 212.35C45.3704 212.35 43.8554 213.91 43.8554 216.25C43.8554 218.59 45.3704 220.15 47.6204 220.15ZM45.1304 215.44C45.4004 214.225 46.4054 213.4 47.6204 213.4C48.8354 213.4 49.8404 214.225 50.1104 215.44H45.1304ZM52.8287 220H54.0287V215.62C54.0287 214.285 54.9287 213.4 56.2787 213.4H56.7887V212.5C56.6387 212.41 56.3987 212.35 56.1737 212.35C55.4237 212.35 54.5687 212.83 54.0287 213.535V212.5H52.8287V220ZM60.6844 220.15C61.6894 220.15 62.7694 219.58 63.3544 218.74V220H64.5544V212.5H63.3544V213.76C62.7694 212.92 61.6894 212.35 60.6844 212.35C58.4944 212.35 57.0244 213.91 57.0244 216.25C57.0244 218.59 58.4944 220.15 60.6844 220.15ZM60.8044 219.1C59.2594 219.1 58.2244 217.96 58.2244 216.25C58.2244 214.54 59.2594 213.4 60.8044 213.4C62.3344 213.4 63.3544 214.54 63.3544 216.25C63.3544 217.96 62.3344 219.1 60.8044 219.1ZM69.0413 220.15C69.4013 220.15 69.8963 220.09 70.2713 220V219.1H68.9663C68.3963 219.1 68.0063 218.695 68.0063 218.08V213.55H70.1963V212.5H68.0063V209.71H66.8063V212.5H65.6063V213.55H66.8063V218.08C66.8063 219.325 67.7063 220.15 69.0413 220.15ZM74.7347 220.15C76.4147 220.15 77.8547 219.07 78.3347 217.45H77.1347C76.8047 218.44 75.8447 219.1 74.7347 219.1C73.2647 219.1 72.2447 218.05 72.1847 216.49H78.3797L78.4997 216.37C78.4997 213.97 76.9847 212.35 74.7347 212.35C72.4847 212.35 70.9697 213.91 70.9697 216.25C70.9697 218.59 72.4847 220.15 74.7347 220.15ZM72.2447 215.44C72.5147 214.225 73.5197 213.4 74.7347 213.4C75.9497 213.4 76.9547 214.225 77.2247 215.44H72.2447ZM83.303 220.15C84.353 220.15 85.448 219.58 86.033 218.725V220H87.233V209.71H86.033V213.775C85.448 212.92 84.353 212.35 83.303 212.35C81.083 212.35 79.583 213.91 79.583 216.25C79.583 218.59 81.083 220.15 83.303 220.15ZM83.423 219.1C81.848 219.1 80.783 217.96 80.783 216.25C80.783 214.54 81.848 213.4 83.423 213.4C84.983 213.4 86.033 214.54 86.033 216.25C86.033 217.96 84.983 219.1 83.423 219.1ZM96.5439 220.15C98.7639 220.15 100.264 218.59 100.264 216.25C100.264 213.91 98.7639 212.35 96.5439 212.35C95.4939 212.35 94.3989 212.92 93.8139 213.775V209.71H92.6139V220H93.8139V218.725C94.3989 219.58 95.4939 220.15 96.5439 220.15ZM96.4239 219.1C94.8639 219.1 93.8139 217.96 93.8139 216.25C93.8139 214.54 94.8639 213.4 96.4239 213.4C97.9989 213.4 99.0639 214.54 99.0639 216.25C99.0639 217.96 97.9989 219.1 96.4239 219.1ZM101.998 222.79H103.288L107.338 212.5H106.048L103.888 218.005L101.698 212.5H100.423L103.273 219.55L101.998 222.79ZM114.114 220.15C114.474 220.15 114.969 220.09 115.344 220V219.1H114.039C113.469 219.1 113.079 218.695 113.079 218.08V213.55H115.269V212.5H113.079V209.71H111.879V212.5H110.679V213.55H111.879V218.08C111.879 219.325 112.779 220.15 114.114 220.15ZM116.696 220H117.896V215.56C117.896 214.27 118.751 213.4 120.026 213.4C121.301 213.4 122.156 214.27 122.156 215.56V220H123.356V215.35C123.356 213.55 122.111 212.35 120.236 212.35C119.366 212.35 118.421 212.8 117.896 213.46V209.71H116.696V220ZM128.421 220.15C130.101 220.15 131.541 219.07 132.021 217.45H130.821C130.491 218.44 129.531 219.1 128.421 219.1C126.951 219.1 125.931 218.05 125.871 216.49H132.066L132.186 216.37C132.186 213.97 130.671 212.35 128.421 212.35C126.171 212.35 124.656 213.91 124.656 216.25C124.656 218.59 126.171 220.15 128.421 220.15ZM125.931 215.44C126.201 214.225 127.206 213.4 128.421 213.4C129.636 213.4 130.641 214.225 130.911 215.44H125.931ZM144.17 220H145.61L141.38 209.71H140L135.77 220H137.21L138.395 217.015H142.985L144.17 220ZM138.875 215.815L140.69 211.255L142.505 215.815H138.875ZM146.729 220H153.374V218.8H148.079V209.71H146.729V220ZM154.873 220H156.223V215.575H159.118C161.053 215.575 162.343 214.39 162.343 212.62C162.343 210.88 161.053 209.71 159.118 209.71H154.873V220ZM156.223 214.375V210.91H159.118C160.243 210.91 160.993 211.6 160.993 212.62C160.993 213.67 160.243 214.375 159.118 214.375H156.223ZM159.733 220H161.383V218.35H159.733V220Z" fill="black"/>
<path d="M55.9219 155H124.828C127.542 155 129.75 152.792 129.75 150.078V81.1719C129.75 81.1161 129.724 81.0702 129.72 81.0177C129.714 80.9422 129.694 80.8766 129.678 80.8044C129.626 80.5764 129.525 80.3625 129.382 80.1777C129.36 80.1481 129.363 80.112 129.34 80.0825L103.09 50.5512C103.08 50.5414 103.067 50.5414 103.057 50.5316C102.857 50.3223 102.604 50.1704 102.325 50.0919C102.263 50.0722 102.207 50.0656 102.142 50.0558C102.046 50.0394 101.958 50 101.859 50H55.9219C53.2083 50 51 52.2083 51 54.9219V150.078C51 152.792 53.2083 155 55.9219 155ZM103.5 55.9555L124.457 79.5312H105.141C104.419 79.5312 103.5 78.1531 103.5 77.0703V55.9555ZM54.2812 54.9219C54.2812 54.4868 54.4541 54.0695 54.7618 53.7618C55.0695 53.4541 55.4868 53.2812 55.9219 53.2812H100.219V77.0703C100.219 79.7248 102.368 82.8125 105.141 82.8125H126.469V150.078C126.469 150.513 126.296 150.931 125.988 151.238C125.681 151.546 125.263 151.719 124.828 151.719H55.9219C55.0031 151.719 54.2812 150.997 54.2812 150.078V54.9219Z" fill="black"/>
<path d="M62.4844 95.9375H105.141C105.576 95.9375 105.993 95.7647 106.301 95.457C106.608 95.1493 106.781 94.732 106.781 94.2969C106.781 93.8618 106.608 93.4445 106.301 93.1368C105.993 92.8291 105.576 92.6562 105.141 92.6562H62.4844C62.0493 92.6562 61.632 92.8291 61.3243 93.1368C61.0166 93.4445 60.8438 93.8618 60.8438 94.2969C60.8438 94.732 61.0166 95.1493 61.3243 95.457C61.632 95.7647 62.0493 95.9375 62.4844 95.9375Z" fill="#DADADA"/>
<path d="M62.4844 113H105.141C105.576 113 105.993 112.827 106.301 112.519C106.608 112.212 106.781 111.794 106.781 111.359C106.781 110.924 106.608 110.507 106.301 110.199C105.993 109.892 105.576 109.719 105.141 109.719H62.4844C62.0493 109.719 61.632 109.892 61.3243 110.199C61.0166 110.507 60.8438 110.924 60.8438 111.359C60.8438 111.794 61.0166 112.212 61.3243 112.519C61.632 112.827 62.0493 113 62.4844 113Z" fill="#DADADA"/>
<path d="M63.1406 130.719H105.797C106.232 130.719 106.649 130.546 106.957 130.238C107.265 129.931 107.438 129.513 107.438 129.078C107.438 128.643 107.265 128.226 106.957 127.918C106.649 127.61 106.232 127.438 105.797 127.438H63.1406C62.7055 127.438 62.2882 127.61 61.9805 127.918C61.6729 128.226 61.5 128.643 61.5 129.078C61.5 129.513 61.6729 129.931 61.9805 130.238C62.2882 130.546 62.7055 130.719 63.1406 130.719Z" fill="#DADADA"/>
<path fill-rule="evenodd" clip-rule="evenodd" d="M111.375 94.625C111.375 93.2326 111.928 91.8973 112.913 90.9127C113.897 89.9281 115.233 89.375 116.625 89.375C118.017 89.375 119.353 89.9281 120.337 90.9127C121.322 91.8973 121.875 93.2326 121.875 94.625C121.875 96.0174 121.322 97.3527 120.337 98.3373C119.353 99.3219 118.017 99.875 116.625 99.875C115.233 99.875 113.897 99.3219 112.913 98.3373C111.928 97.3527 111.375 96.0174 111.375 94.625V94.625ZM116.325 96.872L119.348 93.0934L118.802 92.6566L116.225 95.8773L114.399 94.3562L113.951 94.8938L116.325 96.8727V96.872Z" fill="#1BA94C"/>
<path d="M116.625 116.938C119.524 116.938 121.875 114.587 121.875 111.688C121.875 108.788 119.524 106.438 116.625 106.438C113.726 106.438 111.375 108.788 111.375 111.688C111.375 114.587 113.726 116.938 116.625 116.938Z" stroke="#E63946" stroke-linecap="round" stroke-linejoin="round"/>
<path d="M114.656 109.719L118.594 113.656" stroke="#E63946" stroke-linecap="round" stroke-linejoin="round"/>
<path d="M118.594 109.719L114.656 113.656" stroke="#E63946" stroke-linecap="round" stroke-linejoin="round"/>
<path fill-rule="evenodd" clip-rule="evenodd" d="M111.375 128.75C111.375 127.358 111.928 126.022 112.913 125.038C113.897 124.053 115.233 123.5 116.625 123.5C118.017 123.5 119.353 124.053 120.337 125.038C121.322 126.022 121.875 127.358 121.875 128.75C121.875 130.142 121.322 131.478 120.337 132.462C119.353 133.447 118.017 134 116.625 134C115.233 134 113.897 133.447 112.913 132.462C111.928 131.478 111.375 130.142 111.375 128.75V128.75ZM116.325 130.997L119.348 127.218L118.802 126.782L116.225 130.002L114.399 128.481L113.951 129.019L116.325 130.998V130.997Z" fill="#1BA94C"/>
<path d="M60.59 25H61.97L66.2 14.71H64.76L61.28 23.455L57.8 14.71H56.36L60.59 25ZM73.2268 25H74.6668L70.4368 14.71H69.0568L64.8268 25H66.2668L67.4518 22.015H72.0418L73.2268 25ZM67.9318 20.815L69.7468 16.255L71.5618 20.815H67.9318ZM75.7854 25H82.4304V23.8H77.1354V14.71H75.7854V25ZM83.9299 25H85.2799V14.71H83.9299V25ZM87.6799 25H91.3549C94.2949 25 96.2599 22.93 96.2599 19.84C96.2599 16.765 94.2949 14.71 91.3549 14.71H87.6799V25ZM89.0299 23.8V15.91H91.3549C93.4849 15.91 94.9099 17.485 94.9099 19.84C94.9099 22.21 93.4849 23.8 91.3549 23.8H89.0299ZM105.263 25H106.703L102.473 14.71H101.093L96.8629 25H98.3029L99.4879 22.015H104.078L105.263 25ZM99.9679 20.815L101.783 16.255L103.598 20.815H99.9679ZM109.2 25H110.55V15.91H113.73V14.71H106.02V15.91H109.2V25ZM115.234 25H121.879V23.8H116.584V20.08H121.339V18.88H116.584V15.91H121.879V14.71H115.234V25Z" fill="black"/>
<rect x="0.5" y="0.5" width="179" height="249" stroke="#E0E0E0"/>
</svg>
