<svg width="180" height="250" viewBox="0 0 180 250" fill="none" xmlns="http://www.w3.org/2000/svg">
<path d="M50.6622 184.15C53.2122 184.15 54.9222 182.92 54.9222 181.075C54.9222 179.5 53.8572 178.705 50.7972 177.985C48.8922 177.55 48.2322 177.16 48.2322 176.44C48.2322 175.435 49.2072 174.76 50.6622 174.76C52.0122 174.76 53.1072 175.585 53.3772 176.815L54.6072 176.515C54.1722 174.745 52.5822 173.56 50.6622 173.56C48.3972 173.56 46.8822 174.715 46.8822 176.44C46.8822 177.88 47.8272 178.6 50.5272 179.23C52.7922 179.755 53.5722 180.235 53.5722 181.075C53.5722 182.2 52.4022 182.95 50.6622 182.95C48.7422 182.95 47.4522 181.945 47.4522 180.46H46.1772C46.1772 182.665 47.9772 184.15 50.6622 184.15ZM58.8972 184.15C59.2572 184.15 59.7522 184.09 60.1272 184V183.1H58.8222C58.2522 183.1 57.8622 182.695 57.8622 182.08V177.55H60.0522V176.5H57.8622V173.71H56.6622V176.5H55.4622V177.55H56.6622V182.08C56.6622 183.325 57.5622 184.15 58.8972 184.15ZM61.4786 184H62.6786V179.62C62.6786 178.285 63.5786 177.4 64.9286 177.4H65.4386V176.5C65.2886 176.41 65.0486 176.35 64.8236 176.35C64.0736 176.35 63.2186 176.83 62.6786 177.535V176.5H61.4786V184ZM72.9872 176.5H71.7872V180.94C71.7872 182.23 70.9322 183.1 69.6572 183.1C68.3822 183.1 67.5272 182.23 67.5272 180.94V176.5H66.3272V181.15C66.3272 182.95 67.5722 184.15 69.4472 184.15C70.3172 184.15 71.2622 183.7 71.7872 183.04V184H72.9872V176.5ZM78.199 184.15C80.119 184.15 81.589 182.86 81.874 180.955H80.734C80.509 182.245 79.489 183.1 78.199 183.1C76.669 183.1 75.634 181.96 75.634 180.25C75.634 178.54 76.669 177.4 78.199 177.4C79.489 177.4 80.494 178.225 80.719 179.47H81.859C81.574 177.595 80.104 176.35 78.199 176.35C75.949 176.35 74.434 177.91 74.434 180.25C74.434 182.59 75.949 184.15 78.199 184.15ZM85.7038 184.15C86.0638 184.15 86.5588 184.09 86.9338 184V183.1H85.6288C85.0588 183.1 84.6688 182.695 84.6688 182.08V177.55H86.8588V176.5H84.6688V173.71H83.4688V176.5H82.2688V177.55H83.4688V182.08C83.4688 183.325 84.3688 184.15 85.7038 184.15ZM94.9453 176.5H93.7453V180.94C93.7453 182.23 92.8903 183.1 91.6153 183.1C90.3403 183.1 89.4853 182.23 89.4853 180.94V176.5H88.2853V181.15C88.2853 182.95 89.5303 184.15 91.4053 184.15C92.2753 184.15 93.2203 183.7 93.7453 183.04V184H94.9453V176.5ZM96.7521 184H97.9521V179.62C97.9521 178.285 98.8521 177.4 100.202 177.4H100.712V176.5C100.562 176.41 100.322 176.35 100.097 176.35C99.3471 176.35 98.4921 176.83 97.9521 177.535V176.5H96.7521V184ZM104.713 184.15C106.393 184.15 107.833 183.07 108.313 181.45H107.113C106.783 182.44 105.823 183.1 104.713 183.1C103.243 183.1 102.223 182.05 102.163 180.49H108.358L108.478 180.37C108.478 177.97 106.963 176.35 104.713 176.35C102.463 176.35 100.948 177.91 100.948 180.25C100.948 182.59 102.463 184.15 104.713 184.15ZM102.223 179.44C102.493 178.225 103.498 177.4 104.713 177.4C105.928 177.4 106.933 178.225 107.203 179.44H102.223ZM116.041 184.15C116.401 184.15 116.896 184.09 117.271 184V183.1H115.966C115.396 183.1 115.006 182.695 115.006 182.08V177.55H117.196V176.5H115.006V173.71H113.806V176.5H112.606V177.55H113.806V182.08C113.806 183.325 114.706 184.15 116.041 184.15ZM118.622 184H119.822V179.56C119.822 178.27 120.677 177.4 121.952 177.4C123.227 177.4 124.082 178.27 124.082 179.56V184H125.282V179.35C125.282 177.55 124.037 176.35 122.162 176.35C121.292 176.35 120.347 176.8 119.822 177.46V173.71H118.622V184ZM130.347 184.15C132.027 184.15 133.467 183.07 133.947 181.45H132.747C132.417 182.44 131.457 183.1 130.347 183.1C128.877 183.1 127.857 182.05 127.797 180.49H133.992L134.112 180.37C134.112 177.97 132.597 176.35 130.347 176.35C128.097 176.35 126.582 177.91 126.582 180.25C126.582 182.59 128.097 184.15 130.347 184.15ZM127.857 179.44C128.127 178.225 129.132 177.4 130.347 177.4C131.562 177.4 132.567 178.225 132.837 179.44H127.857ZM23.9602 202H25.3102V193.36L28.9252 202H29.9452L33.5602 193.36V202H34.9102V191.71H33.0952L29.4352 200.29L25.7752 191.71H23.9602V202ZM40.1619 202.15C41.1669 202.15 42.2469 201.58 42.8319 200.74V202H44.0319V194.5H42.8319V195.76C42.2469 194.92 41.1669 194.35 40.1619 194.35C37.9719 194.35 36.5019 195.91 36.5019 198.25C36.5019 200.59 37.9719 202.15 40.1619 202.15ZM40.2819 201.1C38.7369 201.1 37.7019 199.96 37.7019 198.25C37.7019 196.54 38.7369 195.4 40.2819 195.4C41.8119 195.4 42.8319 196.54 42.8319 198.25C42.8319 199.96 41.8119 201.1 40.2819 201.1ZM48.5903 202.15C50.5253 202.15 51.8153 201.22 51.8153 199.84C51.8153 198.595 51.0353 197.995 48.7703 197.53C47.4653 197.215 47.0003 196.93 47.0003 196.42C47.0003 195.805 47.6453 195.4 48.5903 195.4C49.4603 195.4 50.1953 195.85 50.4203 196.525L51.5153 196.255C51.1103 195.115 49.9403 194.35 48.5903 194.35C46.9253 194.35 45.8003 195.22 45.8003 196.51C45.8003 197.62 46.5053 198.16 48.5153 198.61C50.0903 198.97 50.6303 199.3 50.6303 199.9C50.6303 200.62 49.8053 201.1 48.5903 201.1C47.3303 201.1 46.4753 200.44 46.4453 199.45H45.3203C45.3503 201.07 46.6703 202.15 48.5903 202.15ZM55.9455 202.15C56.3055 202.15 56.8005 202.09 57.1755 202V201.1H55.8705C55.3005 201.1 54.9105 200.695 54.9105 200.08V195.55H57.1005V194.5H54.9105V191.71H53.7105V194.5H52.5105V195.55H53.7105V200.08C53.7105 201.325 54.6105 202.15 55.9455 202.15ZM61.639 202.15C63.319 202.15 64.759 201.07 65.239 199.45H64.039C63.709 200.44 62.749 201.1 61.639 201.1C60.169 201.1 59.149 200.05 59.089 198.49H65.284L65.404 198.37C65.404 195.97 63.889 194.35 61.639 194.35C59.389 194.35 57.874 195.91 57.874 198.25C57.874 200.59 59.389 202.15 61.639 202.15ZM59.149 197.44C59.419 196.225 60.424 195.4 61.639 195.4C62.854 195.4 63.859 196.225 64.129 197.44H59.149ZM66.8473 202H68.0473V197.62C68.0473 196.285 68.9473 195.4 70.2973 195.4H70.8073V194.5C70.6573 194.41 70.4173 194.35 70.1923 194.35C69.4423 194.35 68.5873 194.83 68.0473 195.535V194.5H66.8473V202ZM72.15 202H73.35V191.71H72.15V202ZM75.4459 193.36H76.6459V191.71H75.4459V193.36ZM75.4459 202H76.6459V194.5H75.4459V202ZM81.3588 202.15C83.2938 202.15 84.5838 201.22 84.5838 199.84C84.5838 198.595 83.8038 197.995 81.5388 197.53C80.2338 197.215 79.7688 196.93 79.7688 196.42C79.7688 195.805 80.4138 195.4 81.3588 195.4C82.2288 195.4 82.9638 195.85 83.1888 196.525L84.2838 196.255C83.8788 195.115 82.7088 194.35 81.3588 194.35C79.6938 194.35 78.5688 195.22 78.5688 196.51C78.5688 197.62 79.2738 198.16 81.2838 198.61C82.8588 198.97 83.3988 199.3 83.3988 199.9C83.3988 200.62 82.5738 201.1 81.3588 201.1C80.0988 201.1 79.2438 200.44 79.2138 199.45H78.0888C78.1188 201.07 79.4388 202.15 81.3588 202.15ZM88.7141 202.15C89.0741 202.15 89.5691 202.09 89.9441 202V201.1H88.6391C88.0691 201.1 87.6791 200.695 87.6791 200.08V195.55H89.8691V194.5H87.6791V191.71H86.4791V194.5H85.2791V195.55H86.4791V200.08C86.4791 201.325 87.3791 202.15 88.7141 202.15ZM98.5068 202.15C100.727 202.15 102.227 200.59 102.227 198.25C102.227 195.91 100.727 194.35 98.5068 194.35C97.4568 194.35 96.3618 194.92 95.7768 195.775V191.71H94.5768V202H95.7768V200.725C96.3618 201.58 97.4568 202.15 98.5068 202.15ZM98.3868 201.1C96.8268 201.1 95.7768 199.96 95.7768 198.25C95.7768 196.54 96.8268 195.4 98.3868 195.4C99.9618 195.4 101.027 196.54 101.027 198.25C101.027 199.96 99.9618 201.1 98.3868 201.1ZM106.973 202.15C107.978 202.15 109.058 201.58 109.643 200.74V202H110.843V194.5H109.643V195.76C109.058 194.92 107.978 194.35 106.973 194.35C104.783 194.35 103.313 195.91 103.313 198.25C103.313 200.59 104.783 202.15 106.973 202.15ZM107.093 201.1C105.548 201.1 104.513 199.96 104.513 198.25C104.513 196.54 105.548 195.4 107.093 195.4C108.623 195.4 109.643 196.54 109.643 198.25C109.643 199.96 108.623 201.1 107.093 201.1ZM115.402 202.15C117.337 202.15 118.627 201.22 118.627 199.84C118.627 198.595 117.847 197.995 115.582 197.53C114.277 197.215 113.812 196.93 113.812 196.42C113.812 195.805 114.457 195.4 115.402 195.4C116.272 195.4 117.007 195.85 117.232 196.525L118.327 196.255C117.922 195.115 116.752 194.35 115.402 194.35C113.737 194.35 112.612 195.22 112.612 196.51C112.612 197.62 113.317 198.16 115.327 198.61C116.902 198.97 117.442 199.3 117.442 199.9C117.442 200.62 116.617 201.1 115.402 201.1C114.142 201.1 113.287 200.44 113.257 199.45H112.132C112.162 201.07 113.482 202.15 115.402 202.15ZM123.47 202.15C125.15 202.15 126.59 201.07 127.07 199.45H125.87C125.54 200.44 124.58 201.1 123.47 201.1C122 201.1 120.98 200.05 120.92 198.49H127.115L127.235 198.37C127.235 195.97 125.72 194.35 123.47 194.35C121.22 194.35 119.705 195.91 119.705 198.25C119.705 200.59 121.22 202.15 123.47 202.15ZM120.98 197.44C121.25 196.225 122.255 195.4 123.47 195.4C124.685 195.4 125.69 196.225 125.96 197.44H120.98ZM132.038 202.15C133.088 202.15 134.183 201.58 134.768 200.725V202H135.968V191.71H134.768V195.775C134.183 194.92 133.088 194.35 132.038 194.35C129.818 194.35 128.318 195.91 128.318 198.25C128.318 200.59 129.818 202.15 132.038 202.15ZM132.158 201.1C130.583 201.1 129.518 199.96 129.518 198.25C129.518 196.54 130.583 195.4 132.158 195.4C133.718 195.4 134.768 196.54 134.768 198.25C134.768 199.96 133.718 201.1 132.158 201.1ZM144.461 202.15C146.711 202.15 148.226 200.59 148.226 198.25C148.226 195.91 146.711 194.35 144.461 194.35C142.211 194.35 140.696 195.91 140.696 198.25C140.696 200.59 142.211 202.15 144.461 202.15ZM144.461 201.1C142.931 201.1 141.896 199.96 141.896 198.25C141.896 196.54 142.931 195.4 144.461 195.4C145.991 195.4 147.026 196.54 147.026 198.25C147.026 199.96 145.991 201.1 144.461 201.1ZM149.523 202H150.723V197.56C150.723 196.27 151.578 195.4 152.853 195.4C154.128 195.4 154.983 196.27 154.983 197.56V202H156.183V197.35C156.183 195.55 154.938 194.35 153.063 194.35C152.193 194.35 151.248 194.8 150.723 195.46V194.5H149.523V202ZM35.8034 220H37.1534V215.08H42.5534V220H43.9034V209.71H42.5534V213.88H37.1534V209.71H35.8034V220ZM45.8487 211.36H47.0487V209.71H45.8487V211.36ZM45.8487 220H47.0487V212.5H45.8487V220ZM52.2567 220.15C53.9367 220.15 55.3767 219.07 55.8567 217.45H54.6567C54.3267 218.44 53.3667 219.1 52.2567 219.1C50.7867 219.1 49.7667 218.05 49.7067 216.49H55.9017L56.0217 216.37C56.0217 213.97 54.5067 212.35 52.2567 212.35C50.0067 212.35 48.4917 213.91 48.4917 216.25C48.4917 218.59 50.0067 220.15 52.2567 220.15ZM49.7667 215.44C50.0367 214.225 51.0417 213.4 52.2567 213.4C53.4717 213.4 54.4767 214.225 54.7467 215.44H49.7667ZM57.4649 220H58.6649V215.62C58.6649 214.285 59.5649 213.4 60.9149 213.4H61.4249V212.5C61.2749 212.41 61.0349 212.35 60.8099 212.35C60.0599 212.35 59.2049 212.83 58.6649 213.535V212.5H57.4649V220ZM65.3206 220.15C66.3256 220.15 67.4056 219.58 67.9906 218.74V220H69.1906V212.5H67.9906V213.76C67.4056 212.92 66.3256 212.35 65.3206 212.35C63.1306 212.35 61.6606 213.91 61.6606 216.25C61.6606 218.59 63.1306 220.15 65.3206 220.15ZM65.4406 219.1C63.8956 219.1 62.8606 217.96 62.8606 216.25C62.8606 214.54 63.8956 213.4 65.4406 213.4C66.9706 213.4 67.9906 214.54 67.9906 216.25C67.9906 217.96 66.9706 219.1 65.4406 219.1ZM70.9854 220H72.1854V215.62C72.1854 214.285 73.0854 213.4 74.4354 213.4H74.9454V212.5C74.7954 212.41 74.5554 212.35 74.3304 212.35C73.5804 212.35 72.7254 212.83 72.1854 213.535V212.5H70.9854V220ZM78.9461 220.15C80.8661 220.15 82.3361 218.86 82.6211 216.955H81.4811C81.2561 218.245 80.2361 219.1 78.9461 219.1C77.4161 219.1 76.3811 217.96 76.3811 216.25C76.3811 214.54 77.4161 213.4 78.9461 213.4C80.2361 213.4 81.2411 214.225 81.4661 215.47H82.6061C82.3211 213.595 80.8511 212.35 78.9461 212.35C76.6961 212.35 75.1811 213.91 75.1811 216.25C75.1811 218.59 76.6961 220.15 78.9461 220.15ZM84.0665 220H85.2665V215.56C85.2665 214.27 86.1215 213.4 87.3965 213.4C88.6715 213.4 89.5265 214.27 89.5265 215.56V220H90.7265V215.35C90.7265 213.55 89.4815 212.35 87.6065 212.35C86.7365 212.35 85.7915 212.8 85.2665 213.46V209.71H84.0665V220ZM93.1142 222.79H94.4042L98.4542 212.5H97.1642L95.0042 218.005L92.8142 212.5H91.5392L94.3892 219.55L93.1142 222.79ZM105.504 220.15C107.754 220.15 109.269 218.59 109.269 216.25C109.269 213.91 107.754 212.35 105.504 212.35C103.254 212.35 101.739 213.91 101.739 216.25C101.739 218.59 103.254 220.15 105.504 220.15ZM105.504 219.1C103.974 219.1 102.939 217.96 102.939 216.25C102.939 214.54 103.974 213.4 105.504 213.4C107.034 213.4 108.069 214.54 108.069 216.25C108.069 217.96 107.034 219.1 105.504 219.1ZM110.715 220H111.915V213.55H113.595V212.5H111.915V211.66C111.915 211.06 112.305 210.655 112.875 210.655H113.595V209.71C113.4 209.62 113.07 209.56 112.785 209.56C111.54 209.56 110.715 210.4 110.715 211.66V212.5H109.515V213.55H110.715V220ZM118.368 222.79H119.658L123.708 212.5H122.418L120.258 218.005L118.068 212.5H116.793L119.643 219.55L118.368 222.79ZM127.769 220.15C130.019 220.15 131.534 218.59 131.534 216.25C131.534 213.91 130.019 212.35 127.769 212.35C125.519 212.35 124.004 213.91 124.004 216.25C124.004 218.59 125.519 220.15 127.769 220.15ZM127.769 219.1C126.239 219.1 125.204 217.96 125.204 216.25C125.204 214.54 126.239 213.4 127.769 213.4C129.299 213.4 130.334 214.54 130.334 216.25C130.334 217.96 129.299 219.1 127.769 219.1ZM139.638 212.5H138.438V216.94C138.438 218.23 137.583 219.1 136.308 219.1C135.033 219.1 134.178 218.23 134.178 216.94V212.5H132.978V217.15C132.978 218.95 134.223 220.15 136.098 220.15C136.968 220.15 137.913 219.7 138.438 219.04V220H139.638V212.5ZM141.444 220H142.644V215.62C142.644 214.285 143.544 213.4 144.894 213.4H145.404V212.5C145.254 212.41 145.014 212.35 144.789 212.35C144.039 212.35 143.184 212.83 142.644 213.535V212.5H141.444V220ZM66.1716 238.15C67.2216 238.15 68.3166 237.58 68.9016 236.725V238H70.1016V227.71H68.9016V231.775C68.3166 230.92 67.2216 230.35 66.1716 230.35C63.9516 230.35 62.4516 231.91 62.4516 234.25C62.4516 236.59 63.9516 238.15 66.1716 238.15ZM66.2916 237.1C64.7166 237.1 63.6516 235.96 63.6516 234.25C63.6516 232.54 64.7166 231.4 66.2916 231.4C67.8516 231.4 68.9016 232.54 68.9016 234.25C68.9016 235.96 67.8516 237.1 66.2916 237.1ZM75.2083 238.15C76.2133 238.15 77.2933 237.58 77.8783 236.74V238H79.0783V230.5H77.8783V231.76C77.2933 230.92 76.2133 230.35 75.2083 230.35C73.0183 230.35 71.5483 231.91 71.5483 234.25C71.5483 236.59 73.0183 238.15 75.2083 238.15ZM75.3283 237.1C73.7833 237.1 72.7483 235.96 72.7483 234.25C72.7483 232.54 73.7833 231.4 75.3283 231.4C76.8583 231.4 77.8783 232.54 77.8783 234.25C77.8783 235.96 76.8583 237.1 75.3283 237.1ZM83.5652 238.15C83.9252 238.15 84.4202 238.09 84.7952 238V237.1H83.4902C82.9202 237.1 82.5302 236.695 82.5302 236.08V231.55H84.7202V230.5H82.5302V227.71H81.3302V230.5H80.1302V231.55H81.3302V236.08C81.3302 237.325 82.2302 238.15 83.5652 238.15ZM89.1536 238.15C90.1586 238.15 91.2386 237.58 91.8236 236.74V238H93.0236V230.5H91.8236V231.76C91.2386 230.92 90.1586 230.35 89.1536 230.35C86.9636 230.35 85.4936 231.91 85.4936 234.25C85.4936 236.59 86.9636 238.15 89.1536 238.15ZM89.2736 237.1C87.7286 237.1 86.6936 235.96 86.6936 234.25C86.6936 232.54 87.7286 231.4 89.2736 231.4C90.8036 231.4 91.8236 232.54 91.8236 234.25C91.8236 235.96 90.8036 237.1 89.2736 237.1ZM97.582 238.15C99.517 238.15 100.807 237.22 100.807 235.84C100.807 234.595 100.027 233.995 97.762 233.53C96.457 233.215 95.992 232.93 95.992 232.42C95.992 231.805 96.637 231.4 97.582 231.4C98.452 231.4 99.187 231.85 99.412 232.525L100.507 232.255C100.102 231.115 98.932 230.35 97.582 230.35C95.917 230.35 94.792 231.22 94.792 232.51C94.792 233.62 95.497 234.16 97.507 234.61C99.082 234.97 99.622 235.3 99.622 235.9C99.622 236.62 98.797 237.1 97.582 237.1C96.322 237.1 95.467 236.44 95.437 235.45H94.312C94.342 237.07 95.662 238.15 97.582 238.15ZM105.65 238.15C107.33 238.15 108.77 237.07 109.25 235.45H108.05C107.72 236.44 106.76 237.1 105.65 237.1C104.18 237.1 103.16 236.05 103.1 234.49H109.295L109.415 234.37C109.415 231.97 107.9 230.35 105.65 230.35C103.4 230.35 101.885 231.91 101.885 234.25C101.885 236.59 103.4 238.15 105.65 238.15ZM103.16 233.44C103.43 232.225 104.435 231.4 105.65 231.4C106.865 231.4 107.87 232.225 108.14 233.44H103.16ZM113.243 238.15C113.603 238.15 114.098 238.09 114.473 238V237.1H113.168C112.598 237.1 112.208 236.695 112.208 236.08V231.55H114.398V230.5H112.208V227.71H111.008V230.5H109.808V231.55H111.008V236.08C111.008 237.325 111.908 238.15 113.243 238.15ZM115.531 238H117.181V236.35H115.531V238Z" fill="black"/>
<path d="M55.9219 155H124.828C127.542 155 129.75 152.792 129.75 150.078V81.1719C129.75 81.1161 129.724 81.0702 129.72 81.0177C129.714 80.9422 129.694 80.8766 129.678 80.8044C129.626 80.5764 129.525 80.3625 129.382 80.1777C129.36 80.1481 129.363 80.112 129.34 80.0825L103.09 50.5512C103.08 50.5414 103.067 50.5414 103.057 50.5316C102.857 50.3223 102.604 50.1704 102.325 50.0919C102.263 50.0722 102.207 50.0656 102.142 50.0558C102.046 50.0394 101.958 50 101.859 50H55.9219C53.2083 50 51 52.2083 51 54.9219V150.078C51 152.792 53.2083 155 55.9219 155ZM103.5 55.9555L124.457 79.5312H105.141C104.419 79.5312 103.5 78.1531 103.5 77.0703V55.9555ZM54.2812 54.9219C54.2812 54.4868 54.4541 54.0695 54.7618 53.7618C55.0695 53.4541 55.4868 53.2812 55.9219 53.2812H100.219V77.0703C100.219 79.7248 102.368 82.8125 105.141 82.8125H126.469V150.078C126.469 150.513 126.296 150.931 125.988 151.238C125.681 151.546 125.263 151.719 124.828 151.719H55.9219C55.0031 151.719 54.2812 150.997 54.2812 150.078V54.9219Z" fill="black"/>
<path d="M58.63 143H59.44V137.816L61.609 143H62.221L64.39 137.816V143H65.2V136.826H64.111L61.915 141.974L59.719 136.826H58.63V143ZM68.3511 143.09C68.9541 143.09 69.6021 142.748 69.9531 142.244V143H70.6731V138.5H69.9531V139.256C69.6021 138.752 68.9541 138.41 68.3511 138.41C67.0371 138.41 66.1551 139.346 66.1551 140.75C66.1551 142.154 67.0371 143.09 68.3511 143.09ZM68.4231 142.46C67.4961 142.46 66.8751 141.776 66.8751 140.75C66.8751 139.724 67.4961 139.04 68.4231 139.04C69.3411 139.04 69.9531 139.724 69.9531 140.75C69.9531 141.776 69.3411 142.46 68.4231 142.46ZM73.4081 143.09C74.5691 143.09 75.3431 142.532 75.3431 141.704C75.3431 140.957 74.8751 140.597 73.5161 140.318C72.7331 140.129 72.4541 139.958 72.4541 139.652C72.4541 139.283 72.8411 139.04 73.4081 139.04C73.9301 139.04 74.3711 139.31 74.5061 139.715L75.1631 139.553C74.9201 138.869 74.2181 138.41 73.4081 138.41C72.4091 138.41 71.7341 138.932 71.7341 139.706C71.7341 140.372 72.1571 140.696 73.3631 140.966C74.3081 141.182 74.6321 141.38 74.6321 141.74C74.6321 142.172 74.1371 142.46 73.4081 142.46C72.6521 142.46 72.1391 142.064 72.1211 141.47H71.4461C71.4641 142.442 72.2561 143.09 73.4081 143.09ZM77.8212 143.09C78.0372 143.09 78.3342 143.054 78.5592 143V142.46H77.7762C77.4342 142.46 77.2002 142.217 77.2002 141.848V139.13H78.5142V138.5H77.2002V136.826H76.4802V138.5H75.7602V139.13H76.4802V141.848C76.4802 142.595 77.0202 143.09 77.8212 143.09ZM81.2373 143.09C82.2453 143.09 83.1093 142.442 83.3973 141.47H82.6773C82.4793 142.064 81.9033 142.46 81.2373 142.46C80.3553 142.46 79.7433 141.83 79.7073 140.894H83.4243L83.4963 140.822C83.4963 139.382 82.5873 138.41 81.2373 138.41C79.8873 138.41 78.9783 139.346 78.9783 140.75C78.9783 142.154 79.8873 143.09 81.2373 143.09ZM79.7433 140.264C79.9053 139.535 80.5083 139.04 81.2373 139.04C81.9663 139.04 82.5693 139.535 82.7313 140.264H79.7433ZM84.3623 143H85.0823V140.372C85.0823 139.571 85.6223 139.04 86.4323 139.04H86.7383V138.5C86.6483 138.446 86.5043 138.41 86.3693 138.41C85.9193 138.41 85.4063 138.698 85.0823 139.121V138.5H84.3623V143ZM87.5439 143H88.2639V136.826H87.5439V143ZM89.5214 137.816H90.2414V136.826H89.5214V137.816ZM89.5214 143H90.2414V138.5H89.5214V143ZM93.0692 143.09C94.2302 143.09 95.0042 142.532 95.0042 141.704C95.0042 140.957 94.5362 140.597 93.1772 140.318C92.3942 140.129 92.1152 139.958 92.1152 139.652C92.1152 139.283 92.5022 139.04 93.0692 139.04C93.5912 139.04 94.0322 139.31 94.1672 139.715L94.8242 139.553C94.5812 138.869 93.8792 138.41 93.0692 138.41C92.0702 138.41 91.3952 138.932 91.3952 139.706C91.3952 140.372 91.8182 140.696 93.0242 140.966C93.9692 141.182 94.2932 141.38 94.2932 141.74C94.2932 142.172 93.7982 142.46 93.0692 142.46C92.3132 142.46 91.8002 142.064 91.7822 141.47H91.1072C91.1252 142.442 91.9172 143.09 93.0692 143.09ZM97.4824 143.09C97.6984 143.09 97.9954 143.054 98.2204 143V142.46H97.4374C97.0954 142.46 96.8614 142.217 96.8614 141.848V139.13H98.1754V138.5H96.8614V136.826H96.1414V138.5H95.4214V139.13H96.1414V141.848C96.1414 142.595 96.6814 143.09 97.4824 143.09ZM101.09 143H103.295C105.059 143 106.238 141.758 106.238 139.904C106.238 138.059 105.059 136.826 103.295 136.826H101.09V143ZM101.9 142.28V137.546H103.295C104.573 137.546 105.428 138.491 105.428 139.904C105.428 141.326 104.573 142.28 103.295 142.28H101.9ZM109.143 143.09C110.493 143.09 111.402 142.154 111.402 140.75C111.402 139.346 110.493 138.41 109.143 138.41C107.793 138.41 106.884 139.346 106.884 140.75C106.884 142.154 107.793 143.09 109.143 143.09ZM109.143 142.46C108.225 142.46 107.604 141.776 107.604 140.75C107.604 139.724 108.225 139.04 109.143 139.04C110.061 139.04 110.682 139.724 110.682 140.75C110.682 141.776 110.061 142.46 109.143 142.46ZM112.18 143H112.9V140.336C112.9 139.562 113.413 139.04 114.178 139.04C114.943 139.04 115.456 139.562 115.456 140.336V143H116.176V140.21C116.176 139.13 115.429 138.41 114.304 138.41C113.782 138.41 113.215 138.68 112.9 139.076V138.5H112.18V143ZM119.215 143.09C120.223 143.09 121.087 142.442 121.375 141.47H120.655C120.457 142.064 119.881 142.46 119.215 142.46C118.333 142.46 117.721 141.83 117.685 140.894H121.402L121.474 140.822C121.474 139.382 120.565 138.41 119.215 138.41C117.865 138.41 116.956 139.346 116.956 140.75C116.956 142.154 117.865 143.09 119.215 143.09ZM117.721 140.264C117.883 139.535 118.486 139.04 119.215 139.04C119.944 139.04 120.547 139.535 120.709 140.264H117.721Z" fill="black"/>
<path d="M62.025 25.15C64.575 25.15 66.285 23.92 66.285 22.075C66.285 20.5 65.22 19.705 62.16 18.985C60.255 18.55 59.595 18.16 59.595 17.44C59.595 16.435 60.57 15.76 62.025 15.76C63.375 15.76 64.47 16.585 64.74 17.815L65.97 17.515C65.535 15.745 63.945 14.56 62.025 14.56C59.76 14.56 58.245 15.715 58.245 17.44C58.245 18.88 59.19 19.6 61.89 20.23C64.155 20.755 64.935 21.235 64.935 22.075C64.935 23.2 63.765 23.95 62.025 23.95C60.105 23.95 58.815 22.945 58.815 21.46H57.54C57.54 23.665 59.34 25.15 62.025 25.15ZM69.8585 25H71.2085V15.91H74.3885V14.71H66.6785V15.91H69.8585V25ZM75.8918 25H77.2418V20.08H79.3718L82.4318 25H84.0218L80.9468 20.05C82.3868 19.87 83.3618 18.805 83.3618 17.395C83.3618 15.79 82.1468 14.71 80.3468 14.71H75.8918V25ZM77.2418 18.88V15.91H80.3468C81.3368 15.91 82.0118 16.51 82.0118 17.395C82.0118 18.28 81.3368 18.88 80.3468 18.88H77.2418ZM88.9513 25.15C91.3813 25.15 93.0013 23.545 93.0013 21.145V14.71H91.6513V21.145C91.6513 22.825 90.5713 23.95 88.9513 23.95C87.3163 23.95 86.2213 22.825 86.2213 21.145V14.71H84.8713V21.145C84.8713 23.545 86.5063 25.15 88.9513 25.15ZM99.4644 25.15C101.894 25.15 103.859 23.47 104.354 20.965H103.049C102.659 22.75 101.219 23.95 99.4644 23.95C97.2594 23.95 95.7894 22.3 95.7894 19.855C95.7894 17.41 97.2594 15.76 99.4644 15.76C101.114 15.76 102.524 16.855 102.989 18.505H104.309C103.769 16.15 101.819 14.56 99.4644 14.56C96.4494 14.56 94.4394 16.69 94.4394 19.855C94.4394 23.02 96.4494 25.15 99.4644 25.15ZM108.076 25H109.426V15.91H112.606V14.71H104.896V15.91H108.076V25ZM118.19 25.15C120.62 25.15 122.24 23.545 122.24 21.145V14.71H120.89V21.145C120.89 22.825 119.81 23.95 118.19 23.95C116.555 23.95 115.46 22.825 115.46 21.145V14.71H114.11V21.145C114.11 23.545 115.745 25.15 118.19 25.15ZM124.334 25H125.684V20.08H127.814L130.874 25H132.464L129.389 20.05C130.829 19.87 131.804 18.805 131.804 17.395C131.804 15.79 130.589 14.71 128.789 14.71H124.334V25ZM125.684 18.88V15.91H128.789C129.779 15.91 130.454 16.51 130.454 17.395C130.454 18.28 129.779 18.88 128.789 18.88H125.684ZM134.061 25H140.706V23.8H135.411V20.08H140.166V18.88H135.411V15.91H140.706V14.71H134.061V25Z" fill="black"/>
<rect x="0.5" y="0.5" width="179" height="249" stroke="#E0E0E0"/>
<path d="M98.9149 105.17H109.128C109.917 105.169 110.675 104.855 111.233 104.297C111.791 103.738 112.105 102.981 112.106 102.191V91.9787C112.105 91.189 111.791 90.4319 111.233 89.8734C110.675 89.315 109.917 89.0009 109.128 89H98.9149C98.1252 89.0009 97.368 89.315 96.8096 89.8734C96.2512 90.4319 95.9371 91.189 95.9362 91.9787V95.8085H93.8085C92.1162 95.8104 90.4938 96.4835 89.2972 97.6802C88.1006 98.8768 87.4274 100.499 87.4255 102.191V107.723H81.4681V104.745C81.4672 103.955 81.1531 103.198 80.5946 102.639C80.0362 102.081 79.2791 101.767 78.4894 101.766H69.9787C69.189 101.767 68.4319 102.081 67.8734 102.639C67.315 103.198 67.0009 103.955 67 104.745V113.255C67.0009 114.045 67.315 114.802 67.8734 115.361C68.4319 115.919 69.189 116.233 69.9787 116.234H78.4894C79.2791 116.233 80.0362 115.919 80.5946 115.361C81.1531 114.802 81.4672 114.045 81.4681 113.255V110.277H87.4255V115.809C87.4274 117.501 88.1006 119.123 89.2972 120.32C90.4938 121.516 92.1162 122.19 93.8085 122.191H95.9362V126.021C95.9371 126.811 96.2512 127.568 96.8096 128.127C97.368 128.685 98.1252 128.999 98.9149 129H109.128C109.917 128.999 110.675 128.685 111.233 128.127C111.791 127.568 112.105 126.811 112.106 126.021V115.809C112.105 115.019 111.791 114.262 111.233 113.703C110.675 113.145 109.917 112.831 109.128 112.83H98.9149C98.1252 112.831 97.368 113.145 96.8096 113.703C96.2512 114.262 95.9371 115.019 95.9362 115.809V119.638H93.8085C92.7931 119.637 91.8197 119.233 91.1017 118.515C90.3837 117.797 89.9798 116.824 89.9787 115.809V102.191C89.9798 101.176 90.3837 100.203 91.1017 99.4847C91.8197 98.7667 92.7931 98.3628 93.8085 98.3617H95.9362V102.191C95.9371 102.981 96.2512 103.738 96.8096 104.297C97.368 104.855 98.1252 105.169 98.9149 105.17ZM78.9149 113.255C78.9147 113.368 78.8698 113.476 78.7901 113.556C78.7103 113.636 78.6022 113.681 78.4894 113.681H69.9787C69.8659 113.681 69.7578 113.636 69.678 113.556C69.5982 113.476 69.5534 113.368 69.5532 113.255V104.745C69.5534 104.632 69.5982 104.524 69.678 104.444C69.7578 104.364 69.8659 104.319 69.9787 104.319H78.4894C78.6022 104.319 78.7103 104.364 78.7901 104.444C78.8698 104.524 78.9147 104.632 78.9149 104.745V113.255ZM98.4894 115.809C98.4895 115.696 98.5344 115.588 98.6142 115.508C98.694 115.428 98.8021 115.383 98.9149 115.383H109.128C109.24 115.383 109.349 115.428 109.428 115.508C109.508 115.588 109.553 115.696 109.553 115.809V126.021C109.553 126.134 109.508 126.242 109.428 126.322C109.349 126.402 109.24 126.447 109.128 126.447H98.9149C98.8021 126.447 98.694 126.402 98.6142 126.322C98.5344 126.242 98.4895 126.134 98.4894 126.021V115.809ZM98.4894 91.9787C98.4895 91.8659 98.5344 91.7578 98.6142 91.678C98.694 91.5982 98.8021 91.5534 98.9149 91.5532H109.128C109.24 91.5534 109.349 91.5982 109.428 91.678C109.508 91.7578 109.553 91.8659 109.553 91.9787V102.191C109.553 102.304 109.508 102.412 109.428 102.492C109.349 102.572 109.24 102.617 109.128 102.617H98.9149C98.8021 102.617 98.694 102.572 98.6142 102.492C98.5344 102.412 98.4895 102.304 98.4894 102.191V91.9787Z" fill="#1BA94C"/>
</svg>
