<svg width="180" height="250" viewBox="0 0 180 250" fill="none" xmlns="http://www.w3.org/2000/svg">
<path d="M15.5866 184H16.9366V179.575H19.8316C21.7666 179.575 23.0566 178.39 23.0566 176.62C23.0566 174.88 21.7666 173.71 19.8316 173.71H15.5866V184ZM16.9366 178.375V174.91H19.8316C20.9566 174.91 21.7066 175.6 21.7066 176.62C21.7066 177.67 20.9566 178.375 19.8316 178.375H16.9366ZM27.0008 184.15C28.6808 184.15 30.1208 183.07 30.6008 181.45H29.4008C29.0708 182.44 28.1108 183.1 27.0008 183.1C25.5308 183.1 24.5108 182.05 24.4508 180.49H30.6458L30.7658 180.37C30.7658 177.97 29.2508 176.35 27.0008 176.35C24.7508 176.35 23.2358 177.91 23.2358 180.25C23.2358 182.59 24.7508 184.15 27.0008 184.15ZM24.5108 179.44C24.7808 178.225 25.7858 177.4 27.0008 177.4C28.2158 177.4 29.2208 178.225 29.4908 179.44H24.5108ZM39.2061 174.655H39.9261V173.71C39.7311 173.62 39.4011 173.56 39.1161 173.56C37.8711 173.56 37.0461 174.4 37.0461 175.66V176.5H35.8461H35.2611C34.4511 176.5 33.5811 176.92 33.1161 177.535V176.5H31.9161V184H33.1161V179.77C33.1161 178.435 34.0161 177.55 35.3661 177.55H35.4861H37.0461V184H38.2461V177.55H39.9261V176.5H38.2461V175.66C38.2461 175.06 38.6361 174.655 39.2061 174.655ZM43.9344 184.15C46.1844 184.15 47.6994 182.59 47.6994 180.25C47.6994 177.91 46.1844 176.35 43.9344 176.35C41.6844 176.35 40.1694 177.91 40.1694 180.25C40.1694 182.59 41.6844 184.15 43.9344 184.15ZM43.9344 183.1C42.4044 183.1 41.3694 181.96 41.3694 180.25C41.3694 178.54 42.4044 177.4 43.9344 177.4C45.4644 177.4 46.4994 178.54 46.4994 180.25C46.4994 181.96 45.4644 183.1 43.9344 183.1ZM48.9962 184H50.1962V179.62C50.1962 178.285 51.0962 177.4 52.4462 177.4H52.9562V176.5C52.8062 176.41 52.5662 176.35 52.3412 176.35C51.5912 176.35 50.7362 176.83 50.1962 177.535V176.5H48.9962V184ZM54.1524 184H55.3524V178.945C55.3524 178.015 56.0274 177.4 57.0174 177.4C58.0074 177.4 58.6824 178.015 58.6824 178.945V184H59.8824V178.945C59.8824 178.015 60.5574 177.4 61.5474 177.4C62.5374 177.4 63.2124 178.015 63.2124 178.945V184H64.4124V178.825C64.4124 177.34 63.3174 176.35 61.6674 176.35C60.7824 176.35 59.8824 176.815 59.4024 177.49C58.9224 176.815 58.0674 176.35 57.2724 176.35C56.5374 176.35 55.7724 176.74 55.3524 177.34V176.5H54.1524V184ZM69.7823 186.79H70.9823V182.725C71.5673 183.58 72.6623 184.15 73.7273 184.15C75.9473 184.15 77.4323 182.59 77.4323 180.25C77.4323 177.91 75.9473 176.35 73.7273 176.35C72.6623 176.35 71.5673 176.92 70.9823 177.775V176.5H69.7823V186.79ZM73.6073 183.1C72.0323 183.1 70.9823 181.96 70.9823 180.25C70.9823 178.54 72.0323 177.4 73.6073 177.4C75.1823 177.4 76.2323 178.54 76.2323 180.25C76.2323 181.96 75.1823 183.1 73.6073 183.1ZM78.7325 184H79.9325V179.62C79.9325 178.285 80.8325 177.4 82.1825 177.4H82.6925V176.5C82.5425 176.41 82.3025 176.35 82.0775 176.35C81.3275 176.35 80.4725 176.83 79.9325 177.535V176.5H78.7325V184ZM86.6932 184.15C88.3732 184.15 89.8132 183.07 90.2932 181.45H89.0932C88.7632 182.44 87.8032 183.1 86.6932 183.1C85.2232 183.1 84.2032 182.05 84.1432 180.49H90.3382L90.4582 180.37C90.4582 177.97 88.9432 176.35 86.6932 176.35C84.4432 176.35 82.9282 177.91 82.9282 180.25C82.9282 182.59 84.4432 184.15 86.6932 184.15ZM84.2032 179.44C84.4732 178.225 85.4782 177.4 86.6932 177.4C87.9082 177.4 88.9132 178.225 89.1832 179.44H84.2032ZM95.2615 184.15C96.3115 184.15 97.4065 183.58 97.9915 182.725V184H99.1915V173.71H97.9915V177.775C97.4065 176.92 96.3115 176.35 95.2615 176.35C93.0415 176.35 91.5415 177.91 91.5415 180.25C91.5415 182.59 93.0415 184.15 95.2615 184.15ZM95.3815 183.1C93.8065 183.1 92.7415 181.96 92.7415 180.25C92.7415 178.54 93.8065 177.4 95.3815 177.4C96.9415 177.4 97.9915 178.54 97.9915 180.25C97.9915 181.96 96.9415 183.1 95.3815 183.1ZM101.291 175.36H102.491V173.71H101.291V175.36ZM101.291 184H102.491V176.5H101.291V184ZM107.699 184.15C109.619 184.15 111.089 182.86 111.374 180.955H110.234C110.009 182.245 108.989 183.1 107.699 183.1C106.169 183.1 105.134 181.96 105.134 180.25C105.134 178.54 106.169 177.4 107.699 177.4C108.989 177.4 109.994 178.225 110.219 179.47H111.359C111.074 177.595 109.604 176.35 107.699 176.35C105.449 176.35 103.934 177.91 103.934 180.25C103.934 182.59 105.449 184.15 107.699 184.15ZM115.204 184.15C115.564 184.15 116.059 184.09 116.434 184V183.1H115.129C114.559 183.1 114.169 182.695 114.169 182.08V177.55H116.359V176.5H114.169V173.71H112.969V176.5H111.769V177.55H112.969V182.08C112.969 183.325 113.869 184.15 115.204 184.15ZM118.078 175.36H119.278V173.71H118.078V175.36ZM118.078 184H119.278V176.5H118.078V184ZM124.486 184.15C126.736 184.15 128.251 182.59 128.251 180.25C128.251 177.91 126.736 176.35 124.486 176.35C122.236 176.35 120.721 177.91 120.721 180.25C120.721 182.59 122.236 184.15 124.486 184.15ZM124.486 183.1C122.956 183.1 121.921 181.96 121.921 180.25C121.921 178.54 122.956 177.4 124.486 177.4C126.016 177.4 127.051 178.54 127.051 180.25C127.051 181.96 126.016 183.1 124.486 183.1ZM129.548 184H130.748V179.56C130.748 178.27 131.603 177.4 132.878 177.4C134.153 177.4 135.008 178.27 135.008 179.56V184H136.208V179.35C136.208 177.55 134.963 176.35 133.088 176.35C132.218 176.35 131.273 176.8 130.748 177.46V176.5H129.548V184ZM140.778 184.15C142.713 184.15 144.003 183.22 144.003 181.84C144.003 180.595 143.223 179.995 140.958 179.53C139.653 179.215 139.188 178.93 139.188 178.42C139.188 177.805 139.833 177.4 140.778 177.4C141.648 177.4 142.383 177.85 142.608 178.525L143.703 178.255C143.298 177.115 142.128 176.35 140.778 176.35C139.113 176.35 137.988 177.22 137.988 178.51C137.988 179.62 138.693 180.16 140.703 180.61C142.278 180.97 142.818 181.3 142.818 181.9C142.818 182.62 141.993 183.1 140.778 183.1C139.518 183.1 138.663 182.44 138.633 181.45H137.508C137.538 183.07 138.858 184.15 140.778 184.15ZM151.835 184.15C154.085 184.15 155.6 182.59 155.6 180.25C155.6 177.91 154.085 176.35 151.835 176.35C149.585 176.35 148.07 177.91 148.07 180.25C148.07 182.59 149.585 184.15 151.835 184.15ZM151.835 183.1C150.305 183.1 149.27 181.96 149.27 180.25C149.27 178.54 150.305 177.4 151.835 177.4C153.365 177.4 154.4 178.54 154.4 180.25C154.4 181.96 153.365 183.1 151.835 183.1ZM156.897 184H158.097V179.56C158.097 178.27 158.952 177.4 160.227 177.4C161.502 177.4 162.357 178.27 162.357 179.56V184H163.557V179.35C163.557 177.55 162.312 176.35 160.437 176.35C159.567 176.35 158.622 176.8 158.097 177.46V176.5H156.897V184ZM23.3581 202.15C23.7181 202.15 24.2131 202.09 24.5881 202V201.1H23.2831C22.7131 201.1 22.3231 200.695 22.3231 200.08V195.55H24.5131V194.5H22.3231V191.71H21.1231V194.5H19.9231V195.55H21.1231V200.08C21.1231 201.325 22.0231 202.15 23.3581 202.15ZM25.9396 202H27.1396V197.56C27.1396 196.27 27.9946 195.4 29.2696 195.4C30.5446 195.4 31.3996 196.27 31.3996 197.56V202H32.5996V197.35C32.5996 195.55 31.3546 194.35 29.4796 194.35C28.6096 194.35 27.6646 194.8 27.1396 195.46V191.71H25.9396V202ZM37.6649 202.15C39.3449 202.15 40.7849 201.07 41.2649 199.45H40.0649C39.7349 200.44 38.7749 201.1 37.6649 201.1C36.1949 201.1 35.1749 200.05 35.1149 198.49H41.3099L41.4299 198.37C41.4299 195.97 39.9149 194.35 37.6649 194.35C35.4149 194.35 33.8999 195.91 33.8999 198.25C33.8999 200.59 35.4149 202.15 37.6649 202.15ZM35.1749 197.44C35.4449 196.225 36.4499 195.4 37.6649 195.4C38.8799 195.4 39.8849 196.225 40.1549 197.44H35.1749ZM46.1544 193.36H47.3544V191.71H46.1544V193.36ZM46.1544 202H47.3544V194.5H46.1544V202ZM49.1573 202H50.3573V197.56C50.3573 196.27 51.2123 195.4 52.4873 195.4C53.7623 195.4 54.6173 196.27 54.6173 197.56V202H55.8173V197.35C55.8173 195.55 54.5723 194.35 52.6973 194.35C51.8273 194.35 50.8823 194.8 50.3573 195.46V194.5H49.1573V202ZM63.1512 194.5V195.7C62.5962 194.89 61.5612 194.35 60.5562 194.35C58.4112 194.35 56.9712 195.88 56.9712 198.175C56.9712 200.47 58.4112 202 60.5562 202C61.5612 202 62.6112 201.46 63.1512 200.665V201.19C63.1512 202.81 62.1462 203.89 60.6612 203.89C59.4462 203.89 58.4862 203.125 58.2612 202H57.1362C57.4362 203.755 58.8462 204.94 60.6612 204.94C62.8662 204.94 64.3512 203.44 64.3512 201.19V194.5H63.1512ZM60.6762 200.95C59.1762 200.95 58.1712 199.84 58.1712 198.175C58.1712 196.51 59.1762 195.4 60.6762 195.4C62.1612 195.4 63.1512 196.51 63.1512 198.175C63.1512 199.84 62.1612 200.95 60.6762 200.95ZM69.408 202.15C71.088 202.15 72.528 201.07 73.008 199.45H71.808C71.478 200.44 70.518 201.1 69.408 201.1C67.938 201.1 66.918 200.05 66.858 198.49H73.053L73.173 198.37C73.173 195.97 71.658 194.35 69.408 194.35C67.158 194.35 65.643 195.91 65.643 198.25C65.643 200.59 67.158 202.15 69.408 202.15ZM66.918 197.44C67.188 196.225 68.193 195.4 69.408 195.4C70.623 195.4 71.628 196.225 71.898 197.44H66.918ZM77.0722 202.15C79.0072 202.15 80.2972 201.22 80.2972 199.84C80.2972 198.595 79.5172 197.995 77.2522 197.53C75.9472 197.215 75.4822 196.93 75.4822 196.42C75.4822 195.805 76.1272 195.4 77.0722 195.4C77.9422 195.4 78.6772 195.85 78.9022 196.525L79.9972 196.255C79.5922 195.115 78.4222 194.35 77.0722 194.35C75.4072 194.35 74.2822 195.22 74.2822 196.51C74.2822 197.62 74.9872 198.16 76.9972 198.61C78.5722 198.97 79.1122 199.3 79.1122 199.9C79.1122 200.62 78.2872 201.1 77.0722 201.1C75.8122 201.1 74.9572 200.44 74.9272 199.45H73.8022C73.8322 201.07 75.1522 202.15 77.0722 202.15ZM84.4275 202.15C84.7875 202.15 85.2825 202.09 85.6575 202V201.1H84.3525C83.7825 201.1 83.3925 200.695 83.3925 200.08V195.55H85.5825V194.5H83.3925V191.71H82.1925V194.5H80.9925V195.55H82.1925V200.08C82.1925 201.325 83.0925 202.15 84.4275 202.15ZM90.1209 202.15C91.8009 202.15 93.2409 201.07 93.7209 199.45H92.5209C92.1909 200.44 91.2309 201.1 90.1209 201.1C88.6509 201.1 87.6309 200.05 87.5709 198.49H93.7659L93.8859 198.37C93.8859 195.97 92.3709 194.35 90.1209 194.35C87.8709 194.35 86.3559 195.91 86.3559 198.25C86.3559 200.59 87.8709 202.15 90.1209 202.15ZM87.6309 197.44C87.9009 196.225 88.9059 195.4 90.1209 195.4C91.3359 195.4 92.3409 196.225 92.6109 197.44H87.6309ZM98.6892 202.15C99.7392 202.15 100.834 201.58 101.419 200.725V202H102.619V191.71H101.419V195.775C100.834 194.92 99.7392 194.35 98.6892 194.35C96.4692 194.35 94.9692 195.91 94.9692 198.25C94.9692 200.59 96.4692 202.15 98.6892 202.15ZM98.8092 201.1C97.2342 201.1 96.1692 199.96 96.1692 198.25C96.1692 196.54 97.2342 195.4 98.8092 195.4C100.369 195.4 101.419 196.54 101.419 198.25C101.419 199.96 100.369 201.1 98.8092 201.1ZM111.067 202.15C112.117 202.15 113.212 201.58 113.797 200.725V202H114.997V191.71H113.797V195.775C113.212 194.92 112.117 194.35 111.067 194.35C108.847 194.35 107.347 195.91 107.347 198.25C107.347 200.59 108.847 202.15 111.067 202.15ZM111.187 201.1C109.612 201.1 108.547 199.96 108.547 198.25C108.547 196.54 109.612 195.4 111.187 195.4C112.747 195.4 113.797 196.54 113.797 198.25C113.797 199.96 112.747 201.1 111.187 201.1ZM120.104 202.15C121.109 202.15 122.189 201.58 122.774 200.74V202H123.974V194.5H122.774V195.76C122.189 194.92 121.109 194.35 120.104 194.35C117.914 194.35 116.444 195.91 116.444 198.25C116.444 200.59 117.914 202.15 120.104 202.15ZM120.224 201.1C118.679 201.1 117.644 199.96 117.644 198.25C117.644 196.54 118.679 195.4 120.224 195.4C121.754 195.4 122.774 196.54 122.774 198.25C122.774 199.96 121.754 201.1 120.224 201.1ZM128.461 202.15C128.821 202.15 129.316 202.09 129.691 202V201.1H128.386C127.816 201.1 127.426 200.695 127.426 200.08V195.55H129.616V194.5H127.426V191.71H126.226V194.5H125.026V195.55H126.226V200.08C126.226 201.325 127.126 202.15 128.461 202.15ZM134.049 202.15C135.054 202.15 136.134 201.58 136.719 200.74V202H137.919V194.5H136.719V195.76C136.134 194.92 135.054 194.35 134.049 194.35C131.859 194.35 130.389 195.91 130.389 198.25C130.389 200.59 131.859 202.15 134.049 202.15ZM134.169 201.1C132.624 201.1 131.589 199.96 131.589 198.25C131.589 196.54 132.624 195.4 134.169 195.4C135.699 195.4 136.719 196.54 136.719 198.25C136.719 199.96 135.699 201.1 134.169 201.1ZM142.477 202.15C144.412 202.15 145.702 201.22 145.702 199.84C145.702 198.595 144.922 197.995 142.657 197.53C141.352 197.215 140.887 196.93 140.887 196.42C140.887 195.805 141.532 195.4 142.477 195.4C143.347 195.4 144.082 195.85 144.307 196.525L145.402 196.255C144.997 195.115 143.827 194.35 142.477 194.35C140.812 194.35 139.687 195.22 139.687 196.51C139.687 197.62 140.392 198.16 142.402 198.61C143.977 198.97 144.517 199.3 144.517 199.9C144.517 200.62 143.692 201.1 142.477 201.1C141.217 201.1 140.362 200.44 140.332 199.45H139.207C139.237 201.07 140.557 202.15 142.477 202.15ZM150.546 202.15C152.226 202.15 153.666 201.07 154.146 199.45H152.946C152.616 200.44 151.656 201.1 150.546 201.1C149.076 201.1 148.056 200.05 147.996 198.49H154.191L154.311 198.37C154.311 195.97 152.796 194.35 150.546 194.35C148.296 194.35 146.781 195.91 146.781 198.25C146.781 200.59 148.296 202.15 150.546 202.15ZM148.056 197.44C148.326 196.225 149.331 195.4 150.546 195.4C151.761 195.4 152.766 196.225 153.036 197.44H148.056ZM158.138 202.15C158.498 202.15 158.993 202.09 159.368 202V201.1H158.063C157.493 201.1 157.103 200.695 157.103 200.08V195.55H159.293V194.5H157.103V191.71H155.903V194.5H154.703V195.55H155.903V200.08C155.903 201.325 156.803 202.15 158.138 202.15ZM29.2686 220H30.4986L32.0736 214.165L33.6486 220H34.8786L37.4586 212.5H36.1986L34.2936 218.635L32.6286 212.5H31.5336L29.8536 218.635L27.9486 212.5H26.6886L29.2686 220ZM38.713 211.36H39.913V209.71H38.713V211.36ZM38.713 220H39.913V212.5H38.713V220ZM44.7009 220.15C45.0609 220.15 45.5559 220.09 45.9309 220V219.1H44.6259C44.0559 219.1 43.6659 218.695 43.6659 218.08V213.55H45.8559V212.5H43.6659V209.71H42.4659V212.5H41.2659V213.55H42.4659V218.08C42.4659 219.325 43.3659 220.15 44.7009 220.15ZM47.2823 220H48.4823V215.56C48.4823 214.27 49.3373 213.4 50.6123 213.4C51.8873 213.4 52.7423 214.27 52.7423 215.56V220H53.9423V215.35C53.9423 213.55 52.6973 212.35 50.8223 212.35C49.9523 212.35 49.0073 212.8 48.4823 213.46V209.71H47.2823V220ZM59.0076 220.15C61.2576 220.15 62.7726 218.59 62.7726 216.25C62.7726 213.91 61.2576 212.35 59.0076 212.35C56.7576 212.35 55.2426 213.91 55.2426 216.25C55.2426 218.59 56.7576 220.15 59.0076 220.15ZM59.0076 219.1C57.4776 219.1 56.4426 217.96 56.4426 216.25C56.4426 214.54 57.4776 213.4 59.0076 213.4C60.5376 213.4 61.5726 214.54 61.5726 216.25C61.5726 217.96 60.5376 219.1 59.0076 219.1ZM70.8759 212.5H69.6759V216.94C69.6759 218.23 68.8209 219.1 67.5459 219.1C66.2709 219.1 65.4159 218.23 65.4159 216.94V212.5H64.2159V217.15C64.2159 218.95 65.4609 220.15 67.3359 220.15C68.2059 220.15 69.1509 219.7 69.6759 219.04V220H70.8759V212.5ZM75.5212 220.15C75.8812 220.15 76.3762 220.09 76.7512 220V219.1H75.4462C74.8762 219.1 74.4862 218.695 74.4862 218.08V213.55H76.6762V212.5H74.4862V209.71H73.2862V212.5H72.0862V213.55H73.2862V218.08C73.2862 219.325 74.1862 220.15 75.5212 220.15ZM82.9698 220H84.1998L85.7748 214.165L87.3498 220H88.5798L91.1598 212.5H89.8998L87.9948 218.635L86.3298 212.5H85.2348L83.5548 218.635L81.6498 212.5H80.3898L82.9698 220ZM92.2677 220H93.4677V215.62C93.4677 214.285 94.3677 213.4 95.7177 213.4H96.2277V212.5C96.0777 212.41 95.8377 212.35 95.6127 212.35C94.8627 212.35 94.0077 212.83 93.4677 213.535V212.5H92.2677V220ZM97.4239 211.36H98.6239V209.71H97.4239V211.36ZM97.4239 220H98.6239V212.5H97.4239V220ZM103.412 220.15C103.772 220.15 104.267 220.09 104.642 220V219.1H103.337C102.767 219.1 102.377 218.695 102.377 218.08V213.55H104.567V212.5H102.377V209.71H101.177V212.5H99.9769V213.55H101.177V218.08C101.177 219.325 102.077 220.15 103.412 220.15ZM106.286 211.36H107.486V209.71H106.286V211.36ZM106.286 220H107.486V212.5H106.286V220ZM109.289 220H110.489V215.56C110.489 214.27 111.344 213.4 112.619 213.4C113.894 213.4 114.749 214.27 114.749 215.56V220H115.949V215.35C115.949 213.55 114.704 212.35 112.829 212.35C111.959 212.35 111.014 212.8 110.489 213.46V212.5H109.289V220ZM123.283 212.5V213.7C122.728 212.89 121.693 212.35 120.688 212.35C118.543 212.35 117.103 213.88 117.103 216.175C117.103 218.47 118.543 220 120.688 220C121.693 220 122.743 219.46 123.283 218.665V219.19C123.283 220.81 122.278 221.89 120.793 221.89C119.578 221.89 118.618 221.125 118.393 220H117.268C117.568 221.755 118.978 222.94 120.793 222.94C122.998 222.94 124.483 221.44 124.483 219.19V212.5H123.283ZM120.808 218.95C119.308 218.95 118.303 217.84 118.303 216.175C118.303 214.51 119.308 213.4 120.808 213.4C122.293 213.4 123.283 214.51 123.283 216.175C123.283 217.84 122.293 218.95 120.808 218.95ZM133.156 220.15C134.161 220.15 135.241 219.58 135.826 218.74V220H137.026V212.5H135.826V213.76C135.241 212.92 134.161 212.35 133.156 212.35C130.966 212.35 129.496 213.91 129.496 216.25C129.496 218.59 130.966 220.15 133.156 220.15ZM133.276 219.1C131.731 219.1 130.696 217.96 130.696 216.25C130.696 214.54 131.731 213.4 133.276 213.4C134.806 213.4 135.826 214.54 135.826 216.25C135.826 217.96 134.806 219.1 133.276 219.1ZM138.82 220H140.02V215.56C140.02 214.27 140.875 213.4 142.15 213.4C143.425 213.4 144.28 214.27 144.28 215.56V220H145.48V215.35C145.48 213.55 144.235 212.35 142.36 212.35C141.49 212.35 140.545 212.8 140.02 213.46V212.5H138.82V220ZM147.868 222.79H149.158L153.208 212.5H151.918L149.758 218.005L147.568 212.5H146.293L149.143 219.55L147.868 222.79ZM74.9525 238.15C76.8725 238.15 78.3425 236.86 78.6275 234.955H77.4875C77.2625 236.245 76.2425 237.1 74.9525 237.1C73.4225 237.1 72.3875 235.96 72.3875 234.25C72.3875 232.54 73.4225 231.4 74.9525 231.4C76.2425 231.4 77.2475 232.225 77.4725 233.47H78.6125C78.3275 231.595 76.8575 230.35 74.9525 230.35C72.7025 230.35 71.1875 231.91 71.1875 234.25C71.1875 236.59 72.7025 238.15 74.9525 238.15ZM83.4779 238.15C85.7279 238.15 87.2429 236.59 87.2429 234.25C87.2429 231.91 85.7279 230.35 83.4779 230.35C81.2279 230.35 79.7129 231.91 79.7129 234.25C79.7129 236.59 81.2279 238.15 83.4779 238.15ZM83.4779 237.1C81.9479 237.1 80.9129 235.96 80.9129 234.25C80.9129 232.54 81.9479 231.4 83.4779 231.4C85.0079 231.4 86.0429 232.54 86.0429 234.25C86.0429 235.96 85.0079 237.1 83.4779 237.1ZM92.0461 238.15C93.0961 238.15 94.1911 237.58 94.7761 236.725V238H95.9761V227.71H94.7761V231.775C94.1911 230.92 93.0961 230.35 92.0461 230.35C89.8261 230.35 88.3261 231.91 88.3261 234.25C88.3261 236.59 89.8261 238.15 92.0461 238.15ZM92.1661 237.1C90.5911 237.1 89.5261 235.96 89.5261 234.25C89.5261 232.54 90.5911 231.4 92.1661 231.4C93.7261 231.4 94.7761 232.54 94.7761 234.25C94.7761 235.96 93.7261 237.1 92.1661 237.1ZM101.188 238.15C102.868 238.15 104.308 237.07 104.788 235.45H103.588C103.258 236.44 102.298 237.1 101.188 237.1C99.7178 237.1 98.6978 236.05 98.6378 234.49H104.833L104.953 234.37C104.953 231.97 103.438 230.35 101.188 230.35C98.9378 230.35 97.4228 231.91 97.4228 234.25C97.4228 236.59 98.9378 238.15 101.188 238.15ZM98.6978 233.44C98.9678 232.225 99.9728 231.4 101.188 231.4C102.403 231.4 103.408 232.225 103.678 233.44H98.6978ZM105.796 238H107.446V236.35H105.796V238Z" fill="black"/>
<path d="M55.9219 155H124.828C127.542 155 129.75 152.792 129.75 150.078V81.1719C129.75 81.1161 129.724 81.0702 129.72 81.0177C129.714 80.9422 129.694 80.8766 129.678 80.8044C129.626 80.5764 129.525 80.3625 129.382 80.1777C129.36 80.1481 129.363 80.112 129.34 80.0825L103.09 50.5512C103.08 50.5414 103.067 50.5414 103.057 50.5316C102.857 50.3223 102.604 50.1704 102.325 50.0919C102.263 50.0722 102.207 50.0656 102.142 50.0558C102.046 50.0394 101.958 50 101.859 50H55.9219C53.2083 50 51 52.2083 51 54.9219V150.078C51 152.792 53.2083 155 55.9219 155ZM103.5 55.9555L124.457 79.5312H105.141C104.419 79.5312 103.5 78.1531 103.5 77.0703V55.9555ZM54.2812 54.9219C54.2812 54.4868 54.4541 54.0695 54.7618 53.7618C55.0695 53.4541 55.4868 53.2812 55.9219 53.2812H100.219V77.0703C100.219 79.7248 102.368 82.8125 105.141 82.8125H126.469V150.078C126.469 150.513 126.296 150.931 125.988 151.238C125.681 151.546 125.263 151.719 124.828 151.719H55.9219C55.0031 151.719 54.2812 150.997 54.2812 150.078V54.9219Z" fill="black"/>
<path d="M57.63 137H58.44V134.345H60.177C61.338 134.345 62.112 133.634 62.112 132.572C62.112 131.528 61.338 130.826 60.177 130.826H57.63V137ZM58.44 133.625V131.546H60.177C60.852 131.546 61.302 131.96 61.302 132.572C61.302 133.202 60.852 133.625 60.177 133.625H58.44ZM62.7959 137H63.5159V134.372C63.5159 133.571 64.0559 133.04 64.8659 133.04H65.1719V132.5C65.0819 132.446 64.9379 132.41 64.8029 132.41C64.3529 132.41 63.8399 132.698 63.5159 133.121V132.5H62.7959V137ZM67.5723 137.09C68.5803 137.09 69.4443 136.442 69.7323 135.47H69.0123C68.8143 136.064 68.2383 136.46 67.5723 136.46C66.6903 136.46 66.0783 135.83 66.0423 134.894H69.7593L69.8313 134.822C69.8313 133.382 68.9223 132.41 67.5723 132.41C66.2223 132.41 65.3133 133.346 65.3133 134.75C65.3133 136.154 66.2223 137.09 67.5723 137.09ZM66.0783 134.264C66.2403 133.535 66.8433 133.04 67.5723 133.04C68.3013 133.04 68.9043 133.535 69.0663 134.264H66.0783ZM72.7132 137.09C73.3432 137.09 74.0002 136.748 74.3512 136.235V137H75.0712V130.826H74.3512V133.265C74.0002 132.752 73.3432 132.41 72.7132 132.41C71.3812 132.41 70.4812 133.346 70.4812 134.75C70.4812 136.154 71.3812 137.09 72.7132 137.09ZM72.7852 136.46C71.8402 136.46 71.2012 135.776 71.2012 134.75C71.2012 133.724 71.8402 133.04 72.7852 133.04C73.7212 133.04 74.3512 133.724 74.3512 134.75C74.3512 135.776 73.7212 136.46 72.7852 136.46ZM76.331 131.816H77.051V130.826H76.331V131.816ZM76.331 137H77.051V132.5H76.331V137ZM80.1758 137.09C81.3278 137.09 82.2098 136.316 82.3808 135.173H81.6968C81.5618 135.947 80.9498 136.46 80.1758 136.46C79.2578 136.46 78.6368 135.776 78.6368 134.75C78.6368 133.724 79.2578 133.04 80.1758 133.04C80.9498 133.04 81.5528 133.535 81.6878 134.282H82.3718C82.2008 133.157 81.3188 132.41 80.1758 132.41C78.8258 132.41 77.9168 133.346 77.9168 134.75C77.9168 136.154 78.8258 137.09 80.1758 137.09ZM84.6787 137.09C84.8947 137.09 85.1917 137.054 85.4167 137V136.46H84.6337C84.2917 136.46 84.0577 136.217 84.0577 135.848V133.13H85.3717V132.5H84.0577V130.826H83.3377V132.5H82.6177V133.13H83.3377V135.848C83.3377 136.595 83.8777 137.09 84.6787 137.09ZM86.4033 131.816H87.1233V130.826H86.4033V131.816ZM86.4033 137H87.1233V132.5H86.4033V137ZM90.248 137.09C91.598 137.09 92.507 136.154 92.507 134.75C92.507 133.346 91.598 132.41 90.248 132.41C88.898 132.41 87.989 133.346 87.989 134.75C87.989 136.154 88.898 137.09 90.248 137.09ZM90.248 136.46C89.33 136.46 88.709 135.776 88.709 134.75C88.709 133.724 89.33 133.04 90.248 133.04C91.166 133.04 91.787 133.724 91.787 134.75C91.787 135.776 91.166 136.46 90.248 136.46ZM93.2851 137H94.0051V134.336C94.0051 133.562 94.5181 133.04 95.2831 133.04C96.0481 133.04 96.5611 133.562 96.5611 134.336V137H97.2811V134.21C97.2811 133.13 96.5341 132.41 95.4091 132.41C94.8871 132.41 94.3201 132.68 94.0051 133.076V132.5H93.2851V137ZM100.6 137H102.805C104.569 137 105.748 135.758 105.748 133.904C105.748 132.059 104.569 130.826 102.805 130.826H100.6V137ZM101.41 136.28V131.546H102.805C104.083 131.546 104.938 132.491 104.938 133.904C104.938 135.326 104.083 136.28 102.805 136.28H101.41ZM108.652 137.09C110.002 137.09 110.911 136.154 110.911 134.75C110.911 133.346 110.002 132.41 108.652 132.41C107.302 132.41 106.393 133.346 106.393 134.75C106.393 136.154 107.302 137.09 108.652 137.09ZM108.652 136.46C107.734 136.46 107.113 135.776 107.113 134.75C107.113 133.724 107.734 133.04 108.652 133.04C109.57 133.04 110.191 133.724 110.191 134.75C110.191 135.776 109.57 136.46 108.652 136.46ZM111.689 137H112.409V134.336C112.409 133.562 112.922 133.04 113.687 133.04C114.452 133.04 114.965 133.562 114.965 134.336V137H115.685V134.21C115.685 133.13 114.938 132.41 113.813 132.41C113.291 132.41 112.724 132.68 112.409 133.076V132.5H111.689V137ZM118.725 137.09C119.733 137.09 120.597 136.442 120.885 135.47H120.165C119.967 136.064 119.391 136.46 118.725 136.46C117.843 136.46 117.231 135.83 117.195 134.894H120.912L120.984 134.822C120.984 133.382 120.075 132.41 118.725 132.41C117.375 132.41 116.466 133.346 116.466 134.75C116.466 136.154 117.375 137.09 118.725 137.09ZM117.231 134.264C117.393 133.535 117.996 133.04 118.725 133.04C119.454 133.04 120.057 133.535 120.219 134.264H117.231ZM122.03 135.02H122.66L122.795 130.826H121.895L122.03 135.02ZM121.85 137H122.84V136.01H121.85V137Z" fill="black"/>
<path d="M87.7595 89.0841C89.4265 89.0841 90.9981 89.5033 92.3702 90.2407C92.2603 90.8841 92.0463 91.3395 91.7543 91.633C91.5723 91.8081 91.3576 91.9457 91.1225 92.0378C90.2202 91.6141 89.2433 91.3721 88.2476 91.3259C87.2519 91.2796 86.2568 91.43 85.3192 91.7683C84.3815 92.1066 83.5197 92.6263 82.7829 93.2977C82.0461 93.9691 81.4488 94.779 81.025 95.6812C80.6012 96.5835 80.3593 97.5603 80.3131 98.5561C80.2668 99.5518 80.4171 100.547 80.7555 101.485C81.0938 102.422 81.6135 103.284 82.2849 104.021C82.9563 104.758 83.7662 105.355 84.6684 105.779C85.6631 106.166 86.5827 106.38 87.4241 106.425L87.7595 106.434C88.6921 106.434 89.7215 106.217 90.8492 105.78C92.168 105.19 93.2921 104.237 94.0907 103.033C95.016 103.351 96.1278 103.157 96.829 102.453C96.2321 103.949 95.2751 105.274 94.043 106.311L96.3866 113.345C96.5732 113.904 96.5583 114.512 96.3444 115.062C96.1306 115.612 95.7312 116.069 95.2155 116.356C93.2333 117.459 90.7437 118 87.7595 118C84.7754 118 82.2857 117.459 80.3036 116.356C79.7878 116.069 79.3885 115.612 79.1746 115.062C78.9608 114.512 78.9459 113.904 79.1325 113.345L81.4761 106.311C79.9444 105.022 78.8461 103.294 78.33 101.36C77.8139 99.4255 77.9049 97.3796 78.5908 95.4991C79.2768 93.6186 80.5243 91.9945 82.1644 90.8469C83.8045 89.6994 85.7578 89.084 87.7595 89.0841ZM92.1793 107.577L91.6588 107.793L91.6328 107.804C90.5561 108.27 89.404 108.536 88.2323 108.591H88.2077C88.1726 108.594 88.1374 108.596 88.1022 108.597L87.7595 108.602L87.4762 108.597L87.2882 108.589C86.116 108.536 84.9632 108.27 83.8862 107.804L83.8602 107.793C83.6855 107.724 83.5119 107.652 83.3397 107.577L81.1898 114.03C81.1629 114.11 81.1648 114.197 81.1952 114.275C81.2256 114.354 81.2825 114.42 81.3561 114.461C82.9899 115.367 85.1195 115.831 87.7595 115.831C90.3996 115.831 92.5307 115.369 94.163 114.461C94.2363 114.42 94.293 114.354 94.3233 114.276C94.3537 114.198 94.3558 114.111 94.3292 114.031L92.1793 107.577ZM87.3113 108.592L87.4762 108.597L87.5239 108.599L87.7595 108.602C87.6092 108.602 87.4603 108.599 87.3113 108.592ZM96.4227 88.9106L96.4343 89.0841C96.4343 90.7467 96.8247 91.9178 97.562 92.6552C98.243 93.3347 99.2941 93.7207 100.757 93.7757L101.133 93.7829C102.518 93.7829 102.576 95.7752 101.307 95.94L101.133 95.9516C99.4705 95.9516 98.2994 96.342 97.562 97.0793C96.8825 97.7617 96.4965 98.8114 96.4415 100.275L96.4343 100.65C96.4343 102.096 94.2656 102.096 94.2656 100.65C94.2656 98.9878 93.8753 97.8167 93.1379 97.0793C92.4555 96.3998 91.4058 96.0138 89.9427 95.9588L89.5668 95.9516C88.1817 95.9516 88.1239 93.9593 89.3933 93.7945L89.5668 93.7829C91.2294 93.7829 92.4005 93.3925 93.1379 92.6552C93.8753 91.9178 94.2656 90.7467 94.2656 89.0841C94.2656 87.699 96.2579 87.6412 96.4227 88.9106ZM95.35 93.3535L95.1418 93.647C94.7796 94.1259 94.3374 94.5388 93.8348 94.8673C94.4383 95.2625 94.9541 95.7778 95.35 96.381C95.7454 95.7779 96.2606 95.2627 96.8637 94.8673C96.3621 94.538 95.9205 94.1253 95.5582 93.647L95.35 93.3535Z" fill="#1BA94C"/>
<path d="M61.05 25H62.4V20.575H65.295C67.23 20.575 68.52 19.39 68.52 17.62C68.52 15.88 67.23 14.71 65.295 14.71H61.05V25ZM62.4 19.375V15.91H65.295C66.42 15.91 67.17 16.6 67.17 17.62C67.17 18.67 66.42 19.375 65.295 19.375H62.4ZM70.1027 25H71.4527V20.08H73.5827L76.6427 25H78.2327L75.1577 20.05C76.5977 19.87 77.5727 18.805 77.5727 17.395C77.5727 15.79 76.3577 14.71 74.5577 14.71H70.1027V25ZM71.4527 18.88V15.91H74.5577C75.5477 15.91 76.2227 16.51 76.2227 17.395C76.2227 18.28 75.5477 18.88 74.5577 18.88H71.4527ZM79.8293 25H86.4743V23.8H81.1793V20.08H85.9343V18.88H81.1793V15.91H86.4743V14.71H79.8293V25ZM87.9738 25H91.6488C94.5888 25 96.5538 22.93 96.5538 19.84C96.5538 16.765 94.5888 14.71 91.6488 14.71H87.9738V25ZM89.3238 23.8V15.91H91.6488C93.7788 15.91 95.2038 17.485 95.2038 19.84C95.2038 22.21 93.7788 23.8 91.6488 23.8H89.3238ZM98.1398 25H99.4898V14.71H98.1398V25ZM106.112 25.15C108.542 25.15 110.507 23.47 111.002 20.965H109.697C109.307 22.75 107.867 23.95 106.112 23.95C103.907 23.95 102.437 22.3 102.437 19.855C102.437 17.41 103.907 15.76 106.112 15.76C107.762 15.76 109.172 16.855 109.637 18.505H110.957C110.417 16.15 108.467 14.56 106.112 14.56C103.097 14.56 101.087 16.69 101.087 19.855C101.087 23.02 103.097 25.15 106.112 25.15ZM114.724 25H116.074V15.91H119.254V14.71H111.544V15.91H114.724V25Z" fill="black"/>
<rect x="0.5" y="0.5" width="179" height="249" stroke="#E0E0E0"/>
</svg>
