<svg width="50" height="50" viewBox="0 0 50 50" fill="none" xmlns="http://www.w3.org/2000/svg">
<circle cx="25" cy="25" r="25" fill="#0000FF"/>
<path d="M29.8257 18.7661V17.3899C29.8257 17.2638 29.7225 17.1606 29.5963 17.1606H18.5872C18.461 17.1606 18.3578 17.2638 18.3578 17.3899V18.7661C18.3578 18.8922 18.461 18.9954 18.5872 18.9954H29.5963C29.7225 18.9954 29.8257 18.8922 29.8257 18.7661ZM18.5872 21.289C18.461 21.289 18.3578 21.3922 18.3578 21.5183V22.8945C18.3578 23.0206 18.461 23.1239 18.5872 23.1239H23.8624C23.9885 23.1239 24.0917 23.0206 24.0917 22.8945V21.5183C24.0917 21.3922 23.9885 21.289 23.8624 21.289H18.5872ZM22.7156 34.2477H16.0642V14.0642H32.1193V23.9266C32.1193 24.0528 32.2225 24.156 32.3486 24.156H33.9541C34.0803 24.156 34.1835 24.0528 34.1835 23.9266V12.9174C34.1835 12.41 33.7735 12 33.2661 12H14.9174C14.41 12 14 12.41 14 12.9174V35.3945C14 35.9019 14.41 36.3119 14.9174 36.3119H22.7156C22.8417 36.3119 22.945 36.2087 22.945 36.0826V34.4771C22.945 34.3509 22.8417 34.2477 22.7156 34.2477ZM35.4937 35.7242L32.8188 33.0493C33.4581 32.2036 33.8394 31.1485 33.8394 30.0046C33.8394 27.2179 31.5803 24.9587 28.7936 24.9587C26.0069 24.9587 23.7477 27.2179 23.7477 30.0046C23.7477 32.7913 26.0069 35.0505 28.7936 35.0505C29.82 35.0505 30.7718 34.7437 31.5688 34.219L34.2838 36.9341C34.3297 36.9799 34.387 37 34.4444 37C34.5017 37 34.5619 36.9771 34.6049 36.9341L35.4937 36.0453C35.5148 36.0243 35.5316 35.9992 35.5431 35.9717C35.5545 35.9441 35.5604 35.9146 35.5604 35.8847C35.5604 35.8549 35.5545 35.8254 35.5431 35.7978C35.5316 35.7703 35.5148 35.7452 35.4937 35.7242ZM28.7936 33.2156C27.0189 33.2156 25.5826 31.7792 25.5826 30.0046C25.5826 28.2299 27.0189 26.7936 28.7936 26.7936C30.5682 26.7936 32.0046 28.2299 32.0046 30.0046C32.0046 31.7792 30.5682 33.2156 28.7936 33.2156Z" fill="white"/>
</svg>
