<svg width="50" height="50" viewBox="0 0 50 50" fill="none" xmlns="http://www.w3.org/2000/svg">
<circle cx="25" cy="25" r="25" fill="#0000FF"/>
<path d="M36.7958 24.4718C37.3044 24.9804 37.5587 25.5771 37.5587 26.2617C37.5587 26.9464 37.3044 27.5235 36.7958 27.993L28.0516 36.7958C27.543 37.2653 26.9464 37.5 26.2617 37.5C25.5771 37.5 25 37.2653 24.5305 36.7958L13.2629 25.5282C12.7543 25.0196 12.5 24.4327 12.5 23.7676V14.9648C12.5 14.2997 12.7445 13.7226 13.2336 13.2336C13.7226 12.7445 14.3192 12.5 15.0235 12.5H23.7676C24.4718 12.5 25.0587 12.7347 25.5282 13.2042L36.7958 24.4718ZM16.8721 18.7207C17.4002 18.7207 17.8502 18.5446 18.2218 18.1925C18.5935 17.8404 18.7793 17.4002 18.7793 16.8721C18.7793 16.3439 18.5935 15.894 18.2218 15.5223C17.8502 15.1506 17.4002 14.9648 16.8721 14.9648C16.3439 14.9648 15.9038 15.1506 15.5516 15.5223C15.1995 15.894 15.0235 16.3439 15.0235 16.8721C15.0235 17.4002 15.1995 17.8404 15.5516 18.1925C15.9038 18.5446 16.3439 18.7207 16.8721 18.7207Z" fill="white"/>
</svg>
