<svg width="50" height="50" viewBox="0 0 50 50" fill="none" xmlns="http://www.w3.org/2000/svg">
<circle cx="25" cy="25" r="25" fill="#0000FF"/>
<path d="M20 24.4099V17.5C20 16.1739 20.5268 14.9021 21.4644 13.9645C22.4021 13.0268 23.6739 12.5 25 12.5C26.326 12.5 27.5978 13.0268 28.5355 13.9645C29.4731 14.9021 29.9999 16.1739 29.9999 17.5V24.4099C31.1321 25.4225 31.9301 26.755 32.2883 28.2311C32.6466 29.7072 32.5482 31.2573 32.0062 32.6762C31.4642 34.0951 30.5042 35.3161 29.2531 36.1774C28.002 37.0388 26.5189 37.5 25 37.5C23.481 37.5 21.9979 37.0388 20.7468 36.1774C19.4957 35.3161 18.5357 34.0951 17.9937 32.6762C17.4517 31.2573 17.3533 29.7072 17.7116 28.2311C18.0698 26.755 18.8678 25.4225 20 24.4099ZM22.5 22.9249C23.3031 22.6422 24.1485 22.4984 25 22.4999C25.8762 22.4999 26.7174 22.6499 27.4999 22.9262V17.5C27.4999 16.8369 27.2365 16.201 26.7677 15.7322C26.2989 15.2634 25.663 15 25 15C24.3369 15 23.701 15.2634 23.2322 15.7322C22.7634 16.201 22.5 16.8369 22.5 17.5V22.9262V22.9249ZM25 32.4999C25.663 32.4999 26.2989 32.2365 26.7677 31.7676C27.2365 31.2988 27.4999 30.6629 27.4999 29.9999C27.4999 29.3368 27.2365 28.701 26.7677 28.2321C26.2989 27.7633 25.663 27.4999 25 27.4999C24.3369 27.4999 23.701 27.7633 23.2322 28.2321C22.7634 28.701 22.5 29.3368 22.5 29.9999C22.5 30.6629 22.7634 31.2988 23.2322 31.7676C23.701 32.2365 24.3369 32.4999 25 32.4999Z" fill="white"/>
</svg>
