<svg width="50" height="50" viewBox="0 0 50 50" fill="none" xmlns="http://www.w3.org/2000/svg">
<circle cx="25" cy="25" r="25" fill="#0000FF"/>
<path fill-rule="evenodd" clip-rule="evenodd" d="M12.8572 12.1429H14.4197V35.5804H37.8572V37.1429H12.8572V12.1429ZM28.4822 17.6116C28.4822 17.4044 28.5645 17.2057 28.711 17.0592C28.8575 16.9127 29.0562 16.8304 29.2634 16.8304H35.5134C35.7206 16.8304 35.9193 16.9127 36.0659 17.0592C36.2124 17.2057 36.2947 17.4044 36.2947 17.6116V23.8616C36.2947 24.0688 36.2124 24.2675 36.0659 24.4141C35.9193 24.5606 35.7206 24.6429 35.5134 24.6429C35.3062 24.6429 35.1075 24.5606 34.961 24.4141C34.8145 24.2675 34.7322 24.0688 34.7322 23.8616V19.7991L29.0869 26.7007C29.0178 26.785 28.9318 26.854 28.8344 26.9031C28.737 26.9522 28.6305 26.9804 28.5216 26.9859C28.4126 26.9913 28.3038 26.9739 28.202 26.9347C28.1002 26.8956 28.0078 26.8355 27.9306 26.7585L23.8884 22.7163L18.1759 30.571C18.051 30.7299 17.8693 30.8342 17.669 30.8619C17.4688 30.8897 17.2656 30.8387 17.1021 30.7198C16.9387 30.6008 16.8277 30.4231 16.7925 30.2241C16.7573 30.025 16.8007 29.82 16.9134 29.6523L23.1634 21.0585C23.2298 20.9671 23.3151 20.8912 23.4136 20.836C23.5121 20.7808 23.6214 20.7476 23.734 20.7387C23.8466 20.7297 23.9597 20.7453 24.0657 20.7844C24.1717 20.8234 24.2679 20.8849 24.3478 20.9648L28.4244 25.0429L33.865 18.3929H29.2634C29.0562 18.3929 28.8575 18.3106 28.711 18.1641C28.5645 18.0175 28.4822 17.8188 28.4822 17.6116Z" fill="white"/>
</svg>
