<svg width="50" height="50" viewBox="0 0 50 50" fill="none" xmlns="http://www.w3.org/2000/svg">
<circle cx="25" cy="25" r="25" fill="#0000FF"/>
<path d="M37.3104 25.2469L31.9233 22.525V16.1422C31.9232 15.9566 31.872 15.7746 31.7754 15.6167C31.6788 15.4588 31.5406 15.3312 31.3764 15.2482L25.4423 12.2483C25.305 12.179 25.1537 12.1429 25.0002 12.1429C24.8467 12.1429 24.6954 12.179 24.5581 12.2483L18.6241 15.2482C18.4598 15.3312 18.3216 15.4588 18.225 15.6167C18.1284 15.7746 18.0772 15.9566 18.0771 16.1422V22.524L12.69 25.2469C12.5256 25.33 12.3873 25.4577 12.2907 25.6158C12.1941 25.7739 12.143 25.9561 12.1431 26.1419V33.1417C12.1432 33.3273 12.1944 33.5093 12.291 33.6672C12.3876 33.8251 12.5257 33.9526 12.69 34.0356L18.6241 37.0355C18.7614 37.1048 18.9127 37.1409 19.0661 37.1409C19.2196 37.1409 19.3709 37.1048 19.5082 37.0355L25.0002 34.2606L30.4922 37.0375C30.6295 37.1068 30.7808 37.1429 30.9343 37.1429C31.0877 37.1429 31.2391 37.1068 31.3764 37.0375L37.3104 34.0376C37.475 33.9545 37.6133 33.8266 37.71 33.6683C37.8066 33.51 37.8576 33.3277 37.8573 33.1417V26.1419C37.8574 25.9561 37.8063 25.7739 37.7097 25.6158C37.6131 25.4577 37.4748 25.33 37.3104 25.2469ZM29.9453 22.525L25.9892 24.5249V19.7611L29.9453 17.7612V22.525ZM25.0002 14.2613L28.7228 16.1422L25.0002 18.0242L21.2776 16.1422L25.0002 14.2613ZM20.0552 17.7612L24.0112 19.7611V24.5249L20.0552 22.525V17.7612ZM18.0771 34.5236L14.1211 32.5237V27.7598L18.0771 29.7598V34.5236ZM19.0661 28.0238L15.3435 26.1419L19.0661 24.26L22.7888 26.1419L19.0661 28.0238ZM20.0552 29.7598L24.0112 27.7598V32.5237L20.0552 34.5236V29.7598ZM29.9453 34.5236L25.9892 32.5237V27.7598L29.9453 29.7598V34.5236ZM30.9343 28.0238L27.2116 26.1419L30.9343 24.26L34.6569 26.1419L30.9343 28.0238ZM35.8793 32.5237L31.9233 34.5236V29.7598L35.8793 27.7598V32.5237Z" fill="white"/>
</svg>
