<svg width="27" height="26" viewBox="0 0 27 26" fill="none" xmlns="http://www.w3.org/2000/svg">
<path d="M1.24181 1.24675V1.24181H1.24675C2.24266 1.1534 3.24064 1.09017 4.23974 1.05217C6.64732 0.956524 9.50509 0.969716 11.6274 1.28633C11.7604 1.31214 11.8817 1.37973 11.9737 1.47927L24.7602 14.2642C24.837 14.3408 24.8979 14.4318 24.9395 14.5319C24.9811 14.6321 25.0025 14.7395 25.0025 14.8479C25.0025 14.9564 24.9811 15.0638 24.9395 15.1639C24.8979 15.2641 24.837 15.3551 24.7602 15.4317L15.4317 24.7586C15.2771 24.9132 15.0674 25 14.8488 25C14.6301 25 14.4204 24.9132 14.2658 24.7586L1.47927 11.9737C1.37973 11.8817 1.31214 11.7604 1.28633 11.6274C0.969716 9.50508 0.956524 6.64732 1.05217 4.23974C1.09834 3.04914 1.17255 1.99871 1.24181 1.24675V1.24675Z" stroke="#0001FF" stroke-width="2" stroke-linecap="round"/>
<path d="M4.75544 9.89443C5.39943 9.25045 5.39943 8.20634 4.75544 7.56235C4.11145 6.91837 3.06735 6.91837 2.42336 7.56235C1.77938 8.20634 1.77938 9.25045 2.42336 9.89443C3.06735 10.5384 4.11145 10.5384 4.75544 9.89443Z" fill="#0000FF"/>
</svg>
