<svg width="17" height="24" viewBox="0 0 17 24" fill="none" xmlns="http://www.w3.org/2000/svg">
<path d="M16.745 6.25714L10.795 0.257143C10.625 0.0857142 10.455 0 10.2 0H1.7C0.765 0 0 0.771429 0 1.71429V22.2857C0 23.2286 0.765 24 1.7 24H15.3C16.235 24 17 23.2286 17 22.2857V6.85714C17 6.6 16.915 6.42857 16.745 6.25714ZM10.2 2.05714L14.96 6.85714H10.2V2.05714ZM15.3 22.2857H1.7V1.71429H8.5V6.85714C8.5 7.8 9.265 8.57143 10.2 8.57143H15.3V22.2857Z" fill="#0000FF"/>
<path d="M3.40039 17.1429H13.6004V18.8572H3.40039V17.1429Z" fill="#0000FF"/>
<path d="M3.40039 12H13.6004V13.7143H3.40039V12Z" fill="#0000FF"/>
</svg>
