<svg width="24" height="24" viewBox="0 0 24 24" fill="none" xmlns="http://www.w3.org/2000/svg">
<path d="M12 0C18.6276 0 24 5.3724 24 12C24 18.6276 18.6276 24 12 24C5.3724 24 0 18.6276 0 12C0 5.3724 5.3724 0 12 0ZM12 2.4C9.45392 2.4 7.01212 3.41143 5.21178 5.21178C3.41143 7.01212 2.4 9.45392 2.4 12C2.4 14.5461 3.41143 16.9879 5.21178 18.7882C7.01212 20.5886 9.45392 21.6 12 21.6C14.5461 21.6 16.9879 20.5886 18.7882 18.7882C20.5886 16.9879 21.6 14.5461 21.6 12C21.6 9.45392 20.5886 7.01212 18.7882 5.21178C16.9879 3.41143 14.5461 2.4 12 2.4ZM12 10.8C14.4 10.8 16.4004 11.1996 18 12C18 13.5913 17.3679 15.1174 16.2426 16.2426C15.1174 17.3679 13.5913 18 12 18C10.4087 18 8.88258 17.3679 7.75736 16.2426C6.63214 15.1174 6 13.5913 6 12C7.5996 11.1996 9.6 10.8 12 10.8ZM7.8 6C8.49159 5.99986 9.16199 6.23867 9.69774 6.67602C10.2335 7.11336 10.6017 7.72238 10.74 8.4H4.86C4.99832 7.72238 5.36651 7.11336 5.90226 6.67602C6.43801 6.23867 7.10841 5.99986 7.8 6ZM16.2 6C16.8916 5.99986 17.562 6.23867 18.0977 6.67602C18.6335 7.11336 19.0017 7.72238 19.14 8.4H13.26C13.3983 7.72238 13.7665 7.11336 14.3023 6.67602C14.838 6.23867 15.5084 5.99986 16.2 6Z" fill="#0000FF"/>
</svg>
