<svg width="35" height="28" viewBox="0 0 35 28" fill="none" xmlns="http://www.w3.org/2000/svg">
<path d="M6.5625 7.53847C6.5625 7.25285 6.67773 6.97893 6.88285 6.77697C7.08797 6.57501 7.36617 6.46155 7.65625 6.46155H22.9688C23.2588 6.46155 23.537 6.57501 23.7421 6.77697C23.9473 6.97893 24.0625 7.25285 24.0625 7.53847C24.0625 7.82409 23.9473 8.09801 23.7421 8.29997C23.537 8.50193 23.2588 8.61539 22.9688 8.61539H7.65625C7.36617 8.61539 7.08797 8.50193 6.88285 8.29997C6.67773 8.09801 6.5625 7.82409 6.5625 7.53847Z" fill="#0000FF"/>
<path d="M18.5937 12.9231C18.3037 12.9231 18.0255 13.0366 17.8204 13.2385C17.6152 13.4405 17.5 13.7144 17.5 14C17.5 14.2856 17.6152 14.5596 17.8204 14.7615C18.0255 14.9635 18.3037 15.0769 18.5937 15.0769H22.9687C23.2588 15.0769 23.537 14.9635 23.7421 14.7615C23.9473 14.5596 24.0625 14.2856 24.0625 14C24.0625 13.7144 23.9473 13.4405 23.7421 13.2385C23.537 13.0366 23.2588 12.9231 22.9687 12.9231H18.5937Z" fill="#0000FF"/>
<path d="M17.5 20.4616C17.5 20.1759 17.6152 19.902 17.8204 19.7001C18.0255 19.4981 18.3037 19.3846 18.5937 19.3846H22.9687C23.2588 19.3846 23.537 19.4981 23.7421 19.7001C23.9473 19.902 24.0625 20.1759 24.0625 20.4616C24.0625 20.7472 23.9473 21.0211 23.7421 21.2231C23.537 21.425 23.2588 21.5385 22.9687 21.5385H18.5937C18.3037 21.5385 18.0255 21.425 17.8204 21.2231C17.6152 21.0211 17.5 20.7472 17.5 20.4616Z" fill="#0000FF"/>
<path d="M7.65625 12.9231C7.36617 12.9231 7.08797 13.0366 6.88285 13.2385C6.67773 13.4405 6.5625 13.7144 6.5625 14V20.4616C6.5625 20.7472 6.67773 21.0211 6.88285 21.2231C7.08797 21.425 7.36617 21.5385 7.65625 21.5385H14.2188C14.5088 21.5385 14.787 21.425 14.9921 21.2231C15.1973 21.0211 15.3125 20.7472 15.3125 20.4616V14C15.3125 13.7144 15.1973 13.4405 14.9921 13.2385C14.787 13.0366 14.5088 12.9231 14.2188 12.9231H7.65625ZM8.75 19.3846V15.0769H13.125V19.3846H8.75Z" fill="#0000FF"/>
<path d="M0 4.30769C0 3.16522 0.460936 2.06954 1.28141 1.26169C2.10188 0.453845 3.21468 0 4.375 0H26.25C27.4103 0 28.5231 0.453845 29.3436 1.26169C30.1641 2.06954 30.625 3.16522 30.625 4.30769V6.46154C31.7853 6.46154 32.8981 6.91538 33.7186 7.72323C34.5391 8.53108 35 9.62676 35 10.7692V22.6154C35 24.0435 34.4238 25.4131 33.3982 26.4229C32.3727 27.4327 30.9817 28 29.5312 28H5.46875C4.01835 28 2.62735 27.4327 1.60176 26.4229C0.57617 25.4131 0 24.0435 0 22.6154V4.30769ZM28.4375 4.30769C28.4375 3.73646 28.207 3.18862 27.7968 2.78469C27.3866 2.38077 26.8302 2.15385 26.25 2.15385H4.375C3.79484 2.15385 3.23844 2.38077 2.8282 2.78469C2.41797 3.18862 2.1875 3.73646 2.1875 4.30769V22.6154C2.1875 23.4722 2.5332 24.294 3.14856 24.8999C3.76391 25.5058 4.59851 25.8462 5.46875 25.8462H29.5312C30.4015 25.8462 31.2361 25.5058 31.8514 24.8999C32.4668 24.294 32.8125 23.4722 32.8125 22.6154V10.7692C32.8125 10.198 32.582 9.65016 32.1718 9.24623C31.7616 8.84231 31.2052 8.61539 30.625 8.61539V22.6154C30.625 22.901 30.5098 23.1749 30.3046 23.3769C30.0995 23.5788 29.8213 23.6923 29.5312 23.6923C29.2412 23.6923 28.963 23.5788 28.7579 23.3769C28.5527 23.1749 28.4375 22.901 28.4375 22.6154V4.30769Z" fill="#0000FF"/>
</svg>
