<svg width="21" height="24" viewBox="0 0 21 24" fill="none" xmlns="http://www.w3.org/2000/svg">
<path d="M9.42842 15.4287C9.9018 15.4287 10.2856 15.045 10.2856 14.5716C10.2856 14.0982 9.9018 13.7145 9.42842 13.7145C8.95504 13.7145 8.57129 14.0982 8.57129 14.5716C8.57129 15.045 8.95504 15.4287 9.42842 15.4287Z" fill="#0000FF"/>
<path d="M20.314 6.25736L14.3141 0.257431C14.2387 0.173727 14.1459 0.107391 14.0423 0.0629968C13.9388 0.018603 13.8268 -0.00279068 13.7141 0.00029146H5.1428C4.68856 0.00164807 4.25332 0.182693 3.93213 0.503887C3.61093 0.82508 3.42989 1.26032 3.42853 1.71456V10.2859H1.71426C1.25975 10.2863 0.823987 10.4671 0.502598 10.7885C0.181209 11.1099 0.000453832 11.5456 0 12.0001V17.1429C0.000453832 17.5975 0.181209 18.0332 0.502598 18.3546C0.823987 18.676 1.25975 18.8568 1.71426 18.8572H3.42853V22.2857C3.42989 22.74 3.61093 23.1752 3.93213 23.4964C4.25332 23.8176 4.68856 23.9986 5.1428 24H18.8569C19.3111 23.9986 19.7464 23.8176 20.0676 23.4964C20.3888 23.1752 20.5698 22.74 20.5712 22.2857V6.85735C20.5742 6.7447 20.5528 6.63274 20.5084 6.52916C20.464 6.42558 20.3977 6.33286 20.314 6.25736ZM13.7141 2.05741L18.5141 6.85735H13.7141V2.05741ZM1.71426 12.0001H9.94017L12.857 14.5715L9.94874 17.1429H1.71426V12.0001ZM18.8569 22.2857H5.1428V18.8572H9.95045C10.3642 18.8562 10.7637 18.7062 11.0759 18.4346L13.9764 15.871C14.1624 15.7105 14.3118 15.512 14.4144 15.2888C14.5171 15.0656 14.5706 14.823 14.5715 14.5774C14.5723 14.3317 14.5203 14.0887 14.4191 13.8649C14.318 13.641 14.1699 13.4415 13.985 13.2798L11.0673 10.7007C10.757 10.4333 10.361 10.2861 9.95131 10.2859H5.1428V1.71456H11.9999V6.85735C12.0012 7.31159 12.1823 7.74683 12.5034 8.06802C12.8246 8.38921 13.2599 8.57026 13.7141 8.57162H18.8569V22.2857Z" fill="#0000FF"/>
</svg>
