<svg width="24" height="24" viewBox="0 0 24 24" fill="none" xmlns="http://www.w3.org/2000/svg">
<path d="M9 0C7.09 0 5.543 1.387 5.156 3.188C2.824 3.604 1 5.55 1 8C1 8.246 1.027 8.465 1.063 8.688C0.418 9.636 0 10.753 0 12C0 13.797 0.895 15.309 2.156 16.406C2.066 16.762 2 17.117 2 17.5C2 19.973 4.027 22 6.5 22H6.563C7.145 23.129 8.153 24 9.5 24C9.96661 23.9989 10.4283 23.9043 10.8577 23.7217C11.2871 23.5392 11.6755 23.2723 12 22.937C12.3245 23.2723 12.7129 23.5392 13.1423 23.7217C13.5717 23.9043 14.0334 23.9989 14.5 24C15.848 24 16.855 23.129 17.438 22H17.5C19.848 22 21.773 20.172 21.969 17.875H22C22 17.812 21.973 17.75 21.969 17.687C21.973 17.625 22 17.562 22 17.5C22 17.129 21.867 16.812 21.781 16.469C23.078 15.367 24 13.829 24 12C24 10.754 23.582 9.637 22.937 8.687C22.973 8.465 23 8.247 23 8C23 5.55 21.176 3.605 18.844 3.187C18.457 1.388 16.91 0 15 0C13.8 0 12.734 0.559 12 1.406C11.266 0.56 10.2 0 9 0ZM9 2C10.117 2 11 2.883 11 4V6C11 7.668 9.668 9 8 9V11C9.133 11 10.16 10.61 11 9.969V20.5C11 21.34 10.34 22 9.5 22C9.15013 22.0049 8.80999 21.8848 8.54072 21.6614C8.27145 21.4379 8.09071 21.1258 8.031 20.781L7.844 19.813L6.875 19.969C6.51895 20.0252 6.15493 20.0034 5.80815 19.905C5.46138 19.8066 5.14013 19.634 4.86667 19.3992C4.5932 19.1644 4.37406 18.8729 4.22441 18.5449C4.07477 18.217 3.99819 17.8605 4 17.5C4 17.191 4.05 16.902 4.156 16.625C4.164 16.602 4.18 16.585 4.187 16.562C4.497 15.793 5.168 15.23 6 15.062L5.594 13.094C4.57339 13.2956 3.65561 13.8482 3 14.656C2.34981 13.9247 1.99355 12.9785 2 12C1.99829 11.1007 2.3074 10.2285 2.875 9.531L3.188 9.156L3.094 8.656C3.03733 8.44172 3.00579 8.22157 3 8C3 6.332 4.332 5 6 5H7V4C7 2.883 7.883 2 9 2ZM15 2C16.117 2 17 2.883 17 4V5H18C19.668 5 21 6.332 21 8C21 8.215 20.96 8.422 20.906 8.656L20.813 9.156L21.125 9.531C21.6926 10.2285 22.0017 11.1007 22 12C22 13.2 21.488 14.27 20.656 15C19.973 14.395 19.102 14 18.125 14C17.18 14 16.328 14.336 15.656 14.906L16.938 16.438C17.2679 16.1536 17.6895 15.9981 18.125 16C19.09 16 19.859 16.723 19.969 17.656C19.887 18.973 18.836 20 17.5 20C17.41 20 17.3 19.996 17.125 19.969L16.156 19.812L15.969 20.782C15.9091 21.1266 15.7282 21.4385 15.459 21.6618C15.1898 21.885 14.8497 22.0049 14.5 22C13.66 22 13 21.34 13 20.5V9.969C13.8586 10.6348 14.9135 10.9974 16 11V9C14.332 9 13 7.668 13 6V4C13 2.883 13.883 2 15 2Z" fill="#0000FF"/>
</svg>
