<svg width="315" height="80" viewBox="0 0 315 80" fill="none" xmlns="http://www.w3.org/2000/svg">
<path d="M63.4 48H65.2V44.14L67.68 41.46L72.36 48H74.44L68.86 40.2L74.34 34.28H71.92L65.2 41.62V34.28H63.4V48ZM75.1336 48H76.7336V42.08C76.7336 40.36 77.8736 39.2 79.5736 39.2C81.2736 39.2 82.4136 40.36 82.4136 42.08V48H84.0136V41.8C84.0136 39.4 82.3536 37.8 79.8536 37.8C78.6936 37.8 77.4336 38.4 76.7336 39.28V38H75.1336V48ZM90.7673 48.2C93.7673 48.2 95.7873 46.12 95.7873 43C95.7873 39.88 93.7673 37.8 90.7673 37.8C87.7673 37.8 85.7473 39.88 85.7473 43C85.7473 46.12 87.7673 48.2 90.7673 48.2ZM90.7673 46.8C88.7273 46.8 87.3473 45.28 87.3473 43C87.3473 40.72 88.7273 39.2 90.7673 39.2C92.8073 39.2 94.1873 40.72 94.1873 43C94.1873 45.28 92.8073 46.8 90.7673 46.8ZM99.4356 48H101.076L103.176 40.22L105.276 48H106.916L110.356 38H108.676L106.136 46.18L103.916 38H102.456L100.216 46.18L97.6756 38H95.9956L99.4356 48ZM112.028 48H113.628V34.28H112.028V48ZM120.572 48.2C122.812 48.2 124.732 46.76 125.372 44.6H123.772C123.332 45.92 122.052 46.8 120.572 46.8C118.612 46.8 117.252 45.4 117.172 43.32H125.432L125.592 43.16C125.592 39.96 123.572 37.8 120.572 37.8C117.572 37.8 115.552 39.88 115.552 43C115.552 46.12 117.572 48.2 120.572 48.2ZM117.252 41.92C117.612 40.3 118.952 39.2 120.572 39.2C122.192 39.2 123.532 40.3 123.892 41.92H117.252ZM131.996 48.2C133.396 48.2 134.856 47.44 135.636 46.3V48H137.236V34.28H135.636V39.7C134.856 38.56 133.396 37.8 131.996 37.8C129.036 37.8 127.036 39.88 127.036 43C127.036 46.12 129.036 48.2 131.996 48.2ZM132.156 46.8C130.056 46.8 128.636 45.28 128.636 43C128.636 40.72 130.056 39.2 132.156 39.2C134.236 39.2 135.636 40.72 135.636 43C135.636 45.28 134.236 46.8 132.156 46.8ZM147.405 38V39.6C146.665 38.52 145.285 37.8 143.945 37.8C141.085 37.8 139.165 39.84 139.165 42.9C139.165 45.96 141.085 48 143.945 48C145.285 48 146.685 47.28 147.405 46.22V46.92C147.405 49.08 146.065 50.52 144.085 50.52C142.465 50.52 141.185 49.5 140.885 48H139.385C139.785 50.34 141.665 51.92 144.085 51.92C147.025 51.92 149.005 49.92 149.005 46.92V38H147.405ZM144.105 46.6C142.105 46.6 140.765 45.12 140.765 42.9C140.765 40.68 142.105 39.2 144.105 39.2C146.085 39.2 147.405 40.68 147.405 42.9C147.405 45.12 146.085 46.6 144.105 46.6ZM155.748 48.2C157.988 48.2 159.908 46.76 160.548 44.6H158.948C158.508 45.92 157.228 46.8 155.748 46.8C153.788 46.8 152.428 45.4 152.348 43.32H160.608L160.768 43.16C160.768 39.96 158.748 37.8 155.748 37.8C152.748 37.8 150.728 39.88 150.728 43C150.728 46.12 152.748 48.2 155.748 48.2ZM152.428 41.92C152.788 40.3 154.128 39.2 155.748 39.2C157.368 39.2 158.708 40.3 159.068 41.92H152.428ZM167.267 48H169.067V36.48L173.887 48H175.247L180.067 36.48V48H181.867V34.28H179.447L174.567 45.72L169.687 34.28H167.267V48ZM188.87 48.2C190.21 48.2 191.65 47.44 192.43 46.32V48H194.03V38H192.43V39.68C191.65 38.56 190.21 37.8 188.87 37.8C185.95 37.8 183.99 39.88 183.99 43C183.99 46.12 185.95 48.2 188.87 48.2ZM189.03 46.8C186.97 46.8 185.59 45.28 185.59 43C185.59 40.72 186.97 39.2 189.03 39.2C191.07 39.2 192.43 40.72 192.43 43C192.43 45.28 191.07 46.8 189.03 46.8ZM196.423 48H198.023V42.08C198.023 40.36 199.163 39.2 200.863 39.2C202.563 39.2 203.703 40.36 203.703 42.08V48H205.303V41.8C205.303 39.4 203.643 37.8 201.143 37.8C199.983 37.8 198.723 38.4 198.023 39.28V38H196.423V48ZM212.112 48.2C213.452 48.2 214.892 47.44 215.672 46.32V48H217.272V38H215.672V39.68C214.892 38.56 213.452 37.8 212.112 37.8C209.192 37.8 207.232 39.88 207.232 43C207.232 46.12 209.192 48.2 212.112 48.2ZM212.272 46.8C210.212 46.8 208.832 45.28 208.832 43C208.832 40.72 210.212 39.2 212.272 39.2C214.312 39.2 215.672 40.72 215.672 43C215.672 45.28 214.312 46.8 212.272 46.8ZM227.034 38V39.6C226.294 38.52 224.914 37.8 223.574 37.8C220.714 37.8 218.794 39.84 218.794 42.9C218.794 45.96 220.714 48 223.574 48C224.914 48 226.314 47.28 227.034 46.22V46.92C227.034 49.08 225.694 50.52 223.714 50.52C222.094 50.52 220.814 49.5 220.514 48H219.014C219.414 50.34 221.294 51.92 223.714 51.92C226.654 51.92 228.634 49.92 228.634 46.92V38H227.034ZM223.734 46.6C221.734 46.6 220.394 45.12 220.394 42.9C220.394 40.68 221.734 39.2 223.734 39.2C225.714 39.2 227.034 40.68 227.034 42.9C227.034 45.12 225.714 46.6 223.734 46.6ZM235.377 48.2C237.617 48.2 239.537 46.76 240.177 44.6H238.577C238.137 45.92 236.857 46.8 235.377 46.8C233.417 46.8 232.057 45.4 231.977 43.32H240.237L240.397 43.16C240.397 39.96 238.377 37.8 235.377 37.8C232.377 37.8 230.357 39.88 230.357 43C230.357 46.12 232.377 48.2 235.377 48.2ZM232.057 41.92C232.417 40.3 233.757 39.2 235.377 39.2C236.997 39.2 238.337 40.3 238.697 41.92H232.057ZM242.321 48H243.921V41.26C243.921 40.02 244.821 39.2 246.141 39.2C247.461 39.2 248.361 40.02 248.361 41.26V48H249.961V41.26C249.961 40.02 250.861 39.2 252.181 39.2C253.501 39.2 254.401 40.02 254.401 41.26V48H256.001V41.1C256.001 39.12 254.541 37.8 252.341 37.8C251.161 37.8 249.961 38.42 249.321 39.32C248.681 38.42 247.541 37.8 246.481 37.8C245.501 37.8 244.481 38.32 243.921 39.12V38H242.321V48ZM262.74 48.2C264.98 48.2 266.9 46.76 267.54 44.6H265.94C265.5 45.92 264.22 46.8 262.74 46.8C260.78 46.8 259.42 45.4 259.34 43.32H267.6L267.76 43.16C267.76 39.96 265.74 37.8 262.74 37.8C259.74 37.8 257.72 39.88 257.72 43C257.72 46.12 259.74 48.2 262.74 48.2ZM259.42 41.92C259.78 40.3 261.12 39.2 262.74 39.2C264.36 39.2 265.7 40.3 266.06 41.92H259.42ZM269.684 48H271.284V42.08C271.284 40.36 272.424 39.2 274.124 39.2C275.824 39.2 276.964 40.36 276.964 42.08V48H278.564V41.8C278.564 39.4 276.904 37.8 274.404 37.8C273.244 37.8 271.984 38.4 271.284 39.28V38H269.684V48ZM284.563 48.2C285.043 48.2 285.703 48.12 286.203 48V46.8H284.463C283.703 46.8 283.183 46.26 283.183 45.44V39.4H286.103V38H283.183V34.28H281.583V38H279.983V39.4H281.583V45.44C281.583 47.1 282.783 48.2 284.563 48.2Z" fill="#0000FF"/>
<rect x="0.5" y="0.5" width="314" height="79" rx="9.5" stroke="#0000FF"/>
<path d="M37 28C35.09 28 33.543 29.387 33.156 31.188C30.824 31.604 29 33.55 29 36C29 36.246 29.027 36.465 29.063 36.688C28.418 37.636 28 38.753 28 40C28 41.797 28.895 43.309 30.156 44.406C30.066 44.762 30 45.117 30 45.5C30 47.973 32.027 50 34.5 50H34.563C35.145 51.129 36.153 52 37.5 52C37.9666 51.9989 38.4283 51.9043 38.8577 51.7217C39.2871 51.5392 39.6755 51.2723 40 50.937C40.3245 51.2723 40.7129 51.5392 41.1423 51.7217C41.5717 51.9043 42.0334 51.9989 42.5 52C43.848 52 44.855 51.129 45.438 50H45.5C47.848 50 49.773 48.172 49.969 45.875H50C50 45.812 49.973 45.75 49.969 45.687C49.973 45.625 50 45.562 50 45.5C50 45.129 49.867 44.812 49.781 44.469C51.078 43.367 52 41.829 52 40C52 38.754 51.582 37.637 50.937 36.687C50.973 36.465 51 36.247 51 36C51 33.55 49.176 31.605 46.844 31.187C46.457 29.388 44.91 28 43 28C41.8 28 40.734 28.559 40 29.406C39.266 28.56 38.2 28 37 28ZM37 30C38.117 30 39 30.883 39 32V34C39 35.668 37.668 37 36 37V39C37.133 39 38.16 38.61 39 37.969V48.5C39 49.34 38.34 50 37.5 50C37.1501 50.0049 36.81 49.8848 36.5407 49.6614C36.2714 49.4379 36.0907 49.1258 36.031 48.781L35.844 47.813L34.875 47.969C34.519 48.0252 34.1549 48.0034 33.8082 47.905C33.4614 47.8066 33.1401 47.634 32.8667 47.3992C32.5932 47.1644 32.3741 46.8729 32.2244 46.5449C32.0748 46.217 31.9982 45.8605 32 45.5C32 45.191 32.05 44.902 32.156 44.625C32.164 44.602 32.18 44.585 32.187 44.562C32.497 43.793 33.168 43.23 34 43.062L33.594 41.094C32.5734 41.2956 31.6556 41.8482 31 42.656C30.3498 41.9247 29.9936 40.9785 30 40C29.9983 39.1007 30.3074 38.2285 30.875 37.531L31.188 37.156L31.094 36.656C31.0373 36.4417 31.0058 36.2216 31 36C31 34.332 32.332 33 34 33H35V32C35 30.883 35.883 30 37 30ZM43 30C44.117 30 45 30.883 45 32V33H46C47.668 33 49 34.332 49 36C49 36.215 48.96 36.422 48.906 36.656L48.813 37.156L49.125 37.531C49.6926 38.2285 50.0017 39.1007 50 40C50 41.2 49.488 42.27 48.656 43C47.973 42.395 47.102 42 46.125 42C45.18 42 44.328 42.336 43.656 42.906L44.938 44.438C45.2679 44.1536 45.6895 43.9981 46.125 44C47.09 44 47.859 44.723 47.969 45.656C47.887 46.973 46.836 48 45.5 48C45.41 48 45.3 47.996 45.125 47.969L44.156 47.812L43.969 48.782C43.9091 49.1266 43.7282 49.4385 43.459 49.6618C43.1898 49.885 42.8497 50.0049 42.5 50C41.66 50 41 49.34 41 48.5V37.969C41.8586 38.6348 42.9135 38.9974 44 39V37C42.332 37 41 35.668 41 34V32C41 30.883 41.883 30 43 30Z" fill="#0000FF"/>
</svg>
